G04*
G04 #@! TF.GenerationSoftware,Altium Limited,Altium Designer,21.1.1 (26)*
G04*
G04 Layer_Color=65280*
%FSLAX44Y44*%
%MOMM*%
G71*
G04*
G04 #@! TF.SameCoordinates,DA55104B-334F-46BF-AAC2-A5A3D9E97D21*
G04*
G04*
G04 #@! TF.FilePolarity,Positive*
G04*
G01*
G75*
%ADD10C,0.2500*%
%ADD11C,0.6000*%
%ADD12C,0.3000*%
%ADD13C,0.2000*%
%ADD14C,0.2540*%
%ADD15C,0.1500*%
%ADD16C,0.1270*%
%ADD17C,0.1700*%
D10*
X368720Y34878D02*
G03*
X368720Y34878I-1250J0D01*
G01*
X764208Y57179D02*
G03*
X764208Y57179I-1250J0D01*
G01*
X256774Y747498D02*
G03*
X256774Y747498I-1250J0D01*
G01*
X116058Y741388D02*
G03*
X116058Y741388I-1250J0D01*
G01*
X81006D02*
G03*
X81006Y741388I-1250J0D01*
G01*
X311892Y747992D02*
G03*
X311892Y747992I-1250J0D01*
G01*
X207244Y741388D02*
G03*
X207244Y741388I-1250J0D01*
G01*
X800462Y610958D02*
G03*
X800462Y610958I-1250J0D01*
G01*
Y633733D02*
G03*
X800462Y633733I-1250J0D01*
G01*
Y656509D02*
G03*
X800462Y656509I-1250J0D01*
G01*
Y679284D02*
G03*
X800462Y679284I-1250J0D01*
G01*
X66125Y19000D02*
G03*
X66125Y19000I-1250J0D01*
G01*
X20374Y182085D02*
G03*
X20374Y182085I-1250J0D01*
G01*
X711000Y19000D02*
G03*
X711000Y19000I-1250J0D01*
G01*
X234559Y611894D02*
G03*
X234559Y611894I-1250J0D01*
G01*
X315582Y611717D02*
G03*
X315582Y611717I-1250J0D01*
G01*
X624611Y91790D02*
G03*
X624611Y91790I-1250J0D01*
G01*
X19750Y707750D02*
G03*
X19750Y707750I-1250J0D01*
G01*
X596968Y677922D02*
G03*
X596968Y677922I-1250J0D01*
G01*
X313842Y523594D02*
G03*
X313842Y523594I-1250J0D01*
G01*
X259084Y211304D02*
G03*
X259084Y211304I-1250J0D01*
G01*
X666087Y257770D02*
G03*
X666087Y257770I-1250J0D01*
G01*
X220398Y19470D02*
G03*
X220398Y19470I-1250J0D01*
G01*
D11*
X742708Y67179D02*
G03*
X742708Y67179I-3000J0D01*
G01*
X621968Y667922D02*
G03*
X621968Y667922I-3000J0D01*
G01*
X340092Y510594D02*
G03*
X340092Y510594I-3000J0D01*
G01*
D12*
X356505Y248135D02*
G03*
X356505Y248135I-3455J0D01*
G01*
D13*
X347484Y207304D02*
G03*
X360184Y207304I6350J0D01*
G01*
X668837Y347420D02*
G03*
X668837Y360120I0J6350D01*
G01*
X346970Y27378D02*
X369970D01*
X497970D02*
X521970D01*
Y-16622D02*
Y-13372D01*
Y24128D02*
Y27378D01*
X346970Y-16622D02*
X521970D01*
X346970D02*
Y-13372D01*
Y24128D02*
Y27378D01*
X762109Y20845D02*
Y48927D01*
X780692Y20845D02*
Y48927D01*
X791234Y55458D02*
X819316D01*
X791234Y36875D02*
X819316D01*
X638502Y73805D02*
X658359Y53948D01*
X651641Y86944D02*
X671498Y67087D01*
X701708Y132179D02*
X749707D01*
X701708Y57179D02*
X749707D01*
X701708D02*
Y132179D01*
X749707Y57179D02*
Y132179D01*
X248774Y721998D02*
Y725498D01*
X262274Y721998D02*
Y725498D01*
X108058Y715888D02*
Y719388D01*
X121558Y715888D02*
Y719388D01*
X73006Y715888D02*
Y719388D01*
X86506Y715888D02*
Y719388D01*
X303892Y722492D02*
Y725992D01*
X317392Y722492D02*
Y725992D01*
X199244Y715888D02*
Y719388D01*
X212744Y715888D02*
Y719388D01*
X773712Y617708D02*
X777212D01*
X773712Y604208D02*
X777212D01*
X773712Y640483D02*
X777212D01*
X773712Y626983D02*
X777212D01*
X773712Y663259D02*
X777212D01*
X773712Y649759D02*
X777212D01*
X773712Y686034D02*
X777212D01*
X773712Y672534D02*
X777212D01*
X33750Y-5250D02*
Y-2000D01*
Y-46000D02*
Y-42750D01*
Y-46000D02*
X158750D01*
Y-5250D02*
Y-2000D01*
Y-46000D02*
Y-42750D01*
X135250Y-2000D02*
X158750D01*
X33750D02*
X57250D01*
X-5126Y213210D02*
X-1876D01*
X-45876D02*
X-42626D01*
X-45876Y88210D02*
Y213210D01*
X-5126Y88210D02*
X-1876D01*
X-45876D02*
X-42626D01*
X-1876D02*
Y111710D01*
Y189710D02*
Y213210D01*
X678250Y-2000D02*
X701500D01*
X754500D02*
X777750D01*
Y-46000D02*
Y-42750D01*
Y-5250D02*
Y-2000D01*
X678250Y-46000D02*
X777750D01*
X678250D02*
Y-42750D01*
Y-5250D02*
Y-2000D01*
X228359Y651884D02*
X277359D01*
Y665465D01*
X228359D02*
X277359D01*
X228359Y651884D02*
Y665465D01*
X309382Y651708D02*
X358382D01*
Y665289D01*
X309382D02*
X358382D01*
X309382Y651708D02*
Y665289D01*
X583370Y86840D02*
Y135840D01*
X569790D02*
X583370D01*
X569790Y86840D02*
Y135840D01*
Y86840D02*
X583370D01*
X-5250Y739000D02*
X-2000D01*
X-46000D02*
X-42750D01*
X-46000Y539000D02*
Y739000D01*
X-5250Y539000D02*
X-2000D01*
X-46000D02*
X-42750D01*
X-2000D02*
Y562500D01*
Y715500D02*
Y739000D01*
X608968Y602922D02*
X656968D01*
X608968Y677922D02*
X656968D01*
Y602922D02*
Y677922D01*
X608968Y602922D02*
Y677922D01*
X232728Y266662D02*
X240728D01*
X232728Y282662D02*
X240728D01*
X327092Y337594D02*
Y520594D01*
X510092Y337594D02*
Y520594D01*
X327092D02*
X510092D01*
X327092Y337594D02*
X510092D01*
X25400Y47226D02*
X56896D01*
X25400D02*
Y230720D01*
X56896D01*
Y205574D02*
Y230720D01*
Y47226D02*
Y205574D01*
X525963Y291319D02*
X554045D01*
X525963Y272737D02*
X554045D01*
X468737Y97690D02*
Y125772D01*
X487319Y97690D02*
Y125772D01*
X261767Y298467D02*
Y326549D01*
X243185Y298467D02*
Y326549D01*
X84511Y155683D02*
X112593D01*
X84511Y137101D02*
X112593D01*
X84765Y108439D02*
X112847D01*
X84765Y89857D02*
X112847D01*
X233888Y182190D02*
Y210272D01*
X215305Y182190D02*
Y210272D01*
X214813Y143705D02*
X242895D01*
X214813Y162287D02*
X242895D01*
X287965Y572497D02*
X316047D01*
X287965Y553915D02*
X316047D01*
X596824Y717515D02*
Y745597D01*
X578242Y717515D02*
Y745597D01*
X529697Y663211D02*
Y691293D01*
X548279Y663211D02*
Y691293D01*
X802787Y476775D02*
Y504857D01*
X784205Y476775D02*
Y504857D01*
X820567Y531756D02*
Y559838D01*
X801985Y531756D02*
Y559838D01*
X704851Y210060D02*
Y238142D01*
X723433Y210060D02*
Y238142D01*
X698308Y209821D02*
Y237903D01*
X679726Y209821D02*
Y237903D01*
X84765Y132315D02*
X112847D01*
X84765Y113733D02*
X112847D01*
X525572Y298645D02*
X553654D01*
X525572Y317227D02*
X553654D01*
X84511Y179051D02*
X112593D01*
X84511Y160469D02*
X112593D01*
X213779Y320049D02*
Y348131D01*
X232361Y320049D02*
Y348131D01*
X574143Y691651D02*
Y719733D01*
X555561Y691651D02*
Y719733D01*
X510924Y57929D02*
Y86011D01*
X529506Y57929D02*
Y86011D01*
X412643Y52849D02*
Y80931D01*
X394061Y52849D02*
Y80931D01*
X752455Y212129D02*
Y240211D01*
X771037Y212129D02*
Y240211D01*
X796162Y202455D02*
Y230537D01*
X777580Y202455D02*
Y230537D01*
X552470Y417747D02*
X580592D01*
X552470Y435869D02*
X580592D01*
X547025Y347389D02*
X575147D01*
X547025Y365511D02*
X575147D01*
X290485Y332745D02*
X318607D01*
X290485Y314623D02*
X318607D01*
X269834Y207304D02*
X347484D01*
X360184D02*
X437834D01*
X269834Y86304D02*
X437834D01*
X269834D02*
Y207304D01*
X437834Y86304D02*
Y207304D01*
X668837Y269770D02*
Y347420D01*
Y360120D02*
Y437770D01*
X789837Y269770D02*
Y437770D01*
X668837Y269770D02*
X789837D01*
X668837Y437770D02*
X789837D01*
X727243Y488228D02*
Y548228D01*
X777343Y488228D02*
Y548228D01*
X652435Y488228D02*
Y548228D01*
X702535Y488228D02*
Y548228D01*
X278599Y700118D02*
X292100D01*
X734432Y604100D02*
Y617601D01*
Y627045D02*
Y640545D01*
Y649989D02*
Y663490D01*
Y672934D02*
Y686435D01*
X591932Y55905D02*
Y64033D01*
X605432D01*
Y55905D02*
Y64033D01*
X591932Y55905D02*
X605432D01*
X188148Y-4530D02*
Y-1280D01*
Y-45280D02*
Y-42030D01*
Y-45280D02*
X275148D01*
Y-4530D02*
Y-1280D01*
Y-45280D02*
Y-42030D01*
X251898Y-1280D02*
X275148D01*
X188148D02*
X211398D01*
X49816Y288346D02*
Y291678D01*
Y290012D01*
X39819D01*
X41485Y288346D01*
X49816Y301675D02*
X39819D01*
X44818Y296677D01*
Y303341D01*
X49816Y487990D02*
Y491322D01*
Y489656D01*
X39819D01*
X41485Y487990D01*
X2753Y111414D02*
X4419Y108082D01*
X7752Y104750D01*
X11084D01*
X12750Y106416D01*
Y109748D01*
X11084Y111414D01*
X9418D01*
X7752Y109748D01*
Y104750D01*
X727485Y751479D02*
X720820D01*
Y746480D01*
X724152Y748147D01*
X725818D01*
X727485Y746480D01*
Y743148D01*
X725818Y741482D01*
X722486D01*
X720820Y743148D01*
X730817Y741482D02*
X734149D01*
X732483D01*
Y751479D01*
X730817Y749813D01*
X727485Y824377D02*
X720820D01*
Y819378D01*
X724152Y821044D01*
X725818D01*
X727485Y819378D01*
Y816046D01*
X725818Y814380D01*
X722486D01*
X720820Y816046D01*
X737481Y814380D02*
X730817D01*
X737481Y821044D01*
Y822711D01*
X735815Y824377D01*
X732483D01*
X730817Y822711D01*
X571640Y814380D02*
Y824377D01*
X566642Y819378D01*
X573307D01*
X576639Y822711D02*
X578305Y824377D01*
X581637D01*
X583303Y822711D01*
Y816046D01*
X581637Y814380D01*
X578305D01*
X576639Y816046D01*
Y822711D01*
X440150D02*
X441816Y824377D01*
X445148D01*
X446814Y822711D01*
Y821044D01*
X445148Y819378D01*
X443482D01*
X445148D01*
X446814Y817712D01*
Y816046D01*
X445148Y814380D01*
X441816D01*
X440150Y816046D01*
X450147Y822711D02*
X451813Y824377D01*
X455145D01*
X456811Y822711D01*
Y816046D01*
X455145Y814380D01*
X451813D01*
X450147Y816046D01*
Y822711D01*
X320069Y814380D02*
X313404D01*
X320069Y821044D01*
Y822711D01*
X318402Y824377D01*
X315070D01*
X313404Y822711D01*
X323401D02*
X325067Y824377D01*
X328399D01*
X330065Y822711D01*
Y816046D01*
X328399Y814380D01*
X325067D01*
X323401Y816046D01*
Y822711D01*
X209772Y813872D02*
X213104D01*
X211438D01*
Y823869D01*
X209772Y822203D01*
X218103D02*
X219769Y823869D01*
X223101D01*
X224767Y822203D01*
Y815538D01*
X223101Y813872D01*
X219769D01*
X218103Y815538D01*
Y822203D01*
X19243Y717009D02*
Y720341D01*
Y718675D01*
X9246D01*
X10912Y717009D01*
X19243Y548353D02*
Y551685D01*
Y550019D01*
X9246D01*
X10912Y548353D01*
X19243Y563348D02*
Y556683D01*
X12578Y563348D01*
X10912D01*
X9246Y561682D01*
Y558349D01*
X10912Y556683D01*
X12750Y193500D02*
Y196832D01*
Y195166D01*
X2753D01*
X4419Y193500D01*
X62198Y62885D02*
X68863D01*
Y61219D01*
X62198Y54554D01*
Y52888D01*
X141252Y13863D02*
X137920Y12197D01*
X134588Y8864D01*
Y5532D01*
X136254Y3866D01*
X139586D01*
X141252Y5532D01*
Y7198D01*
X139586Y8864D01*
X134588D01*
X758330Y3866D02*
Y13863D01*
X753332Y8864D01*
X759996D01*
X690848Y4882D02*
X694180D01*
X692514D01*
Y14879D01*
X690848Y13213D01*
X71342Y765612D02*
X74674D01*
X73008D01*
Y775609D01*
X71342Y773943D01*
X62198Y208844D02*
X65530D01*
X63864D01*
Y218841D01*
X62198Y217175D01*
X355060Y34854D02*
X358392D01*
X356726D01*
Y44851D01*
X355060Y43185D01*
X52038Y3866D02*
X55370D01*
X53704D01*
Y13863D01*
X52038Y12197D01*
X712665Y148983D02*
Y140652D01*
X714331Y138986D01*
X717663D01*
X719329Y140652D01*
Y148983D01*
X722661Y138986D02*
X725994D01*
X724328D01*
Y148983D01*
X722661Y147317D01*
X737657Y138986D02*
X730992D01*
X737657Y145651D01*
Y147317D01*
X735991Y148983D01*
X732658D01*
X730992Y147317D01*
X237176Y846080D02*
X233843D01*
X235509D01*
Y837750D01*
X233843Y836084D01*
X232177D01*
X230511Y837750D01*
X247172Y836084D02*
X240508D01*
X247172Y842748D01*
Y844414D01*
X245506Y846080D01*
X242174D01*
X240508Y844414D01*
X257169Y836084D02*
X250504D01*
X257169Y842748D01*
Y844414D01*
X255503Y846080D01*
X252171D01*
X250504Y844414D01*
X791869Y172419D02*
X781872D01*
Y177418D01*
X783538Y179084D01*
X786871D01*
X788537Y177418D01*
Y172419D01*
Y175752D02*
X791869Y179084D01*
Y182416D02*
Y185748D01*
Y184082D01*
X781872D01*
X783538Y182416D01*
X791869Y197411D02*
Y190747D01*
X785205Y197411D01*
X783538D01*
X781872Y195745D01*
Y192413D01*
X783538Y190747D01*
X767252Y180886D02*
X757256D01*
Y185884D01*
X758922Y187551D01*
X762254D01*
X763920Y185884D01*
Y180886D01*
Y184218D02*
X767252Y187551D01*
Y190883D02*
Y194215D01*
Y192549D01*
X757256D01*
X758922Y190883D01*
Y199214D02*
X757256Y200880D01*
Y204212D01*
X758922Y205878D01*
X765586D01*
X767252Y204212D01*
Y200880D01*
X765586Y199214D01*
X758922D01*
X565770Y155806D02*
Y147475D01*
X567436Y145809D01*
X570768D01*
X572434Y147475D01*
Y155806D01*
X575766Y145809D02*
X579099D01*
X577433D01*
Y155806D01*
X575766Y154139D01*
X584097D02*
X585763Y155806D01*
X589095D01*
X590762Y154139D01*
Y147475D01*
X589095Y145809D01*
X585763D01*
X584097Y147475D01*
Y154139D01*
X418542Y60876D02*
Y70872D01*
X423540D01*
X425206Y69206D01*
Y65874D01*
X423540Y64208D01*
X418542D01*
X421874D02*
X425206Y60876D01*
X428539D02*
X431871D01*
X430205D01*
Y70872D01*
X428539Y69206D01*
X443534Y70872D02*
X440202Y69206D01*
X436870Y65874D01*
Y62542D01*
X438536Y60876D01*
X441868D01*
X443534Y62542D01*
Y64208D01*
X441868Y65874D01*
X436870D01*
X504902Y93896D02*
Y103892D01*
X509900D01*
X511567Y102226D01*
Y98894D01*
X509900Y97228D01*
X504902D01*
X508234D02*
X511567Y93896D01*
X514899D02*
X518231D01*
X516565D01*
Y103892D01*
X514899Y102226D01*
X529894Y103892D02*
X523229D01*
Y98894D01*
X526562Y100560D01*
X528228D01*
X529894Y98894D01*
Y95562D01*
X528228Y93896D01*
X524896D01*
X523229Y95562D01*
X555154Y727160D02*
Y737156D01*
X560153D01*
X561819Y735490D01*
Y732158D01*
X560153Y730492D01*
X555154D01*
X558486D02*
X561819Y727160D01*
X565151Y728826D02*
X566817Y727160D01*
X570149D01*
X571815Y728826D01*
Y735490D01*
X570149Y737156D01*
X566817D01*
X565151Y735490D01*
Y733824D01*
X566817Y732158D01*
X571815D01*
X262575Y17532D02*
X259243D01*
X260909D01*
Y9202D01*
X259243Y7536D01*
X257577D01*
X255911Y9202D01*
X270906Y7536D02*
Y17532D01*
X265908Y12534D01*
X272572D01*
X275905Y9202D02*
X277571Y7536D01*
X280903D01*
X282569Y9202D01*
Y15866D01*
X280903Y17532D01*
X277571D01*
X275905Y15866D01*
Y14200D01*
X277571Y12534D01*
X282569D01*
X627193Y33418D02*
Y36750D01*
Y35084D01*
X618862D01*
X617196Y36750D01*
Y38416D01*
X618862Y40082D01*
X617196Y25087D02*
X627193D01*
X622195Y30086D01*
Y23421D01*
X617196Y13424D02*
Y20089D01*
X623861Y13424D01*
X625527D01*
X627193Y15090D01*
Y18423D01*
X625527Y20089D01*
X316169Y7030D02*
X312837D01*
X314503D01*
Y-1300D01*
X312837Y-2966D01*
X311171D01*
X309505Y-1300D01*
X319502Y5364D02*
X321168Y7030D01*
X324500D01*
X326166Y5364D01*
Y3698D01*
X324500Y2032D01*
X322834D01*
X324500D01*
X326166Y366D01*
Y-1300D01*
X324500Y-2966D01*
X321168D01*
X319502Y-1300D01*
X329498Y5364D02*
X331165Y7030D01*
X334497D01*
X336163Y5364D01*
Y3698D01*
X334497Y2032D01*
X336163Y366D01*
Y-1300D01*
X334497Y-2966D01*
X331165D01*
X329498Y-1300D01*
Y366D01*
X331165Y2032D01*
X329498Y3698D01*
Y5364D01*
X331165Y2032D02*
X334497D01*
X487194Y714128D02*
X483862D01*
X485528D01*
Y705798D01*
X483862Y704131D01*
X482196D01*
X480530Y705798D01*
X497191Y704131D02*
X490527D01*
X497191Y710796D01*
Y712462D01*
X495525Y714128D01*
X492193D01*
X490527Y712462D01*
X500523Y705798D02*
X502189Y704131D01*
X505522D01*
X507188Y705798D01*
Y712462D01*
X505522Y714128D01*
X502189D01*
X500523Y712462D01*
Y710796D01*
X502189Y709130D01*
X507188D01*
X179009Y604526D02*
X175677D01*
X177343D01*
Y596196D01*
X175677Y594530D01*
X174011D01*
X172345Y596196D01*
X189006Y594530D02*
X182342D01*
X189006Y601194D01*
Y602860D01*
X187340Y604526D01*
X184008D01*
X182342Y602860D01*
X192339D02*
X194005Y604526D01*
X197337D01*
X199003Y602860D01*
Y601194D01*
X197337Y599528D01*
X199003Y597862D01*
Y596196D01*
X197337Y594530D01*
X194005D01*
X192339Y596196D01*
Y597862D01*
X194005Y599528D01*
X192339Y601194D01*
Y602860D01*
X194005Y599528D02*
X197337D01*
X414667Y714058D02*
X411335D01*
X413001D01*
Y705728D01*
X411335Y704062D01*
X409669D01*
X408003Y705728D01*
X424664Y704062D02*
X418000D01*
X424664Y710726D01*
Y712392D01*
X422998Y714058D01*
X419666D01*
X418000Y712392D01*
X427996D02*
X429663Y714058D01*
X432995D01*
X434661Y712392D01*
Y705728D01*
X432995Y704062D01*
X429663D01*
X427996Y705728D01*
Y712392D01*
X236781Y563897D02*
X233449D01*
X235115D01*
Y555566D01*
X233449Y553900D01*
X231783D01*
X230117Y555566D01*
X240113Y563897D02*
X246778D01*
Y562231D01*
X240113Y555566D01*
Y553900D01*
X213198Y353992D02*
Y363988D01*
X218197D01*
X219863Y362322D01*
Y358990D01*
X218197Y357324D01*
X213198D01*
X216530D02*
X219863Y353992D01*
X223195D02*
X226527D01*
X224861D01*
Y363988D01*
X223195Y362322D01*
X231526Y353992D02*
X234858D01*
X233192D01*
Y363988D01*
X231526Y362322D01*
X51295Y515438D02*
X47963D01*
X49629D01*
Y507108D01*
X47963Y505442D01*
X46297D01*
X44631Y507108D01*
X54628Y513772D02*
X56294Y515438D01*
X59626D01*
X61292Y513772D01*
Y512106D01*
X59626Y510440D01*
X57960D01*
X59626D01*
X61292Y508774D01*
Y507108D01*
X59626Y505442D01*
X56294D01*
X54628Y507108D01*
X64625Y513772D02*
X66291Y515438D01*
X69623D01*
X71289Y513772D01*
Y512106D01*
X69623Y510440D01*
X67957D01*
X69623D01*
X71289Y508774D01*
Y507108D01*
X69623Y505442D01*
X66291D01*
X64625Y507108D01*
X-36820Y234194D02*
X-40152D01*
X-38486D01*
Y225864D01*
X-40152Y224198D01*
X-41818D01*
X-43484Y225864D01*
X-33487Y224198D02*
X-30155D01*
X-31821D01*
Y234194D01*
X-33487Y232528D01*
X-25157Y225864D02*
X-23490Y224198D01*
X-20158D01*
X-18492Y225864D01*
Y232528D01*
X-20158Y234194D01*
X-23490D01*
X-25157Y232528D01*
Y230862D01*
X-23490Y229196D01*
X-18492D01*
X118751Y166286D02*
Y176282D01*
X123749D01*
X125415Y174616D01*
Y171284D01*
X123749Y169618D01*
X118751D01*
X122083D02*
X125415Y166286D01*
X128748Y174616D02*
X130414Y176282D01*
X133746D01*
X135412Y174616D01*
Y172950D01*
X133746Y171284D01*
X132080D01*
X133746D01*
X135412Y169618D01*
Y167952D01*
X133746Y166286D01*
X130414D01*
X128748Y167952D01*
X138744Y174616D02*
X140411Y176282D01*
X143743D01*
X145409Y174616D01*
Y172950D01*
X143743Y171284D01*
X142077D01*
X143743D01*
X145409Y169618D01*
Y167952D01*
X143743Y166286D01*
X140411D01*
X138744Y167952D01*
X559949Y304208D02*
Y314204D01*
X564947D01*
X566614Y312538D01*
Y309206D01*
X564947Y307540D01*
X559949D01*
X563281D02*
X566614Y304208D01*
X574944D02*
Y314204D01*
X569946Y309206D01*
X576610D01*
X579943Y312538D02*
X581609Y314204D01*
X584941D01*
X586607Y312538D01*
Y310872D01*
X584941Y309206D01*
X586607Y307540D01*
Y305874D01*
X584941Y304208D01*
X581609D01*
X579943Y305874D01*
Y307540D01*
X581609Y309206D01*
X579943Y310872D01*
Y312538D01*
X581609Y309206D02*
X584941D01*
X634169Y357784D02*
Y349454D01*
X635835Y347788D01*
X639167D01*
X640833Y349454D01*
Y357784D01*
X644166Y347788D02*
X647498D01*
X645832D01*
Y357784D01*
X644166Y356118D01*
X652496Y357784D02*
X659161D01*
Y356118D01*
X652496Y349454D01*
Y347788D01*
X250698Y230825D02*
Y222494D01*
X252364Y220828D01*
X255697D01*
X257363Y222494D01*
Y230825D01*
X260695Y220828D02*
X264027D01*
X262361D01*
Y230825D01*
X260695Y229159D01*
X269026Y220828D02*
X272358D01*
X270692D01*
Y230825D01*
X269026Y229159D01*
X281880Y529596D02*
Y521266D01*
X283546Y519600D01*
X286878D01*
X288544Y521266D01*
Y529596D01*
X291876Y519600D02*
X295208D01*
X293542D01*
Y529596D01*
X291876Y527930D01*
X118751Y118026D02*
Y128022D01*
X123749D01*
X125415Y126356D01*
Y123024D01*
X123749Y121358D01*
X118751D01*
X122083D02*
X125415Y118026D01*
X128748Y126356D02*
X130414Y128022D01*
X133746D01*
X135412Y126356D01*
Y124690D01*
X133746Y123024D01*
X132080D01*
X133746D01*
X135412Y121358D01*
Y119692D01*
X133746Y118026D01*
X130414D01*
X128748Y119692D01*
X145409Y128022D02*
X138744D01*
Y123024D01*
X142077Y124690D01*
X143743D01*
X145409Y123024D01*
Y119692D01*
X143743Y118026D01*
X140411D01*
X138744Y119692D01*
X687965Y675048D02*
Y685044D01*
X692963D01*
X694630Y683378D01*
Y680046D01*
X692963Y678380D01*
X687965D01*
X691297D02*
X694630Y675048D01*
X704626D02*
X697962D01*
X704626Y681712D01*
Y683378D01*
X702960Y685044D01*
X699628D01*
X697962Y683378D01*
X714623Y685044D02*
X707959D01*
Y680046D01*
X711291Y681712D01*
X712957D01*
X714623Y680046D01*
Y676714D01*
X712957Y675048D01*
X709625D01*
X707959Y676714D01*
X687965Y651172D02*
Y661168D01*
X692963D01*
X694630Y659502D01*
Y656170D01*
X692963Y654504D01*
X687965D01*
X691297D02*
X694630Y651172D01*
X704626D02*
X697962D01*
X704626Y657836D01*
Y659502D01*
X702960Y661168D01*
X699628D01*
X697962Y659502D01*
X712957Y651172D02*
Y661168D01*
X707959Y656170D01*
X714623D01*
X687965Y631666D02*
Y641662D01*
X692963D01*
X694630Y639996D01*
Y636664D01*
X692963Y634998D01*
X687965D01*
X691297D02*
X694630Y631666D01*
X704626D02*
X697962D01*
X704626Y638330D01*
Y639996D01*
X702960Y641662D01*
X699628D01*
X697962Y639996D01*
X707959D02*
X709625Y641662D01*
X712957D01*
X714623Y639996D01*
Y638330D01*
X712957Y636664D01*
X711291D01*
X712957D01*
X714623Y634998D01*
Y633332D01*
X712957Y631666D01*
X709625D01*
X707959Y633332D01*
X687965Y610024D02*
Y620020D01*
X692963D01*
X694630Y618354D01*
Y615022D01*
X692963Y613356D01*
X687965D01*
X691297D02*
X694630Y610024D01*
X704626D02*
X697962D01*
X704626Y616688D01*
Y618354D01*
X702960Y620020D01*
X699628D01*
X697962Y618354D01*
X714623Y610024D02*
X707959D01*
X714623Y616688D01*
Y618354D01*
X712957Y620020D01*
X709625D01*
X707959Y618354D01*
X807040Y674001D02*
X817036D01*
Y679000D01*
X815370Y680666D01*
X808706D01*
X807040Y679000D01*
Y674001D01*
X815370Y683998D02*
X817036Y685664D01*
Y688997D01*
X815370Y690663D01*
X808706D01*
X807040Y688997D01*
Y685664D01*
X808706Y683998D01*
X810372D01*
X812038Y685664D01*
Y690663D01*
X807802Y649363D02*
X817798D01*
Y654362D01*
X816132Y656028D01*
X809468D01*
X807802Y654362D01*
Y649363D01*
X809468Y659360D02*
X807802Y661026D01*
Y664359D01*
X809468Y666025D01*
X811134D01*
X812800Y664359D01*
X814466Y666025D01*
X816132D01*
X817798Y664359D01*
Y661026D01*
X816132Y659360D01*
X814466D01*
X812800Y661026D01*
X811134Y659360D01*
X809468D01*
X812800Y661026D02*
Y664359D01*
X808564Y627773D02*
X818560D01*
Y632772D01*
X816894Y634438D01*
X810230D01*
X808564Y632772D01*
Y627773D01*
Y637770D02*
Y644435D01*
X810230D01*
X816894Y637770D01*
X818560D01*
X808564Y603135D02*
X818560D01*
Y608134D01*
X816894Y609800D01*
X810230D01*
X808564Y608134D01*
Y603135D01*
Y619797D02*
X810230Y616464D01*
X813562Y613132D01*
X816894D01*
X818560Y614798D01*
Y618130D01*
X816894Y619797D01*
X815228D01*
X813562Y618130D01*
Y613132D01*
X176919Y722684D02*
Y712687D01*
X181918D01*
X183584Y714353D01*
Y721018D01*
X181918Y722684D01*
X176919D01*
X186916Y721018D02*
X188582Y722684D01*
X191914D01*
X193580Y721018D01*
Y719352D01*
X191914Y717686D01*
X190248D01*
X191914D01*
X193580Y716020D01*
Y714353D01*
X191914Y712687D01*
X188582D01*
X186916Y714353D01*
X663906Y575570D02*
Y567240D01*
X665572Y565574D01*
X668904D01*
X670571Y567240D01*
Y575570D01*
X673903Y565574D02*
X677235D01*
X675569D01*
Y575570D01*
X673903Y573904D01*
X688898Y575570D02*
X685566Y573904D01*
X682234Y570572D01*
Y567240D01*
X683900Y565574D01*
X687232D01*
X688898Y567240D01*
Y568906D01*
X687232Y570572D01*
X682234D01*
X743916Y575570D02*
Y567240D01*
X745582Y565574D01*
X748914D01*
X750581Y567240D01*
Y575570D01*
X753913Y565574D02*
X757245D01*
X755579D01*
Y575570D01*
X753913Y573904D01*
X768908Y575570D02*
X762243D01*
Y570572D01*
X765576Y572238D01*
X767242D01*
X768908Y570572D01*
Y567240D01*
X767242Y565574D01*
X763910D01*
X762243Y567240D01*
X623875Y595636D02*
Y587306D01*
X625541Y585640D01*
X628874D01*
X630540Y587306D01*
Y595636D01*
X640537D02*
X637204Y593970D01*
X633872Y590638D01*
Y587306D01*
X635538Y585640D01*
X638871D01*
X640537Y587306D01*
Y588972D01*
X638871Y590638D01*
X633872D01*
X324917Y614178D02*
Y605848D01*
X326584Y604182D01*
X329916D01*
X331582Y605848D01*
Y614178D01*
X341579D02*
X334914D01*
Y609180D01*
X338246Y610846D01*
X339912D01*
X341579Y609180D01*
Y605848D01*
X339912Y604182D01*
X336580D01*
X334914Y605848D01*
X240589Y614686D02*
Y606356D01*
X242255Y604690D01*
X245588D01*
X247254Y606356D01*
Y614686D01*
X255585Y604690D02*
Y614686D01*
X250586Y609688D01*
X257251D01*
X694594Y177112D02*
X684597D01*
Y182111D01*
X686264Y183777D01*
X689596D01*
X691262Y182111D01*
Y177112D01*
Y180445D02*
X694594Y183777D01*
Y192107D02*
X684597D01*
X689596Y187109D01*
Y193774D01*
X684597Y203770D02*
X686264Y200438D01*
X689596Y197106D01*
X692928D01*
X694594Y198772D01*
Y202104D01*
X692928Y203770D01*
X691262D01*
X689596Y202104D01*
Y197106D01*
X836086Y535287D02*
X826090D01*
Y540285D01*
X827756Y541952D01*
X831088D01*
X832754Y540285D01*
Y535287D01*
Y538619D02*
X836086Y541952D01*
Y550282D02*
X826090D01*
X831088Y545284D01*
Y551948D01*
X836086Y555281D02*
Y558613D01*
Y556947D01*
X826090D01*
X827756Y555281D01*
X819576Y477233D02*
X809580D01*
Y482231D01*
X811246Y483898D01*
X814578D01*
X816244Y482231D01*
Y477233D01*
Y480565D02*
X819576Y483898D01*
Y492228D02*
X809580D01*
X814578Y487230D01*
Y493894D01*
X811246Y497226D02*
X809580Y498893D01*
Y502225D01*
X811246Y503891D01*
X817910D01*
X819576Y502225D01*
Y498893D01*
X817910Y497226D01*
X811246D01*
X523674Y699812D02*
Y709809D01*
X528673D01*
X530339Y708142D01*
Y704810D01*
X528673Y703144D01*
X523674D01*
X527006D02*
X530339Y699812D01*
X533671D02*
X537003D01*
X535337D01*
Y709809D01*
X533671Y708142D01*
X542002D02*
X543668Y709809D01*
X547000D01*
X548666Y708142D01*
Y706476D01*
X547000Y704810D01*
X548666Y703144D01*
Y701478D01*
X547000Y699812D01*
X543668D01*
X542002Y701478D01*
Y703144D01*
X543668Y704810D01*
X542002Y706476D01*
Y708142D01*
X543668Y704810D02*
X547000D01*
X593008Y690156D02*
X583012D01*
Y695154D01*
X584678Y696821D01*
X588010D01*
X589676Y695154D01*
Y690156D01*
Y693488D02*
X593008Y696821D01*
Y700153D02*
Y703485D01*
Y701819D01*
X583012D01*
X584678Y700153D01*
X593008Y713482D02*
X583012D01*
X588010Y708484D01*
Y715148D01*
X281604Y556653D02*
X271608D01*
Y561652D01*
X273274Y563318D01*
X276606D01*
X278272Y561652D01*
Y556653D01*
Y559986D02*
X281604Y563318D01*
X273274Y566650D02*
X271608Y568316D01*
Y571648D01*
X273274Y573315D01*
X274940D01*
X276606Y571648D01*
X278272Y573315D01*
X279938D01*
X281604Y571648D01*
Y568316D01*
X279938Y566650D01*
X278272D01*
X276606Y568316D01*
X274940Y566650D01*
X273274D01*
X276606Y568316D02*
Y571648D01*
X292290Y663367D02*
X282293D01*
Y668365D01*
X283959Y670032D01*
X287292D01*
X288958Y668365D01*
Y663367D01*
Y666699D02*
X292290Y670032D01*
Y680028D02*
Y673364D01*
X285625Y680028D01*
X283959D01*
X282293Y678362D01*
Y675030D01*
X283959Y673364D01*
X672420Y696821D02*
Y693488D01*
Y695154D01*
X680750D01*
X682416Y693488D01*
Y691822D01*
X680750Y690156D01*
X682416Y700153D02*
Y703485D01*
Y701819D01*
X672420D01*
X674086Y700153D01*
X682416Y713482D02*
X672420D01*
X677418Y708484D01*
Y715148D01*
X647782Y700123D02*
Y696790D01*
Y698456D01*
X656112D01*
X657778Y696790D01*
Y695124D01*
X656112Y693458D01*
X657778Y703455D02*
Y706787D01*
Y705121D01*
X647782D01*
X649448Y703455D01*
Y711786D02*
X647782Y713452D01*
Y716784D01*
X649448Y718450D01*
X651114D01*
X652780Y716784D01*
Y715118D01*
Y716784D01*
X654446Y718450D01*
X656112D01*
X657778Y716784D01*
Y713452D01*
X656112Y711786D01*
X622636Y696821D02*
Y693488D01*
Y695154D01*
X630966D01*
X632632Y693488D01*
Y691822D01*
X630966Y690156D01*
X632632Y700153D02*
Y703485D01*
Y701819D01*
X622636D01*
X624302Y700153D01*
X632632Y715148D02*
Y708484D01*
X625968Y715148D01*
X624302D01*
X622636Y713482D01*
Y710150D01*
X624302Y708484D01*
X603078Y696821D02*
Y693488D01*
Y695154D01*
X611408D01*
X613074Y693488D01*
Y691822D01*
X611408Y690156D01*
X613074Y700153D02*
Y703485D01*
Y701819D01*
X603078D01*
X604744Y700153D01*
X613074Y708483D02*
Y711816D01*
Y710150D01*
X603078D01*
X604744Y708483D01*
X191907Y855363D02*
X188575D01*
X190241D01*
Y847032D01*
X188575Y845366D01*
X186909D01*
X185243Y847032D01*
X201904Y855363D02*
X198572Y853697D01*
X195239Y850364D01*
Y847032D01*
X196905Y845366D01*
X200238D01*
X201904Y847032D01*
Y848698D01*
X200238Y850364D01*
X195239D01*
X142606Y833634D02*
X139274D01*
X140940D01*
Y825304D01*
X139274Y823638D01*
X137607D01*
X135941Y825304D01*
X152603Y833634D02*
X145938D01*
Y828636D01*
X149270Y830302D01*
X150936D01*
X152603Y828636D01*
Y825304D01*
X150936Y823638D01*
X147604D01*
X145938Y825304D01*
X85913Y826455D02*
X82581D01*
X84247D01*
Y818124D01*
X82581Y816458D01*
X80914D01*
X79248Y818124D01*
X89245Y824789D02*
X90911Y826455D01*
X94243D01*
X95910Y824789D01*
Y823122D01*
X94243Y821456D01*
X92577D01*
X94243D01*
X95910Y819790D01*
Y818124D01*
X94243Y816458D01*
X90911D01*
X89245Y818124D01*
X324044Y730256D02*
Y720260D01*
X329042D01*
X330708Y721926D01*
Y728590D01*
X329042Y730256D01*
X324044D01*
X334040Y720260D02*
X337373D01*
X335706D01*
Y730256D01*
X334040Y728590D01*
X71933Y695712D02*
Y685716D01*
X76932D01*
X78598Y687382D01*
Y694046D01*
X76932Y695712D01*
X71933D01*
X88595D02*
X81930D01*
Y690714D01*
X85262Y692380D01*
X86929D01*
X88595Y690714D01*
Y687382D01*
X86929Y685716D01*
X83596D01*
X81930Y687382D01*
X106731Y695712D02*
Y685716D01*
X111730D01*
X113396Y687382D01*
Y694046D01*
X111730Y695712D01*
X106731D01*
X121727Y685716D02*
Y695712D01*
X116728Y690714D01*
X123393D01*
X266319Y737833D02*
Y727836D01*
X271318D01*
X272984Y729502D01*
Y736167D01*
X271318Y737833D01*
X266319D01*
X282980Y727836D02*
X276316D01*
X282980Y734500D01*
Y736167D01*
X281314Y737833D01*
X277982D01*
X276316Y736167D01*
X424882Y271786D02*
Y270120D01*
X428214Y266788D01*
X431546Y270120D01*
Y271786D01*
X428214Y266788D02*
Y261790D01*
X434878D02*
X438210D01*
X436544D01*
Y271786D01*
X434878Y270120D01*
X180981Y146474D02*
Y156470D01*
X185979D01*
X187645Y154804D01*
Y151472D01*
X185979Y149806D01*
X180981D01*
X184313D02*
X187645Y146474D01*
X190978Y154804D02*
X192644Y156470D01*
X195976D01*
X197642Y154804D01*
Y153138D01*
X195976Y151472D01*
X194310D01*
X195976D01*
X197642Y149806D01*
Y148140D01*
X195976Y146474D01*
X192644D01*
X190978Y148140D01*
X200975D02*
X202641Y146474D01*
X205973D01*
X207639Y148140D01*
Y154804D01*
X205973Y156470D01*
X202641D01*
X200975Y154804D01*
Y153138D01*
X202641Y151472D01*
X207639D01*
X182057Y193147D02*
Y203144D01*
X187056D01*
X188722Y201478D01*
Y198146D01*
X187056Y196479D01*
X182057D01*
X185390D02*
X188722Y193147D01*
X192054Y201478D02*
X193720Y203144D01*
X197053D01*
X198719Y201478D01*
Y199812D01*
X197053Y198146D01*
X195387D01*
X197053D01*
X198719Y196479D01*
Y194813D01*
X197053Y193147D01*
X193720D01*
X192054Y194813D01*
X202051Y201478D02*
X203717Y203144D01*
X207049D01*
X208715Y201478D01*
Y199812D01*
X207049Y198146D01*
X208715Y196479D01*
Y194813D01*
X207049Y193147D01*
X203717D01*
X202051Y194813D01*
Y196479D01*
X203717Y198146D01*
X202051Y199812D01*
Y201478D01*
X203717Y198146D02*
X207049D01*
X118751Y94150D02*
Y104146D01*
X123749D01*
X125415Y102480D01*
Y99148D01*
X123749Y97482D01*
X118751D01*
X122083D02*
X125415Y94150D01*
X128748Y102480D02*
X130414Y104146D01*
X133746D01*
X135412Y102480D01*
Y100814D01*
X133746Y99148D01*
X132080D01*
X133746D01*
X135412Y97482D01*
Y95816D01*
X133746Y94150D01*
X130414D01*
X128748Y95816D01*
X145409Y104146D02*
X142077Y102480D01*
X138744Y99148D01*
Y95816D01*
X140411Y94150D01*
X143743D01*
X145409Y95816D01*
Y97482D01*
X143743Y99148D01*
X138744D01*
X118497Y140632D02*
Y150628D01*
X123495D01*
X125162Y148962D01*
Y145630D01*
X123495Y143964D01*
X118497D01*
X121829D02*
X125162Y140632D01*
X128494Y148962D02*
X130160Y150628D01*
X133492D01*
X135158Y148962D01*
Y147296D01*
X133492Y145630D01*
X131826D01*
X133492D01*
X135158Y143964D01*
Y142298D01*
X133492Y140632D01*
X130160D01*
X128494Y142298D01*
X143489Y140632D02*
Y150628D01*
X138490Y145630D01*
X145155D01*
X239909Y331640D02*
Y341636D01*
X244907D01*
X246574Y339970D01*
Y336638D01*
X244907Y334972D01*
X239909D01*
X243241D02*
X246574Y331640D01*
X249906Y339970D02*
X251572Y341636D01*
X254904D01*
X256570Y339970D01*
Y338304D01*
X254904Y336638D01*
X253238D01*
X254904D01*
X256570Y334972D01*
Y333306D01*
X254904Y331640D01*
X251572D01*
X249906Y333306D01*
X259902Y339970D02*
X261569Y341636D01*
X264901D01*
X266567Y339970D01*
Y333306D01*
X264901Y331640D01*
X261569D01*
X259902Y333306D01*
Y339970D01*
X471811Y134536D02*
Y144532D01*
X476809D01*
X478475Y142866D01*
Y139534D01*
X476809Y137868D01*
X471811D01*
X475143D02*
X478475Y134536D01*
X488472D02*
X481808D01*
X488472Y141200D01*
Y142866D01*
X486806Y144532D01*
X483474D01*
X481808Y142866D01*
X491805Y136202D02*
X493471Y134536D01*
X496803D01*
X498469Y136202D01*
Y142866D01*
X496803Y144532D01*
X493471D01*
X491805Y142866D01*
Y141200D01*
X493471Y139534D01*
X498469D01*
X527437Y256964D02*
Y266960D01*
X532435D01*
X534101Y265294D01*
Y261962D01*
X532435Y260296D01*
X527437D01*
X530769D02*
X534101Y256964D01*
X544098D02*
X537434D01*
X544098Y263628D01*
Y265294D01*
X542432Y266960D01*
X539100D01*
X537434Y265294D01*
X547430D02*
X549097Y266960D01*
X552429D01*
X554095Y265294D01*
Y263628D01*
X552429Y261962D01*
X554095Y260296D01*
Y258630D01*
X552429Y256964D01*
X549097D01*
X547430Y258630D01*
Y260296D01*
X549097Y261962D01*
X547430Y263628D01*
Y265294D01*
X549097Y261962D02*
X552429D01*
X34738Y240200D02*
Y250196D01*
X39736D01*
X41402Y248530D01*
Y245198D01*
X39736Y243532D01*
X34738D01*
X44734Y240200D02*
X48067D01*
X46400D01*
Y250196D01*
X44734Y248530D01*
X38674Y39208D02*
X35341D01*
X37008D01*
Y30878D01*
X35341Y29212D01*
X33675D01*
X32009Y30878D01*
X42006Y37542D02*
X43672Y39208D01*
X47004D01*
X48670Y37542D01*
Y35876D01*
X47004Y34210D01*
X45338D01*
X47004D01*
X48670Y32544D01*
Y30878D01*
X47004Y29212D01*
X43672D01*
X42006Y30878D01*
X52003Y29212D02*
X55335D01*
X53669D01*
Y39208D01*
X52003Y37542D01*
X642306Y-23870D02*
X638973D01*
X640639D01*
Y-32200D01*
X638973Y-33866D01*
X637307D01*
X635641Y-32200D01*
X652302Y-33866D02*
X645638D01*
X652302Y-27202D01*
Y-25536D01*
X650636Y-23870D01*
X647304D01*
X645638Y-25536D01*
X660633Y-33866D02*
Y-23870D01*
X655635Y-28868D01*
X662299D01*
X140066Y751338D02*
X136734D01*
X138400D01*
Y743008D01*
X136734Y741342D01*
X135068D01*
X133401Y743008D01*
X148397Y741342D02*
Y751338D01*
X143398Y746340D01*
X150063D01*
X201138Y270426D02*
X199472Y268759D01*
Y265427D01*
X201138Y263761D01*
X207802D01*
X209468Y265427D01*
Y268759D01*
X207802Y270426D01*
X209468Y278756D02*
X199472D01*
X204470Y273758D01*
Y280422D01*
X209468Y283755D02*
Y287087D01*
Y285421D01*
X199472D01*
X201138Y283755D01*
X296798Y308696D02*
X295132Y310362D01*
X291800D01*
X290134Y308696D01*
Y302031D01*
X291800Y300365D01*
X295132D01*
X296798Y302031D01*
X306795Y300365D02*
X300131D01*
X306795Y307030D01*
Y308696D01*
X305129Y310362D01*
X301797D01*
X300131Y308696D01*
X310127D02*
X311793Y310362D01*
X315126D01*
X316792Y308696D01*
Y307030D01*
X315126Y305364D01*
X313460D01*
X315126D01*
X316792Y303697D01*
Y302031D01*
X315126Y300365D01*
X311793D01*
X310127Y302031D01*
X555000Y379848D02*
X553334Y381514D01*
X550002D01*
X548336Y379848D01*
Y373184D01*
X550002Y371518D01*
X553334D01*
X555000Y373184D01*
X558333Y371518D02*
X561665D01*
X559999D01*
Y381514D01*
X558333Y379848D01*
X573328Y381514D02*
X569996Y379848D01*
X566664Y376516D01*
Y373184D01*
X568330Y371518D01*
X571662D01*
X573328Y373184D01*
Y374850D01*
X571662Y376516D01*
X566664D01*
X562722Y451730D02*
X561056Y453396D01*
X557724D01*
X556057Y451730D01*
Y445066D01*
X557724Y443400D01*
X561056D01*
X562722Y445066D01*
X572719Y453396D02*
X566054D01*
Y448398D01*
X569386Y450064D01*
X571053D01*
X572719Y448398D01*
Y445066D01*
X571053Y443400D01*
X567720D01*
X566054Y445066D01*
D14*
X725993Y478228D02*
G03*
X725993Y478228I-3000J0D01*
G01*
X651185D02*
G03*
X651185Y478228I-3000J0D01*
G01*
X740200Y757300D02*
Y808100D01*
X79800Y757300D02*
Y808100D01*
X740200D01*
X79800Y757300D02*
X740200D01*
X362080Y236653D02*
X365890Y232843D01*
X362080Y236653D02*
Y291771D01*
X415166D01*
X365890Y232843D02*
X415166D01*
Y291771D01*
X330052Y56945D02*
Y66942D01*
X335051D01*
X336717Y65276D01*
Y61943D01*
X335051Y60277D01*
X330052D01*
X333385D02*
X336717Y56945D01*
X346714Y65276D02*
X345048Y66942D01*
X341715D01*
X340049Y65276D01*
Y63609D01*
X341715Y61943D01*
X345048D01*
X346714Y60277D01*
Y58611D01*
X345048Y56945D01*
X341715D01*
X340049Y58611D01*
X350046Y61943D02*
X356711D01*
X365041Y56945D02*
Y66942D01*
X360043Y61943D01*
X366707D01*
X376704Y56945D02*
X370040D01*
X376704Y63609D01*
Y65276D01*
X375038Y66942D01*
X371706D01*
X370040Y65276D01*
X386701Y56945D02*
X380036D01*
X386701Y63609D01*
Y65276D01*
X385035Y66942D01*
X381702D01*
X380036Y65276D01*
X158242Y49612D02*
X168399D01*
X163320D01*
Y34377D01*
X183634Y49612D02*
X173477D01*
Y34377D01*
X183634D01*
X173477Y41995D02*
X178555D01*
X188712Y34377D02*
Y49612D01*
X193790Y44534D01*
X198869Y49612D01*
Y34377D01*
X203947D02*
Y49612D01*
X211565D01*
X214104Y47073D01*
Y41995D01*
X211565Y39455D01*
X203947D01*
X219182Y31838D02*
X229339D01*
X244574Y47073D02*
X242035Y49612D01*
X236957D01*
X234417Y47073D01*
Y44534D01*
X236957Y41995D01*
X242035D01*
X244574Y39455D01*
Y36916D01*
X242035Y34377D01*
X236957D01*
X234417Y36916D01*
X259809Y49612D02*
X249652D01*
Y34377D01*
X259809D01*
X249652Y41995D02*
X254731D01*
X264888Y34377D02*
Y49612D01*
X275044Y34377D01*
Y49612D01*
X290279Y47073D02*
X287740Y49612D01*
X282662D01*
X280123Y47073D01*
Y44534D01*
X282662Y41995D01*
X287740D01*
X290279Y39455D01*
Y36916D01*
X287740Y34377D01*
X282662D01*
X280123Y36916D01*
X305514Y49612D02*
X295358D01*
Y34377D01*
X305514D01*
X295358Y41995D02*
X300436D01*
X310593Y34377D02*
X315671D01*
X313132D01*
Y49612D01*
X310593Y47073D01*
X66850Y368103D02*
X51615D01*
Y375721D01*
X54155Y378260D01*
X59233D01*
X61772Y375721D01*
Y368103D01*
X56694Y383338D02*
X66850D01*
X61772D01*
X59233Y385878D01*
X56694Y388417D01*
Y390956D01*
X66850Y401113D02*
Y406191D01*
X64311Y408730D01*
X59233D01*
X56694Y406191D01*
Y401113D01*
X59233Y398573D01*
X64311D01*
X66850Y401113D01*
X51615Y413809D02*
X66850D01*
Y421426D01*
X64311Y423965D01*
X61772D01*
X59233D01*
X56694Y421426D01*
Y413809D01*
X66850Y436661D02*
Y431583D01*
X64311Y429044D01*
X59233D01*
X56694Y431583D01*
Y436661D01*
X59233Y439200D01*
X61772D01*
Y429044D01*
X85952Y37294D02*
X83413Y39833D01*
X78335D01*
X75795Y37294D01*
Y34754D01*
X78335Y32215D01*
X83413D01*
X85952Y29676D01*
Y27137D01*
X83413Y24598D01*
X78335D01*
X75795Y27137D01*
X91031Y24598D02*
Y39833D01*
X98648D01*
X101187Y37294D01*
Y32215D01*
X98648Y29676D01*
X91031D01*
X96109D02*
X101187Y24598D01*
X106265D02*
Y34754D01*
X111344Y39833D01*
X116422Y34754D01*
Y24598D01*
Y32215D01*
X106265D01*
X121501Y24598D02*
Y39833D01*
X126579Y34754D01*
X131657Y39833D01*
Y24598D01*
X-21085Y263989D02*
X-26164D01*
X-23624D01*
Y251293D01*
X-26164Y248754D01*
X-28703D01*
X-31242Y251293D01*
X-16007Y263989D02*
X-5850D01*
X-10929D01*
Y248754D01*
X-772D02*
Y258911D01*
X4306Y263989D01*
X9385Y258911D01*
Y248754D01*
Y256371D01*
X-772D01*
X24620Y261450D02*
X22081Y263989D01*
X17002D01*
X14463Y261450D01*
Y251293D01*
X17002Y248754D01*
X22081D01*
X24620Y251293D01*
Y256371D01*
X19542D01*
X48912Y548967D02*
X33677D01*
Y556585D01*
X36216Y559124D01*
X41294D01*
X43834Y556585D01*
Y548967D01*
Y554045D02*
X48912Y559124D01*
X38755Y566741D02*
Y571820D01*
X41294Y574359D01*
X48912D01*
Y566741D01*
X46373Y564202D01*
X43834Y566741D01*
Y574359D01*
X48912Y579437D02*
Y587055D01*
X46373Y589594D01*
X43834Y587055D01*
Y581977D01*
X41294Y579437D01*
X38755Y581977D01*
Y589594D01*
X53990Y594672D02*
X38755D01*
Y602290D01*
X41294Y604829D01*
X46373D01*
X48912Y602290D01*
Y594672D01*
X33677Y609907D02*
X48912D01*
Y617525D01*
X46373Y620064D01*
X43834D01*
X41294D01*
X38755Y617525D01*
Y609907D01*
X48912Y632760D02*
Y627682D01*
X46373Y625143D01*
X41294D01*
X38755Y627682D01*
Y632760D01*
X41294Y635299D01*
X43834D01*
Y625143D01*
X38755Y640378D02*
X48912D01*
X43834D01*
X41294Y642917D01*
X38755Y645456D01*
Y647995D01*
Y655613D02*
X48912D01*
X43834D01*
X41294Y658152D01*
X38755Y660691D01*
Y663230D01*
Y670848D02*
X46373D01*
X48912Y673387D01*
Y681004D01*
X51451D01*
X53990Y678465D01*
Y675926D01*
X48912Y681004D02*
X38755D01*
X51451Y686083D02*
Y696239D01*
X48912Y701318D02*
X33677D01*
Y708935D01*
X36216Y711475D01*
X41294D01*
X43834Y708935D01*
Y701318D01*
X48912Y716553D02*
Y721631D01*
Y719092D01*
X38755D01*
Y716553D01*
X692387Y39756D02*
X689848Y42296D01*
X684769D01*
X682230Y39756D01*
Y29600D01*
X684769Y27060D01*
X689848D01*
X692387Y29600D01*
X697465Y27060D02*
Y37217D01*
X702544Y42296D01*
X707622Y37217D01*
Y27060D01*
Y34678D01*
X697465D01*
X712700Y27060D02*
Y42296D01*
X717779Y37217D01*
X722857Y42296D01*
Y27060D01*
X727935D02*
X733014D01*
X730475D01*
Y42296D01*
X727935Y39756D01*
X747580Y49154D02*
X757576D01*
Y44156D01*
X755910Y42489D01*
X752578D01*
X750912Y44156D01*
Y49154D01*
Y45822D02*
X747580Y42489D01*
Y34159D02*
X757576D01*
X752578Y39157D01*
Y32493D01*
X757576Y22496D02*
Y29160D01*
X752578D01*
X754244Y25828D01*
Y24162D01*
X752578Y22496D01*
X749246D01*
X747580Y24162D01*
Y27494D01*
X749246Y29160D01*
X632963Y58049D02*
X640031Y65117D01*
X643566Y61583D01*
Y59227D01*
X641209Y56870D01*
X638853D01*
X635319Y60405D01*
X637675Y58049D02*
Y53336D01*
X643566Y47446D02*
X650635Y54514D01*
X643566D01*
X648278Y49802D01*
X650635Y40377D02*
X657703Y47446D01*
X650635D01*
X655347Y42733D01*
X825887Y40556D02*
Y50552D01*
X830885D01*
X832551Y48886D01*
Y45554D01*
X830885Y43888D01*
X825887D01*
X829219D02*
X832551Y40556D01*
X840882D02*
Y50552D01*
X835884Y45554D01*
X842548D01*
X845881Y48886D02*
X847547Y50552D01*
X850879D01*
X852545Y48886D01*
Y47220D01*
X850879Y45554D01*
X849213D01*
X850879D01*
X852545Y43888D01*
Y42222D01*
X850879Y40556D01*
X847547D01*
X845881Y42222D01*
X593172Y35170D02*
X591506Y36836D01*
X588173D01*
X586507Y35170D01*
Y28506D01*
X588173Y26840D01*
X591506D01*
X593172Y28506D01*
X603168Y36836D02*
X596504D01*
Y31838D01*
X599836Y33504D01*
X601502D01*
X603168Y31838D01*
Y28506D01*
X601502Y26840D01*
X598170D01*
X596504Y28506D01*
X606501Y26840D02*
X609833D01*
X608167D01*
Y36836D01*
X606501Y35170D01*
D15*
X134907Y711813D02*
Y735943D01*
X149907Y711783D02*
Y735913D01*
X176042Y816767D02*
Y840897D01*
X161042Y816797D02*
Y840927D01*
X200958Y816767D02*
Y840897D01*
X185958Y816797D02*
Y840927D01*
X616079Y723004D02*
Y747134D01*
X601079Y723034D02*
Y747164D01*
X635896Y723450D02*
Y747580D01*
X620896Y723480D02*
Y747610D01*
X660788Y723196D02*
Y747326D01*
X645788Y723226D02*
Y747356D01*
X684200Y722894D02*
Y747024D01*
X669200Y722924D02*
Y747054D01*
X228630Y584168D02*
X252760D01*
X228600Y569168D02*
X252730D01*
X456294Y698524D02*
Y722654D01*
X441294Y698554D02*
Y722684D01*
X194444Y614738D02*
Y638868D01*
X179444Y614768D02*
Y638898D01*
X475010Y698524D02*
Y722654D01*
X460010Y698554D02*
Y722684D01*
X614552Y44313D02*
Y68443D01*
X629552Y44282D02*
Y68412D01*
X230973Y814238D02*
X255103D01*
X231003Y829238D02*
X255133D01*
D16*
X31210Y282940D02*
Y307740D01*
Y484640D02*
Y509440D01*
X-20790Y282940D02*
Y509440D01*
X18210D02*
X31210D01*
X18210Y282940D02*
X31210D01*
X51730Y474720D02*
Y480720D01*
X46730Y477720D02*
X51730Y474720D01*
X46730Y477720D02*
X51730Y480720D01*
X-20790Y509440D02*
X-18290D01*
X-20790Y282940D02*
X-18290D01*
D17*
X735838Y176295D02*
X727841D01*
Y180294D01*
X729174Y181626D01*
X731839D01*
X733172Y180294D01*
Y176295D01*
Y178961D02*
X735838Y181626D01*
X727841Y184292D02*
X733172D01*
X735838Y186958D01*
X733172Y189624D01*
X727841D01*
X729174Y197621D02*
X727841Y196289D01*
Y193623D01*
X729174Y192290D01*
X734505D01*
X735838Y193623D01*
Y196289D01*
X734505Y197621D01*
X729174Y205619D02*
X727841Y204286D01*
Y201620D01*
X729174Y200287D01*
X734505D01*
X735838Y201620D01*
Y204286D01*
X734505Y205619D01*
X737171Y208285D02*
Y213616D01*
X727841Y220281D02*
Y217615D01*
X729174Y216282D01*
X734505D01*
X735838Y217615D01*
Y220281D01*
X734505Y221614D01*
X729174D01*
X727841Y220281D01*
Y224279D02*
X734505D01*
X735838Y225612D01*
Y228278D01*
X734505Y229611D01*
X727841D01*
Y232277D02*
Y237608D01*
Y234943D01*
X735838D01*
M02*
