M48
;Layer_Color=9474304
;FILE_FORMAT=4:4
METRIC,LZ
T7F00S00C3.0000
%
G90
G05
T07
G00X00863863Y-00064494
M15
G01X00867465Y-00063011
G01X00870607Y-00060607
G01X00880607Y-00050607
G01X0088298Y-00047518
G01X00884478Y-00043922
G01X00885Y-0004
G01X00884904Y00296696
G01X00884524Y00300036
G01X00883777Y00303297
G01X00882667Y00306467
G01X0088122Y00309476
G01X0087944Y00312316
G01X00877336Y00314957
G01X00874956Y00317337
G01X00872316Y0031944
G01X00869476Y0032122
G01X00866467Y00322667
G01X00863297Y00323777
G01X00860036Y00324524
G01X0086Y00324527
G01X0086Y00495472
G01X00860036Y00495476
G01X00863298Y00496223
G01X00866468Y00497333
G01X00869476Y0049878
G01X00872316Y0050056
G01X00874956Y00502663
G01X00877336Y00505043
G01X0087944Y00507684
G01X0088122Y00510524
G01X00882667Y00513533
G01X00883777Y00516703
G01X00884524Y00519964
G01X00885Y00525
G01X00885Y0086
G01X00884494Y00863863
G01X00883011Y00867465
G01X00880607Y00870606
G01X00870607Y00880606
G01X00867518Y0088298
G01X00863922Y00884478
G01X0086Y00885
G01X00523304Y00884904
G01X00519964Y00884524
G01X00516703Y00883777
G01X00513532Y00882667
G01X00510524Y0088122
G01X00507684Y0087944
G01X00505043Y00877336
G01X00502664Y00874957
G01X0050056Y00872316
G01X0049878Y00869476
G01X00497333Y00866468
G01X00496223Y00863297
G01X00495476Y00860036
G01X00495473Y0086
G01X00324528Y0086
G01X00324524Y00860036
G01X00323777Y00863297
G01X00322667Y00866468
G01X0032122Y00869476
G01X0031944Y00872316
G01X00317336Y00874957
G01X00314957Y00877336
G01X00312316Y0087944
G01X00309476Y0088122
G01X00306467Y00882667
G01X00303297Y00883777
G01X00300036Y00884524
G01X00295Y00885
G01X-0004Y00885
G01X-00043863Y00884494
G01X-00047465Y00883011
G01X-00050607Y00880607
G01X-00060607Y00870606
G01X-0006298Y00867518
G01X-00064478Y00863922
G01X-00065Y0086
G01X-00064904Y00523304
G01X-00064524Y00519964
G01X-00063777Y00516703
G01X-00062667Y00513533
G01X-0006122Y00510524
G01X-0005944Y00507684
G01X-00057336Y00505043
G01X-00054956Y00502663
G01X-00052316Y0050056
G01X-00049476Y0049878
G01X-00046468Y00497333
G01X-00043298Y00496223
G01X-00040036Y00495476
G01X-0004Y00495473
G01X-0004Y00324528
G01X-00040036Y00324524
G01X-00043297Y00323777
G01X-00046467Y00322667
G01X-00049476Y0032122
G01X-00052316Y0031944
G01X-00054957Y00317336
G01X-00057337Y00314956
G01X-0005944Y00312316
G01X-0006122Y00309476
G01X-00062667Y00306467
G01X-00063777Y00303297
G01X-00064524Y00300036
G01X-00065Y00295
G01X-00065Y-0004
G01X-00064494Y-00043863
G01X-00063011Y-00047465
G01X-00060607Y-00050607
G01X-00050607Y-00060607
G01X-00047518Y-0006298
G01X-00043922Y-00064478
G01X-0004Y-00065
G01X00296696Y-00064904
G01X00300036Y-00064524
G01X00303297Y-00063777
G01X00306467Y-00062667
G01X00309476Y-0006122
G01X00312316Y-0005944
G01X00314957Y-00057336
G01X00317337Y-00054956
G01X0031944Y-00052316
G01X0032122Y-00049476
G01X00322667Y-00046468
G01X00323777Y-00043298
G01X00324524Y-00040036
G01X00324527Y-0004
G01X00495472Y-0004
G01X00495476Y-00040036
G01X00496223Y-00043298
G01X00497333Y-00046468
G01X0049878Y-00049476
G01X0050056Y-00052316
G01X00502663Y-00054956
G01X00505043Y-00057336
G01X00507684Y-0005944
G01X00510524Y-0006122
G01X00513533Y-00062667
G01X00516703Y-00063777
G01X00519964Y-00064524
G01X00525Y-00065
G01X0086Y-00065
G01X00863863Y-00064494
M16
M17
M30
