G04*
G04 #@! TF.GenerationSoftware,Altium Limited,Altium Designer,21.1.1 (26)*
G04*
G04 Layer_Color=8421504*
%FSLAX44Y44*%
%MOMM*%
G71*
G04*
G04 #@! TF.SameCoordinates,DA55104B-334F-46BF-AAC2-A5A3D9E97D21*
G04*
G04*
G04 #@! TF.FilePolarity,Positive*
G04*
G01*
G75*
%ADD18R,0.8000X1.6000*%
%ADD19R,2.1000X3.0000*%
%ADD20R,1.0582X1.2061*%
%ADD21R,1.2061X1.0582*%
G04:AMPARAMS|DCode=22|XSize=1.2061mm|YSize=1.0582mm|CornerRadius=0mm|HoleSize=0mm|Usage=FLASHONLY|Rotation=135.000|XOffset=0mm|YOffset=0mm|HoleType=Round|Shape=Rectangle|*
%AMROTATEDRECTD22*
4,1,4,0.8005,-0.0523,0.0523,-0.8005,-0.8005,0.0523,-0.0523,0.8005,0.8005,-0.0523,0.0*
%
%ADD22ROTATEDRECTD22*%

G04:AMPARAMS|DCode=23|XSize=0.45mm|YSize=1.85mm|CornerRadius=0.0495mm|HoleSize=0mm|Usage=FLASHONLY|Rotation=270.000|XOffset=0mm|YOffset=0mm|HoleType=Round|Shape=RoundedRectangle|*
%AMROUNDEDRECTD23*
21,1,0.4500,1.7510,0,0,270.0*
21,1,0.3510,1.8500,0,0,270.0*
1,1,0.0990,-0.8755,-0.1755*
1,1,0.0990,-0.8755,0.1755*
1,1,0.0990,0.8755,0.1755*
1,1,0.0990,0.8755,-0.1755*
%
%ADD23ROUNDEDRECTD23*%
%ADD24R,1.1000X1.2500*%
%ADD25R,1.2500X1.1000*%
%ADD26R,1.6000X0.8000*%
%ADD27R,3.0000X2.1000*%
G04:AMPARAMS|DCode=28|XSize=2.4741mm|YSize=0.6221mm|CornerRadius=0.3111mm|HoleSize=0mm|Usage=FLASHONLY|Rotation=90.000|XOffset=0mm|YOffset=0mm|HoleType=Round|Shape=RoundedRectangle|*
%AMROUNDEDRECTD28*
21,1,2.4741,0.0000,0,0,90.0*
21,1,1.8519,0.6221,0,0,90.0*
1,1,0.6221,0.0000,0.9260*
1,1,0.6221,0.0000,-0.9260*
1,1,0.6221,0.0000,-0.9260*
1,1,0.6221,0.0000,0.9260*
%
%ADD28ROUNDEDRECTD28*%
%ADD29R,0.6221X2.4741*%
G04:AMPARAMS|DCode=30|XSize=2.4741mm|YSize=0.6221mm|CornerRadius=0.3111mm|HoleSize=0mm|Usage=FLASHONLY|Rotation=180.000|XOffset=0mm|YOffset=0mm|HoleType=Round|Shape=RoundedRectangle|*
%AMROUNDEDRECTD30*
21,1,2.4741,0.0000,0,0,180.0*
21,1,1.8519,0.6221,0,0,180.0*
1,1,0.6221,-0.9260,0.0000*
1,1,0.6221,0.9260,0.0000*
1,1,0.6221,0.9260,0.0000*
1,1,0.6221,-0.9260,0.0000*
%
%ADD30ROUNDEDRECTD30*%
%ADD31R,2.4741X0.6221*%
%ADD32R,1.6000X2.0000*%
%ADD33R,1.3000X1.8000*%
%ADD34O,2.1000X0.3000*%
%ADD35O,0.3000X2.1000*%
%ADD36R,1.2087X1.0121*%
%ADD37R,1.6000X0.3000*%
%ADD38R,0.3000X1.6000*%
%ADD39R,1.0000X1.0000*%
%ADD40R,1.0000X1.0000*%
%ADD41R,2.1000X2.1000*%
%ADD42R,0.5000X1.5000*%
%ADD43R,1.1000X1.2000*%
%ADD44R,1.2000X1.1000*%
%ADD45R,1.3000X1.0500*%
D18*
X377720Y34378D02*
D03*
X390220D02*
D03*
X402720D02*
D03*
X415220D02*
D03*
X427720D02*
D03*
X440220D02*
D03*
X452720D02*
D03*
X465220D02*
D03*
X477720D02*
D03*
X490220D02*
D03*
X127500Y5000D02*
D03*
X115000D02*
D03*
X102500D02*
D03*
X90000D02*
D03*
X77500D02*
D03*
X65000D02*
D03*
X709250D02*
D03*
X721750D02*
D03*
X734250D02*
D03*
X746750D02*
D03*
X244148Y5720D02*
D03*
X231648D02*
D03*
X219148D02*
D03*
D19*
X352220Y5378D02*
D03*
X515720D02*
D03*
X153000Y-24000D02*
D03*
X39500D02*
D03*
X683750D02*
D03*
X772250D02*
D03*
X269648Y-23280D02*
D03*
X193648D02*
D03*
D20*
X771400Y42897D02*
D03*
Y26875D02*
D03*
X478028Y119742D02*
D03*
Y103720D02*
D03*
X252476Y304497D02*
D03*
Y320519D02*
D03*
X224597Y188220D02*
D03*
Y204242D02*
D03*
X587533Y723545D02*
D03*
Y739567D02*
D03*
X538988Y685263D02*
D03*
Y669241D02*
D03*
X793496Y482805D02*
D03*
Y498827D02*
D03*
X811276Y537786D02*
D03*
Y553808D02*
D03*
X714142Y232112D02*
D03*
Y216090D02*
D03*
X689017Y215851D02*
D03*
Y231873D02*
D03*
X223070Y342101D02*
D03*
Y326080D02*
D03*
X564852Y697681D02*
D03*
Y713703D02*
D03*
X520215Y79981D02*
D03*
Y63959D02*
D03*
X403352Y58879D02*
D03*
Y74901D02*
D03*
X761746Y234181D02*
D03*
Y218159D02*
D03*
X786871Y208485D02*
D03*
Y224507D02*
D03*
D21*
X813286Y46166D02*
D03*
X797264D02*
D03*
X548015Y282028D02*
D03*
X531993D02*
D03*
X106563Y146392D02*
D03*
X90541D02*
D03*
X106817Y99148D02*
D03*
X90795D02*
D03*
X220843Y152996D02*
D03*
X236865D02*
D03*
X310017Y563206D02*
D03*
X293995D02*
D03*
X106817Y123024D02*
D03*
X90795D02*
D03*
X531602Y307936D02*
D03*
X547624D02*
D03*
X106563Y169760D02*
D03*
X90541D02*
D03*
D22*
X649335Y76111D02*
D03*
X660665Y64781D02*
D03*
D23*
X688457Y97929D02*
D03*
X762958Y91429D02*
D03*
X688457D02*
D03*
X762958Y84929D02*
D03*
X688457Y78429D02*
D03*
X762958Y71929D02*
D03*
X688457Y84929D02*
D03*
X762958Y78429D02*
D03*
Y110929D02*
D03*
X688457Y104429D02*
D03*
Y110929D02*
D03*
X762958Y104429D02*
D03*
Y97929D02*
D03*
Y117429D02*
D03*
X688457Y71929D02*
D03*
X762958Y65429D02*
D03*
X688457D02*
D03*
Y117429D02*
D03*
Y123929D02*
D03*
X762958D02*
D03*
X670218Y611172D02*
D03*
Y617672D02*
D03*
Y624172D02*
D03*
Y630672D02*
D03*
Y637172D02*
D03*
Y643672D02*
D03*
Y650172D02*
D03*
Y656672D02*
D03*
Y663172D02*
D03*
Y669672D02*
D03*
X595718Y611172D02*
D03*
Y617672D02*
D03*
Y624172D02*
D03*
Y630672D02*
D03*
Y637172D02*
D03*
Y643672D02*
D03*
Y650172D02*
D03*
Y656672D02*
D03*
Y663172D02*
D03*
Y669672D02*
D03*
D24*
X255524Y711998D02*
D03*
Y735498D02*
D03*
X114808Y705888D02*
D03*
Y729388D02*
D03*
X79756Y705888D02*
D03*
Y729388D02*
D03*
X310642Y712492D02*
D03*
Y735992D02*
D03*
X205994Y705888D02*
D03*
Y729388D02*
D03*
D25*
X763712Y610958D02*
D03*
X787212D02*
D03*
X763712Y633733D02*
D03*
X787212D02*
D03*
X763712Y656509D02*
D03*
X787212D02*
D03*
X763712Y679284D02*
D03*
X787212D02*
D03*
D26*
X5124Y119460D02*
D03*
Y131960D02*
D03*
Y144460D02*
D03*
Y156960D02*
D03*
Y169460D02*
D03*
Y181960D02*
D03*
X5000Y570250D02*
D03*
Y582750D02*
D03*
Y595250D02*
D03*
Y607750D02*
D03*
Y620250D02*
D03*
Y632750D02*
D03*
Y645250D02*
D03*
Y657750D02*
D03*
Y670250D02*
D03*
Y682750D02*
D03*
Y695250D02*
D03*
Y707750D02*
D03*
X29210Y477440D02*
D03*
Y464940D02*
D03*
Y452440D02*
D03*
Y439940D02*
D03*
Y427440D02*
D03*
Y414940D02*
D03*
Y402440D02*
D03*
Y389940D02*
D03*
Y377440D02*
D03*
Y364940D02*
D03*
Y352440D02*
D03*
Y339940D02*
D03*
Y327440D02*
D03*
Y314940D02*
D03*
D27*
X-23876Y93960D02*
D03*
Y207460D02*
D03*
X-24000Y544750D02*
D03*
Y733250D02*
D03*
X210Y289440D02*
D03*
Y502940D02*
D03*
D28*
X233809Y682835D02*
D03*
X246509D02*
D03*
X259209D02*
D03*
X271909D02*
D03*
Y634514D02*
D03*
X259209D02*
D03*
X246509D02*
D03*
X314832Y682659D02*
D03*
X327532D02*
D03*
X340232D02*
D03*
X352932D02*
D03*
Y634338D02*
D03*
X340232D02*
D03*
X327532D02*
D03*
D29*
X233809Y634514D02*
D03*
X314832Y634338D02*
D03*
D30*
X552419Y92290D02*
D03*
Y104990D02*
D03*
Y117690D02*
D03*
Y130390D02*
D03*
X600741D02*
D03*
Y117690D02*
D03*
Y104990D02*
D03*
D31*
Y92290D02*
D03*
D32*
X376050Y277195D02*
D03*
X401450D02*
D03*
Y246305D02*
D03*
X376050D02*
D03*
D33*
X251228Y274662D02*
D03*
X222228D02*
D03*
D34*
X312592Y516594D02*
D03*
Y511594D02*
D03*
Y506594D02*
D03*
Y501594D02*
D03*
Y496594D02*
D03*
Y491594D02*
D03*
Y486594D02*
D03*
Y481594D02*
D03*
Y476594D02*
D03*
Y471594D02*
D03*
Y466594D02*
D03*
Y461594D02*
D03*
Y456594D02*
D03*
Y451594D02*
D03*
Y446594D02*
D03*
Y441594D02*
D03*
Y436594D02*
D03*
Y431594D02*
D03*
Y426594D02*
D03*
Y421594D02*
D03*
Y416594D02*
D03*
Y411594D02*
D03*
Y406594D02*
D03*
Y401594D02*
D03*
Y396594D02*
D03*
Y391594D02*
D03*
Y386594D02*
D03*
Y381594D02*
D03*
Y376594D02*
D03*
Y371594D02*
D03*
Y366594D02*
D03*
Y361594D02*
D03*
Y356594D02*
D03*
Y351594D02*
D03*
Y346594D02*
D03*
Y341594D02*
D03*
X524592D02*
D03*
Y346594D02*
D03*
Y351594D02*
D03*
Y356594D02*
D03*
Y361594D02*
D03*
Y366594D02*
D03*
Y371594D02*
D03*
Y376594D02*
D03*
Y381594D02*
D03*
Y386594D02*
D03*
Y391594D02*
D03*
Y396594D02*
D03*
Y401594D02*
D03*
Y406594D02*
D03*
Y411594D02*
D03*
Y416594D02*
D03*
Y421594D02*
D03*
Y426594D02*
D03*
Y431594D02*
D03*
Y436594D02*
D03*
Y441594D02*
D03*
Y446594D02*
D03*
Y451594D02*
D03*
Y456594D02*
D03*
Y461594D02*
D03*
Y466594D02*
D03*
Y471594D02*
D03*
Y476594D02*
D03*
Y481594D02*
D03*
Y486594D02*
D03*
Y491594D02*
D03*
Y496594D02*
D03*
Y501594D02*
D03*
Y506594D02*
D03*
Y511594D02*
D03*
Y516594D02*
D03*
D35*
X331092Y323094D02*
D03*
X336092D02*
D03*
X341092D02*
D03*
X346092D02*
D03*
X351092D02*
D03*
X356092D02*
D03*
X361092D02*
D03*
X366092D02*
D03*
X371092D02*
D03*
X376092D02*
D03*
X381092D02*
D03*
X386092D02*
D03*
X391092D02*
D03*
X396092D02*
D03*
X401092D02*
D03*
X406092D02*
D03*
X411092D02*
D03*
X416092D02*
D03*
X421092D02*
D03*
X426092D02*
D03*
X431092D02*
D03*
X436092D02*
D03*
X441092D02*
D03*
X446092D02*
D03*
X451092D02*
D03*
X456092D02*
D03*
X461092D02*
D03*
X466092D02*
D03*
X471092D02*
D03*
X476092D02*
D03*
X481092D02*
D03*
X486092D02*
D03*
X491092D02*
D03*
X496092D02*
D03*
X501092D02*
D03*
X506092D02*
D03*
Y535094D02*
D03*
X501092D02*
D03*
X496092D02*
D03*
X491092D02*
D03*
X486092D02*
D03*
X481092D02*
D03*
X476092D02*
D03*
X471092D02*
D03*
X466092D02*
D03*
X461092D02*
D03*
X456092D02*
D03*
X451092D02*
D03*
X446092D02*
D03*
X441092D02*
D03*
X436092D02*
D03*
X431092D02*
D03*
X426092D02*
D03*
X421092D02*
D03*
X416092D02*
D03*
X411092D02*
D03*
X406092D02*
D03*
X401092D02*
D03*
X396092D02*
D03*
X391092D02*
D03*
X386092D02*
D03*
X381092D02*
D03*
X376092D02*
D03*
X371092D02*
D03*
X366092D02*
D03*
X361092D02*
D03*
X356092D02*
D03*
X351092D02*
D03*
X346092D02*
D03*
X341092D02*
D03*
X336092D02*
D03*
X331092D02*
D03*
D36*
X558514Y426808D02*
D03*
X574548D02*
D03*
X553069Y356450D02*
D03*
X569103D02*
D03*
X312563Y323684D02*
D03*
X296529D02*
D03*
D37*
X257834Y204304D02*
D03*
Y199304D02*
D03*
Y194304D02*
D03*
Y189304D02*
D03*
Y184304D02*
D03*
Y179304D02*
D03*
Y174304D02*
D03*
Y169304D02*
D03*
Y164304D02*
D03*
Y159304D02*
D03*
Y154304D02*
D03*
Y149304D02*
D03*
Y144304D02*
D03*
Y139304D02*
D03*
Y134304D02*
D03*
Y129304D02*
D03*
Y124304D02*
D03*
Y119304D02*
D03*
Y114304D02*
D03*
Y109304D02*
D03*
Y104304D02*
D03*
Y99304D02*
D03*
Y94304D02*
D03*
Y89304D02*
D03*
X449834Y204304D02*
D03*
Y199304D02*
D03*
Y194304D02*
D03*
Y189304D02*
D03*
Y184304D02*
D03*
Y179304D02*
D03*
Y174304D02*
D03*
Y169304D02*
D03*
Y164304D02*
D03*
Y159304D02*
D03*
Y154304D02*
D03*
Y149304D02*
D03*
Y144304D02*
D03*
Y139304D02*
D03*
Y134304D02*
D03*
Y129304D02*
D03*
Y124304D02*
D03*
Y119304D02*
D03*
Y114304D02*
D03*
Y109304D02*
D03*
Y104304D02*
D03*
Y99304D02*
D03*
Y94304D02*
D03*
Y89304D02*
D03*
D38*
X671837Y257770D02*
D03*
X676837D02*
D03*
X681837D02*
D03*
X686837D02*
D03*
X691837D02*
D03*
X696837D02*
D03*
X701837D02*
D03*
X706837D02*
D03*
X711837D02*
D03*
X716837D02*
D03*
X721837D02*
D03*
X726837D02*
D03*
X731837D02*
D03*
X736837D02*
D03*
X741837D02*
D03*
X746837D02*
D03*
X751837D02*
D03*
X756837D02*
D03*
X761837D02*
D03*
X766837D02*
D03*
X771837D02*
D03*
X776837D02*
D03*
X781837D02*
D03*
X786837D02*
D03*
X671837Y449770D02*
D03*
X676837D02*
D03*
X681837D02*
D03*
X686837D02*
D03*
X691837D02*
D03*
X696837D02*
D03*
X701837D02*
D03*
X706837D02*
D03*
X711837D02*
D03*
X716837D02*
D03*
X721837D02*
D03*
X726837D02*
D03*
X731837D02*
D03*
X736837D02*
D03*
X741837D02*
D03*
X746837D02*
D03*
X751837D02*
D03*
X756837D02*
D03*
X761837D02*
D03*
X766837D02*
D03*
X771837D02*
D03*
X776837D02*
D03*
X781837D02*
D03*
X786837D02*
D03*
D39*
X142407Y730325D02*
D03*
Y717625D02*
D03*
X168542Y822385D02*
D03*
Y835085D02*
D03*
X193458Y822385D02*
D03*
Y835085D02*
D03*
X608579Y728622D02*
D03*
Y741322D02*
D03*
X628396Y729068D02*
D03*
Y741768D02*
D03*
X653288Y728814D02*
D03*
Y741514D02*
D03*
X676700Y728512D02*
D03*
Y741212D02*
D03*
X448794Y704142D02*
D03*
Y716842D02*
D03*
X186944Y620356D02*
D03*
Y633056D02*
D03*
X467510Y704142D02*
D03*
Y716842D02*
D03*
X622052Y62825D02*
D03*
Y50125D02*
D03*
D40*
X247142Y576668D02*
D03*
X234442D02*
D03*
X236591Y821738D02*
D03*
X249291D02*
D03*
D41*
X751493Y519478D02*
D03*
X676685D02*
D03*
D42*
X733243Y548228D02*
D03*
X745943D02*
D03*
X758643D02*
D03*
X771343D02*
D03*
Y488228D02*
D03*
X758643D02*
D03*
X745943D02*
D03*
X733243D02*
D03*
X658435Y548228D02*
D03*
X671135D02*
D03*
X683835D02*
D03*
X696535D02*
D03*
Y488228D02*
D03*
X683835D02*
D03*
X671135D02*
D03*
X658435D02*
D03*
D43*
X285496Y708500D02*
D03*
Y691500D02*
D03*
D44*
X742814Y610704D02*
D03*
X725814D02*
D03*
X742814Y633649D02*
D03*
X725814D02*
D03*
X742814Y656593D02*
D03*
X725814D02*
D03*
X742814Y679538D02*
D03*
X725814D02*
D03*
D45*
X598684Y72031D02*
D03*
Y48032D02*
D03*
M02*
