M48
;Layer_Color=9474304
;FILE_FORMAT=4:4
METRIC,LZ
;TYPE=PLATED
T1F00S00C0.3000
T2F00S00C0.4000
T3F00S00C0.5000
T4F00S00C0.9000
T5F00S00C1.0000
T6F00S00C3.4000
;TYPE=NON_PLATED
%
T01
X00382016Y00001104
X00414937Y00014587
X00652422Y00016037
X00771479Y00015996
X00772037Y0021167
X00806172Y00208477
X00814723
X0073016Y00136429
X006985Y00163156
X00664976Y00151346
X00655246Y00130151
X00638022Y00089015
X00639189Y00081636
X00635794Y00047378
X00636381Y00034411
X00633078Y00026283
X0064277Y00022133
X00648612Y00030515
X00658518Y00025943
X00663187Y00052972
X00688457Y0005761
X007012Y00032003
X00738632Y00060286
X0060076Y00138966
X00566896Y0026809
X00489767Y00246678
X00479725Y00244609
X00456008Y00271537
X00452422Y00286182
X00415529Y00285677
X00430229Y00255586
X00381247Y00342486
X00461214Y00362062
X00502998Y00376594
X00490291Y00066729
X00477068Y0006873
X00467323
X00453633
X00443459Y000524
X00423567Y00070922
X00386546Y00066678
X00363508Y00074047
X00360172Y00030988
X00317759Y00035606
X00301752Y00035394
X00264414Y00068668
X00211718Y00068278
X00343028Y00104197
X00210546Y00336527
X00177038Y00328002
Y0032089
X00166116Y0031962
X00155194Y00319366
Y00327494
X00221488Y00368642
X00223607Y00376243
X00220274Y00382858
X00230002Y00381456
X00231154Y00372285
X00244284Y00447131
X00358394Y00509358
X00350598Y00745002
X0022567Y00743918
X00194122Y00729388
X-0003209Y00676068
Y00663958
X-00031992Y00652534
X-0003209Y00640336
Y0062535
Y00614092
X00376989Y00611519
X00392127Y00618172
X00408817Y0062347
X00418232Y00603392
X00445576Y00636487
X00460145Y00645304
X00480431Y00684344
X005008Y00678864
X0051505Y00623018
X00486704Y00611172
X00463363Y00576648
X0047785Y00513181
X00470806Y00501022
X00477305Y00490348
X00534999Y00583311
X00562312Y00608313
X00612095Y00640679
X0061298Y00651843
X00612866Y00660332
X00692903Y00656672
X00697401Y00648494
X0070219Y00633619
X00709609Y00640514
X00688186Y00628066
X00725814Y00595582
Y005872
Y0057782
X0055499Y00713828
X00426289Y00677491
X00804369Y00679141
X00804617Y00655905
X00804805Y00633662
X00803547Y00610887
T02
X00114808Y-00017946
X00130556Y-00020232
Y-00008802
Y-00031916
X00179653Y-00029826
X00201099Y-00026405
X00220472Y-00026582
X00236728
X00248631Y-0002713
X00278466Y-00009764
X00320548Y-00001436
X00319786Y00010248
X00336296Y00010502
X00337058Y-00001182
X00399034Y00000596
X00399796Y-0001185
X00469392Y-00009056
X00483616Y-00008802
X00497332Y-0000804
X0053086Y-00013374
X00531114Y-00023026
X00566662Y-00028358
X00576662
X00586662
X00586154Y-00016674
X00576154
X00566154
X00598932Y-00022772
X006545Y-000245
Y-000135
X006695Y-0001375
X00669Y-0002375
X00703834Y-00021248
X0071914Y-00017184
X0072914
X0073914
X00739648Y-00028868
X00729648
X00719648
X00748538Y-00021756
X00790956Y-00024296
X00790702Y-00015152
X0079225Y001371
X00792524Y00145961
X00792433Y00154366
X00791718Y00236816
X00800566Y0023596
X00810006Y00236063
X00747522Y0024342
X00728218Y00275932
X007239Y0030438
X00733194
X00662686Y00298284
X00629285Y00270217
X00629031Y00260565
X00618871Y00259803
Y00270217
X0060833Y0027009
X00622625Y00239563
X00631898Y00240307
X0063207Y00231836
X00631898Y00223536
X00636449Y00202508
X00635508Y00193493
X00635762Y00184095
Y00175205
X00677844Y00179915
X00677668Y00190816
X00677493Y00203914
X00733044Y00202018
Y00189064
Y00180936
Y00173062
X00723138
X00747776Y00178396
X0074803Y00153146
Y00143852
Y00134558
X00746682Y00036442
X00576063Y00026525
X00573786Y0007578
X0050038Y00103974
X00480314Y00137502
X0042475Y00139026
X00415999Y00127214
X00412921Y00111082
X00436143Y00095344
X00434045Y00189117
X00434263Y00204657
X00444543Y00239347
X00456249Y0025629
X00465328Y00299554
X00462792Y0034248
X00470241
X00477691
X0048514
X00455343
X00447893
X00416102Y00341379
X00390999Y00339593
X00398526Y00352386
X00374396Y00386676
Y00397681
Y00405472
X0036543Y00396563
X00427228Y0039836
X0043688
X0044577
X0045818Y00398811
X00467831
X00476721
X00492506Y00406742
X00502668Y00388753
X00503847Y00367715
X00503428Y00357212
X00518801Y00333585
X00567182Y00308444
X00567436Y00282282
X00589207Y00324294
X0058293Y0035645
X00601472Y00403948
X00714455Y00387946
X0072375
X00733044
X00745Y00411411
X00655951Y00242903
X00587698Y00224325
X00584454Y00180428
X00551715Y00189468
X00536929Y00225228
X0050375Y0017525
X00401Y0023075
X00382606Y00215339
X00371774Y00255501
X00371972Y00265918
X00378022Y00297978
X00387177Y00292923
X00435102Y00378548
X00367792Y00145122
X00333756Y0013293
X00329946Y00120484
Y0009229
X00279459Y00091274
X00278887Y0012531
X00282448Y00144106
X00281686Y00167474
X0028193Y00179477
X00275952Y00200602
X00319532Y00202526
X00333756Y00202272
X00319839Y00181551
X0035687Y00236308
X00349758Y0026882
X00351704Y00300062
X00316484Y00297776
X00297945Y00289137
X0030861Y00269836
X00312928Y0033232
X00338582Y00348068
X00357378Y00352386
X0033401Y00377024
X00263652Y0037169
X0027051Y0032978
X00239268Y00319874
X00222504Y00291934
X00224342Y00216434
X00221488Y00168998
X00223774Y00133692
X00211346Y00126277
X00209042Y00109054
X00213868Y00091528
X0023749Y00090004
X00238506Y00119976
X00178054Y001088
X00183931Y00055699
X00182211Y00046082
X00170469Y00044777
X00173929Y00052805
X00142748Y00076542
X00102362Y00047332
X0000225Y00047929
Y0006275
X-00016
Y00047929
Y00033108
X00002032
X-00012954Y00132168
X00069088Y0015706
X00071722Y00222033
X00140208Y0022437
X00140462Y00154012
X00132437Y00137233
X00227984Y00033601
X00237984
X00247984
X00215646Y00376008
X0016637Y00328002
X00101747Y00329742
X001016Y00338924
X0001425Y0032
X00003Y0031975
X0000325Y003085
X000145
X-0000825Y00308
X-000085Y0032
X-00013208Y0025358
X-00024892Y00254088
X-0000127Y00252818
X00009398
X0004445Y002713
X00005842Y00402424
X000055Y0052175
X-00004456Y00521886
X-00002672Y00532612
Y00542518
X00007284Y00542476
Y00532476
X00018034Y00532726
Y00542726
X0001625Y00522
X00043688Y0054441
X00125222Y00566254
X00090424Y0062188
X00090678Y00631786
X00078994Y00622134
X00082042Y00677506
X00065532Y00708494
X00101346Y0071586
X00105664Y00740752
X00117348Y00744308
X00090424Y0073999
X00002814Y00736413
X0000248Y00744972
X-00008893
X-00008697Y00735331
X-00009189Y00726378
X0000183Y0072687
X001397Y00696048
X001719Y00707221
X00172283Y00716889
X00172537Y00726287
X00182697Y00725525
X00191841Y00721461
X0020967Y00743412
X00208287Y00690835
X00217424Y0069427
X00215646Y00685126
X0022307Y0065737
X00253733Y00667239
X00267208Y006676
X00279419Y00662144
X00285242Y00667346
Y00675139
X00303727Y00673759
X00278215Y00721176
X00269494Y00718908
X00274Y00734622
X00309478Y0074876
X00317271Y00748677
X0023749Y00707986
X00240792Y00698588
X00193548Y0064347
X00171902Y00642939
X0016002
X00165354Y006295
Y00620102
X00204362Y006168
X00215138
X00215495Y00607967
X00213868Y00571842
X00278638Y00563714
X00278384Y00519772
Y00511644
X0027813Y00503008
X00292726Y00505415
X00333756Y00499452
X00338133Y00470404
X00351536Y00471512
X00335534Y00429348
X002925Y0043375
X00276657Y00433816
X0025875Y0043175
X00275512Y00454076
X00216916Y0043265
X00125984Y00426046
X0011811Y00466686
X00364744Y00471512
X00373126
X00389128
X00411734
X00423616
X00425827Y00500468
X00418084Y00514184
X0044199Y00513559
X00489493Y00516829
X00503174Y00487768
X0050165Y00473036
X0049709Y00458894
X00503936Y00438746
X00456438Y00441032
X00456692Y00471512
X00462592Y00554062
X00408826Y00571281
X00406356Y0060159
X00373092Y00553639
X00369062Y00513168
X00390906Y00514184
X00374396Y00444588
Y00430872
Y00416902
X00545292Y00429693
X00593227Y00427392
X00605301Y00426633
X00705358Y00421982
X00726643Y00432956
X00745Y0043
Y00420706
X00746506Y0046694
X0073802Y00466686
X007558Y0046694
X00696722Y00477354
X00696976Y00520026
X00704088Y00514184
X00713382
X00722677
X0072644Y00520788
X00723Y00548
X00658876Y00560412
X00606014Y00596208
X00597305Y00591694
X0057658Y00577176
X00563372Y00589622
X00545445Y00606378
X00544954Y00616279
X00553067Y00626187
X00577968Y00629303
X00571754Y00657186
X00569963Y0067315
X00576392Y00685451
X00606298Y00685634
X00639431Y00684485
X00653034Y00689952
X00665725Y00677283
X00675367Y00677368
X00645922Y00666838
X00647226Y00656983
X00560155Y00663642
X00538988Y00658211
X00532248Y00742881
X0054737Y00742022
X00558118Y00741723
X0038735Y00698588
X00367633Y00698486
X00367125Y00689088
X00366776Y00679284
X00386842Y00673442
X00532953Y00526188
X00553435Y00532344
X0057912Y00517232
X005715Y00504786
X00771906Y00473798
X00765095Y0046694
X00793496Y00467194
X0079248Y00519264
X00805942Y00767422
X00820763
X00835584
Y00785454
X00820763Y00785672
X00805942
X00702939Y00820463
X00703019Y00831677
X00688608Y00831838
X00688447Y00820438
X00672154Y008206
X00671993Y008313
X00054852Y00834664
Y00824664
Y00814664
X00042352
Y00824664
Y00834664
T03
X00065139Y00629379
X00064588Y00642443
X00112717Y00612423
X00108907Y00597945
X00282046Y00623111
X00292348Y00623806
X00296182Y00643128
X00283472
T04
X00040894Y00062826
Y00088226
Y00113626
Y00139026
Y00164426
Y00189826
Y00215226
T05
X000925Y0077
X001179
X001433
X001687
X001941
X002195
X002449
X002703
X002957
X003211
X003465
Y007954
X003211
X002957
X002703
X002449
X002195
X001941
X001687
X001433
X001179
X000925
X003719
X003973
X004227
X004481
X004735
X004989
X005243
X005497
X005751
X006005
X006259
X006513
X006767
X007021
X007275
Y0077
X007021
X006767
X006513
X006259
X006005
X005751
X005497
X005243
X004989
X004735
X004481
X004227
X003973
X003719
T06
X0Y0
X0082
Y0082
X0
M30
