G04*
G04 #@! TF.GenerationSoftware,Altium Limited,Altium Designer,21.1.1 (26)*
G04*
G04 Layer_Physical_Order=2*
G04 Layer_Color=32768*
%FSLAX44Y44*%
%MOMM*%
G71*
G04*
G04 #@! TF.SameCoordinates,DA55104B-334F-46BF-AAC2-A5A3D9E97D21*
G04*
G04*
G04 #@! TF.FilePolarity,Negative*
G04*
G01*
G75*
%ADD69C,0.5000*%
%ADD71C,0.7000*%
%ADD101C,1.0160*%
%ADD102C,4.6000*%
%ADD103C,2.2000*%
%ADD104C,4.6000*%
%ADD105C,2.1000*%
%ADD106C,1.5000*%
%ADD107C,1.6000*%
%ADD108C,1.7000*%
D69*
X557468Y88672D02*
X559281D01*
X442214Y385048D02*
X442442D01*
X839216Y257390D02*
Y508322D01*
X843808Y512914D01*
X856234D01*
X864362Y521042D01*
Y690206D01*
X839216Y715352D02*
X864362Y690206D01*
X839216Y715352D02*
Y715860D01*
D71*
X214717Y110731D02*
X424750D01*
X59436Y266012D02*
X214717Y110731D01*
X424750D02*
Y165677D01*
X373380Y616124D02*
Y718898D01*
X293040Y186693D02*
X314056Y165677D01*
X228699Y392584D02*
X228713Y392598D01*
X235303Y363512D02*
X239562Y367770D01*
X229860Y341942D02*
X230124Y342205D01*
X229860Y309793D02*
Y341942D01*
X171450Y392584D02*
X228699D01*
X228713Y392598D02*
X239562D01*
Y367770D02*
Y392598D01*
X235303Y363512D02*
Y363512D01*
X230124Y358332D02*
X235303Y363512D01*
X230124Y340194D02*
Y358332D01*
X229860Y309793D02*
X285751Y253902D01*
X559281Y88672D02*
Y222846D01*
X523494Y54698D02*
X557468Y88672D01*
X191008Y53936D02*
X523494D01*
X442442Y385048D02*
X473040Y415646D01*
X598678D01*
X442214Y301840D02*
Y385048D01*
X740156Y814920D02*
X839216Y715860D01*
X637898Y62740D02*
Y222488D01*
X589470Y14312D02*
X637898Y62740D01*
Y222488D02*
X639318Y221068D01*
X250763Y653376D02*
X254065Y650074D01*
X246101Y616364D02*
X373380Y616124D01*
X246101Y616364D02*
X246665Y814920D01*
X243501Y222846D02*
X559281D01*
X639318Y221068D02*
X806450D01*
X191008Y16598D02*
Y53936D01*
Y16598D02*
X193294Y14312D01*
X589470D01*
X103378Y696302D02*
X103378Y282153D01*
X59436Y696302D02*
X103378D01*
X103378Y282153D02*
X198838Y186693D01*
X148336Y550252D02*
X400246D01*
X148336D02*
Y685888D01*
X400050Y550056D02*
X400246Y550252D01*
X198838Y186693D02*
X293040D01*
X389890Y301840D02*
X442214D01*
X388874Y302856D02*
X389890Y301840D01*
X314056Y165677D02*
X424750D01*
X285751Y253902D02*
X758005D01*
X803402Y299300D01*
X400050Y451700D02*
Y550056D01*
X398018Y449668D02*
X400050Y451700D01*
X598678Y415646D02*
Y452208D01*
X790956Y670394D02*
X803402Y657948D01*
X171450Y294897D02*
X243501Y222846D01*
X804926Y223100D02*
X839216Y257390D01*
X254065Y650074D02*
X295910D01*
X737783Y723567D02*
X790956Y670394D01*
X302501Y723567D02*
X737783D01*
X295910Y716976D02*
X302501Y723567D01*
X295910Y650074D02*
Y716976D01*
X246665Y814920D02*
X740156D01*
X171450Y294897D02*
Y392584D01*
X803402Y657948D02*
X803402Y299300D01*
X59436Y266012D02*
Y696302D01*
X437134Y452208D02*
X598678D01*
X278638Y449668D02*
X294894D01*
X278638Y365848D02*
Y449668D01*
Y365848D02*
X388874D01*
Y302856D02*
Y365848D01*
X437134Y452208D02*
Y587785D01*
X213165D02*
X437134D01*
X188976Y611974D02*
X213165Y587785D01*
X188976Y611974D02*
Y685888D01*
X148336D02*
X188976D01*
X294894Y449668D02*
X398018D01*
D101*
X510000Y-35000D02*
Y-30000D01*
X509870Y-28890D02*
X510000Y-30000D01*
X509500Y-27830D02*
X509870Y-28890D01*
X508910Y-26880D02*
X509500Y-27830D01*
X508120Y-26090D02*
X508910Y-26880D01*
X507170Y-25500D02*
X508120Y-26090D01*
X506110Y-25130D02*
X507170Y-25500D01*
X505000Y-25000D02*
X506110Y-25130D01*
X315000Y-25000D02*
X505000D01*
X313890Y-25130D02*
X315000Y-25000D01*
X312830Y-25500D02*
X313890Y-25130D01*
X311880Y-26090D02*
X312830Y-25500D01*
X311090Y-26880D02*
X311880Y-26090D01*
X310500Y-27830D02*
X311090Y-26880D01*
X310130Y-28890D02*
X310500Y-27830D01*
X310000Y-30000D02*
X310130Y-28890D01*
X310000Y-35000D02*
Y-30000D01*
X309620Y-38340D02*
X310000Y-35000D01*
X308510Y-41510D02*
X309620Y-38340D01*
X306730Y-44350D02*
X308510Y-41510D01*
X304350Y-46730D02*
X306730Y-44350D01*
X301510Y-48510D02*
X304350Y-46730D01*
X298340Y-49620D02*
X301510Y-48510D01*
X295000Y-50000D02*
X298340Y-49620D01*
X-40000Y-50000D02*
X295000D01*
X-50000Y-40000D02*
X-40000Y-50000D01*
X-50000Y-40000D02*
Y295000D01*
X-49620Y298340D01*
X-48510Y301510D01*
X-46730Y304350D01*
X-44350Y306730D01*
X-41510Y308510D01*
X-38340Y309620D01*
X-35000Y310000D01*
X-30000D01*
X-28890Y310130D01*
X-27830Y310500D01*
X-26880Y311090D01*
X-26090Y311880D01*
X-25500Y312830D01*
X-25130Y313890D01*
X-25000Y315000D01*
Y505000D01*
X-25130Y506110D02*
X-25000Y505000D01*
X-25500Y507170D02*
X-25130Y506110D01*
X-26090Y508120D02*
X-25500Y507170D01*
X-26880Y508910D02*
X-26090Y508120D01*
X-27830Y509500D02*
X-26880Y508910D01*
X-28890Y509870D02*
X-27830Y509500D01*
X-30000Y510000D02*
X-28890Y509870D01*
X-35000Y510000D02*
X-30000D01*
X-38340Y510380D02*
X-35000Y510000D01*
X-41510Y511490D02*
X-38340Y510380D01*
X-44350Y513270D02*
X-41510Y511490D01*
X-46730Y515650D02*
X-44350Y513270D01*
X-48510Y518490D02*
X-46730Y515650D01*
X-49620Y521660D02*
X-48510Y518490D01*
X-50000Y525000D02*
X-49620Y521660D01*
X-50000Y525000D02*
Y860000D01*
X-40000Y870000D01*
X295000D01*
X298340Y869620D01*
X301510Y868510D01*
X304350Y866730D01*
X306730Y864350D01*
X308510Y861510D01*
X309620Y858340D01*
X310000Y855000D01*
Y850000D02*
Y855000D01*
Y850000D02*
X310130Y848890D01*
X310500Y847830D01*
X311090Y846880D01*
X311880Y846090D01*
X312830Y845500D01*
X313890Y845130D01*
X315000Y845000D01*
X505000D01*
X506110Y845130D01*
X507170Y845500D01*
X508120Y846090D01*
X508910Y846880D01*
X509500Y847830D01*
X509870Y848890D01*
X510000Y850000D01*
Y855000D01*
X510380Y858340D01*
X511490Y861510D01*
X513270Y864350D01*
X515650Y866730D01*
X518490Y868510D01*
X521660Y869620D01*
X525000Y870000D01*
X860000D01*
X870000Y860000D01*
Y525000D02*
Y860000D01*
X869620Y521660D02*
X870000Y525000D01*
X868510Y518490D02*
X869620Y521660D01*
X866730Y515650D02*
X868510Y518490D01*
X864350Y513270D02*
X866730Y515650D01*
X861510Y511490D02*
X864350Y513270D01*
X858340Y510380D02*
X861510Y511490D01*
X855000Y510000D02*
X858340Y510380D01*
X850000Y510000D02*
X855000D01*
X848890Y509870D02*
X850000Y510000D01*
X847830Y509500D02*
X848890Y509870D01*
X846880Y508910D02*
X847830Y509500D01*
X846090Y508120D02*
X846880Y508910D01*
X845500Y507170D02*
X846090Y508120D01*
X845130Y506110D02*
X845500Y507170D01*
X845000Y505000D02*
X845130Y506110D01*
X845000Y315000D02*
Y505000D01*
Y315000D02*
X845130Y313890D01*
X845500Y312830D01*
X846090Y311880D01*
X846880Y311090D01*
X847830Y310500D01*
X848890Y310130D01*
X850000Y310000D01*
X855000D01*
X858340Y309620D01*
X861510Y308510D01*
X864350Y306730D01*
X866730Y304350D01*
X868510Y301510D01*
X869620Y298340D01*
X870000Y295000D01*
Y-40000D02*
Y295000D01*
X860000Y-50000D02*
X870000Y-40000D01*
X525000Y-50000D02*
X860000D01*
X521660Y-49620D02*
X525000Y-50000D01*
X518490Y-48510D02*
X521660Y-49620D01*
X515650Y-46730D02*
X518490Y-48510D01*
X513270Y-44350D02*
X515650Y-46730D01*
X511490Y-41510D02*
X513270Y-44350D01*
X510380Y-38340D02*
X511490Y-41510D01*
X510000Y-35000D02*
X510380Y-38340D01*
D102*
X0Y820000D02*
D03*
D103*
X727500Y795400D02*
D03*
Y770000D02*
D03*
X702100Y795400D02*
D03*
Y770000D02*
D03*
X676700Y795400D02*
D03*
Y770000D02*
D03*
X651300Y795400D02*
D03*
Y770000D02*
D03*
X625900Y795400D02*
D03*
Y770000D02*
D03*
X600500Y795400D02*
D03*
Y770000D02*
D03*
X575100Y795400D02*
D03*
Y770000D02*
D03*
X549700Y795400D02*
D03*
Y770000D02*
D03*
X524300Y795400D02*
D03*
Y770000D02*
D03*
X498900Y795400D02*
D03*
Y770000D02*
D03*
X473500Y795400D02*
D03*
Y770000D02*
D03*
X448100Y795400D02*
D03*
Y770000D02*
D03*
X422700Y795400D02*
D03*
Y770000D02*
D03*
X397300Y795400D02*
D03*
Y770000D02*
D03*
X371900Y795400D02*
D03*
Y770000D02*
D03*
X346500Y795400D02*
D03*
Y770000D02*
D03*
X321100Y795400D02*
D03*
Y770000D02*
D03*
X295700Y795400D02*
D03*
Y770000D02*
D03*
X270300Y795400D02*
D03*
Y770000D02*
D03*
X244900Y795400D02*
D03*
Y770000D02*
D03*
X219500Y795400D02*
D03*
Y770000D02*
D03*
X194100Y795400D02*
D03*
Y770000D02*
D03*
X168700Y795400D02*
D03*
Y770000D02*
D03*
X143300Y795400D02*
D03*
Y770000D02*
D03*
X117900Y795400D02*
D03*
Y770000D02*
D03*
X92500Y795400D02*
D03*
Y770000D02*
D03*
D104*
X0Y0D02*
D03*
X820000Y820000D02*
D03*
Y0D02*
D03*
D105*
X40894Y215226D02*
D03*
Y189826D02*
D03*
Y139026D02*
D03*
Y88226D02*
D03*
Y62826D02*
D03*
Y164426D02*
D03*
D106*
X443459Y52400D02*
D03*
X317759Y35606D02*
D03*
X456008Y271537D02*
D03*
X430229Y255586D02*
D03*
X452422Y286182D02*
D03*
X360172Y30988D02*
D03*
X663187Y52972D02*
D03*
X480431Y684344D02*
D03*
X639189Y81636D02*
D03*
X638022Y89015D02*
D03*
X701200Y32003D02*
D03*
X664976Y151346D02*
D03*
X730160Y136429D02*
D03*
X698500Y163156D02*
D03*
X655246Y130151D02*
D03*
X738632Y60286D02*
D03*
X688186Y628066D02*
D03*
X702190Y633619D02*
D03*
X562312Y608313D02*
D03*
X612095Y640679D02*
D03*
X697401Y648494D02*
D03*
X709609Y640514D02*
D03*
X612980Y651843D02*
D03*
X612866Y660332D02*
D03*
X692903Y656672D02*
D03*
X658518Y25943D02*
D03*
X652422Y16037D02*
D03*
X648612Y30515D02*
D03*
X642770Y22133D02*
D03*
X633078Y26283D02*
D03*
X636381Y34411D02*
D03*
X-31992Y652534D02*
D03*
X-32090Y663958D02*
D03*
Y676068D02*
D03*
Y640336D02*
D03*
Y625350D02*
D03*
Y614092D02*
D03*
X461214Y362062D02*
D03*
X244284Y447131D02*
D03*
X155194Y319366D02*
D03*
X166116Y319620D02*
D03*
X177038Y320890D02*
D03*
Y328002D02*
D03*
X155194Y327494D02*
D03*
X350598Y745002D02*
D03*
X225670Y743918D02*
D03*
X194122Y729388D02*
D03*
X423567Y70922D02*
D03*
X814723Y208477D02*
D03*
X806172D02*
D03*
X490291Y66729D02*
D03*
X477068Y68730D02*
D03*
X467323D02*
D03*
X453633D02*
D03*
X363508Y74047D02*
D03*
X489767Y246678D02*
D03*
X804805Y633662D02*
D03*
X804617Y655905D02*
D03*
X804369Y679141D02*
D03*
X502998Y376594D02*
D03*
X803547Y610887D02*
D03*
X477850Y513181D02*
D03*
X477305Y490348D02*
D03*
X470806Y501022D02*
D03*
X479725Y244609D02*
D03*
X554990Y713828D02*
D03*
X392127Y618172D02*
D03*
X408817Y623470D02*
D03*
X301752Y35394D02*
D03*
X534999Y583311D02*
D03*
X486704Y611172D02*
D03*
X515050Y623018D02*
D03*
X463363Y576648D02*
D03*
X500800Y678864D02*
D03*
X376989Y611519D02*
D03*
X358394Y509358D02*
D03*
X445576Y636487D02*
D03*
X460145Y645304D02*
D03*
X418232Y603392D02*
D03*
X211718Y68278D02*
D03*
X386546Y66678D02*
D03*
X414937Y14587D02*
D03*
X382016Y1104D02*
D03*
X600760Y138966D02*
D03*
X381247Y342486D02*
D03*
X210546Y336527D02*
D03*
D107*
X412921Y111082D02*
D03*
X444543Y239347D02*
D03*
X434263Y204657D02*
D03*
X9398Y252818D02*
D03*
X636449Y202508D02*
D03*
X635508Y193493D02*
D03*
X635762Y184095D02*
D03*
Y175205D02*
D03*
X593227Y427392D02*
D03*
X605301Y426633D02*
D03*
X532248Y742881D02*
D03*
X558118Y741723D02*
D03*
X746682Y36442D02*
D03*
X606014Y596208D02*
D03*
X597305Y591694D02*
D03*
X577968Y629303D02*
D03*
X645922Y666838D02*
D03*
X560155Y663642D02*
D03*
X647226Y656983D02*
D03*
X639431Y684485D02*
D03*
X571754Y657186D02*
D03*
X101747Y329742D02*
D03*
X-1270Y252818D02*
D03*
X-13208Y253580D02*
D03*
X-24892Y254088D02*
D03*
X367633Y698486D02*
D03*
X367125Y689088D02*
D03*
X371774Y255501D02*
D03*
X702939Y820463D02*
D03*
X703019Y831677D02*
D03*
X688447Y820438D02*
D03*
X672154Y820600D02*
D03*
X671993Y831300D02*
D03*
X688608Y831838D02*
D03*
X191841Y721461D02*
D03*
X182697Y725525D02*
D03*
X172537Y726287D02*
D03*
X172283Y716889D02*
D03*
X248631Y-27130D02*
D03*
X201099Y-26405D02*
D03*
X179653Y-29826D02*
D03*
X2480Y744972D02*
D03*
X2814Y736413D02*
D03*
X1830Y726870D02*
D03*
X-8893Y744972D02*
D03*
X-8697Y735331D02*
D03*
X-9189Y726378D02*
D03*
X576063Y26525D02*
D03*
X408826Y571281D02*
D03*
X276657Y433816D02*
D03*
X71722Y222033D02*
D03*
X125984Y426046D02*
D03*
X253733Y667239D02*
D03*
X274000Y734622D02*
D03*
X587698Y224325D02*
D03*
X303727Y673759D02*
D03*
X309478Y748760D02*
D03*
X317271Y748677D02*
D03*
X193548Y643470D02*
D03*
X171900Y707221D02*
D03*
X223070Y657370D02*
D03*
X117348Y744308D02*
D03*
X292726Y505415D02*
D03*
X462592Y554062D02*
D03*
X204362Y616800D02*
D03*
X215495Y607967D02*
D03*
X213868Y571842D02*
D03*
X502668Y388753D02*
D03*
X532953Y526188D02*
D03*
X489493Y516829D02*
D03*
X425827Y500468D02*
D03*
X835584Y767422D02*
D03*
Y785454D02*
D03*
X820763Y785672D02*
D03*
Y767422D02*
D03*
X805942Y785672D02*
D03*
Y767422D02*
D03*
X518801Y333585D02*
D03*
X536929Y225228D02*
D03*
X569963Y673150D02*
D03*
X576392Y685451D02*
D03*
X456249Y256290D02*
D03*
X382606Y215339D02*
D03*
X183931Y55699D02*
D03*
X170469Y44777D02*
D03*
X173929Y52805D02*
D03*
X182211Y46082D02*
D03*
X545445Y606378D02*
D03*
X544954Y616279D02*
D03*
X406356Y601590D02*
D03*
X551715Y189468D02*
D03*
X278466Y-9764D02*
D03*
X589207Y324294D02*
D03*
X503847Y367715D02*
D03*
X275512Y454076D02*
D03*
X18034Y532726D02*
D03*
X-2672Y542518D02*
D03*
X7284Y542476D02*
D03*
X-2672Y532612D02*
D03*
X7284Y532476D02*
D03*
X18034Y542726D02*
D03*
X69088Y157060D02*
D03*
X101600Y338924D02*
D03*
X336296Y10502D02*
D03*
X319786Y10248D02*
D03*
X102362Y47332D02*
D03*
X43688Y544410D02*
D03*
X166370Y328002D02*
D03*
X292500Y433750D02*
D03*
X14500Y308500D02*
D03*
X14250Y320000D02*
D03*
X-8250Y308000D02*
D03*
X3250Y308500D02*
D03*
X3000Y319750D02*
D03*
X-8500Y320000D02*
D03*
X16250Y522000D02*
D03*
X5500Y521750D02*
D03*
X-4456Y521886D02*
D03*
X584454Y180428D02*
D03*
X399796Y-11850D02*
D03*
X399034Y596D02*
D03*
X221488Y168998D02*
D03*
X237490Y90004D02*
D03*
X132437Y137233D02*
D03*
X140462Y154012D02*
D03*
X356870Y236308D02*
D03*
X349758Y268820D02*
D03*
X140208Y224370D02*
D03*
X142748Y76542D02*
D03*
X178054Y108800D02*
D03*
X209042Y109054D02*
D03*
X211346Y126277D02*
D03*
X130556Y-8802D02*
D03*
Y-20232D02*
D03*
Y-31916D02*
D03*
X236728Y-26582D02*
D03*
X220472D02*
D03*
X469392Y-9056D02*
D03*
X483616Y-8802D02*
D03*
X497332Y-8040D02*
D03*
X320548Y-1436D02*
D03*
X337058Y-1182D02*
D03*
X748538Y-21756D02*
D03*
X598932Y-22772D02*
D03*
X703834Y-21248D02*
D03*
X366776Y679284D02*
D03*
X573786Y75780D02*
D03*
X696722Y477354D02*
D03*
X738020Y466686D02*
D03*
X765095Y466940D02*
D03*
X746506D02*
D03*
X755800D02*
D03*
X606298Y685634D02*
D03*
X653034Y689952D02*
D03*
X278384Y511644D02*
D03*
X278130Y503008D02*
D03*
X278384Y519772D02*
D03*
X281686Y167474D02*
D03*
X282448Y144106D02*
D03*
X329946Y120484D02*
D03*
Y92290D02*
D03*
X367792Y145122D02*
D03*
X333756Y132930D02*
D03*
X270510Y329780D02*
D03*
X503174Y487768D02*
D03*
X456692Y471512D02*
D03*
X357378Y352386D02*
D03*
X319839Y181551D02*
D03*
X90424Y739990D02*
D03*
X105664Y740752D02*
D03*
X139700Y696048D02*
D03*
X65532Y708494D02*
D03*
X213868Y91528D02*
D03*
X547370Y742022D02*
D03*
X500380Y103974D02*
D03*
X480314Y137502D02*
D03*
X424750Y139026D02*
D03*
X398526Y352386D02*
D03*
X655951Y242903D02*
D03*
X497090Y458894D02*
D03*
X553435Y532344D02*
D03*
X503936Y438746D02*
D03*
X571500Y504786D02*
D03*
X316484Y297776D02*
D03*
X338582Y348068D02*
D03*
X308610Y269836D02*
D03*
X563372Y589622D02*
D03*
X538988Y658211D02*
D03*
X576580Y577176D02*
D03*
X365430Y396563D02*
D03*
X390999Y339593D02*
D03*
X416102Y341379D02*
D03*
X582930Y356450D02*
D03*
X747522Y243420D02*
D03*
X733194Y304380D02*
D03*
X723900D02*
D03*
X748030Y134558D02*
D03*
Y153146D02*
D03*
Y143852D02*
D03*
X722677Y514184D02*
D03*
X704088D02*
D03*
X713382D02*
D03*
X278638Y563714D02*
D03*
X662686Y298284D02*
D03*
X747776Y178396D02*
D03*
X222504Y291934D02*
D03*
X373092Y553639D02*
D03*
X215138Y616800D02*
D03*
X739648Y-28868D02*
D03*
X729648D02*
D03*
X719648D02*
D03*
X739140Y-17184D02*
D03*
X729140D02*
D03*
X719140D02*
D03*
X723750Y387946D02*
D03*
X733044D02*
D03*
X714455D02*
D03*
X745000Y430000D02*
D03*
Y411411D02*
D03*
Y420706D02*
D03*
X705358Y421982D02*
D03*
X54852Y834664D02*
D03*
Y824664D02*
D03*
Y814664D02*
D03*
X42352Y834664D02*
D03*
Y814664D02*
D03*
Y824664D02*
D03*
X566154Y-16674D02*
D03*
X576154D02*
D03*
X586154D02*
D03*
X566662Y-28358D02*
D03*
X576662D02*
D03*
X586662D02*
D03*
X485140Y342480D02*
D03*
X477691D02*
D03*
X447893D02*
D03*
X470241D02*
D03*
X462792D02*
D03*
X455343D02*
D03*
X458180Y398811D02*
D03*
X467831D02*
D03*
X476721D02*
D03*
X445770Y398360D02*
D03*
X436880D02*
D03*
X427228D02*
D03*
X351536Y471512D02*
D03*
X364744D02*
D03*
X373126D02*
D03*
X389128D02*
D03*
X423616D02*
D03*
X411734D02*
D03*
X374396Y386676D02*
D03*
Y416902D02*
D03*
Y405472D02*
D03*
Y397681D02*
D03*
Y444588D02*
D03*
Y430872D02*
D03*
X501650Y473036D02*
D03*
X669500Y-13750D02*
D03*
X669000Y-23750D02*
D03*
X654500Y-24500D02*
D03*
Y-13500D02*
D03*
X401000Y230750D02*
D03*
X387177Y292923D02*
D03*
X378022Y297978D02*
D03*
X-16000Y33108D02*
D03*
X2032D02*
D03*
X2250Y47929D02*
D03*
X-16000D02*
D03*
X2250Y62750D02*
D03*
X-16000D02*
D03*
X238506Y119976D02*
D03*
X297945Y289137D02*
D03*
X267208Y667600D02*
D03*
X275952Y200602D02*
D03*
X696976Y520026D02*
D03*
X726440Y520788D02*
D03*
X790956Y-24296D02*
D03*
X531114Y-23026D02*
D03*
X530860Y-13374D02*
D03*
X790702Y-15152D02*
D03*
X771906Y473798D02*
D03*
X456438Y441032D02*
D03*
D108*
X64588Y642443D02*
D03*
X65139Y629379D02*
D03*
X108907Y597945D02*
D03*
X112717Y612423D02*
D03*
M02*
