G04*
G04 #@! TF.GenerationSoftware,Altium Limited,Altium Designer,21.1.1 (26)*
G04*
G04 Layer_Color=8388736*
%FSLAX44Y44*%
%MOMM*%
G71*
G04*
G04 #@! TF.SameCoordinates,DA55104B-334F-46BF-AAC2-A5A3D9E97D21*
G04*
G04*
G04 #@! TF.FilePolarity,Positive*
G04*
G01*
G75*
%ADD14C,0.2540*%
%ADD69C,0.5000*%
D14*
X871270Y860000D02*
G03*
X870898Y860898I-1270J0D01*
G01*
X871270Y860000D02*
G03*
X870898Y860898I-1270J0D01*
G01*
X871261Y524851D02*
G03*
X871270Y525000I-1261J149D01*
G01*
X871262Y524856D02*
G03*
X871270Y525000I-1262J144D01*
G01*
X870819Y521240D02*
G03*
X870883Y521522I-1199J420D01*
G01*
X870817Y521235D02*
G03*
X870882Y521516I-1197J425D01*
G01*
X869586Y517815D02*
G03*
X869711Y518076I-1076J675D01*
G01*
X869584Y517812D02*
G03*
X869709Y518070I-1074J678D01*
G01*
X867628Y514752D02*
G03*
X867809Y514979I-898J898D01*
G01*
X867628Y514752D02*
G03*
X867806Y514975I-898J898D01*
G01*
X860898Y870898D02*
G03*
X860000Y871270I-898J-898D01*
G01*
X860898Y870898D02*
G03*
X860000Y871270I-898J-898D01*
G01*
X865027Y512195D02*
G03*
X865248Y512372I-677J1075D01*
G01*
X865022Y512192D02*
G03*
X865027Y512195I-672J1078D01*
G01*
X865024Y512194D02*
G03*
X865248Y512372I-675J1076D01*
G01*
X861930Y510291D02*
G03*
X862185Y510414I-420J1199D01*
G01*
X862182Y510412D02*
G03*
X862187Y510415I-672J1078D01*
G01*
X861930Y510291D02*
G03*
X862182Y510412I-420J1199D01*
G01*
X858478Y509117D02*
G03*
X858760Y509181I-138J1263D01*
G01*
X858484Y509118D02*
G03*
X858760Y509181I-144J1262D01*
G01*
X855000Y508730D02*
G03*
X855144Y508738I0J1270D01*
G01*
X855000Y508730D02*
G03*
X855149Y508738I0J1270D01*
G01*
X525000Y871270D02*
G03*
X524856Y871262I0J-1270D01*
G01*
X525000Y871270D02*
G03*
X524851Y871262I0J-1270D01*
G01*
X521522Y870883D02*
G03*
X521240Y870819I138J-1263D01*
G01*
X521516Y870882D02*
G03*
X521240Y870819I144J-1262D01*
G01*
X518070Y869709D02*
G03*
X517815Y869586I420J-1199D01*
G01*
X517817Y869588D02*
G03*
X517813Y869585I672J-1078D01*
G01*
X518070Y869709D02*
G03*
X517817Y869588I420J-1199D01*
G01*
X514973Y867805D02*
G03*
X514752Y867628I677J-1075D01*
G01*
X514978Y867808D02*
G03*
X514973Y867805I672J-1078D01*
G01*
X514975Y867806D02*
G03*
X514748Y867624I675J-1076D01*
G01*
X512376Y865253D02*
G03*
X512194Y865025I894J-903D01*
G01*
X512195Y865027D02*
G03*
X512192Y865022I1075J-677D01*
G01*
X512372Y865248D02*
G03*
X512195Y865027I898J-898D01*
G01*
X510412Y862182D02*
G03*
X510291Y861930I1078J-672D01*
G01*
X510415Y862187D02*
G03*
X510412Y862182I1075J-677D01*
G01*
X510414Y862185D02*
G03*
X510291Y861930I1076J-675D01*
G01*
X509181Y858760D02*
G03*
X509118Y858484I1199J-420D01*
G01*
X509181Y858760D02*
G03*
X509117Y858478I1199J-420D01*
G01*
X508739Y855149D02*
G03*
X508730Y855000I1261J-149D01*
G01*
X508738Y855144D02*
G03*
X508730Y855000I1262J-144D01*
G01*
X855148Y311262D02*
G03*
X855000Y311270I-148J-1262D01*
G01*
X858760Y310819D02*
G03*
X858484Y310882I-420J-1199D01*
G01*
X862185Y309586D02*
G03*
X861930Y309709I-675J-1076D01*
G01*
X862185Y309586D02*
G03*
X861930Y309709I-675J-1076D01*
G01*
X858760Y310819D02*
G03*
X858479Y310883I-420J-1199D01*
G01*
X855144Y311262D02*
G03*
X855000Y311270I-144J-1262D01*
G01*
X869709Y301930D02*
G03*
X869586Y302185I-1199J-420D01*
G01*
X870883Y298478D02*
G03*
X870819Y298760I-1263J-138D01*
G01*
X870882Y298484D02*
G03*
X870819Y298760I-1262J-144D01*
G01*
X867806Y305025D02*
G03*
X867628Y305248I-1076J-675D01*
G01*
X869709Y301930D02*
G03*
X869586Y302185I-1199J-420D01*
G01*
X871270Y295000D02*
G03*
X871262Y295144I-1270J0D01*
G01*
X871270Y295000D02*
G03*
X871261Y295149I-1270J0D01*
G01*
X870898Y-40898D02*
G03*
X871270Y-40000I-898J898D01*
G01*
X870898Y-40898D02*
G03*
X871270Y-40000I-898J898D01*
G01*
X865248Y307628D02*
G03*
X865024Y307806I-898J-898D01*
G01*
X865248Y307628D02*
G03*
X865024Y307806I-898J-898D01*
G01*
X867806Y305025D02*
G03*
X867628Y305248I-1076J-675D01*
G01*
X860000Y-51270D02*
G03*
X860898Y-50898I0J1270D01*
G01*
X860000Y-51270D02*
G03*
X860898Y-50898I0J1270D01*
G01*
X514752Y-47628D02*
G03*
X514981Y-47810I898J898D01*
G01*
X514747Y-47624D02*
G03*
X514975Y-47806I903J894D01*
G01*
X524851Y-51262D02*
G03*
X525000Y-51270I149J1261D01*
G01*
X524856Y-51262D02*
G03*
X525000Y-51270I144J1262D01*
G01*
X517815Y-49586D02*
G03*
X518073Y-49710I675J1076D01*
G01*
X521237Y-50818D02*
G03*
X521516Y-50882I423J1198D01*
G01*
X517810Y-49583D02*
G03*
X518070Y-49709I680J1073D01*
G01*
X521240Y-50819D02*
G03*
X521522Y-50883I420J1199D01*
G01*
X509117Y-38478D02*
G03*
X509181Y-38760I1263J138D01*
G01*
X508730Y-35000D02*
G03*
X508738Y-35144I1270J0D01*
G01*
X508730Y-35000D02*
G03*
X508739Y-35149I1270J0D01*
G01*
X512194Y-45025D02*
G03*
X512372Y-45248I1076J675D01*
G01*
X510291Y-41930D02*
G03*
X510414Y-42185I1199J420D01*
G01*
X512194Y-45025D02*
G03*
X512376Y-45252I1076J675D01*
G01*
X509118Y-38484D02*
G03*
X509181Y-38760I1262J144D01*
G01*
X510291Y-41930D02*
G03*
X510414Y-42185I1199J420D01*
G01*
X309709Y861930D02*
G03*
X309586Y862185I-1199J-420D01*
G01*
X309588Y862182D02*
G03*
X309585Y862187I-1078J-672D01*
G01*
X309709Y861930D02*
G03*
X309588Y862182I-1199J-420D01*
G01*
X310883Y858478D02*
G03*
X310819Y858760I-1263J-138D01*
G01*
X307805Y865027D02*
G03*
X307628Y865248I-1075J-677D01*
G01*
X307808Y865022D02*
G03*
X307805Y865027I-1078J-672D01*
G01*
X307806Y865025D02*
G03*
X307624Y865253I-1076J-675D01*
G01*
X311270Y855000D02*
G03*
X311262Y855144I-1270J0D01*
G01*
X311270Y855000D02*
G03*
X311262Y855149I-1270J0D01*
G01*
X310882Y858484D02*
G03*
X310819Y858760I-1262J-144D01*
G01*
X298760Y870819D02*
G03*
X298484Y870882I-420J-1199D01*
G01*
X298760Y870819D02*
G03*
X298478Y870883I-420J-1199D01*
G01*
X302183Y869588D02*
G03*
X301930Y869709I-672J-1078D01*
G01*
X302187Y869585D02*
G03*
X302183Y869588I-677J-1075D01*
G01*
X295149Y871262D02*
G03*
X295000Y871270I-149J-1261D01*
G01*
X295144Y871262D02*
G03*
X295000Y871270I-144J-1262D01*
G01*
X305252Y867624D02*
G03*
X305025Y867806I-903J-894D01*
G01*
X305027Y867805D02*
G03*
X305022Y867808I-677J-1075D01*
G01*
X305248Y867628D02*
G03*
X305027Y867805I-898J-898D01*
G01*
X302185Y869586D02*
G03*
X301930Y869709I-675J-1076D01*
G01*
X-40000Y871270D02*
G03*
X-40898Y870898I0J-1270D01*
G01*
X-40000Y871270D02*
G03*
X-40898Y870898I0J-1270D01*
G01*
X-45248Y512372D02*
G03*
X-45025Y512194I898J898D01*
G01*
X-45248Y512372D02*
G03*
X-45025Y512194I898J898D01*
G01*
X-42185Y510414D02*
G03*
X-41930Y510291I675J1076D01*
G01*
X-38760Y509181D02*
G03*
X-38484Y509118I420J1199D01*
G01*
X-42185Y510414D02*
G03*
X-41930Y510291I675J1076D01*
G01*
X-50898Y860898D02*
G03*
X-51270Y860000I898J-898D01*
G01*
Y525000D02*
G03*
X-51262Y524856I1270J0D01*
G01*
X-50898Y860898D02*
G03*
X-51270Y860000I898J-898D01*
G01*
Y525000D02*
G03*
X-51262Y524851I1270J0D01*
G01*
X-47809Y514979D02*
G03*
X-47628Y514752I1079J671D01*
G01*
X-49709Y518070D02*
G03*
X-49584Y517812I1199J420D01*
G01*
X-47806Y514975D02*
G03*
X-47628Y514752I1076J675D01*
G01*
X-50882Y521516D02*
G03*
X-50819Y521240I1262J144D01*
G01*
X-50883Y521522D02*
G03*
X-50819Y521240I1263J138D01*
G01*
X-49709Y518070D02*
G03*
X-49586Y517815I1199J420D01*
G01*
X-35144Y508738D02*
G03*
X-35000Y508730I144J1262D01*
G01*
X-35149Y508738D02*
G03*
X-35000Y508730I149J1261D01*
G01*
X-38760Y509181D02*
G03*
X-38478Y509117I420J1199D01*
G01*
X311262Y-35149D02*
G03*
X311270Y-35000I-1261J149D01*
G01*
X311262Y-35144D02*
G03*
X311270Y-35000I-1262J144D01*
G01*
X310819Y-38760D02*
G03*
X310883Y-38478I-1199J420D01*
G01*
X310819Y-38760D02*
G03*
X310882Y-38484I-1199J420D01*
G01*
X309586Y-42185D02*
G03*
X309709Y-41930I-1076J675D01*
G01*
X309586Y-42185D02*
G03*
X309709Y-41930I-1076J675D01*
G01*
X307624Y-45252D02*
G03*
X307806Y-45025I-894J903D01*
G01*
X307628Y-45248D02*
G03*
X307806Y-45025I-898J898D01*
G01*
X305025Y-47806D02*
G03*
X305253Y-47624I-675J1076D01*
G01*
X305019Y-47810D02*
G03*
X305248Y-47628I-669J1080D01*
G01*
X301930Y-49709D02*
G03*
X302190Y-49583I-420J1199D01*
G01*
X301927Y-49710D02*
G03*
X302185Y-49586I-417J1200D01*
G01*
X298478Y-50883D02*
G03*
X298760Y-50819I-138J1263D01*
G01*
X298484Y-50882D02*
G03*
X298763Y-50818I-144J1262D01*
G01*
X295000Y-51270D02*
G03*
X295149Y-51262I0J1270D01*
G01*
X295000Y-51270D02*
G03*
X295144Y-51262I0J1270D01*
G01*
X-35000Y311270D02*
G03*
X-35144Y311262I0J-1270D01*
G01*
X-38479Y310883D02*
G03*
X-38760Y310819I139J-1263D01*
G01*
X-35000Y311270D02*
G03*
X-35148Y311262I0J-1270D01*
G01*
X-38484Y310882D02*
G03*
X-38763Y310818I144J-1262D01*
G01*
X-41926Y309710D02*
G03*
X-42185Y309586I417J-1200D01*
G01*
X-41930Y309709D02*
G03*
X-42185Y309586I420J-1199D01*
G01*
X-45025Y307806D02*
G03*
X-45248Y307628I675J-1076D01*
G01*
X-40903Y-50894D02*
G03*
X-40000Y-51270I903J894D01*
G01*
X-40898Y-50898D02*
G03*
X-40000Y-51270I898J898D01*
G01*
X-45025Y307806D02*
G03*
X-45248Y307628I675J-1076D01*
G01*
X-47628Y305248D02*
G03*
X-47806Y305025I898J-898D01*
G01*
X-47628Y305248D02*
G03*
X-47806Y305025I898J-898D01*
G01*
X-49586Y302185D02*
G03*
X-49709Y301930I1076J-675D01*
G01*
X-49586Y302185D02*
G03*
X-49710Y301926I1076J-675D01*
G01*
X-50818Y298763D02*
G03*
X-50882Y298484I1198J-423D01*
G01*
X-50819Y298760D02*
G03*
X-50883Y298478I1199J-420D01*
G01*
X-51262Y295149D02*
G03*
X-51270Y295000I1261J-149D01*
G01*
X-51262Y295144D02*
G03*
X-51270Y295000I1262J-144D01*
G01*
Y-40000D02*
G03*
X-50894Y-40903I1270J0D01*
G01*
X-51270Y-40000D02*
G03*
X-50898Y-40898I1270J0D01*
G01*
X871270Y525000D02*
Y860000D01*
X871261Y524851D02*
X871262Y524856D01*
X870883Y521522D02*
X871261Y524851D01*
X870882Y521516D02*
X870883Y521522D01*
X870817Y521235D02*
X870819Y521240D01*
X869711Y518076D02*
X870817Y521235D01*
X869709Y518070D02*
X869711Y518076D01*
X869584Y517812D02*
X869586Y517815D01*
X867809Y514979D02*
X869584Y517812D01*
X867806Y514975D02*
X867809Y514979D01*
X860898Y870898D02*
X870898Y860898D01*
X525000Y871270D02*
X860000D01*
X865248Y512372D02*
X867628Y514752D01*
X865024Y512194D02*
X865027Y512195D01*
X865022Y512192D02*
X865024Y512194D01*
X862187Y510415D02*
X865022Y512192D01*
X862185Y510414D02*
X862187Y510415D01*
X862182Y510412D02*
X862185Y510414D01*
X858760Y509181D02*
X861930Y510291D01*
X858478Y509117D02*
X858484Y509118D01*
X855149Y508738D02*
X858478Y509117D01*
X855144Y508738D02*
X855149Y508738D01*
X850074Y508730D02*
X855000D01*
X849177Y508625D02*
X850074Y508730D01*
X848381Y508347D02*
X849177Y508625D01*
X847675Y507908D02*
X848381Y508347D01*
X847092Y507325D02*
X847675Y507908D01*
X846653Y506619D02*
X847092Y507325D01*
X846375Y505823D02*
X846653Y506619D01*
X846270Y504926D02*
X846375Y505823D01*
X524851Y871262D02*
X524856Y871262D01*
X521522Y870883D02*
X524851Y871262D01*
X521516Y870882D02*
X521522Y870883D01*
X518070Y869709D02*
X521240Y870819D01*
X517815Y869586D02*
X517817Y869588D01*
X517813Y869585D02*
X517815Y869586D01*
X514978Y867808D02*
X517813Y869585D01*
X514975Y867806D02*
X514978Y867808D01*
X514973Y867805D02*
X514975Y867806D01*
X514748Y867624D02*
X514752Y867628D01*
X512376Y865253D02*
X514748Y867624D01*
X512372Y865248D02*
X512376Y865253D01*
X512194Y865025D02*
X512195Y865027D01*
X512192Y865022D02*
X512194Y865025D01*
X510415Y862187D02*
X512192Y865022D01*
X510414Y862185D02*
X510415Y862187D01*
X510412Y862182D02*
X510414Y862185D01*
X509181Y858760D02*
X510291Y861930D01*
X509117Y858478D02*
X509118Y858484D01*
X508739Y855149D02*
X509117Y858478D01*
X508738Y855144D02*
X508739Y855149D01*
X508730Y850074D02*
Y855000D01*
X508625Y849177D02*
X508730Y850074D01*
X508347Y848381D02*
X508625Y849177D01*
X846270Y315074D02*
Y504926D01*
X507908Y847675D02*
X508347Y848381D01*
X507325Y847092D02*
X507908Y847675D01*
X506619Y846653D02*
X507325Y847092D01*
X505823Y846375D02*
X506619Y846653D01*
X504926Y846270D02*
X505823Y846375D01*
X858479Y310883D02*
X858484Y310882D01*
X855148Y311262D02*
X858479Y310883D01*
X855144Y311262D02*
X855148Y311262D01*
X850074Y311270D02*
X855000D01*
X858760Y310819D02*
X861930Y309709D01*
X848381Y311653D02*
X849177Y311375D01*
X850074Y311270D01*
X862185Y309586D02*
X865024Y307806D01*
X846375Y314177D02*
X846653Y313381D01*
X847092Y312675D01*
X847675Y312092D01*
X846270Y315074D02*
X846375Y314177D01*
X847675Y312092D02*
X848381Y311653D01*
X869709Y301930D02*
X870819Y298760D01*
X867806Y305025D02*
X869586Y302185D01*
X871270Y-40000D02*
Y295000D01*
X870882Y298484D02*
X870883Y298478D01*
X871261Y295149D01*
X871262Y295144D01*
X865248Y307628D02*
X867628Y305248D01*
X860898Y-50898D02*
X870898Y-40898D01*
X525000Y-51270D02*
X860000D01*
X508625Y-29177D02*
X508730Y-30074D01*
X508347Y-28381D02*
X508625Y-29177D01*
X504926Y-26270D02*
X505823Y-26375D01*
X506619Y-26653D02*
X507325Y-27092D01*
X505823Y-26375D02*
X506619Y-26653D01*
X507908Y-27675D02*
X508347Y-28381D01*
X507325Y-27092D02*
X507908Y-27675D01*
X517810Y-49583D02*
X517815Y-49586D01*
X514981Y-47810D02*
X517810Y-49583D01*
X514975Y-47806D02*
X514981Y-47810D01*
X524851Y-51262D02*
X524856Y-51262D01*
X521522Y-50883D02*
X524851Y-51262D01*
X521516Y-50882D02*
X521522Y-50883D01*
X521237Y-50818D02*
X521240Y-50819D01*
X518073Y-49710D02*
X521237Y-50818D01*
X518070Y-49709D02*
X518073Y-49710D01*
X508730Y-35000D02*
Y-30074D01*
X508738Y-35144D02*
X508739Y-35149D01*
X509117Y-38478D01*
X509118Y-38484D01*
X512372Y-45248D02*
X512376Y-45252D01*
X514747Y-47624D01*
X514752Y-47628D01*
X509181Y-38760D02*
X510291Y-41930D01*
X510414Y-42185D02*
X512194Y-45025D01*
X307805Y865027D02*
X307806Y865025D01*
X307808Y865022D01*
X309585Y862187D01*
X309586Y862185D01*
X309588Y862182D01*
X309709Y861930D02*
X310819Y858760D01*
X305248Y867628D02*
X305252Y867624D01*
X307624Y865253D01*
X307628Y865248D01*
X310882Y858484D02*
X310883Y858478D01*
X311262Y855149D01*
X311262Y855144D01*
X311270Y850074D02*
Y855000D01*
X298478Y870883D02*
X298484Y870882D01*
X295149Y871262D02*
X298478Y870883D01*
X295144Y871262D02*
X295149Y871262D01*
X298760Y870819D02*
X301930Y869709D01*
X-40000Y871270D02*
X295000D01*
X305025Y867806D02*
X305027Y867805D01*
X305022Y867808D02*
X305025Y867806D01*
X302187Y869585D02*
X305022Y867808D01*
X302185Y869586D02*
X302187Y869585D01*
X302183Y869588D02*
X302185Y869586D01*
X313381Y846653D02*
X314177Y846375D01*
X312675Y847092D02*
X313381Y846653D01*
X315074Y846270D02*
X504926D01*
X314177Y846375D02*
X315074Y846270D01*
X311653Y848381D02*
X312092Y847675D01*
X312675Y847092D01*
X311270Y850074D02*
X311375Y849177D01*
X311653Y848381D01*
X-45025Y512194D02*
X-42185Y510414D01*
X-50898Y860898D02*
X-40898Y870898D01*
X-51270Y525000D02*
Y860000D01*
X-51262Y524856D02*
X-51262Y524851D01*
X-50883Y521522D01*
X-50882Y521516D01*
X-47628Y514752D02*
X-45248Y512372D01*
X-50819Y521240D02*
X-49709Y518070D01*
X-49586Y517815D02*
X-49584Y517812D01*
X-47809Y514979D01*
X-47806Y514975D01*
X-26653Y506619D02*
X-26375Y505823D01*
X-27092Y507325D02*
X-26653Y506619D01*
X-26270Y315074D02*
Y504926D01*
X-26375Y505823D02*
X-26270Y504926D01*
X-35149Y508738D02*
X-35144Y508738D01*
X-38478Y509117D02*
X-35149Y508738D01*
X-38484Y509118D02*
X-38478Y509117D01*
X-41930Y510291D02*
X-38760Y509181D01*
X-27675Y507908D02*
X-27092Y507325D01*
X-28381Y508347D02*
X-27675Y507908D01*
X-30074Y508730D02*
X-29177Y508625D01*
X-28381Y508347D01*
X-35000Y508730D02*
X-30074D01*
X315074Y-26270D02*
X504926D01*
X314177Y-26375D02*
X315074Y-26270D01*
X313381Y-26653D02*
X314177Y-26375D01*
X312675Y-27092D02*
X313381Y-26653D01*
X312092Y-27675D02*
X312675Y-27092D01*
X311653Y-28381D02*
X312092Y-27675D01*
X311375Y-29177D02*
X311653Y-28381D01*
X311270Y-30074D02*
X311375Y-29177D01*
X311270Y-35000D02*
Y-30074D01*
X311262Y-35149D02*
X311262Y-35144D01*
X310883Y-38478D02*
X311262Y-35149D01*
X310882Y-38484D02*
X310883Y-38478D01*
X309709Y-41930D02*
X310819Y-38760D01*
X307806Y-45025D02*
X309586Y-42185D01*
X307624Y-45252D02*
X307628Y-45248D01*
X305253Y-47624D02*
X307624Y-45252D01*
X305248Y-47628D02*
X305253Y-47624D01*
X305019Y-47810D02*
X305025Y-47806D01*
X302190Y-49583D02*
X305019Y-47810D01*
X302185Y-49586D02*
X302190Y-49583D01*
X301927Y-49710D02*
X301930Y-49709D01*
X298763Y-50818D02*
X301927Y-49710D01*
X298760Y-50819D02*
X298763Y-50818D01*
X298478Y-50883D02*
X298484Y-50882D01*
X295149Y-51262D02*
X298478Y-50883D01*
X295144Y-51262D02*
X295149Y-51262D01*
X-40000Y-51270D02*
X295000D01*
X-26375Y314177D02*
X-26270Y315074D01*
X-26653Y313381D02*
X-26375Y314177D01*
X-27092Y312675D02*
X-26653Y313381D01*
X-27675Y312092D02*
X-27092Y312675D01*
X-28381Y311653D02*
X-27675Y312092D01*
X-29177Y311375D02*
X-28381Y311653D01*
X-35000Y311270D02*
X-30074D01*
X-29177Y311375D01*
X-35148Y311262D02*
X-35144Y311262D01*
X-38479Y310883D02*
X-35148Y311262D01*
X-38484Y310882D02*
X-38479Y310883D01*
X-38763Y310818D02*
X-38760Y310819D01*
X-41926Y309710D02*
X-38763Y310818D01*
X-41930Y309709D02*
X-41926Y309710D01*
X-45025Y307806D02*
X-42185Y309586D01*
X-47628Y305248D02*
X-45248Y307628D01*
X-49586Y302185D02*
X-47806Y305025D01*
X-49710Y301926D02*
X-49709Y301930D01*
X-50818Y298763D02*
X-49710Y301926D01*
X-50819Y298760D02*
X-50818Y298763D01*
X-50898Y-40898D02*
X-50894Y-40903D01*
X-40903Y-50894D01*
X-40898Y-50898D01*
X-50883Y298478D02*
X-50882Y298484D01*
X-51262Y295149D02*
X-50883Y298478D01*
X-51262Y295144D02*
X-51262Y295149D01*
X-51270Y-40000D02*
Y295000D01*
D69*
X872500Y860000D02*
G03*
X871768Y861768I-2500J0D01*
G01*
X871770Y861766D02*
G03*
X871766Y861770I-1770J-1766D01*
G01*
X872500Y860000D02*
G03*
X871770Y861766I-2500J0D01*
G01*
X872484Y524714D02*
G03*
X872500Y525000I-2484J286D01*
G01*
X872484Y524717D02*
G03*
X872500Y525000I-2484J283D01*
G01*
X871980Y520834D02*
G03*
X872104Y521381I-2360J826D01*
G01*
X871980Y520834D02*
G03*
X872104Y521377I-2360J826D01*
G01*
X870629Y517162D02*
G03*
X870870Y517664I-2119J1328D01*
G01*
X870626Y517158D02*
G03*
X870870Y517664I-2116J1332D01*
G01*
X868498Y513882D02*
G03*
X868851Y514327I-1768J1768D01*
G01*
X861766Y871770D02*
G03*
X860000Y872500I-1766J-1770D01*
G01*
X861770Y871766D02*
G03*
X861766Y871770I-1770J-1766D01*
G01*
X861768Y871768D02*
G03*
X860000Y872500I-1768J-1768D01*
G01*
X868500Y513884D02*
G03*
X868848Y514322I-1770J1766D01*
G01*
X868496Y513880D02*
G03*
X868500Y513884I-1766J1770D01*
G01*
X865678Y511152D02*
G03*
X866118Y511502I-1328J2119D01*
G01*
X866115Y511500D02*
G03*
X866120Y511504I-1766J1770D01*
G01*
X865678Y511152D02*
G03*
X866115Y511500I-1328J2119D01*
G01*
X862333Y509129D02*
G03*
X862838Y509371I-823J2361D01*
G01*
X858619Y507895D02*
G03*
X859166Y508020I-279J2485D01*
G01*
X862336Y509130D02*
G03*
X862838Y509371I-826J2360D01*
G01*
X858623Y507896D02*
G03*
X859170Y508021I-283J2484D01*
G01*
X850000Y512500D02*
G03*
X849709Y512483I0J-2500D01*
G01*
X848605Y512354D02*
G03*
X848066Y512231I286J-2484D01*
G01*
X855000Y507500D02*
G03*
X855283Y507516I0J2500D01*
G01*
X855000Y507500D02*
G03*
X855286Y507516I0J2500D01*
G01*
X847012Y511863D02*
G03*
X846511Y511624I818J-2363D01*
G01*
X850000Y512500D02*
G03*
X849704Y512483I0J-2500D01*
G01*
X848599Y512353D02*
G03*
X848060Y512229I291J-2483D01*
G01*
X847006Y511861D02*
G03*
X846506Y511621I824J-2361D01*
G01*
X845565Y511037D02*
G03*
X845112Y510678I1314J-2127D01*
G01*
X845114Y510680D02*
G03*
X845110Y510676I1766J-1770D01*
G01*
X845561Y511034D02*
G03*
X845114Y510680I1319J-2124D01*
G01*
X844320Y509886D02*
G03*
X843966Y509439I1770J-1766D01*
G01*
X844324Y509890D02*
G03*
X844320Y509886I1766J-1770D01*
G01*
X843379Y508494D02*
G03*
X843139Y507994I2121J-1324D01*
G01*
X844322Y509888D02*
G03*
X843962Y509434I1768J-1768D01*
G01*
X842771Y506939D02*
G03*
X842647Y506401I2359J-829D01*
G01*
X843376Y508489D02*
G03*
X843138Y507989I2124J-1319D01*
G01*
X842769Y506934D02*
G03*
X842646Y506395I2360J-824D01*
G01*
X842517Y505297D02*
G03*
X842500Y505000I2482J-297D01*
G01*
X842517Y505291D02*
G03*
X842500Y505000I2483J-291D01*
G01*
X525000Y872500D02*
G03*
X524717Y872484I0J-2500D01*
G01*
X525000Y872500D02*
G03*
X524714Y872484I0J-2500D01*
G01*
X521381Y872105D02*
G03*
X520834Y871980I279J-2485D01*
G01*
X521377Y872104D02*
G03*
X520834Y871980I283J-2484D01*
G01*
X517664Y870870D02*
G03*
X517162Y870629I826J-2360D01*
G01*
X517664Y870870D02*
G03*
X517162Y870629I826J-2360D01*
G01*
X514322Y868848D02*
G03*
X513882Y868498I1328J-2119D01*
G01*
X513884Y868500D02*
G03*
X513880Y868496I1766J-1770D01*
G01*
X514322Y868848D02*
G03*
X513884Y868500I1328J-2119D01*
G01*
X511500Y866116D02*
G03*
X511152Y865678I1770J-1766D01*
G01*
X511504Y866120D02*
G03*
X511500Y866116I1766J-1770D01*
G01*
X511502Y866118D02*
G03*
X511152Y865678I1768J-1768D01*
G01*
X509371Y862838D02*
G03*
X509130Y862336I2119J-1328D01*
G01*
X509371Y862838D02*
G03*
X509130Y862336I2119J-1328D01*
G01*
X508020Y859166D02*
G03*
X507896Y858623I2360J-826D01*
G01*
X508020Y859166D02*
G03*
X507895Y858619I2360J-826D01*
G01*
X507516Y855286D02*
G03*
X507500Y855000I2484J-286D01*
G01*
X507516Y855283D02*
G03*
X507500Y855000I2484J-283D01*
G01*
X512483Y849709D02*
G03*
X512500Y850000I-2483J291D01*
G01*
X512482Y849703D02*
G03*
X512500Y850000I-2482J297D01*
G01*
X512230Y848066D02*
G03*
X512354Y848605I-2361J824D01*
G01*
X512229Y848060D02*
G03*
X512353Y848599I-2359J830D01*
G01*
X511624Y846511D02*
G03*
X511863Y847012I-2124J1319D01*
G01*
X510678Y845112D02*
G03*
X511037Y845567I-1768J1768D01*
G01*
X509886Y844320D02*
G03*
X509890Y844324I-1766J1770D01*
G01*
X509439Y843966D02*
G03*
X509886Y844320I-1319J2124D01*
G01*
X507994Y843139D02*
G03*
X508494Y843379I-824J2361D01*
G01*
X511620Y846505D02*
G03*
X511861Y847006I-2120J1325D01*
G01*
X510680Y845114D02*
G03*
X511034Y845561I-1770J1766D01*
G01*
X510676Y845110D02*
G03*
X510680Y845114I-1766J1770D01*
G01*
X509434Y843963D02*
G03*
X509888Y844322I-1314J2127D01*
G01*
X507988Y843137D02*
G03*
X508489Y843376I-818J2363D01*
G01*
X506401Y842647D02*
G03*
X506940Y842771I-291J2483D01*
G01*
X506398Y842646D02*
G03*
X506934Y842769I-288J2484D01*
G01*
X505000Y842500D02*
G03*
X505291Y842517I0J2500D01*
G01*
X505000Y842500D02*
G03*
X505294Y842517I0J2500D01*
G01*
X862837Y310629D02*
G03*
X862336Y310870I-1327J-2119D01*
G01*
X862839Y310628D02*
G03*
X862837Y310629I-1329J-2118D01*
G01*
X862838Y310629D02*
G03*
X862332Y310871I-1328J-2119D01*
G01*
X859171Y311978D02*
G03*
X858623Y312104I-830J-2358D01*
G01*
X855283Y312484D02*
G03*
X855000Y312500I-283J-2484D01*
G01*
X859166Y311980D02*
G03*
X858623Y312104I-826J-2360D01*
G01*
X855283Y312484D02*
G03*
X855000Y312500I-283J-2484D01*
G01*
X849709Y307517D02*
G03*
X850000Y307500I291J2483D01*
G01*
X842647Y313599D02*
G03*
X842771Y313060I2483J291D01*
G01*
X843138Y312011D02*
G03*
X843376Y311511I2362J819D01*
G01*
X842646Y313605D02*
G03*
X842769Y313066I2484J284D01*
G01*
X842500Y315000D02*
G03*
X842517Y314703I2500J0D01*
G01*
X848060Y307771D02*
G03*
X848599Y307647I830J2359D01*
G01*
X849705Y307517D02*
G03*
X850000Y307500I295J2483D01*
G01*
X845559Y308967D02*
G03*
X845562Y308965I1321J2123D01*
G01*
X845112Y309322D02*
G03*
X845559Y308967I1768J1768D01*
G01*
X848066Y307769D02*
G03*
X848604Y307646I824J2361D01*
G01*
X846511Y308376D02*
G03*
X847012Y308137I1319J2124D01*
G01*
X845114Y309320D02*
G03*
X845561Y308966I1766J1770D01*
G01*
X845110Y309324D02*
G03*
X845114Y309320I1770J1766D01*
G01*
X846512Y308375D02*
G03*
X847006Y308139I1318J2125D01*
G01*
X846509Y308377D02*
G03*
X846512Y308375I1321J2123D01*
G01*
X843962Y310567D02*
G03*
X844322Y310112I2127J1314D01*
G01*
X844320Y310114D02*
G03*
X844324Y310110I1770J1766D01*
G01*
X843966Y310561D02*
G03*
X844320Y310114I2124J1319D01*
G01*
X843139Y312006D02*
G03*
X843379Y311506I2360J824D01*
G01*
X870872Y302332D02*
G03*
X870629Y302838I-2361J-821D01*
G01*
X872104Y298619D02*
G03*
X871980Y299166I-2485J-279D01*
G01*
X872104Y298623D02*
G03*
X871978Y299171I-2484J-283D01*
G01*
X868848Y305679D02*
G03*
X868498Y306118I-2118J-1329D01*
G01*
X868849Y305676D02*
G03*
X868848Y305679I-2119J-1327D01*
G01*
X870629Y302837D02*
G03*
X870628Y302839I-2119J-1327D01*
G01*
X870870Y302336D02*
G03*
X870629Y302837I-2360J-826D01*
G01*
X872500Y295000D02*
G03*
X872484Y295283I-2500J0D01*
G01*
X872500Y295000D02*
G03*
X872484Y295286I-2500J0D01*
G01*
X871768Y-41768D02*
G03*
X872500Y-40000I-1768J1768D01*
G01*
X871770Y-41766D02*
G03*
X872500Y-40000I-1770J1766D01*
G01*
X871766Y-41770D02*
G03*
X871770Y-41766I-1766J1770D01*
G01*
X866116Y308500D02*
G03*
X865678Y308848I-1766J-1770D01*
G01*
X866120Y308496D02*
G03*
X866116Y308500I-1770J-1766D01*
G01*
X865679Y308848D02*
G03*
X865676Y308849I-1329J-2118D01*
G01*
X866118Y308498D02*
G03*
X865679Y308848I-1768J-1768D01*
G01*
X868500Y306116D02*
G03*
X868496Y306120I-1770J-1766D01*
G01*
X868848Y305678D02*
G03*
X868500Y306116I-2119J-1328D01*
G01*
X860000Y-52500D02*
G03*
X861768Y-51768I0J2500D01*
G01*
X861766Y-51770D02*
G03*
X861770Y-51766I-1766J1770D01*
G01*
X860000Y-52500D02*
G03*
X861766Y-51770I0J2500D01*
G01*
X842500Y315000D02*
G03*
X842517Y314709I2500J0D01*
G01*
X509886Y-24320D02*
G03*
X509439Y-23966I-1766J-1770D01*
G01*
X509890Y-24324D02*
G03*
X509886Y-24320I-1770J-1766D01*
G01*
X508489Y-23376D02*
G03*
X507994Y-23139I-1319J-2124D01*
G01*
X512354Y-28605D02*
G03*
X512230Y-28066I-2484J-284D01*
G01*
X512500Y-30000D02*
G03*
X512482Y-29703I-2500J0D01*
G01*
X512353Y-28599D02*
G03*
X512229Y-28061I-2483J-291D01*
G01*
X511862Y-27011D02*
G03*
X511624Y-26511I-2362J-819D01*
G01*
X511038Y-25568D02*
G03*
X510678Y-25112I-2128J-1312D01*
G01*
X506932Y-22769D02*
G03*
X506401Y-22647I-822J-2361D01*
G01*
X506935Y-22770D02*
G03*
X506932Y-22769I-825J-2360D01*
G01*
X505291Y-22517D02*
G03*
X505000Y-22500I-291J-2483D01*
G01*
X509888Y-24322D02*
G03*
X509439Y-23966I-1768J-1768D01*
G01*
X507995Y-23140D02*
G03*
X507992Y-23139I-825J-2360D01*
G01*
X508489Y-23376D02*
G03*
X507995Y-23140I-1319J-2124D01*
G01*
X506934Y-22769D02*
G03*
X506401Y-22647I-824J-2361D01*
G01*
X505291Y-22517D02*
G03*
X505000Y-22500I-291J-2483D01*
G01*
X510680Y-25114D02*
G03*
X510676Y-25110I-1770J-1766D01*
G01*
X511034Y-25561D02*
G03*
X510680Y-25114I-2124J-1319D01*
G01*
X511861Y-27006D02*
G03*
X511620Y-26504I-2360J-824D01*
G01*
X514321Y-48848D02*
G03*
X514323Y-48849I1329J2118D01*
G01*
X513882Y-48498D02*
G03*
X514321Y-48848I1768J1768D01*
G01*
X524714Y-52484D02*
G03*
X525000Y-52500I286J2484D01*
G01*
X520834Y-51980D02*
G03*
X521381Y-52105I826J2360D01*
G01*
X524717Y-52484D02*
G03*
X525000Y-52500I283J2484D01*
G01*
X517162Y-50628D02*
G03*
X517671Y-50872I1328J2119D01*
G01*
X520826Y-51977D02*
G03*
X521377Y-52104I834J2357D01*
G01*
X517163Y-50629D02*
G03*
X517664Y-50870I1327J2119D01*
G01*
X517161Y-50628D02*
G03*
X517163Y-50629I1329J2118D01*
G01*
X507895Y-38619D02*
G03*
X508020Y-39166I2485J279D01*
G01*
X512500Y-30000D02*
G03*
X512483Y-29709I-2500J0D01*
G01*
X507500Y-35000D02*
G03*
X507516Y-35283I2500J0D01*
G01*
X507500Y-35000D02*
G03*
X507516Y-35286I2500J0D01*
G01*
X511152Y-45679D02*
G03*
X511502Y-46118I2118J1329D01*
G01*
X511151Y-45676D02*
G03*
X511152Y-45679I2119J1327D01*
G01*
X513884Y-48500D02*
G03*
X514322Y-48849I1766J1770D01*
G01*
X513880Y-48496D02*
G03*
X513884Y-48500I1770J1766D01*
G01*
X509371Y-42836D02*
G03*
X509372Y-42839I2119J1327D01*
G01*
X509130Y-42336D02*
G03*
X509371Y-42836I2360J826D01*
G01*
X511500Y-46116D02*
G03*
X511504Y-46120I1770J1766D01*
G01*
X511152Y-45678D02*
G03*
X511500Y-46116I2119J1328D01*
G01*
X509128Y-42329D02*
G03*
X509371Y-42838I2362J819D01*
G01*
X507896Y-38623D02*
G03*
X508023Y-39173I2484J283D01*
G01*
X310870Y862336D02*
G03*
X310628Y862838I-2360J-826D01*
G01*
X310870Y862336D02*
G03*
X310628Y862838I-2360J-826D01*
G01*
X312105Y858619D02*
G03*
X311980Y859166I-2485J-279D01*
G01*
X308848Y865678D02*
G03*
X308498Y866118I-2119J-1328D01*
G01*
X306116Y868500D02*
G03*
X305678Y868848I-1766J-1770D01*
G01*
X306120Y868496D02*
G03*
X306116Y868500I-1770J-1766D01*
G01*
X312500Y855000D02*
G03*
X312484Y855283I-2500J0D01*
G01*
X312500Y855000D02*
G03*
X312484Y855286I-2500J0D01*
G01*
X312104Y858623D02*
G03*
X311980Y859166I-2484J-283D01*
G01*
X299166Y871980D02*
G03*
X298623Y872104I-826J-2360D01*
G01*
X299166Y871980D02*
G03*
X298619Y872105I-826J-2360D01*
G01*
X302838Y870629D02*
G03*
X302336Y870870I-1328J-2119D01*
G01*
X295286Y872484D02*
G03*
X295000Y872500I-286J-2484D01*
G01*
X295283Y872484D02*
G03*
X295000Y872500I-283J-2484D01*
G01*
X306118Y868498D02*
G03*
X305678Y868848I-1768J-1768D01*
G01*
X308500Y866116D02*
G03*
X308496Y866120I-1770J-1766D01*
G01*
X308848Y865678D02*
G03*
X308500Y866116I-2119J-1328D01*
G01*
X302838Y870629D02*
G03*
X302336Y870870I-1328J-2119D01*
G01*
X313066Y842769D02*
G03*
X313603Y842646I824J2361D01*
G01*
X311511Y843376D02*
G03*
X312012Y843137I1319J2124D01*
G01*
X314709Y842517D02*
G03*
X315000Y842500I291J2483D01*
G01*
X314706Y842517D02*
G03*
X315000Y842500I294J2483D01*
G01*
X308137Y847012D02*
G03*
X308376Y846511I2363J818D01*
G01*
X308963Y845567D02*
G03*
X309322Y845112I2127J1313D01*
G01*
X307500Y850000D02*
G03*
X307518Y849703I2500J0D01*
G01*
X308139Y847006D02*
G03*
X308380Y846505I2361J824D01*
G01*
X309320Y845114D02*
G03*
X309324Y845110I1770J1766D01*
G01*
X308966Y845561D02*
G03*
X309320Y845114I2124J1319D01*
G01*
X307647Y848599D02*
G03*
X307771Y848060I2483J291D01*
G01*
X307646Y848605D02*
G03*
X307770Y848066I2484J284D01*
G01*
X307500Y850000D02*
G03*
X307517Y849709I2500J0D01*
G01*
X311506Y843379D02*
G03*
X312006Y843139I1324J2121D01*
G01*
X313060Y842771D02*
G03*
X313599Y842647I830J2359D01*
G01*
X310114Y844320D02*
G03*
X310561Y843966I1766J1770D01*
G01*
X310110Y844324D02*
G03*
X310114Y844320I1770J1766D01*
G01*
X310112Y844322D02*
G03*
X310565Y843963I1768J1768D01*
G01*
X-22500Y505000D02*
G03*
X-22517Y505291I-2500J0D01*
G01*
X-22500Y505000D02*
G03*
X-22517Y505297I-2500J0D01*
G01*
X-40000Y872500D02*
G03*
X-41768Y871768I0J-2500D01*
G01*
X-41766Y871770D02*
G03*
X-41770Y871766I1766J-1770D01*
G01*
X-40000Y872500D02*
G03*
X-41766Y871770I0J-2500D01*
G01*
X-29703Y512482D02*
G03*
X-30000Y512500I-297J-2483D01*
G01*
X-29709Y512483D02*
G03*
X-30000Y512500I-291J-2483D01*
G01*
X-35286Y507516D02*
G03*
X-35000Y507500I286J2484D01*
G01*
X-42845Y509376D02*
G03*
X-42336Y509130I1335J2114D01*
G01*
X-46118Y511502D02*
G03*
X-45678Y511152I1768J1768D01*
G01*
X-39173Y508023D02*
G03*
X-38623Y507896I833J2357D01*
G01*
X-46118Y511502D02*
G03*
X-45671Y511147I1768J1768D01*
G01*
X-51770Y861766D02*
G03*
X-52500Y860000I1770J-1766D01*
G01*
X-51766Y861770D02*
G03*
X-51770Y861766I1766J-1770D01*
G01*
X-52500Y525000D02*
G03*
X-52484Y524717I2500J0D01*
G01*
X-51768Y861768D02*
G03*
X-52500Y860000I1768J-1768D01*
G01*
Y525000D02*
G03*
X-52484Y524714I2500J0D01*
G01*
X-48851Y514327D02*
G03*
X-48498Y513882I2121J1323D01*
G01*
X-50870Y517664D02*
G03*
X-50626Y517158I2360J826D01*
G01*
X-48849Y514322D02*
G03*
X-48498Y513882I2119J1328D01*
G01*
X-52104Y521377D02*
G03*
X-51978Y520830I2484J283D01*
G01*
X-50871Y517668D02*
G03*
X-50629Y517162I2361J822D01*
G01*
X-52105Y521381D02*
G03*
X-51980Y520834I2485J279D01*
G01*
X-23967Y509440D02*
G03*
X-24322Y509888I-2123J-1321D01*
G01*
X-23965Y509438D02*
G03*
X-23967Y509440I-2125J-1318D01*
G01*
X-23375Y508488D02*
G03*
X-23377Y508490I-2125J-1318D01*
G01*
X-23139Y507994D02*
G03*
X-23375Y508488I-2361J-824D01*
G01*
X-23140Y507995D02*
G03*
X-23376Y508489I-2360J-825D01*
G01*
X-23139Y507992D02*
G03*
X-23140Y507995I-2361J-822D01*
G01*
X-26506Y511621D02*
G03*
X-27006Y511861I-1324J-2121D01*
G01*
X-25114Y510680D02*
G03*
X-25561Y511034I-1766J-1770D01*
G01*
X-25110Y510676D02*
G03*
X-25114Y510680I-1770J-1766D01*
G01*
X-22646Y506395D02*
G03*
X-22769Y506934I-2484J-284D01*
G01*
X-22769Y506932D02*
G03*
X-22770Y506936I-2361J-822D01*
G01*
X-22647Y506401D02*
G03*
X-22769Y506932I-2483J-291D01*
G01*
X-28066Y512231D02*
G03*
X-28606Y512354I-824J-2361D01*
G01*
X-28060Y512229D02*
G03*
X-28600Y512353I-830J-2359D01*
G01*
X-35283Y507516D02*
G03*
X-35000Y507500I283J2484D01*
G01*
X-42838Y509371D02*
G03*
X-42329Y509128I1328J2119D01*
G01*
X-39166Y508020D02*
G03*
X-38619Y507895I826J2360D01*
G01*
X-25112Y510678D02*
G03*
X-25566Y511037I-1768J-1768D01*
G01*
X-24320Y509886D02*
G03*
X-24324Y509890I-1770J-1766D01*
G01*
X-23966Y509439D02*
G03*
X-24320Y509886I-2124J-1319D01*
G01*
X-26511Y511624D02*
G03*
X-27012Y511863I-1319J-2124D01*
G01*
X315000Y-22500D02*
G03*
X314709Y-22517I0J-2500D01*
G01*
X313599Y-22647D02*
G03*
X313066Y-22769I291J-2483D01*
G01*
X315000Y-22500D02*
G03*
X314709Y-22517I0J-2500D01*
G01*
X312005Y-23140D02*
G03*
X311511Y-23376I825J-2360D01*
G01*
X312008Y-23139D02*
G03*
X312005Y-23140I822J-2361D01*
G01*
X313068Y-22769D02*
G03*
X313065Y-22770I822J-2361D01*
G01*
X313599Y-22647D02*
G03*
X313068Y-22769I291J-2483D01*
G01*
X310561Y-23966D02*
G03*
X310112Y-24322I1319J-2124D01*
G01*
X309320Y-25114D02*
G03*
X308966Y-25561I1770J-1766D01*
G01*
X309324Y-25110D02*
G03*
X309320Y-25114I1766J-1770D01*
G01*
X308380Y-26504D02*
G03*
X308139Y-27006I2120J-1326D01*
G01*
X-22517Y314709D02*
G03*
X-22500Y315000I-2483J291D01*
G01*
X-22517Y314703D02*
G03*
X-22500Y315000I-2482J297D01*
G01*
X312006Y-23139D02*
G03*
X311511Y-23376I824J-2361D01*
G01*
X310114Y-24320D02*
G03*
X310110Y-24324I1766J-1770D01*
G01*
X310561Y-23966D02*
G03*
X310114Y-24320I1319J-2124D01*
G01*
X309322Y-25112D02*
G03*
X308962Y-25568I1768J-1768D01*
G01*
X308376Y-26511D02*
G03*
X308138Y-27011I2124J-1319D01*
G01*
X307771Y-28061D02*
G03*
X307647Y-28599I2359J-830D01*
G01*
X307770Y-28066D02*
G03*
X307646Y-28605I2360J-824D01*
G01*
X307518Y-29703D02*
G03*
X307500Y-30000I2482J-297D01*
G01*
X307517Y-29709D02*
G03*
X307500Y-30000I2483J-291D01*
G01*
X312484Y-35286D02*
G03*
X312500Y-35000I-2484J286D01*
G01*
X312484Y-35283D02*
G03*
X312500Y-35000I-2484J283D01*
G01*
X311980Y-39166D02*
G03*
X312105Y-38619I-2360J826D01*
G01*
X311977Y-39173D02*
G03*
X312104Y-38623I-2357J833D01*
G01*
X310629Y-42836D02*
G03*
X310870Y-42336I-2119J1327D01*
G01*
X310628Y-42839D02*
G03*
X310629Y-42836I-2118J1329D01*
G01*
X310628Y-42838D02*
G03*
X310872Y-42329I-2119J1328D01*
G01*
X308848Y-45679D02*
G03*
X308849Y-45676I-2118J1329D01*
G01*
X308498Y-46118D02*
G03*
X308848Y-45679I-1768J1768D01*
G01*
X306116Y-48500D02*
G03*
X306120Y-48496I-1766J1770D01*
G01*
X305678Y-48849D02*
G03*
X306116Y-48500I-1328J2119D01*
G01*
X308500Y-46116D02*
G03*
X308848Y-45678I-1770J1766D01*
G01*
X308496Y-46120D02*
G03*
X308500Y-46116I-1766J1770D01*
G01*
X305679Y-48848D02*
G03*
X306118Y-48498I-1329J2118D01*
G01*
X305677Y-48849D02*
G03*
X305679Y-48848I-1327J2119D01*
G01*
X302837Y-50629D02*
G03*
X302839Y-50628I-1327J2119D01*
G01*
X302336Y-50870D02*
G03*
X302837Y-50629I-826J2360D01*
G01*
X302329Y-50872D02*
G03*
X302838Y-50628I-819J2362D01*
G01*
X298623Y-52104D02*
G03*
X299174Y-51977I-283J2484D01*
G01*
X298619Y-52105D02*
G03*
X299166Y-51980I-279J2485D01*
G01*
X295000Y-52500D02*
G03*
X295286Y-52484I0J2500D01*
G01*
X295000Y-52500D02*
G03*
X295283Y-52484I0J2500D01*
G01*
X-22769Y313066D02*
G03*
X-22646Y313605I-2361J824D01*
G01*
X-23376Y311511D02*
G03*
X-23138Y312009I-2124J1319D01*
G01*
X-22770Y313063D02*
G03*
X-22647Y313599I-2360J827D01*
G01*
X-23375Y311512D02*
G03*
X-23139Y312006I-2125J1318D01*
G01*
X-23377Y311509D02*
G03*
X-23375Y311512I-2123J1321D01*
G01*
X-24320Y310114D02*
G03*
X-23966Y310561I-1770J1766D01*
G01*
X-24324Y310110D02*
G03*
X-24320Y310114I-1766J1770D01*
G01*
X-23967Y310560D02*
G03*
X-23965Y310562I-2123J1321D01*
G01*
X-24322Y310112D02*
G03*
X-23967Y310560I-1768J1768D01*
G01*
X-25114Y309320D02*
G03*
X-25110Y309324I-1766J1770D01*
G01*
X-25561Y308966D02*
G03*
X-25114Y309320I-1319J2124D01*
G01*
X-26512Y308375D02*
G03*
X-26509Y308377I-1318J2125D01*
G01*
X-27006Y308139D02*
G03*
X-26512Y308375I-824J2361D01*
G01*
X-28599Y307647D02*
G03*
X-28060Y307771I-291J2483D01*
G01*
X-35000Y312500D02*
G03*
X-35283Y312484I0J-2500D01*
G01*
X-38623Y312104D02*
G03*
X-39166Y311980I283J-2484D01*
G01*
X-25559Y308967D02*
G03*
X-25112Y309322I-1321J2123D01*
G01*
X-25562Y308965D02*
G03*
X-25559Y308967I-1318J2125D01*
G01*
X-27012Y308137D02*
G03*
X-26511Y308376I-818J2363D01*
G01*
X-28605Y307646D02*
G03*
X-28066Y307769I-285J2484D01*
G01*
X-30000Y307500D02*
G03*
X-29709Y307517I0J2500D01*
G01*
X-35000Y312500D02*
G03*
X-35283Y312484I0J-2500D01*
G01*
X-38623Y312104D02*
G03*
X-39174Y311977I283J-2484D01*
G01*
X-42329Y310872D02*
G03*
X-42838Y310629I819J-2362D01*
G01*
X-42336Y310870D02*
G03*
X-42842Y310626I826J-2360D01*
G01*
X-30000Y307500D02*
G03*
X-29704Y307517I0J2500D01*
G01*
X-45673Y308852D02*
G03*
X-46118Y308498I1323J-2121D01*
G01*
X-41766Y-51770D02*
G03*
X-40000Y-52500I1766J1770D01*
G01*
X-41770Y-51766D02*
G03*
X-41766Y-51770I1770J1766D01*
G01*
X-41768Y-51768D02*
G03*
X-40000Y-52500I1768J1768D01*
G01*
X-46116Y308500D02*
G03*
X-46120Y308496I1766J-1770D01*
G01*
X-45678Y308849D02*
G03*
X-46116Y308500I1328J-2119D01*
G01*
X-48500Y306116D02*
G03*
X-48849Y305678I1770J-1766D01*
G01*
X-48496Y306120D02*
G03*
X-48500Y306116I1766J-1770D01*
G01*
X-48848Y305679D02*
G03*
X-48849Y305676I2118J-1329D01*
G01*
X-48498Y306118D02*
G03*
X-48848Y305679I1768J-1768D01*
G01*
X-50629Y302837D02*
G03*
X-50870Y302336I2119J-1327D01*
G01*
X-50628Y302839D02*
G03*
X-50629Y302837I2118J-1329D01*
G01*
X-50628Y302838D02*
G03*
X-50872Y302329I2119J-1328D01*
G01*
X-51977Y299174D02*
G03*
X-52104Y298623I2357J-834D01*
G01*
X-51980Y299166D02*
G03*
X-52105Y298619I2360J-826D01*
G01*
X-52484Y295286D02*
G03*
X-52500Y295000I2484J-286D01*
G01*
X-52484Y295283D02*
G03*
X-52500Y295000I2484J-283D01*
G01*
X-51770Y-41766D02*
G03*
X-51766Y-41770I1770J1766D01*
G01*
X-52500Y-40000D02*
G03*
X-51770Y-41766I2500J0D01*
G01*
X-52500Y-40000D02*
G03*
X-51768Y-41768I2500J0D01*
G01*
X872500Y525000D02*
Y860000D01*
X867500Y525142D02*
Y858964D01*
X867167Y522221D02*
X867500Y525142D01*
X872484Y524714D02*
X872484Y524717D01*
X872104Y521381D02*
X872484Y524714D01*
X872104Y521377D02*
X872104Y521381D01*
X870870Y517664D02*
X871980Y520834D01*
X866243Y519580D02*
X867167Y522221D01*
X870626Y517158D02*
X870629Y517162D01*
X868851Y514327D02*
X870626Y517158D01*
X868848Y514322D02*
X868851Y514327D01*
X868498Y513882D02*
X868500Y513884D01*
X868496Y513880D02*
X868498Y513882D01*
X866120Y511504D02*
X868496Y513880D01*
X866118Y511502D02*
X866120Y511504D01*
X866115Y511500D02*
X866118Y511502D01*
X861766Y871770D02*
X861768Y871768D01*
X861770Y871766D01*
X871766Y861770D01*
X871768Y861768D01*
X871770Y861766D01*
X864762Y517218D02*
X866243Y519580D01*
X858964Y867500D02*
X867500Y858964D01*
X862782Y515238D02*
X864762Y517218D01*
X860419Y513757D02*
X862782Y515238D01*
X525000Y872500D02*
X860000D01*
X525142Y867500D02*
X858964D01*
X857779Y512832D02*
X860419Y513757D01*
X854858Y512500D02*
X857779Y512832D01*
X862838Y509371D02*
X865678Y511152D01*
X862333Y509129D02*
X862336Y509130D01*
X859170Y508021D02*
X862333Y509129D01*
X859166Y508020D02*
X859170Y508021D01*
X858619Y507895D02*
X858623Y507896D01*
X855286Y507516D02*
X858619Y507895D01*
X855283Y507516D02*
X855286Y507516D01*
X850000Y512500D02*
X854858D01*
X849704Y512483D02*
X849709Y512483D01*
X848605Y512354D02*
X849704Y512483D01*
X848599Y512353D02*
X848605Y512354D01*
X850146Y507500D02*
X855000D01*
X849454Y507419D02*
X850146Y507500D01*
X848915Y507230D02*
X849454Y507419D01*
X848444Y506938D02*
X848915Y507230D01*
X848062Y506556D02*
X848444Y506938D01*
X848060Y512229D02*
X848066Y512231D01*
X847012Y511863D02*
X848060Y512229D01*
X847006Y511861D02*
X847012Y511863D01*
X847770Y506085D02*
X848062Y506556D01*
X847581Y505546D02*
X847770Y506085D01*
X847500Y504854D02*
X847581Y505546D01*
X524714Y872484D02*
X524717Y872484D01*
X521381Y872105D02*
X524714Y872484D01*
X521377Y872104D02*
X521381Y872105D01*
X522221Y867168D02*
X525142Y867500D01*
X517664Y870870D02*
X520834Y871980D01*
X514322Y868848D02*
X517162Y870629D01*
X519580Y866243D02*
X522221Y867168D01*
X517218Y864762D02*
X519580Y866243D01*
X515238Y862782D02*
X517218Y864762D01*
X513757Y860419D02*
X515238Y862782D01*
X513882Y868498D02*
X513884Y868500D01*
X513880Y868496D02*
X513882Y868498D01*
X511504Y866120D02*
X513880Y868496D01*
X511502Y866118D02*
X511504Y866120D01*
X511500Y866116D02*
X511502Y866118D01*
X512832Y857778D02*
X513757Y860419D01*
X509371Y862838D02*
X511152Y865678D01*
X508020Y859166D02*
X509130Y862336D01*
X512500Y854858D02*
X512832Y857778D01*
X512500Y850000D02*
Y854858D01*
X507895Y858619D02*
X507896Y858623D01*
X507516Y855286D02*
X507895Y858619D01*
X507516Y855283D02*
X507516Y855286D01*
X507500Y850146D02*
Y855000D01*
X512482Y849703D02*
X512483Y849709D01*
X512354Y848605D02*
X512482Y849703D01*
X512353Y848599D02*
X512354Y848605D01*
X512229Y848060D02*
X512230Y848066D01*
X511863Y847012D02*
X512229Y848060D01*
X511861Y847006D02*
X511863Y847012D01*
X507419Y849454D02*
X507500Y850146D01*
X511620Y846505D02*
X511624Y846511D01*
X511037Y845567D02*
X511620Y846505D01*
X511034Y845561D02*
X511037Y845567D01*
X846506Y511621D02*
X846511Y511624D01*
X845565Y511037D02*
X846506Y511621D01*
X845561Y511034D02*
X845565Y511037D01*
X845112Y510678D02*
X845114Y510680D01*
X845110Y510676D02*
X845112Y510678D01*
X844324Y509890D02*
X845110Y510676D01*
X844322Y509888D02*
X844324Y509890D01*
X844320Y509886D02*
X844322Y509888D01*
X843962Y509434D02*
X843966Y509439D01*
X843379Y508494D02*
X843962Y509434D01*
X843376Y508489D02*
X843379Y508494D01*
X843138Y507989D02*
X843139Y507994D01*
X842771Y506939D02*
X843138Y507989D01*
X842769Y506934D02*
X842771Y506939D01*
X842646Y506395D02*
X842647Y506401D01*
X842517Y505297D02*
X842646Y506395D01*
X842517Y505291D02*
X842517Y505297D01*
X510678Y845112D02*
X510680Y845114D01*
X510676Y845110D02*
X510678Y845112D01*
X509890Y844324D02*
X510676Y845110D01*
X509888Y844322D02*
X509890Y844324D01*
X509886Y844320D02*
X509888Y844322D01*
X842500Y315000D02*
Y505000D01*
X509434Y843963D02*
X509439Y843966D01*
X508494Y843379D02*
X509434Y843963D01*
X508489Y843376D02*
X508494Y843379D01*
X507230Y848914D02*
X507419Y849454D01*
X506938Y848444D02*
X507230Y848914D01*
X506556Y848062D02*
X506938Y848444D01*
X506085Y847770D02*
X506556Y848062D01*
X505546Y847581D02*
X506085Y847770D01*
X504854Y847500D02*
X505546Y847581D01*
X507988Y843137D02*
X507994Y843139D01*
X506940Y842771D02*
X507988Y843137D01*
X506934Y842769D02*
X506940Y842771D01*
X506398Y842646D02*
X506401Y842647D01*
X505294Y842517D02*
X506398Y842646D01*
X505291Y842517D02*
X505294Y842517D01*
X850146Y312500D02*
X855000D01*
X855283Y312484D02*
X858623Y312104D01*
X862332Y310871D02*
X862336Y310870D01*
X859171Y311978D02*
X862332Y310871D01*
X859166Y311980D02*
X859171Y311978D01*
X848915Y312770D02*
X849454Y312581D01*
X848444Y313062D02*
X848915Y312770D01*
X849454Y312581D02*
X850146Y312500D01*
X865678Y308848D02*
X865679Y308848D01*
X865676Y308849D02*
X865678Y308848D01*
X862839Y310628D02*
X865676Y308849D01*
X862838Y310629D02*
X862839Y310628D01*
X862837Y310629D02*
X862838Y310629D01*
X847770Y313915D02*
X848062Y313444D01*
X847581Y314454D02*
X847770Y313915D01*
X848062Y313444D02*
X848444Y313062D01*
X847500Y315146D02*
Y504854D01*
Y315146D02*
X847581Y314454D01*
X870870Y302336D02*
X870872Y302332D01*
X871978Y299171D01*
X871980Y299166D01*
X868848Y305679D02*
X868848Y305678D01*
X868849Y305676D01*
X870628Y302839D01*
X870629Y302838D01*
X870629Y302837D01*
X868498Y306118D02*
X868500Y306116D01*
X868496Y306120D02*
X868498Y306118D01*
X866120Y308496D02*
X868496Y306120D01*
X866118Y308498D02*
X866120Y308496D01*
X866116Y308500D02*
X866118Y308498D01*
X866243Y300420D02*
X867167Y297779D01*
X872500Y-40000D02*
Y295000D01*
X872104Y298623D02*
X872104Y298619D01*
X872484Y295286D01*
X872484Y295283D01*
X867500Y-38964D02*
Y294858D01*
X867167Y297779D02*
X867500Y294858D01*
X860419Y306243D02*
X862782Y304762D01*
X849705Y307517D02*
X849709Y307517D01*
X848604Y307646D02*
X849705Y307517D01*
X848599Y307647D02*
X848604Y307646D01*
X854858Y307500D02*
X857779Y307167D01*
X848060Y307771D02*
X848066Y307769D01*
X847012Y308137D02*
X848060Y307771D01*
X847006Y308139D02*
X847012Y308137D01*
X857779Y307167D02*
X860419Y306243D01*
X850000Y307500D02*
X854858D01*
X864762Y302782D02*
X866243Y300420D01*
X862782Y304762D02*
X864762Y302782D01*
X871768Y-41768D02*
X871770Y-41766D01*
X871766Y-41770D02*
X871768Y-41768D01*
X861770Y-51766D02*
X871766Y-41770D01*
X861768Y-51768D02*
X861770Y-51766D01*
X861766Y-51770D02*
X861768Y-51768D01*
X858964Y-47500D02*
X867500Y-38964D01*
X525142Y-47500D02*
X858964D01*
X525000Y-52500D02*
X860000D01*
X842517Y314709D02*
X842517Y314703D01*
X842646Y313605D01*
X842647Y313599D01*
X842769Y313066D02*
X842771Y313060D01*
X843138Y312011D01*
X843139Y312006D01*
X844320Y310114D02*
X844322Y310112D01*
X844324Y310110D01*
X845110Y309324D01*
X845112Y309322D01*
X845114Y309320D01*
X846511Y308376D02*
X846512Y308375D01*
X846509Y308377D02*
X846511Y308376D01*
X845562Y308965D02*
X846509Y308377D01*
X845561Y308966D02*
X845562Y308965D01*
X845559Y308967D02*
X845561Y308966D01*
X843376Y311511D02*
X843379Y311506D01*
X843962Y310567D01*
X843966Y310561D01*
X508489Y-23376D02*
X509439Y-23966D01*
X511034Y-25561D02*
X511038Y-25568D01*
X511620Y-26504D01*
X511624Y-26511D01*
X510678Y-25112D02*
X510680Y-25114D01*
X510676Y-25110D02*
X510678Y-25112D01*
X509890Y-24324D02*
X510676Y-25110D01*
X509888Y-24322D02*
X509890Y-24324D01*
X509886Y-24320D02*
X509888Y-24322D01*
X512353Y-28599D02*
X512354Y-28605D01*
X512482Y-29703D01*
X512483Y-29709D01*
X511861Y-27006D02*
X511862Y-27011D01*
X512229Y-28061D01*
X512230Y-28066D01*
X507419Y-29454D02*
X507500Y-30146D01*
X507994Y-23139D02*
X507995Y-23140D01*
X507992Y-23139D02*
X507994Y-23139D01*
X506935Y-22770D02*
X507992Y-23139D01*
X506934Y-22769D02*
X506935Y-22770D01*
X506932Y-22769D02*
X506934Y-22769D01*
X505291Y-22517D02*
X506401Y-22647D01*
X504854Y-27500D02*
X505546Y-27581D01*
X506085Y-27770D02*
X506556Y-28062D01*
X506938Y-28444D01*
X505546Y-27581D02*
X506085Y-27770D01*
X507230Y-28914D02*
X507419Y-29454D01*
X506938Y-28444D02*
X507230Y-28914D01*
X519580Y-46243D02*
X522221Y-47168D01*
X517218Y-44762D02*
X519580Y-46243D01*
X522221Y-47168D02*
X525142Y-47500D01*
X515238Y-42782D02*
X517218Y-44762D01*
X513757Y-40419D02*
X515238Y-42782D01*
X524714Y-52484D02*
X524717Y-52484D01*
X521381Y-52105D02*
X524714Y-52484D01*
X521377Y-52104D02*
X521381Y-52105D01*
X520826Y-51977D02*
X520834Y-51980D01*
X517671Y-50872D02*
X520826Y-51977D01*
X517664Y-50870D02*
X517671Y-50872D01*
X517162Y-50628D02*
X517163Y-50629D01*
X517161Y-50628D02*
X517162Y-50628D01*
X514323Y-48849D02*
X517161Y-50628D01*
X514322Y-48849D02*
X514323Y-48849D01*
X514321Y-48848D02*
X514322Y-48849D01*
X512500Y-34858D02*
Y-30000D01*
Y-34858D02*
X512832Y-37779D01*
X507500Y-35000D02*
Y-30146D01*
X507516Y-35283D02*
X507516Y-35286D01*
X507895Y-38619D01*
X507896Y-38623D01*
X511500Y-46116D02*
X511502Y-46118D01*
X511504Y-46120D01*
X513880Y-48496D01*
X513882Y-48498D01*
X513884Y-48500D01*
X512832Y-37779D02*
X513757Y-40419D01*
X509371Y-42836D02*
X509371Y-42838D01*
X509372Y-42839D01*
X511151Y-45676D01*
X511152Y-45678D01*
X511152Y-45679D01*
X508020Y-39166D02*
X508023Y-39173D01*
X509128Y-42329D01*
X509130Y-42336D01*
X308848Y865678D02*
X310628Y862838D01*
X310870Y862336D02*
X311980Y859166D01*
X306116Y868500D02*
X306118Y868498D01*
X306120Y868496D01*
X308496Y866120D01*
X308498Y866118D01*
X308500Y866116D01*
X304762Y862782D02*
X306243Y860419D01*
X312104Y858623D02*
X312105Y858619D01*
X312484Y855286D01*
X312484Y855283D01*
X312500Y850146D02*
Y855000D01*
X306243Y860419D02*
X307167Y857778D01*
X307500Y850000D02*
Y854858D01*
X307167Y857778D02*
X307500Y854858D01*
X298619Y872105D02*
X298623Y872104D01*
X295286Y872484D02*
X298619Y872105D01*
X295283Y872484D02*
X295286Y872484D01*
X302838Y870629D02*
X305678Y868848D01*
X299166Y871980D02*
X302336Y870870D01*
X-40000Y872500D02*
X295000D01*
X-38964Y867500D02*
X294858D01*
X302782Y864762D02*
X304762Y862782D01*
X294858Y867500D02*
X297778Y867168D01*
X300420Y866243D02*
X302782Y864762D01*
X297778Y867168D02*
X300420Y866243D01*
X313444Y848062D02*
X313915Y847770D01*
X313062Y848444D02*
X313444Y848062D01*
X315146Y847500D02*
X504854D01*
X314454Y847581D02*
X315146Y847500D01*
X313915Y847770D02*
X314454Y847581D01*
X312581Y849454D02*
X312770Y848914D01*
X312500Y850146D02*
X312581Y849454D01*
X312770Y848914D02*
X313062Y848444D01*
X315000Y842500D02*
X505000D01*
X314706Y842517D02*
X314709Y842517D01*
X313603Y842646D02*
X314706Y842517D01*
X313599Y842647D02*
X313603Y842646D01*
X313060Y842771D02*
X313066Y842769D01*
X312012Y843137D02*
X313060Y842771D01*
X312006Y843139D02*
X312012Y843137D01*
X307517Y849709D02*
X307518Y849703D01*
X307646Y848605D01*
X307647Y848599D01*
X308376Y846511D02*
X308380Y846505D01*
X308963Y845567D01*
X308966Y845561D01*
X307770Y848066D02*
X307771Y848060D01*
X308137Y847012D01*
X308139Y847006D01*
X311506Y843379D02*
X311511Y843376D01*
X310565Y843963D02*
X311506Y843379D01*
X310561Y843966D02*
X310565Y843963D01*
X309320Y845114D02*
X309322Y845112D01*
X309324Y845110D01*
X310110Y844324D01*
X310112Y844322D01*
X310114Y844320D01*
X-22500Y315000D02*
Y505000D01*
X-40419Y513757D02*
X-37779Y512832D01*
X-34858Y512500D02*
X-30000D01*
X-42782Y515238D02*
X-40419Y513757D01*
X-44762Y517218D02*
X-42782Y515238D01*
X-46243Y519580D02*
X-44762Y517218D01*
X-37779Y512832D02*
X-34858Y512500D01*
X-41768Y871768D02*
X-41766Y871770D01*
X-41770Y871766D02*
X-41768Y871768D01*
X-51766Y861770D02*
X-41770Y871766D01*
X-51768Y861768D02*
X-51766Y861770D01*
X-51770Y861766D02*
X-51768Y861768D01*
X-47500Y858964D02*
X-38964Y867500D01*
X-47500Y525142D02*
Y858964D01*
Y525142D02*
X-47168Y522221D01*
X-52500Y525000D02*
Y860000D01*
X-52484Y524717D02*
X-52484Y524714D01*
X-52105Y521381D01*
X-52104Y521377D01*
X-47168Y522221D02*
X-46243Y519580D01*
X-48498Y513882D02*
X-46118Y511502D01*
X-50629Y517162D02*
X-50626Y517158D01*
X-48851Y514327D01*
X-48849Y514322D01*
X-51980Y520834D02*
X-51978Y520830D01*
X-50871Y517668D01*
X-50870Y517664D01*
X-25114Y510680D02*
X-25112Y510678D01*
X-25110Y510676D01*
X-24324Y509890D01*
X-24322Y509888D01*
X-24320Y509886D01*
X-23140Y507995D02*
X-23139Y507994D01*
X-23139Y507992D01*
X-22770Y506936D01*
X-22769Y506934D01*
X-22769Y506932D01*
X-23967Y509440D02*
X-23966Y509439D01*
X-23965Y509438D01*
X-23377Y508490D01*
X-23376Y508489D01*
X-23375Y508488D01*
X-25566Y511037D02*
X-25561Y511034D01*
X-26506Y511621D02*
X-25566Y511037D01*
X-26511Y511624D02*
X-26506Y511621D01*
X-27012Y511863D02*
X-27006Y511861D01*
X-28060Y512229D02*
X-27012Y511863D01*
X-28066Y512231D02*
X-28060Y512229D01*
X-22647Y506401D02*
X-22646Y506395D01*
X-22517Y505297D01*
X-22517Y505291D01*
X-27770Y506085D02*
X-27581Y505546D01*
X-28062Y506556D02*
X-27770Y506085D01*
X-27500Y315146D02*
Y504854D01*
X-27581Y505546D02*
X-27500Y504854D01*
X-28606Y512354D02*
X-28600Y512353D01*
X-29703Y512482D02*
X-28606Y512354D01*
X-29709Y512483D02*
X-29703Y512482D01*
X-42845Y509376D02*
X-42838Y509371D01*
X-45671Y511147D02*
X-42845Y509376D01*
X-45678Y511152D02*
X-45671Y511147D01*
X-35286Y507516D02*
X-35283Y507516D01*
X-38619Y507895D02*
X-35286Y507516D01*
X-38623Y507896D02*
X-38619Y507895D01*
X-39173Y508023D02*
X-39166Y508020D01*
X-42329Y509128D02*
X-39173Y508023D01*
X-42336Y509130D02*
X-42329Y509128D01*
X-30146Y507500D02*
X-29454Y507419D01*
X-28915Y507230D01*
X-35000Y507500D02*
X-30146D01*
X-28444Y506938D02*
X-28062Y506556D01*
X-28915Y507230D02*
X-28444Y506938D01*
X315000Y-22500D02*
X505000D01*
X315146Y-27500D02*
X504854D01*
X313599Y-22647D02*
X314709Y-22517D01*
X313066Y-22769D02*
X313068Y-22769D01*
X313065Y-22770D02*
X313066Y-22769D01*
X312008Y-23139D02*
X313065Y-22770D01*
X312006Y-23139D02*
X312008Y-23139D01*
X312005Y-23140D02*
X312006Y-23139D01*
X314454Y-27581D02*
X315146Y-27500D01*
X313915Y-27770D02*
X314454Y-27581D01*
X313444Y-28062D02*
X313915Y-27770D01*
X313062Y-28444D02*
X313444Y-28062D01*
X312770Y-28914D02*
X313062Y-28444D01*
X312581Y-29454D02*
X312770Y-28914D01*
X312500Y-30146D02*
X312581Y-29454D01*
X310561Y-23966D02*
X311511Y-23376D01*
X310112Y-24322D02*
X310114Y-24320D01*
X310110Y-24324D02*
X310112Y-24322D01*
X309324Y-25110D02*
X310110Y-24324D01*
X309322Y-25112D02*
X309324Y-25110D01*
X309320Y-25114D02*
X309322Y-25112D01*
X308962Y-25568D02*
X308966Y-25561D01*
X308380Y-26504D02*
X308962Y-25568D01*
X308376Y-26511D02*
X308380Y-26504D01*
X308138Y-27011D02*
X308139Y-27006D01*
X307771Y-28061D02*
X308138Y-27011D01*
X307770Y-28066D02*
X307771Y-28061D01*
X307646Y-28605D02*
X307647Y-28599D01*
X307518Y-29703D02*
X307646Y-28605D01*
X307517Y-29709D02*
X307518Y-29703D01*
X312500Y-35000D02*
Y-30146D01*
X312484Y-35286D02*
X312484Y-35283D01*
X312105Y-38619D02*
X312484Y-35286D01*
X312104Y-38623D02*
X312105Y-38619D01*
X307500Y-34858D02*
Y-30000D01*
X307167Y-37779D02*
X307500Y-34858D01*
X306243Y-40419D02*
X307167Y-37779D01*
X311977Y-39173D02*
X311980Y-39166D01*
X310872Y-42329D02*
X311977Y-39173D01*
X310870Y-42336D02*
X310872Y-42329D01*
X310628Y-42838D02*
X310629Y-42836D01*
X310628Y-42839D02*
X310628Y-42838D01*
X308849Y-45676D02*
X310628Y-42839D01*
X308848Y-45678D02*
X308849Y-45676D01*
X308848Y-45679D02*
X308848Y-45678D01*
X304762Y-42782D02*
X306243Y-40419D01*
X308498Y-46118D02*
X308500Y-46116D01*
X308496Y-46120D02*
X308498Y-46118D01*
X306120Y-48496D02*
X308496Y-46120D01*
X306118Y-48498D02*
X306120Y-48496D01*
X306116Y-48500D02*
X306118Y-48498D01*
X302782Y-44762D02*
X304762Y-42782D01*
X300420Y-46243D02*
X302782Y-44762D01*
X297779Y-47168D02*
X300420Y-46243D01*
X294858Y-47500D02*
X297779Y-47168D01*
X-38964Y-47500D02*
X294858D01*
X305678Y-48849D02*
X305679Y-48848D01*
X305677Y-48849D02*
X305678Y-48849D01*
X302839Y-50628D02*
X305677Y-48849D01*
X302838Y-50628D02*
X302839Y-50628D01*
X302837Y-50629D02*
X302838Y-50628D01*
X302329Y-50872D02*
X302336Y-50870D01*
X299174Y-51977D02*
X302329Y-50872D01*
X299166Y-51980D02*
X299174Y-51977D01*
X298619Y-52105D02*
X298623Y-52104D01*
X295286Y-52484D02*
X298619Y-52105D01*
X295283Y-52484D02*
X295286Y-52484D01*
X-40000Y-52500D02*
X295000D01*
X-22517Y314703D02*
X-22517Y314709D01*
X-22646Y313605D02*
X-22517Y314703D01*
X-22647Y313599D02*
X-22646Y313605D01*
X-22770Y313063D02*
X-22769Y313066D01*
X-23138Y312009D02*
X-22770Y313063D01*
X-23139Y312006D02*
X-23138Y312009D01*
X-27581Y314454D02*
X-27500Y315146D01*
X-27770Y313915D02*
X-27581Y314454D01*
X-28062Y313444D02*
X-27770Y313915D01*
X-28444Y313062D02*
X-28062Y313444D01*
X-23376Y311511D02*
X-23375Y311512D01*
X-23377Y311509D02*
X-23376Y311511D01*
X-23965Y310562D02*
X-23377Y311509D01*
X-23966Y310561D02*
X-23965Y310562D01*
X-23967Y310560D02*
X-23966Y310561D01*
X-24322Y310112D02*
X-24320Y310114D01*
X-24324Y310110D02*
X-24322Y310112D01*
X-25110Y309324D02*
X-24324Y310110D01*
X-25112Y309322D02*
X-25110Y309324D01*
X-25114Y309320D02*
X-25112Y309322D01*
X-28915Y312770D02*
X-28444Y313062D01*
X-29454Y312581D02*
X-28915Y312770D01*
X-30146Y312500D02*
X-29454Y312581D01*
X-35000Y312500D02*
X-30146D01*
X-38623Y312104D02*
X-35283Y312484D01*
X-39174Y311977D02*
X-39166Y311980D01*
X-42329Y310872D02*
X-39174Y311977D01*
X-42336Y310870D02*
X-42329Y310872D01*
X-42842Y310626D02*
X-42838Y310629D01*
X-45673Y308852D02*
X-42842Y310626D01*
X-45678Y308849D02*
X-45673Y308852D01*
X-25561Y308966D02*
X-25559Y308967D01*
X-25562Y308965D02*
X-25561Y308966D01*
X-26509Y308377D02*
X-25562Y308965D01*
X-26511Y308376D02*
X-26509Y308377D01*
X-26512Y308375D02*
X-26511Y308376D01*
X-27012Y308137D02*
X-27006Y308139D01*
X-28060Y307771D02*
X-27012Y308137D01*
X-28066Y307769D02*
X-28060Y307771D01*
X-28605Y307646D02*
X-28599Y307647D01*
X-29704Y307517D02*
X-28605Y307646D01*
X-29709Y307517D02*
X-29704Y307517D01*
X-34858Y307500D02*
X-30000D01*
X-37779Y307167D02*
X-34858Y307500D01*
X-40420Y306243D02*
X-37779Y307167D01*
X-42782Y304762D02*
X-40420Y306243D01*
X-44762Y302782D02*
X-42782Y304762D01*
X-46243Y300419D02*
X-44762Y302782D01*
X-46118Y308498D02*
X-46116Y308500D01*
X-46120Y308496D02*
X-46118Y308498D01*
X-48496Y306120D02*
X-46120Y308496D01*
X-48498Y306118D02*
X-48496Y306120D01*
X-48500Y306116D02*
X-48498Y306118D01*
X-47168Y297779D02*
X-46243Y300419D01*
X-48849Y305678D02*
X-48848Y305679D01*
X-48849Y305676D02*
X-48849Y305678D01*
X-50628Y302839D02*
X-48849Y305676D01*
X-50628Y302838D02*
X-50628Y302839D01*
X-50629Y302837D02*
X-50628Y302838D01*
X-50872Y302329D02*
X-50870Y302336D01*
X-51977Y299174D02*
X-50872Y302329D01*
X-51980Y299166D02*
X-51977Y299174D01*
X-47500Y294858D02*
X-47168Y297779D01*
X-47500Y-38964D02*
Y294858D01*
Y-38964D02*
X-38964Y-47500D01*
X-51770Y-41766D02*
X-51768Y-41768D01*
X-51766Y-41770D01*
X-41770Y-51766D01*
X-41768Y-51768D01*
X-41766Y-51770D01*
X-52105Y298619D02*
X-52104Y298623D01*
X-52484Y295286D02*
X-52105Y298619D01*
X-52484Y295283D02*
X-52484Y295286D01*
X-52500Y-40000D02*
Y295000D01*
M02*
