G04*
G04 #@! TF.GenerationSoftware,Altium Limited,Altium Designer,21.1.1 (26)*
G04*
G04 Layer_Physical_Order=4*
G04 Layer_Color=16711680*
%FSLAX44Y44*%
%MOMM*%
G71*
G04*
G04 #@! TF.SameCoordinates,DA55104B-334F-46BF-AAC2-A5A3D9E97D21*
G04*
G04*
G04 #@! TF.FilePolarity,Positive*
G04*
G01*
G75*
%ADD11C,0.6000*%
%ADD12C,0.3000*%
%ADD13C,0.2000*%
%ADD14C,0.2540*%
%ADD18R,0.8000X1.6000*%
%ADD19R,2.1000X3.0000*%
%ADD20R,1.0582X1.2061*%
%ADD21R,1.2061X1.0582*%
G04:AMPARAMS|DCode=23|XSize=0.45mm|YSize=1.85mm|CornerRadius=0.0495mm|HoleSize=0mm|Usage=FLASHONLY|Rotation=270.000|XOffset=0mm|YOffset=0mm|HoleType=Round|Shape=RoundedRectangle|*
%AMROUNDEDRECTD23*
21,1,0.4500,1.7510,0,0,270.0*
21,1,0.3510,1.8500,0,0,270.0*
1,1,0.0990,-0.8755,-0.1755*
1,1,0.0990,-0.8755,0.1755*
1,1,0.0990,0.8755,0.1755*
1,1,0.0990,0.8755,-0.1755*
%
%ADD23ROUNDEDRECTD23*%
%ADD26R,1.6000X0.8000*%
%ADD27R,3.0000X2.1000*%
%ADD33R,1.3000X1.8000*%
%ADD36R,1.2087X1.0121*%
%ADD39R,1.0000X1.0000*%
%ADD40R,1.0000X1.0000*%
%ADD43R,1.1000X1.2000*%
%ADD44R,1.2000X1.1000*%
%ADD45R,1.3000X1.0500*%
%ADD66C,1.0000*%
%ADD67C,1.0000*%
%ADD68C,0.3400*%
%ADD69C,0.5000*%
%ADD70C,0.8000*%
%ADD71C,0.7000*%
%ADD72C,1.5000*%
%ADD73C,0.4000*%
%ADD74C,0.4500*%
%ADD75C,0.6220*%
%ADD85R,2.4130X2.0066*%
%ADD92C,5.0000*%
%ADD93C,1.4000*%
%ADD94R,1.4000X1.4000*%
%ADD95R,2.0000X2.0000*%
%ADD96C,2.0000*%
%ADD97C,0.6000*%
%ADD98C,0.7000*%
%ADD99C,0.8000*%
%ADD100C,0.9000*%
%ADD109R,1.5240X0.6000*%
%ADD110R,1.8000X1.2500*%
%ADD111R,1.0000X2.0320*%
%ADD112R,1.0000X2.0320*%
%ADD113R,0.6000X1.5240*%
%ADD114R,1.2500X1.8000*%
G04:AMPARAMS|DCode=115|XSize=1mm|YSize=2.05mm|CornerRadius=0.05mm|HoleSize=0mm|Usage=FLASHONLY|Rotation=180.000|XOffset=0mm|YOffset=0mm|HoleType=Round|Shape=RoundedRectangle|*
%AMROUNDEDRECTD115*
21,1,1.0000,1.9500,0,0,180.0*
21,1,0.9000,2.0500,0,0,180.0*
1,1,0.1000,-0.4500,0.9750*
1,1,0.1000,0.4500,0.9750*
1,1,0.1000,0.4500,-0.9750*
1,1,0.1000,-0.4500,-0.9750*
%
%ADD115ROUNDEDRECTD115*%
G04:AMPARAMS|DCode=116|XSize=3.25mm|YSize=2.05mm|CornerRadius=0.0513mm|HoleSize=0mm|Usage=FLASHONLY|Rotation=180.000|XOffset=0mm|YOffset=0mm|HoleType=Round|Shape=RoundedRectangle|*
%AMROUNDEDRECTD116*
21,1,3.2500,1.9475,0,0,180.0*
21,1,3.1475,2.0500,0,0,180.0*
1,1,0.1025,-1.5738,0.9738*
1,1,0.1025,1.5738,0.9738*
1,1,0.1025,1.5738,-0.9738*
1,1,0.1025,-1.5738,-0.9738*
%
%ADD116ROUNDEDRECTD116*%
%ADD117R,1.8000X1.3000*%
%ADD118R,1.5300X1.5000*%
%ADD119R,1.5000X1.5300*%
%ADD120R,1.0121X1.2087*%
%ADD121R,1.0500X1.3000*%
G04:AMPARAMS|DCode=122|XSize=1.21mm|YSize=0.59mm|CornerRadius=0.1475mm|HoleSize=0mm|Usage=FLASHONLY|Rotation=180.000|XOffset=0mm|YOffset=0mm|HoleType=Round|Shape=RoundedRectangle|*
%AMROUNDEDRECTD122*
21,1,1.2100,0.2950,0,0,180.0*
21,1,0.9150,0.5900,0,0,180.0*
1,1,0.2950,-0.4575,0.1475*
1,1,0.2950,0.4575,0.1475*
1,1,0.2950,0.4575,-0.1475*
1,1,0.2950,-0.4575,-0.1475*
%
%ADD122ROUNDEDRECTD122*%
G04:AMPARAMS|DCode=123|XSize=1.21mm|YSize=0.59mm|CornerRadius=0.1475mm|HoleSize=0mm|Usage=FLASHONLY|Rotation=270.000|XOffset=0mm|YOffset=0mm|HoleType=Round|Shape=RoundedRectangle|*
%AMROUNDEDRECTD123*
21,1,1.2100,0.2950,0,0,270.0*
21,1,0.9150,0.5900,0,0,270.0*
1,1,0.2950,-0.1475,-0.4575*
1,1,0.2950,-0.1475,0.4575*
1,1,0.2950,0.1475,0.4575*
1,1,0.2950,0.1475,-0.4575*
%
%ADD123ROUNDEDRECTD123*%
G04:AMPARAMS|DCode=124|XSize=1.21mm|YSize=0.58mm|CornerRadius=0.0725mm|HoleSize=0mm|Usage=FLASHONLY|Rotation=270.000|XOffset=0mm|YOffset=0mm|HoleType=Round|Shape=RoundedRectangle|*
%AMROUNDEDRECTD124*
21,1,1.2100,0.4350,0,0,270.0*
21,1,1.0650,0.5800,0,0,270.0*
1,1,0.1450,-0.2175,-0.5325*
1,1,0.1450,-0.2175,0.5325*
1,1,0.1450,0.2175,0.5325*
1,1,0.1450,0.2175,-0.5325*
%
%ADD124ROUNDEDRECTD124*%
%ADD125C,1.2850*%
%ADD126C,1.2500*%
%ADD127C,1.3000*%
%ADD128C,2.0000*%
%ADD129R,4.5612X4.5974*%
%ADD130R,3.9062X3.8508*%
%ADD131R,7.6200X14.7828*%
%ADD132R,3.8354X9.3472*%
%ADD133R,33.7279X3.9764*%
%ADD134R,6.8326X7.1628*%
%ADD135R,3.9006X1.9614*%
%ADD136R,6.4008X9.9568*%
%ADD137R,5.6388X1.5240*%
%ADD138R,4.6482X5.7150*%
%ADD139R,3.5000X1.7172*%
%ADD140R,1.4986X5.2732*%
%ADD141R,2.1544X6.5178*%
%ADD142R,2.5750X5.3622*%
G36*
X867961Y859155D02*
Y525116D01*
X867620Y522118D01*
X866661Y519379D01*
X865125Y516928D01*
X863071Y514875D01*
X860620Y513339D01*
X857882Y512380D01*
X854884Y512039D01*
X850000D01*
X849882Y512016D01*
X849763Y512025D01*
X848653Y511895D01*
X848440Y511826D01*
X848218Y511795D01*
X847158Y511425D01*
X846964Y511311D01*
X846754Y511232D01*
X845804Y510642D01*
X845633Y510482D01*
X845438Y510352D01*
X844648Y509562D01*
X844518Y509367D01*
X844358Y509196D01*
X843768Y508246D01*
X843689Y508035D01*
X843575Y507842D01*
X843205Y506782D01*
X843174Y506561D01*
X843105Y506347D01*
X842975Y505237D01*
X842984Y505118D01*
X842961Y505000D01*
Y315000D01*
X842984Y314882D01*
X842975Y314763D01*
X843105Y313653D01*
X843174Y313440D01*
X843205Y313218D01*
X843575Y312158D01*
X843689Y311964D01*
X843768Y311754D01*
X844358Y310804D01*
X844518Y310633D01*
X844648Y310438D01*
X845438Y309648D01*
X845633Y309518D01*
X845804Y309358D01*
X846754Y308768D01*
X846964Y308689D01*
X847158Y308575D01*
X848218Y308205D01*
X848440Y308174D01*
X848653Y308105D01*
X849763Y307975D01*
X849882Y307984D01*
X850000Y307961D01*
X854884D01*
X857882Y307620D01*
X860620Y306661D01*
X863071Y305125D01*
X865125Y303071D01*
X866661Y300621D01*
X867620Y297882D01*
X867961Y294884D01*
Y-39155D01*
X859155Y-47961D01*
X525116D01*
X522118Y-47620D01*
X519379Y-46661D01*
X516929Y-45125D01*
X514875Y-43071D01*
X513339Y-40621D01*
X512380Y-37882D01*
X512039Y-34885D01*
Y-30000D01*
X512016Y-29882D01*
X512025Y-29763D01*
X511895Y-28653D01*
X511826Y-28440D01*
X511795Y-28218D01*
X511425Y-27158D01*
X511311Y-26965D01*
X511232Y-26754D01*
X510642Y-25804D01*
X510482Y-25633D01*
X510352Y-25438D01*
X509562Y-24648D01*
X509367Y-24518D01*
X509196Y-24358D01*
X508246Y-23768D01*
X508036Y-23689D01*
X507842Y-23575D01*
X506782Y-23205D01*
X506560Y-23174D01*
X506347Y-23105D01*
X505237Y-22975D01*
X505118Y-22984D01*
X505000Y-22961D01*
X315000D01*
X314882Y-22984D01*
X314763Y-22975D01*
X313653Y-23105D01*
X313440Y-23174D01*
X313218Y-23205D01*
X312158Y-23575D01*
X311964Y-23689D01*
X311754Y-23768D01*
X310804Y-24358D01*
X310633Y-24518D01*
X310438Y-24648D01*
X309648Y-25438D01*
X309518Y-25633D01*
X309358Y-25804D01*
X308768Y-26754D01*
X308689Y-26964D01*
X308575Y-27158D01*
X308205Y-28218D01*
X308174Y-28440D01*
X308105Y-28653D01*
X307975Y-29763D01*
X307984Y-29882D01*
X307961Y-30000D01*
Y-34885D01*
X307620Y-37882D01*
X306661Y-40621D01*
X305125Y-43071D01*
X303071Y-45125D01*
X300621Y-46661D01*
X297882Y-47620D01*
X294884Y-47961D01*
X-39155D01*
X-47961Y-39155D01*
Y294884D01*
X-47620Y297882D01*
X-46661Y300621D01*
X-45125Y303071D01*
X-43071Y305125D01*
X-40621Y306661D01*
X-37882Y307620D01*
X-34884Y307961D01*
X-30000D01*
X-29882Y307984D01*
X-29763Y307975D01*
X-28653Y308105D01*
X-28440Y308174D01*
X-28218Y308205D01*
X-27158Y308575D01*
X-26964Y308689D01*
X-26754Y308768D01*
X-25804Y309358D01*
X-25633Y309518D01*
X-25438Y309648D01*
X-24648Y310438D01*
X-24518Y310633D01*
X-24358Y310804D01*
X-23768Y311754D01*
X-23689Y311964D01*
X-23575Y312158D01*
X-23205Y313218D01*
X-23174Y313440D01*
X-23105Y313653D01*
X-22975Y314763D01*
X-22984Y314882D01*
X-22961Y315000D01*
Y505000D01*
X-22984Y505118D01*
X-22975Y505237D01*
X-23105Y506347D01*
X-23174Y506560D01*
X-23205Y506782D01*
X-23575Y507842D01*
X-23689Y508036D01*
X-23768Y508246D01*
X-24358Y509196D01*
X-24518Y509367D01*
X-24648Y509562D01*
X-25438Y510352D01*
X-25633Y510482D01*
X-25804Y510642D01*
X-26754Y511232D01*
X-26964Y511311D01*
X-27158Y511425D01*
X-28218Y511795D01*
X-28440Y511826D01*
X-28653Y511895D01*
X-29763Y512025D01*
X-29883Y512016D01*
X-30000Y512039D01*
X-34885D01*
X-37882Y512380D01*
X-40621Y513339D01*
X-43071Y514875D01*
X-45125Y516928D01*
X-46661Y519379D01*
X-47620Y522118D01*
X-47961Y525116D01*
Y859155D01*
X-39155Y867961D01*
X294884D01*
X297882Y867620D01*
X300621Y866661D01*
X303071Y865125D01*
X305125Y863072D01*
X306661Y860621D01*
X307620Y857882D01*
X307961Y854884D01*
Y850000D01*
X307984Y849882D01*
X307975Y849763D01*
X308105Y848653D01*
X308174Y848440D01*
X308205Y848218D01*
X308575Y847158D01*
X308689Y846964D01*
X308768Y846754D01*
X309358Y845804D01*
X309518Y845633D01*
X309648Y845438D01*
X310438Y844648D01*
X310633Y844518D01*
X310804Y844358D01*
X311754Y843768D01*
X311964Y843689D01*
X312158Y843575D01*
X313218Y843205D01*
X313440Y843174D01*
X313653Y843105D01*
X314763Y842975D01*
X314882Y842984D01*
X315000Y842961D01*
X505000D01*
X505118Y842984D01*
X505237Y842975D01*
X506347Y843105D01*
X506560Y843174D01*
X506782Y843205D01*
X507842Y843575D01*
X508036Y843689D01*
X508246Y843768D01*
X509196Y844358D01*
X509367Y844518D01*
X509562Y844648D01*
X510352Y845438D01*
X510482Y845633D01*
X510642Y845804D01*
X511232Y846754D01*
X511311Y846964D01*
X511425Y847158D01*
X511795Y848218D01*
X511826Y848440D01*
X511895Y848653D01*
X512025Y849763D01*
X512016Y849882D01*
X512039Y850000D01*
Y854884D01*
X512380Y857882D01*
X513339Y860621D01*
X514875Y863071D01*
X516928Y865125D01*
X519379Y866661D01*
X522118Y867620D01*
X525116Y867961D01*
X859155D01*
X867961Y859155D01*
D02*
G37*
%LPC*%
G36*
X426910Y821536D02*
X337626D01*
X335929Y821312D01*
X334348Y820657D01*
X332990Y819615D01*
X328312Y814937D01*
X327270Y813580D01*
X326615Y811998D01*
X326391Y810302D01*
Y807555D01*
X325121Y806746D01*
X322680Y807400D01*
X319520D01*
X316468Y806582D01*
X313732Y805002D01*
X311498Y802768D01*
X309918Y800032D01*
X309100Y796980D01*
Y793820D01*
X309918Y790768D01*
X310031Y790572D01*
X309396Y789472D01*
X307404D01*
X306769Y790572D01*
X306882Y790768D01*
X307700Y793820D01*
Y796980D01*
X306882Y800032D01*
X305302Y802768D01*
X303068Y805002D01*
X300332Y806582D01*
X297280Y807400D01*
X294120D01*
X291068Y806582D01*
X288332Y805002D01*
X286098Y802768D01*
X284518Y800032D01*
X283700Y796980D01*
Y793820D01*
X284518Y790768D01*
X284631Y790572D01*
X283996Y789472D01*
X260100D01*
X256657Y792914D01*
X256900Y793820D01*
Y796980D01*
X256082Y800032D01*
X254502Y802768D01*
X252268Y805002D01*
X249532Y806582D01*
X246480Y807400D01*
X243320D01*
X240268Y806582D01*
X237532Y805002D01*
X235298Y802768D01*
X233718Y800032D01*
X232900Y796980D01*
Y793820D01*
X233718Y790768D01*
X235298Y788032D01*
X237532Y785798D01*
X240268Y784218D01*
X243320Y783400D01*
X246480D01*
X247183Y783588D01*
X247786Y782965D01*
X247118Y781829D01*
X246480Y782000D01*
X243320D01*
X240268Y781182D01*
X237532Y779602D01*
X235298Y777368D01*
X233718Y774632D01*
X232900Y771580D01*
Y768420D01*
X233718Y765368D01*
X235298Y762632D01*
X237532Y760398D01*
X240268Y758818D01*
X243320Y758000D01*
X246480D01*
X249532Y758818D01*
X252268Y760398D01*
X254502Y762632D01*
X256082Y765368D01*
X256422Y766637D01*
X257692Y766470D01*
Y758210D01*
X239550Y740069D01*
X238198Y738306D01*
X236670D01*
Y740330D01*
X234220D01*
X233331Y741600D01*
X233670Y742865D01*
Y744971D01*
X233125Y747006D01*
X232072Y748830D01*
X230582Y750320D01*
X228758Y751373D01*
X226723Y751918D01*
X224617D01*
X222582Y751373D01*
X220758Y750320D01*
X219268Y748830D01*
X218546Y747579D01*
X217102Y747539D01*
X216472Y748631D01*
X214889Y750214D01*
X214529Y750422D01*
X214363Y751681D01*
X220559Y757877D01*
X221383Y757986D01*
X222037Y758256D01*
X224132Y758818D01*
X226868Y760398D01*
X229102Y762632D01*
X230682Y765368D01*
X231500Y768420D01*
Y771580D01*
X230682Y774632D01*
X229102Y777368D01*
X226868Y779602D01*
X224132Y781182D01*
X221080Y782000D01*
X217920D01*
X214868Y781182D01*
X212132Y779602D01*
X209898Y777368D01*
X208318Y774632D01*
X208147Y773993D01*
X206921Y772767D01*
X205694Y773096D01*
X205282Y774632D01*
X203702Y777368D01*
X201468Y779602D01*
X198732Y781182D01*
X195680Y782000D01*
X192520D01*
X189468Y781182D01*
X186732Y779602D01*
X184498Y777368D01*
X182918Y774632D01*
X182100Y771580D01*
Y768420D01*
X182918Y765368D01*
X184498Y762632D01*
X186732Y760398D01*
X188577Y759332D01*
X188786Y757745D01*
X183063Y752022D01*
X176147D01*
X173417Y753153D01*
X170434Y753546D01*
X161560Y753546D01*
X158577Y753153D01*
X155798Y752002D01*
X153412Y750170D01*
X147554Y744313D01*
X145722Y741926D01*
X144571Y739147D01*
X144178Y736164D01*
Y705078D01*
X143122Y704372D01*
X142050Y704816D01*
X140941Y704962D01*
X136440Y709463D01*
X134560Y710906D01*
X134497Y710932D01*
Y716105D01*
X113915D01*
Y715737D01*
X111432D01*
Y715860D01*
X111089Y718471D01*
X110081Y720903D01*
X108478Y722992D01*
X106389Y724595D01*
X103956Y725603D01*
X101346Y725946D01*
X98736Y725603D01*
X96303Y724595D01*
X94214Y722992D01*
X92611Y720903D01*
X91603Y718471D01*
X91292Y716105D01*
X82152D01*
X81497Y716191D01*
X71927D01*
X70575Y717229D01*
X68142Y718237D01*
X65532Y718580D01*
X62922Y718237D01*
X60489Y717229D01*
X58400Y715626D01*
X56797Y713537D01*
X55789Y711105D01*
X55446Y708494D01*
X55789Y705883D01*
X56797Y703451D01*
X58400Y701362D01*
X60789Y698973D01*
X62878Y697370D01*
X65310Y696363D01*
X67921Y696019D01*
X69571D01*
X69578Y696010D01*
Y652343D01*
X68522Y651637D01*
X67199Y652185D01*
X64588Y652529D01*
X61978Y652185D01*
X59545Y651178D01*
X57456Y649575D01*
X56291Y648057D01*
X55558Y647753D01*
X55296Y647552D01*
X44705D01*
X43598Y648011D01*
X40988Y648354D01*
X27931D01*
X25320Y648011D01*
X24213Y647552D01*
X11176D01*
X9225Y647164D01*
X9007Y647018D01*
X7190D01*
Y645488D01*
X6466Y644405D01*
X6078Y642454D01*
Y603084D01*
X6466Y601133D01*
X7571Y599479D01*
X9225Y598374D01*
X11176Y597986D01*
X35814D01*
X37765Y598374D01*
X39419Y599479D01*
X41441Y601502D01*
X41942Y601886D01*
X42326Y602387D01*
X44245Y604305D01*
X45350Y605959D01*
X45738Y607910D01*
Y619322D01*
X53702D01*
X54589Y618052D01*
X54338Y616791D01*
X54338Y577938D01*
X54726Y575987D01*
X55831Y574333D01*
X57485Y573228D01*
X59436Y572840D01*
X62506D01*
Y550178D01*
X72519D01*
X73511Y549767D01*
X76774Y549338D01*
X80037Y549767D01*
X81028Y550178D01*
X90506D01*
Y572840D01*
X96612D01*
Y550014D01*
X97042Y546751D01*
X98301Y543710D01*
X100305Y541099D01*
X106163Y535241D01*
X108774Y533237D01*
X111815Y531978D01*
X115078Y531548D01*
X163332D01*
X164229Y530649D01*
X163997Y404992D01*
X164282Y402051D01*
X165134Y399222D01*
X166522Y396613D01*
X168393Y394326D01*
X169324Y393558D01*
Y384283D01*
X169238Y383628D01*
Y372718D01*
X169581Y370107D01*
X170589Y367674D01*
X172192Y365585D01*
X178448Y359330D01*
Y346798D01*
X178534Y346143D01*
Y335105D01*
X198534D01*
Y337728D01*
X202433D01*
X202547Y337580D01*
Y335474D01*
X203092Y333439D01*
X204145Y331615D01*
X204429Y331331D01*
Y318387D01*
X198424Y312382D01*
X149437D01*
X145002Y316816D01*
Y432079D01*
X144537Y434420D01*
X143210Y436404D01*
X135273Y444342D01*
X133288Y445668D01*
X130947Y446134D01*
X91694D01*
X89353Y445668D01*
X87368Y444342D01*
X64084Y421058D01*
X42210D01*
Y423940D01*
X16210D01*
Y412518D01*
X5850D01*
X3239Y412175D01*
X807Y411167D01*
X-1282Y409564D01*
X-2885Y407475D01*
X-3893Y405042D01*
X-4236Y402432D01*
X-3893Y399822D01*
X-2885Y397389D01*
X-1282Y395300D01*
X807Y393697D01*
X3239Y392689D01*
X5850Y392346D01*
X29202D01*
X31813Y392689D01*
X33625Y393440D01*
X42210D01*
Y408823D01*
X66618D01*
X68959Y409288D01*
X70944Y410614D01*
X94228Y433899D01*
X120236D01*
X120546Y432629D01*
X119182Y431265D01*
X118063Y429327D01*
X117484Y427165D01*
Y426198D01*
X92462Y401176D01*
X89653D01*
Y405349D01*
X67593D01*
Y384767D01*
X71766D01*
Y380323D01*
X61968Y370525D01*
X60642Y368540D01*
X60177Y366199D01*
Y365425D01*
X56284D01*
Y335105D01*
X71118D01*
Y312233D01*
X37318Y278432D01*
X35715Y276343D01*
X34707Y273911D01*
X34364Y271300D01*
X34707Y268689D01*
X35715Y266257D01*
X37318Y264168D01*
X39407Y262565D01*
X41839Y261557D01*
X44450Y261214D01*
X47060Y261557D01*
X49493Y262565D01*
X51582Y264168D01*
X88337Y300923D01*
X89940Y303012D01*
X90947Y305444D01*
X91252Y307761D01*
X92522Y307678D01*
Y286014D01*
X84021Y277512D01*
X82578Y275632D01*
X81671Y273443D01*
X81362Y271093D01*
Y254935D01*
X80414D01*
Y224615D01*
X95624D01*
Y224614D01*
X115624D01*
Y233657D01*
X137118D01*
X137286Y232387D01*
X136927Y232291D01*
X134989Y231172D01*
X133406Y229589D01*
X132287Y227651D01*
X131708Y225489D01*
Y223251D01*
X132287Y221089D01*
X133406Y219151D01*
X134989Y217568D01*
X136927Y216449D01*
X139089Y215870D01*
X141327D01*
X143489Y216449D01*
X145427Y217568D01*
X146111Y218253D01*
X193931D01*
X196272Y218718D01*
X198257Y220044D01*
X305408Y327195D01*
X306126Y327101D01*
X306912Y326315D01*
X306919Y324575D01*
X293619Y311275D01*
X292293Y309291D01*
X291828Y306950D01*
Y295040D01*
X291144Y294356D01*
X290025Y292418D01*
X289445Y290256D01*
Y288018D01*
X290025Y285856D01*
X291144Y283918D01*
X292726Y282335D01*
X294664Y281216D01*
X296826Y280637D01*
X299064D01*
X301226Y281216D01*
X303164Y282335D01*
X304747Y283918D01*
X305866Y285856D01*
X306445Y288018D01*
Y290256D01*
X305866Y292418D01*
X304747Y294356D01*
X304063Y295040D01*
Y304416D01*
X308755Y309107D01*
X309928Y308622D01*
Y303241D01*
X309682Y302995D01*
X308563Y301057D01*
X307984Y298895D01*
Y296657D01*
X308563Y294495D01*
X309682Y292557D01*
X311265Y290974D01*
X313203Y289855D01*
X315365Y289276D01*
X317603D01*
X317604Y289275D01*
X318260Y288137D01*
X308458Y278336D01*
X307491D01*
X305329Y277757D01*
X303391Y276638D01*
X301808Y275055D01*
X300689Y273117D01*
X300110Y270955D01*
Y268717D01*
X300689Y266555D01*
X301808Y264617D01*
X303391Y263034D01*
X305329Y261915D01*
X307491Y261336D01*
X309729D01*
X311891Y261915D01*
X313829Y263034D01*
X315412Y264617D01*
X316531Y266555D01*
X317110Y268717D01*
Y269685D01*
X334370Y286945D01*
X335640Y286419D01*
Y212885D01*
X334686Y212048D01*
X333756Y212170D01*
X331146Y211826D01*
X330674Y211631D01*
X329618Y212337D01*
Y219530D01*
X329275Y222141D01*
X328267Y224573D01*
X326664Y226662D01*
X320806Y232520D01*
X318717Y234123D01*
X316285Y235131D01*
X313674Y235474D01*
X276100D01*
X273489Y235131D01*
X271057Y234123D01*
X268968Y232520D01*
X250728Y214280D01*
X249125Y212191D01*
X248117Y209758D01*
X247774Y207148D01*
Y196330D01*
X247569D01*
Y174269D01*
Y162419D01*
X228460D01*
X226111Y162110D01*
X223922Y161203D01*
X222041Y159760D01*
X222041Y159760D01*
X217355Y155074D01*
X215912Y153194D01*
X215006Y151004D01*
X214696Y148655D01*
Y135494D01*
X213426Y134520D01*
X212465Y134777D01*
X210227D01*
X208065Y134198D01*
X206127Y133079D01*
X205896Y132848D01*
X169965D01*
X148962Y153851D01*
Y155131D01*
X148383Y157293D01*
X147264Y159231D01*
X145681Y160814D01*
X143743Y161933D01*
X141581Y162512D01*
X139343D01*
X137181Y161933D01*
X135243Y160814D01*
X133660Y159231D01*
X132541Y157293D01*
X131962Y155131D01*
Y152893D01*
X132541Y150731D01*
X133660Y148793D01*
X135243Y147210D01*
X137181Y146091D01*
X139343Y145512D01*
X139998D01*
X163106Y122404D01*
X165090Y121078D01*
X167432Y120612D01*
X204990D01*
X206127Y119476D01*
X207414Y118733D01*
X207235Y117370D01*
X205761Y116975D01*
X203823Y115856D01*
X203012Y115045D01*
X183830D01*
X183273Y115602D01*
X181335Y116721D01*
X179173Y117300D01*
X176935D01*
X174773Y116721D01*
X172835Y115602D01*
X171252Y114019D01*
X170133Y112081D01*
X169621Y110168D01*
X168416Y109577D01*
X140938Y137055D01*
Y138352D01*
X140358Y140513D01*
X139239Y142452D01*
X137657Y144034D01*
X135718Y145153D01*
X133557Y145732D01*
X131319D01*
X129157Y145153D01*
X127218Y144034D01*
X125636Y142452D01*
X124517Y140513D01*
X123938Y138352D01*
Y136114D01*
X124517Y133952D01*
X125636Y132013D01*
X127218Y130431D01*
X129157Y129312D01*
X131319Y128733D01*
X131957D01*
X171457Y89233D01*
X170971Y88059D01*
X148148D01*
X145807Y87594D01*
X143822Y86268D01*
X142597Y85042D01*
X141629D01*
X139467Y84463D01*
X137529Y83344D01*
X135946Y81761D01*
X134827Y79823D01*
X134248Y77661D01*
Y75423D01*
X134827Y73261D01*
X135946Y71323D01*
X137529Y69740D01*
X139467Y68621D01*
X141629Y68042D01*
X143867D01*
X146029Y68621D01*
X147967Y69740D01*
X149550Y71323D01*
X150669Y73261D01*
X151248Y75423D01*
Y75824D01*
X236762D01*
Y58172D01*
X219964D01*
X218013Y57784D01*
X216359Y56679D01*
X215254Y55025D01*
X214866Y53074D01*
Y14566D01*
X214892Y14435D01*
Y9564D01*
X219482D01*
X219964Y9468D01*
X259026D01*
X260977Y9856D01*
X262631Y10961D01*
X263736Y12615D01*
X264124Y14566D01*
Y46599D01*
X265180Y47305D01*
X265635Y47116D01*
X267462Y46876D01*
X286201D01*
X288028Y47116D01*
X289731Y47821D01*
X291193Y48944D01*
X293536Y51287D01*
X294659Y52749D01*
X295364Y54452D01*
X295604Y56279D01*
Y61990D01*
X301454D01*
X302111Y61007D01*
X304253Y59576D01*
X306779Y59074D01*
X309729D01*
X312255Y59576D01*
X314397Y61007D01*
X315828Y63149D01*
X316331Y65675D01*
Y74826D01*
X315828Y77352D01*
X314397Y79494D01*
X312255Y80925D01*
X309729Y81427D01*
X307595D01*
Y98731D01*
X333957D01*
X334321Y98804D01*
X335303Y97998D01*
Y83543D01*
X341239D01*
X341608Y82328D01*
X341557Y82294D01*
X340126Y80152D01*
X339623Y77625D01*
Y74675D01*
X340126Y72149D01*
X341557Y70007D01*
X343698Y68576D01*
X346225Y68074D01*
X355375D01*
X357704Y68537D01*
X358596Y67645D01*
X360420Y66592D01*
X362455Y66047D01*
X364562D01*
X366596Y66592D01*
X368420Y67645D01*
X369260Y68485D01*
X371325Y68074D01*
X380475D01*
X383001Y68576D01*
X383770Y69090D01*
X385463D01*
X390082Y64471D01*
X391544Y63349D01*
X393247Y62643D01*
X395075Y62403D01*
X396215D01*
Y57017D01*
X387077D01*
Y58625D01*
X386574Y61152D01*
X385143Y63294D01*
X383001Y64725D01*
X380475Y65227D01*
X371325D01*
X368798Y64725D01*
X366657Y63294D01*
X366639Y63268D01*
X366297D01*
X363956Y62802D01*
X363125Y62248D01*
X362295Y62802D01*
X360076Y63244D01*
X360043Y63294D01*
X357901Y64725D01*
X355375Y65227D01*
X346225D01*
X343698Y64725D01*
X342009Y63596D01*
X341812Y63792D01*
X339827Y65118D01*
X337486Y65584D01*
X335406D01*
X335331Y65676D01*
Y74826D01*
X334828Y77352D01*
X333397Y79494D01*
X331255Y80925D01*
X328729Y81427D01*
X325779D01*
X323253Y80925D01*
X321111Y79494D01*
X319680Y77352D01*
X319177Y74826D01*
Y65675D01*
X319680Y63149D01*
X321111Y61007D01*
X321137Y60990D01*
Y60638D01*
X321602Y58297D01*
X322157Y57466D01*
X321602Y56636D01*
X321163Y54429D01*
X321111Y54394D01*
X319680Y52252D01*
X319177Y49725D01*
Y40575D01*
X319680Y38049D01*
X321111Y35907D01*
X323253Y34476D01*
X325779Y33974D01*
X328729D01*
X329902Y34207D01*
X330883Y33401D01*
Y30125D01*
X331349Y27784D01*
X332675Y25799D01*
X341812Y16662D01*
X343797Y15336D01*
X346138Y14871D01*
X368242D01*
X372198Y10914D01*
X374183Y9588D01*
X376524Y9122D01*
X400852D01*
X403193Y9588D01*
X405178Y10914D01*
X408882Y14618D01*
X410208Y16603D01*
X410358Y17358D01*
X419056D01*
Y40781D01*
X426056D01*
Y17358D01*
X456556D01*
Y43358D01*
X448513D01*
X448181Y45026D01*
X446855Y47010D01*
X438641Y55225D01*
X436656Y56551D01*
X434315Y57017D01*
X421214D01*
Y72710D01*
X434714D01*
Y65947D01*
X435180Y63606D01*
X436506Y61622D01*
X448305Y49822D01*
X450290Y48496D01*
X452631Y48031D01*
X468655D01*
X477746Y38940D01*
X479730Y37613D01*
X482071Y37148D01*
X581026D01*
X583367Y37613D01*
X585352Y38940D01*
X593058Y46646D01*
X594231Y46160D01*
Y21247D01*
Y17704D01*
X591787D01*
Y13296D01*
X593000D01*
Y-8296D01*
X622287D01*
Y17704D01*
X619844D01*
Y100374D01*
X643304Y123834D01*
X650250D01*
X650334Y123750D01*
X652158Y122697D01*
X654193Y122151D01*
X656299D01*
X658334Y122697D01*
X660158Y123750D01*
X661648Y125239D01*
X662701Y127064D01*
X663246Y129098D01*
Y130184D01*
X725091D01*
X725248Y130028D01*
X727072Y128975D01*
X729107Y128429D01*
X731213D01*
X733248Y128975D01*
X735072Y130028D01*
X736561Y131517D01*
X737615Y133342D01*
X738160Y135376D01*
Y137483D01*
X737615Y139517D01*
X736561Y141341D01*
X735072Y142831D01*
X733248Y143884D01*
X731213Y144429D01*
X729107D01*
X727072Y143884D01*
X726053Y143296D01*
X669573D01*
X669233Y144566D01*
X669888Y144944D01*
X671377Y146434D01*
X672431Y148258D01*
X672976Y150293D01*
Y152399D01*
X672431Y154434D01*
X671514Y156023D01*
X671957Y157292D01*
X693050D01*
X693588Y156754D01*
X695412Y155701D01*
X697447Y155156D01*
X699553D01*
X701588Y155701D01*
X703412Y156754D01*
X704902Y158244D01*
X705955Y160068D01*
X706500Y162103D01*
Y164209D01*
X705955Y166244D01*
X704902Y168068D01*
X703412Y169558D01*
X701588Y170611D01*
X699553Y171156D01*
X697447D01*
X695412Y170611D01*
X693588Y169558D01*
X693558Y169528D01*
X682216D01*
X681964Y170798D01*
X682887Y171180D01*
X684976Y172783D01*
X686579Y174872D01*
X687587Y177305D01*
X687931Y179915D01*
Y180079D01*
X689201Y181735D01*
X690209Y184167D01*
X690552Y186778D01*
X690209Y189389D01*
X689201Y191821D01*
X687755Y193706D01*
Y203738D01*
X687411Y206349D01*
X686403Y208781D01*
X684800Y210870D01*
X684625Y211046D01*
X682536Y212649D01*
X680103Y213657D01*
X677493Y214000D01*
X674882Y213657D01*
X673277Y212992D01*
X672118D01*
X669769Y212682D01*
X667579Y211775D01*
X665699Y210333D01*
X665699Y210333D01*
X662501Y207134D01*
X656995D01*
Y216358D01*
X664764D01*
Y236940D01*
X663711D01*
X663056Y238210D01*
X663872Y239622D01*
X664451Y241784D01*
Y244022D01*
X663872Y246184D01*
X662753Y248122D01*
X661170Y249705D01*
X659232Y250824D01*
X657070Y251403D01*
X654832D01*
X652670Y250824D01*
X650732Y249705D01*
X649149Y248122D01*
X648030Y246184D01*
X647451Y244022D01*
Y242592D01*
X645803Y240944D01*
X644761Y239586D01*
X644106Y238005D01*
X643966Y236940D01*
X642704Y236940D01*
X642156Y237983D01*
Y240135D01*
X641812Y242746D01*
X640805Y245178D01*
X639202Y247267D01*
X639030Y247439D01*
X637209Y248836D01*
X636965Y250250D01*
X637306Y250512D01*
X638068Y251274D01*
X639671Y253363D01*
X640679Y255795D01*
X641022Y258406D01*
X640679Y261017D01*
X639704Y263370D01*
X639752Y263740D01*
X639409Y266350D01*
X639100Y267095D01*
X639155Y267225D01*
X639498Y269836D01*
X639155Y272446D01*
X638147Y274879D01*
X636544Y276968D01*
X636290Y277222D01*
X634201Y278825D01*
X631768Y279833D01*
X629158Y280176D01*
X608330D01*
X605719Y279833D01*
X603287Y278825D01*
X601198Y277222D01*
X600944Y276968D01*
X599341Y274879D01*
X598333Y272446D01*
X597990Y269836D01*
Y257644D01*
X598076Y256989D01*
Y245599D01*
X597990Y244944D01*
Y225386D01*
X598027Y225106D01*
X597468Y223758D01*
X596198Y224011D01*
Y225444D01*
X595619Y227606D01*
X594500Y229545D01*
X592917Y231127D01*
X590979Y232246D01*
X590811Y232291D01*
X590483Y233518D01*
X593843Y236878D01*
X594884Y238235D01*
X595539Y239817D01*
X595763Y241514D01*
Y293440D01*
X600269D01*
Y314022D01*
X595763D01*
Y318829D01*
X596008Y319075D01*
X597127Y321013D01*
X597707Y323175D01*
Y325413D01*
X597127Y327575D01*
X596008Y329513D01*
X594426Y331096D01*
X592488Y332215D01*
X590326Y332794D01*
X588088D01*
X585926Y332215D01*
X583988Y331096D01*
X582405Y329513D01*
X581945Y328715D01*
X580251Y328294D01*
X580086Y328396D01*
Y342534D01*
X554786D01*
Y342248D01*
X547797D01*
X547311Y343422D01*
X566668Y362779D01*
X738334D01*
X830813Y270300D01*
Y113874D01*
X806323Y89385D01*
X699779D01*
Y96643D01*
X684569D01*
Y96644D01*
X664569D01*
Y66325D01*
X665491D01*
Y61680D01*
X664483Y60907D01*
X664240Y60972D01*
X662134D01*
X660099Y60427D01*
X658275Y59374D01*
X656786Y57884D01*
X655732Y56060D01*
X655187Y54026D01*
Y51919D01*
X655732Y49885D01*
X656786Y48060D01*
X658275Y46571D01*
X660099Y45518D01*
X662134Y44973D01*
X664240D01*
X664483Y45038D01*
X665491Y44264D01*
Y33161D01*
X665491Y33160D01*
X665800Y30811D01*
X666707Y28621D01*
X668150Y26741D01*
X701318Y-6427D01*
X703198Y-7869D01*
X705387Y-8776D01*
X707737Y-9086D01*
X738171D01*
X740521Y-8776D01*
X742710Y-7869D01*
X744590Y-6427D01*
X753101Y2084D01*
X754543Y3964D01*
X755450Y6153D01*
X755759Y8503D01*
Y36442D01*
X755450Y38791D01*
X754543Y40980D01*
X753101Y42860D01*
X751220Y44303D01*
X749031Y45210D01*
X746682Y45519D01*
X744332Y45210D01*
X742143Y44303D01*
X740263Y42860D01*
X738820Y40980D01*
X737913Y38791D01*
X737604Y36442D01*
Y12263D01*
X734411Y9070D01*
X711497D01*
X696628Y23939D01*
X697408Y24955D01*
X698112Y24548D01*
X700147Y24003D01*
X702253D01*
X704288Y24548D01*
X705845Y25447D01*
X710349D01*
X712046Y25670D01*
X713627Y26325D01*
X714985Y27367D01*
X739984Y52366D01*
X741720Y52831D01*
X743544Y53884D01*
X745034Y55374D01*
X746087Y57198D01*
X746632Y59233D01*
Y61339D01*
X746087Y63374D01*
X745034Y65198D01*
X743544Y66688D01*
X741720Y67741D01*
X739685Y68286D01*
X737579D01*
X735544Y67741D01*
X733720Y66688D01*
X732230Y65198D01*
X731177Y63374D01*
X730712Y61638D01*
X707633Y38559D01*
X705845D01*
X704288Y39458D01*
X702253Y40003D01*
X700147D01*
X698112Y39458D01*
X696288Y38405D01*
X694798Y36915D01*
X693745Y35091D01*
X693200Y33056D01*
Y30950D01*
X693745Y28915D01*
X694152Y28211D01*
X693136Y27431D01*
X683646Y36920D01*
Y41567D01*
X684265Y42581D01*
X706352D01*
Y62702D01*
X695677D01*
X695063Y63315D01*
X693392Y64597D01*
X692291Y65053D01*
X692544Y66323D01*
X699779D01*
Y77150D01*
X808857D01*
X811199Y77615D01*
X813183Y78942D01*
X841256Y107014D01*
X842582Y108999D01*
X843047Y111340D01*
Y272834D01*
X842582Y275175D01*
X841256Y277160D01*
X745194Y373222D01*
X743209Y374548D01*
X740868Y375014D01*
X564134D01*
X561793Y374548D01*
X559808Y373222D01*
X537571Y350985D01*
X536398Y351471D01*
Y366405D01*
X511098D01*
Y365532D01*
X509828Y364906D01*
X508471Y365947D01*
X506039Y366955D01*
X503428Y367298D01*
X500817Y366955D01*
X498385Y365947D01*
X496296Y364344D01*
X494693Y362255D01*
X493685Y359823D01*
X493593Y359118D01*
X472810D01*
X469214Y362713D01*
Y363115D01*
X468669Y365149D01*
X467616Y366974D01*
X466126Y368463D01*
X464302Y369516D01*
X462267Y370061D01*
X460161D01*
X458126Y369516D01*
X456302Y368463D01*
X454813Y366974D01*
X453759Y365149D01*
X453214Y363115D01*
Y361008D01*
X453759Y358974D01*
X454813Y357149D01*
X456302Y355660D01*
X458126Y354607D01*
X460161Y354062D01*
X460563D01*
X465950Y348674D01*
X467935Y347348D01*
X470276Y346883D01*
X493792D01*
X502359Y338316D01*
X504344Y336990D01*
X506685Y336524D01*
X528930D01*
X529441Y335355D01*
X528847Y334240D01*
X523654D01*
Y331805D01*
X519269D01*
X517311Y331548D01*
X515486Y330792D01*
X513920Y329590D01*
X513920Y329590D01*
X508513Y324183D01*
X498629D01*
Y302123D01*
Y286101D01*
X499170D01*
X499697Y284831D01*
X492520Y277655D01*
X461204D01*
X460920Y277939D01*
X459096Y278992D01*
X458501Y279151D01*
X458121Y280568D01*
X458824Y281270D01*
X459319Y282127D01*
X464990D01*
X465185Y282102D01*
X465267D01*
X465462Y282127D01*
X476228D01*
Y302249D01*
X475036D01*
X474063Y304597D01*
X472460Y306686D01*
X472460Y306686D01*
X470403Y308743D01*
X470929Y310013D01*
X471580D01*
Y335313D01*
X446580D01*
Y310013D01*
X448994D01*
Y305802D01*
X449338Y303191D01*
X450345Y300759D01*
X451948Y298670D01*
X454141Y296476D01*
Y294693D01*
X453475Y294182D01*
X451369D01*
X449334Y293637D01*
X447510Y292584D01*
X446461Y291534D01*
X438814D01*
X436473Y291069D01*
X434488Y289743D01*
X433316Y288571D01*
X431990Y286586D01*
X431525Y284245D01*
Y283455D01*
X428939D01*
X428503Y284074D01*
X428248Y284725D01*
X429180Y286975D01*
X429524Y289585D01*
Y292033D01*
X431525D01*
Y312155D01*
X420676D01*
X420481Y312180D01*
X419498D01*
X419303Y312155D01*
X413534D01*
Y356524D01*
X413068Y358865D01*
X411742Y360850D01*
X407498Y365094D01*
X405759Y366255D01*
X405002Y367408D01*
X405467Y369749D01*
Y371171D01*
X412663D01*
X413319Y371085D01*
X428401D01*
X430059Y369813D01*
X432491Y368805D01*
X435102Y368462D01*
X437713Y368805D01*
X440145Y369813D01*
X442234Y371416D01*
X443837Y373505D01*
X444845Y375938D01*
X445188Y378548D01*
X444845Y381158D01*
X443837Y383591D01*
X442234Y385680D01*
X439611Y388303D01*
X437522Y389906D01*
X435089Y390914D01*
X432479Y391258D01*
X423319D01*
Y391511D01*
X404197Y391519D01*
Y405202D01*
X405467D01*
Y407620D01*
X432762Y434915D01*
X450535D01*
X451105Y434345D01*
X461772D01*
X463240Y435813D01*
X464359Y437751D01*
X464938Y439913D01*
Y441519D01*
X465582D01*
X467923Y441984D01*
X469908Y443310D01*
X493516Y466918D01*
X495747D01*
X496431Y466234D01*
X498369Y465115D01*
X500531Y464536D01*
X502769D01*
X504931Y465115D01*
X506869Y466234D01*
X508452Y467817D01*
X509571Y469755D01*
X510150Y471917D01*
Y474155D01*
X509571Y476317D01*
X508452Y478255D01*
X507641Y479066D01*
X507850Y480653D01*
X508393Y480966D01*
X509976Y482549D01*
X511095Y484487D01*
X511674Y486649D01*
Y488887D01*
X511095Y491049D01*
X509976Y492987D01*
X508650Y494313D01*
X532024Y517688D01*
X534072D01*
X536234Y518267D01*
X538172Y519386D01*
X539755Y520969D01*
X540874Y522907D01*
X541453Y525069D01*
Y527307D01*
X540874Y529468D01*
X539755Y531407D01*
X538965Y532197D01*
X539491Y533466D01*
X656713D01*
X659054Y533932D01*
X661039Y535258D01*
X716609Y590829D01*
X718183Y590607D01*
X718347Y590311D01*
X718339Y590213D01*
X717814Y588253D01*
Y586147D01*
X718359Y584112D01*
X719284Y582510D01*
X718359Y580908D01*
X717814Y578873D01*
Y576767D01*
X718359Y574732D01*
X719412Y572908D01*
X720902Y571418D01*
X722726Y570365D01*
X724761Y569820D01*
X726867D01*
X728902Y570365D01*
X730726Y571418D01*
X732216Y572908D01*
X733269Y574732D01*
X733814Y576767D01*
Y578873D01*
X733269Y580908D01*
X732344Y582510D01*
X733269Y584112D01*
X733814Y586147D01*
Y588253D01*
X733269Y590288D01*
X732632Y591391D01*
X733269Y592494D01*
X733814Y594529D01*
Y596635D01*
X733269Y598670D01*
X732216Y600494D01*
X730726Y601984D01*
X729987Y602410D01*
X729778Y603997D01*
X753325Y627544D01*
X799609D01*
X799893Y627260D01*
X801717Y626207D01*
X803752Y625662D01*
X805859D01*
X807893Y626207D01*
X809717Y627260D01*
X811207Y628750D01*
X812260Y630574D01*
X812805Y632609D01*
Y634715D01*
X812260Y636750D01*
X811207Y638574D01*
X809717Y640063D01*
X807893Y641117D01*
X805859Y641662D01*
X803752D01*
X801717Y641117D01*
X799893Y640063D01*
X799609Y639779D01*
X750791D01*
X748450Y639314D01*
X746465Y637988D01*
X668646Y560169D01*
X667376Y560695D01*
Y561531D01*
X666797Y563693D01*
X665678Y565631D01*
X664096Y567213D01*
X747203Y650320D01*
X798889D01*
X799705Y649503D01*
X801529Y648450D01*
X803564Y647905D01*
X805670D01*
X807705Y648450D01*
X809529Y649503D01*
X811018Y650993D01*
X812072Y652817D01*
X812617Y654852D01*
Y656958D01*
X812072Y658993D01*
X811018Y660817D01*
X809529Y662307D01*
X807705Y663360D01*
X805670Y663905D01*
X803564D01*
X801529Y663360D01*
X800134Y662555D01*
X753140D01*
X752654Y663728D01*
X761949Y673024D01*
X799173D01*
X799457Y672739D01*
X801281Y671686D01*
X803316Y671141D01*
X805422D01*
X807457Y671686D01*
X809281Y672739D01*
X810770Y674229D01*
X811824Y676053D01*
X812369Y678088D01*
Y680194D01*
X811824Y682229D01*
X810770Y684053D01*
X809281Y685543D01*
X807457Y686596D01*
X805422Y687141D01*
X803316D01*
X801281Y686596D01*
X799457Y685543D01*
X799173Y685259D01*
X759415D01*
X757074Y684793D01*
X755090Y683467D01*
X717213Y645590D01*
X715632Y645805D01*
X714521Y646916D01*
X712697Y647969D01*
X710663Y648514D01*
X708556D01*
X706671Y648009D01*
X706286Y648141D01*
X705401Y648788D01*
Y649547D01*
X704856Y651582D01*
X703802Y653406D01*
X702313Y654896D01*
X700903Y655710D01*
Y657725D01*
X700358Y659760D01*
X699304Y661584D01*
X697815Y663074D01*
X695991Y664127D01*
X693956Y664672D01*
X691850D01*
X689815Y664127D01*
X687991Y663074D01*
X686501Y661584D01*
X685448Y659760D01*
X684903Y657725D01*
Y657713D01*
X682202Y655012D01*
X656379D01*
X655726Y655864D01*
Y658102D01*
X655146Y660264D01*
X654027Y662202D01*
X653414Y662815D01*
X653843Y663557D01*
X653971Y664035D01*
X655347Y664263D01*
X655525Y663995D01*
X657179Y662890D01*
X659130Y662502D01*
X683260D01*
X685211Y662890D01*
X686865Y663995D01*
X687970Y665649D01*
X688358Y667600D01*
Y687666D01*
X687970Y689617D01*
X686865Y691271D01*
X685211Y692376D01*
X683260Y692764D01*
X680875D01*
Y698567D01*
X660753D01*
Y696022D01*
X659483Y695524D01*
X658253Y696754D01*
X656315Y697873D01*
X654153Y698452D01*
X653186D01*
X649994Y701644D01*
X648009Y702970D01*
X645668Y703436D01*
X588259D01*
X585918Y702970D01*
X583933Y701644D01*
X576240Y693951D01*
X575273D01*
X573111Y693372D01*
X571173Y692253D01*
X570489Y691569D01*
X544139D01*
X541798Y691103D01*
X539814Y689777D01*
X530785Y680748D01*
X529612Y681234D01*
Y686656D01*
X530496Y687541D01*
X531822Y689525D01*
X532288Y691866D01*
Y694142D01*
X536170D01*
Y706842D01*
Y726842D01*
X531518D01*
Y760311D01*
X531668Y760398D01*
X533902Y762632D01*
X535482Y765368D01*
X536300Y768420D01*
Y771580D01*
X535482Y774632D01*
X533902Y777368D01*
X531668Y779602D01*
X528932Y781182D01*
X525880Y782000D01*
X522720D01*
X520845Y781498D01*
X520188Y782636D01*
X521325Y783774D01*
X522720Y783400D01*
X525880D01*
X528932Y784218D01*
X531668Y785798D01*
X533902Y788032D01*
X535482Y790768D01*
X536300Y793820D01*
Y796980D01*
X535482Y800032D01*
X533902Y802768D01*
X531668Y805002D01*
X528932Y806582D01*
X525880Y807400D01*
X522720D01*
X519668Y806582D01*
X516932Y805002D01*
X514698Y802768D01*
X513118Y800032D01*
X512300Y796980D01*
Y793820D01*
X512674Y792425D01*
X511536Y791288D01*
X510398Y791945D01*
X510900Y793820D01*
Y796980D01*
X510082Y800032D01*
X508502Y802768D01*
X506268Y805002D01*
X503532Y806582D01*
X500480Y807400D01*
X497320D01*
X494268Y806582D01*
X491532Y805002D01*
X489298Y802768D01*
X487718Y800032D01*
X486900Y796980D01*
Y793820D01*
X487718Y790768D01*
X488780Y788928D01*
X488387Y788060D01*
X486402Y786734D01*
X481322Y781654D01*
X480207Y779984D01*
X478132Y781182D01*
X475080Y782000D01*
X471920D01*
X468868Y781182D01*
X466132Y779602D01*
X463898Y777368D01*
X462318Y774632D01*
X461500Y771580D01*
Y768420D01*
X461769Y767415D01*
X460720Y766818D01*
X459891Y767641D01*
X460100Y768420D01*
Y771580D01*
X459282Y774632D01*
X457702Y777368D01*
X455468Y779602D01*
X452732Y781182D01*
X449680Y782000D01*
X446520D01*
X443582Y781213D01*
X443216Y781262D01*
X442312Y781784D01*
Y783616D01*
X443216Y784138D01*
X443582Y784187D01*
X446520Y783400D01*
X449680D01*
X452732Y784218D01*
X455468Y785798D01*
X457702Y788032D01*
X459282Y790768D01*
X460100Y793820D01*
Y796980D01*
X459282Y800032D01*
X457702Y802768D01*
X455468Y805002D01*
X452732Y806582D01*
X449680Y807400D01*
X446520D01*
X443531Y806599D01*
X443453Y806590D01*
X442159Y807293D01*
X442088Y807831D01*
X441433Y809413D01*
X440391Y810770D01*
X431546Y819615D01*
X430188Y820657D01*
X428607Y821312D01*
X426910Y821536D01*
D02*
G37*
G36*
X729080Y807400D02*
X725920D01*
X722868Y806582D01*
X720132Y805002D01*
X717898Y802768D01*
X716318Y800032D01*
X715500Y796980D01*
Y793820D01*
X716318Y790768D01*
X717898Y788032D01*
X720132Y785798D01*
X722868Y784218D01*
X725920Y783400D01*
X729080D01*
X732132Y784218D01*
X734868Y785798D01*
X737102Y788032D01*
X738682Y790768D01*
X739500Y793820D01*
Y796980D01*
X738682Y800032D01*
X737102Y802768D01*
X734868Y805002D01*
X732132Y806582D01*
X729080Y807400D01*
D02*
G37*
G36*
X678280D02*
X675120D01*
X672068Y806582D01*
X669332Y805002D01*
X667098Y802768D01*
X665518Y800032D01*
X664700Y796980D01*
Y793820D01*
X665518Y790768D01*
X667098Y788032D01*
X669332Y785798D01*
X672068Y784218D01*
X675120Y783400D01*
X678280D01*
X681332Y784218D01*
X684068Y785798D01*
X686302Y788032D01*
X687882Y790768D01*
X688700Y793820D01*
Y796980D01*
X687882Y800032D01*
X686302Y802768D01*
X684068Y805002D01*
X681332Y806582D01*
X678280Y807400D01*
D02*
G37*
G36*
X652880D02*
X649720D01*
X646668Y806582D01*
X643932Y805002D01*
X641698Y802768D01*
X640118Y800032D01*
X639300Y796980D01*
Y793820D01*
X640118Y790768D01*
X641698Y788032D01*
X643932Y785798D01*
X646668Y784218D01*
X649720Y783400D01*
X652880D01*
X655932Y784218D01*
X658668Y785798D01*
X660902Y788032D01*
X662482Y790768D01*
X663300Y793820D01*
Y796980D01*
X662482Y800032D01*
X660902Y802768D01*
X658668Y805002D01*
X655932Y806582D01*
X652880Y807400D01*
D02*
G37*
G36*
X627480D02*
X624320D01*
X621268Y806582D01*
X618532Y805002D01*
X616298Y802768D01*
X614718Y800032D01*
X613900Y796980D01*
Y793820D01*
X614718Y790768D01*
X616298Y788032D01*
X618532Y785798D01*
X621268Y784218D01*
X624320Y783400D01*
X627480D01*
X630532Y784218D01*
X633268Y785798D01*
X635502Y788032D01*
X637082Y790768D01*
X637900Y793820D01*
Y796980D01*
X637082Y800032D01*
X635502Y802768D01*
X633268Y805002D01*
X630532Y806582D01*
X627480Y807400D01*
D02*
G37*
G36*
X602080D02*
X598920D01*
X595868Y806582D01*
X593132Y805002D01*
X590898Y802768D01*
X589318Y800032D01*
X588500Y796980D01*
Y793820D01*
X589318Y790768D01*
X590898Y788032D01*
X593132Y785798D01*
X595868Y784218D01*
X598920Y783400D01*
X602080D01*
X605132Y784218D01*
X607868Y785798D01*
X610102Y788032D01*
X611682Y790768D01*
X612500Y793820D01*
Y796980D01*
X611682Y800032D01*
X610102Y802768D01*
X607868Y805002D01*
X605132Y806582D01*
X602080Y807400D01*
D02*
G37*
G36*
X576680D02*
X573520D01*
X570468Y806582D01*
X567732Y805002D01*
X565498Y802768D01*
X563918Y800032D01*
X563100Y796980D01*
Y793820D01*
X563918Y790768D01*
X565498Y788032D01*
X567732Y785798D01*
X570468Y784218D01*
X573520Y783400D01*
X576680D01*
X579732Y784218D01*
X582468Y785798D01*
X584702Y788032D01*
X586282Y790768D01*
X587100Y793820D01*
Y796980D01*
X586282Y800032D01*
X584702Y802768D01*
X582468Y805002D01*
X579732Y806582D01*
X576680Y807400D01*
D02*
G37*
G36*
X551280D02*
X548120D01*
X545068Y806582D01*
X542332Y805002D01*
X540098Y802768D01*
X538518Y800032D01*
X537700Y796980D01*
Y793820D01*
X538518Y790768D01*
X540098Y788032D01*
X542332Y785798D01*
X545068Y784218D01*
X548120Y783400D01*
X551280D01*
X554332Y784218D01*
X557068Y785798D01*
X559302Y788032D01*
X560882Y790768D01*
X561700Y793820D01*
Y796980D01*
X560882Y800032D01*
X559302Y802768D01*
X557068Y805002D01*
X554332Y806582D01*
X551280Y807400D01*
D02*
G37*
G36*
X475080D02*
X471920D01*
X468868Y806582D01*
X466132Y805002D01*
X463898Y802768D01*
X462318Y800032D01*
X461500Y796980D01*
Y793820D01*
X462318Y790768D01*
X463898Y788032D01*
X466132Y785798D01*
X468868Y784218D01*
X471920Y783400D01*
X475080D01*
X478132Y784218D01*
X480868Y785798D01*
X483102Y788032D01*
X484682Y790768D01*
X485500Y793820D01*
Y796980D01*
X484682Y800032D01*
X483102Y802768D01*
X480868Y805002D01*
X478132Y806582D01*
X475080Y807400D01*
D02*
G37*
G36*
X221080D02*
X217920D01*
X214868Y806582D01*
X212132Y805002D01*
X209898Y802768D01*
X208318Y800032D01*
X207500Y796980D01*
Y793820D01*
X208318Y790768D01*
X209898Y788032D01*
X212132Y785798D01*
X214868Y784218D01*
X217920Y783400D01*
X221080D01*
X224132Y784218D01*
X226868Y785798D01*
X229102Y788032D01*
X230682Y790768D01*
X231500Y793820D01*
Y796980D01*
X230682Y800032D01*
X229102Y802768D01*
X226868Y805002D01*
X224132Y806582D01*
X221080Y807400D01*
D02*
G37*
G36*
X195680D02*
X192520D01*
X189468Y806582D01*
X186732Y805002D01*
X184498Y802768D01*
X182918Y800032D01*
X182100Y796980D01*
Y793820D01*
X182918Y790768D01*
X184498Y788032D01*
X186732Y785798D01*
X189468Y784218D01*
X192520Y783400D01*
X195680D01*
X198732Y784218D01*
X201468Y785798D01*
X203702Y788032D01*
X205282Y790768D01*
X206100Y793820D01*
Y796980D01*
X205282Y800032D01*
X203702Y802768D01*
X201468Y805002D01*
X198732Y806582D01*
X195680Y807400D01*
D02*
G37*
G36*
X170280D02*
X167120D01*
X164068Y806582D01*
X161332Y805002D01*
X159098Y802768D01*
X157518Y800032D01*
X156700Y796980D01*
Y793820D01*
X157518Y790768D01*
X159098Y788032D01*
X161332Y785798D01*
X164068Y784218D01*
X167120Y783400D01*
X170280D01*
X173332Y784218D01*
X176068Y785798D01*
X178302Y788032D01*
X179882Y790768D01*
X180700Y793820D01*
Y796980D01*
X179882Y800032D01*
X178302Y802768D01*
X176068Y805002D01*
X173332Y806582D01*
X170280Y807400D01*
D02*
G37*
G36*
X144880D02*
X141720D01*
X138668Y806582D01*
X135932Y805002D01*
X133698Y802768D01*
X132118Y800032D01*
X131300Y796980D01*
Y793820D01*
X132118Y790768D01*
X133698Y788032D01*
X135932Y785798D01*
X138668Y784218D01*
X141720Y783400D01*
X144880D01*
X147932Y784218D01*
X150668Y785798D01*
X152902Y788032D01*
X154482Y790768D01*
X155300Y793820D01*
Y796980D01*
X154482Y800032D01*
X152902Y802768D01*
X150668Y805002D01*
X147932Y806582D01*
X144880Y807400D01*
D02*
G37*
G36*
X94080D02*
X90920D01*
X87868Y806582D01*
X85132Y805002D01*
X82898Y802768D01*
X81318Y800032D01*
X80500Y796980D01*
Y793820D01*
X81318Y790768D01*
X82898Y788032D01*
X85132Y785798D01*
X87868Y784218D01*
X90920Y783400D01*
X94080D01*
X97132Y784218D01*
X99868Y785798D01*
X102102Y788032D01*
X103682Y790768D01*
X104500Y793820D01*
Y796980D01*
X103682Y800032D01*
X102102Y802768D01*
X99868Y805002D01*
X97132Y806582D01*
X94080Y807400D01*
D02*
G37*
G36*
X729080Y782000D02*
X725920D01*
X722868Y781182D01*
X720132Y779602D01*
X717898Y777368D01*
X716318Y774632D01*
X715500Y771580D01*
Y768420D01*
X716318Y765368D01*
X717898Y762632D01*
X720132Y760398D01*
X722868Y758818D01*
X725920Y758000D01*
X729080D01*
X732132Y758818D01*
X734868Y760398D01*
X737102Y762632D01*
X738682Y765368D01*
X739500Y768420D01*
Y771580D01*
X738682Y774632D01*
X737102Y777368D01*
X734868Y779602D01*
X732132Y781182D01*
X729080Y782000D01*
D02*
G37*
G36*
X678280D02*
X675120D01*
X672068Y781182D01*
X669332Y779602D01*
X667098Y777368D01*
X665518Y774632D01*
X664700Y771580D01*
Y768420D01*
X665518Y765368D01*
X667098Y762632D01*
X669332Y760398D01*
X672068Y758818D01*
X675120Y758000D01*
X678280D01*
X681332Y758818D01*
X684068Y760398D01*
X686302Y762632D01*
X687882Y765368D01*
X688700Y768420D01*
Y771580D01*
X687882Y774632D01*
X686302Y777368D01*
X684068Y779602D01*
X681332Y781182D01*
X678280Y782000D01*
D02*
G37*
G36*
X652880D02*
X649720D01*
X646668Y781182D01*
X643932Y779602D01*
X641698Y777368D01*
X640118Y774632D01*
X639300Y771580D01*
Y768420D01*
X640118Y765368D01*
X641698Y762632D01*
X643932Y760398D01*
X646668Y758818D01*
X649720Y758000D01*
X652880D01*
X655932Y758818D01*
X658668Y760398D01*
X660902Y762632D01*
X662482Y765368D01*
X663300Y768420D01*
Y771580D01*
X662482Y774632D01*
X660902Y777368D01*
X658668Y779602D01*
X655932Y781182D01*
X652880Y782000D01*
D02*
G37*
G36*
X627480D02*
X624320D01*
X621268Y781182D01*
X618532Y779602D01*
X616298Y777368D01*
X614718Y774632D01*
X613900Y771580D01*
Y768420D01*
X614718Y765368D01*
X616298Y762632D01*
X618532Y760398D01*
X621268Y758818D01*
X624320Y758000D01*
X627480D01*
X630532Y758818D01*
X633268Y760398D01*
X635502Y762632D01*
X637082Y765368D01*
X637900Y768420D01*
Y771580D01*
X637082Y774632D01*
X635502Y777368D01*
X633268Y779602D01*
X630532Y781182D01*
X627480Y782000D01*
D02*
G37*
G36*
X602080D02*
X598920D01*
X595868Y781182D01*
X593132Y779602D01*
X590898Y777368D01*
X589318Y774632D01*
X588500Y771580D01*
Y768420D01*
X589318Y765368D01*
X590898Y762632D01*
X593132Y760398D01*
X595868Y758818D01*
X598920Y758000D01*
X602080D01*
X605132Y758818D01*
X607868Y760398D01*
X610102Y762632D01*
X611682Y765368D01*
X612500Y768420D01*
Y771580D01*
X611682Y774632D01*
X610102Y777368D01*
X607868Y779602D01*
X605132Y781182D01*
X602080Y782000D01*
D02*
G37*
G36*
X576680D02*
X573520D01*
X570468Y781182D01*
X567732Y779602D01*
X565498Y777368D01*
X563918Y774632D01*
X563100Y771580D01*
Y768420D01*
X563918Y765368D01*
X565498Y762632D01*
X567732Y760398D01*
X570468Y758818D01*
X573520Y758000D01*
X576680D01*
X579732Y758818D01*
X582468Y760398D01*
X584702Y762632D01*
X586282Y765368D01*
X587100Y768420D01*
Y771580D01*
X586282Y774632D01*
X584702Y777368D01*
X582468Y779602D01*
X579732Y781182D01*
X576680Y782000D01*
D02*
G37*
G36*
X170280D02*
X167120D01*
X164068Y781182D01*
X161332Y779602D01*
X159098Y777368D01*
X157518Y774632D01*
X156700Y771580D01*
Y768420D01*
X157518Y765368D01*
X159098Y762632D01*
X161332Y760398D01*
X164068Y758818D01*
X167120Y758000D01*
X170280D01*
X173332Y758818D01*
X176068Y760398D01*
X178302Y762632D01*
X179882Y765368D01*
X180700Y768420D01*
Y771580D01*
X179882Y774632D01*
X178302Y777368D01*
X176068Y779602D01*
X173332Y781182D01*
X170280Y782000D01*
D02*
G37*
G36*
X144880D02*
X141720D01*
X138668Y781182D01*
X135932Y779602D01*
X133698Y777368D01*
X132118Y774632D01*
X131300Y771580D01*
Y768420D01*
X132118Y765368D01*
X133698Y762632D01*
X135932Y760398D01*
X138668Y758818D01*
X141720Y758000D01*
X144880D01*
X147932Y758818D01*
X150668Y760398D01*
X152902Y762632D01*
X154482Y765368D01*
X155300Y768420D01*
Y771580D01*
X154482Y774632D01*
X152902Y777368D01*
X150668Y779602D01*
X147932Y781182D01*
X144880Y782000D01*
D02*
G37*
G36*
X104500D02*
X80500D01*
Y758000D01*
X104500D01*
Y782000D01*
D02*
G37*
G36*
X804601Y618886D02*
X802494D01*
X800459Y618341D01*
X798635Y617288D01*
X797146Y615799D01*
X796093Y613974D01*
X795547Y611940D01*
Y611538D01*
X783836Y599827D01*
X783836Y599827D01*
X744627Y560618D01*
X698430D01*
X696089Y560152D01*
X694104Y558826D01*
X614686Y479408D01*
X553720D01*
X551379Y478942D01*
X549394Y477616D01*
X530344Y458566D01*
X529018Y456581D01*
X528553Y454240D01*
Y435692D01*
X503655Y410794D01*
X502481Y411280D01*
Y415223D01*
X503439D01*
Y435345D01*
X492590D01*
X492395Y435370D01*
X492200Y435345D01*
X481352D01*
Y434345D01*
X482346D01*
X482346Y406571D01*
X482653Y404242D01*
X483660Y401810D01*
X485263Y399721D01*
X485374Y399610D01*
X487463Y398007D01*
X488814Y397447D01*
X489062Y396202D01*
X486656Y393796D01*
X485330Y391811D01*
X484865Y389470D01*
Y381850D01*
X485330Y379509D01*
X486656Y377524D01*
X491912Y372268D01*
X493897Y370942D01*
X496238Y370477D01*
X497802D01*
X498086Y370193D01*
X499910Y369140D01*
X501945Y368594D01*
X504052D01*
X506086Y369140D01*
X507910Y370193D01*
X509400Y371682D01*
X510453Y373506D01*
X510998Y375541D01*
Y377648D01*
X510453Y379682D01*
X509400Y381506D01*
X507910Y382996D01*
X506086Y384049D01*
X504052Y384594D01*
X501945D01*
X499910Y384049D01*
X498341Y383143D01*
X497099Y384384D01*
Y386936D01*
X535131Y424968D01*
X536402Y424819D01*
X536580Y424620D01*
X538160Y422561D01*
X540249Y420958D01*
X542682Y419950D01*
X545292Y419606D01*
X553888D01*
X554786Y418708D01*
X554786Y415578D01*
X553640Y415279D01*
X544565D01*
Y395157D01*
X548044D01*
Y394069D01*
X548302Y392112D01*
X549058Y390287D01*
X550260Y388720D01*
X553189Y385791D01*
X554756Y384589D01*
X556580Y383834D01*
X558538Y383576D01*
X588665D01*
X590622Y383834D01*
X592447Y384589D01*
X594013Y385791D01*
X604065Y395843D01*
X604753Y396027D01*
X606691Y397146D01*
X608274Y398729D01*
X609393Y400667D01*
X609972Y402829D01*
Y405067D01*
X609393Y407229D01*
X608274Y409167D01*
X606691Y410750D01*
X604753Y411869D01*
X602591Y412448D01*
X600353D01*
X598191Y411869D01*
X596253Y410750D01*
X594670Y409167D01*
X593551Y407229D01*
X593367Y406541D01*
X585531Y398705D01*
X566652D01*
X566652Y415279D01*
X567799Y415578D01*
X580086D01*
Y440578D01*
X554786D01*
Y439779D01*
X545292D01*
X542682Y439435D01*
X541843Y439088D01*
X540788Y439794D01*
Y451706D01*
X556254Y467173D01*
X617220D01*
X619561Y467638D01*
X621546Y468964D01*
X700964Y548382D01*
X714500D01*
Y546881D01*
X715079Y544719D01*
X716198Y542781D01*
X717781Y541198D01*
X719719Y540079D01*
X721881Y539500D01*
X724119D01*
X726281Y540079D01*
X728219Y541198D01*
X729802Y542781D01*
X730921Y544719D01*
X731500Y546881D01*
Y548382D01*
X747161D01*
X749502Y548848D01*
X751487Y550174D01*
X792488Y591175D01*
X792488Y591176D01*
X804199Y602887D01*
X804601D01*
X806635Y603432D01*
X808459Y604485D01*
X809949Y605975D01*
X811002Y607799D01*
X811547Y609833D01*
Y611940D01*
X811002Y613974D01*
X809949Y615799D01*
X808459Y617288D01*
X806635Y618341D01*
X804601Y618886D01*
D02*
G37*
G36*
X793599Y527764D02*
X791361D01*
X789199Y527185D01*
X787261Y526066D01*
X785678Y524483D01*
X784559Y522545D01*
X783980Y520383D01*
Y518145D01*
X784559Y515983D01*
X785678Y514045D01*
X787261Y512462D01*
X789199Y511343D01*
X791361Y510764D01*
X793599D01*
X795761Y511343D01*
X797699Y512462D01*
X799282Y514045D01*
X800401Y515983D01*
X800980Y518145D01*
Y520383D01*
X800401Y522545D01*
X799282Y524483D01*
X797699Y526066D01*
X795761Y527185D01*
X793599Y527764D01*
D02*
G37*
G36*
X580239Y525732D02*
X578001D01*
X575839Y525153D01*
X574560Y524414D01*
X570128D01*
X568170Y524156D01*
X566346Y523401D01*
X564779Y522198D01*
X564779Y522198D01*
X552577Y509996D01*
X551374Y508429D01*
X550619Y506604D01*
X550361Y504647D01*
Y502147D01*
X543406D01*
Y482025D01*
X565493D01*
Y501516D01*
X573262Y509285D01*
X575939D01*
X578001Y508732D01*
X580239D01*
X582401Y509311D01*
X584339Y510430D01*
X585922Y512013D01*
X587041Y513951D01*
X587620Y516113D01*
Y518351D01*
X587041Y520513D01*
X585922Y522451D01*
X584339Y524034D01*
X582401Y525153D01*
X580239Y525732D01*
D02*
G37*
G36*
X794615Y475694D02*
X792377D01*
X790215Y475115D01*
X788277Y473996D01*
X786694Y472413D01*
X785575Y470475D01*
X784996Y468313D01*
Y466075D01*
X785575Y463913D01*
X786694Y461975D01*
X788277Y460392D01*
X790215Y459273D01*
X792377Y458694D01*
X794615D01*
X796777Y459273D01*
X798715Y460392D01*
X800298Y461975D01*
X801417Y463913D01*
X801996Y466075D01*
Y468313D01*
X801417Y470475D01*
X800298Y472413D01*
X798715Y473996D01*
X796777Y475115D01*
X794615Y475694D01*
D02*
G37*
G36*
X119229Y475186D02*
X116991D01*
X114829Y474607D01*
X112891Y473488D01*
X111308Y471905D01*
X110189Y469967D01*
X109610Y467805D01*
Y465567D01*
X110189Y463405D01*
X111308Y461467D01*
X112891Y459884D01*
X114829Y458765D01*
X116991Y458186D01*
X119229D01*
X121391Y458765D01*
X123329Y459884D01*
X124912Y461467D01*
X126031Y463405D01*
X126610Y465567D01*
Y467805D01*
X126031Y469967D01*
X124912Y471905D01*
X123329Y473488D01*
X121391Y474607D01*
X119229Y475186D01*
D02*
G37*
G36*
X723098Y467772D02*
X702598D01*
Y444772D01*
X712400D01*
X718313Y438859D01*
X717653Y437999D01*
X716645Y435567D01*
X716301Y432956D01*
X716557Y431018D01*
Y421678D01*
X712470D01*
Y397344D01*
X734568D01*
Y439054D01*
X733825Y440023D01*
Y441610D01*
X733567Y443568D01*
X732811Y445392D01*
X731609Y446959D01*
X731609Y446959D01*
X723098Y455470D01*
Y467772D01*
D02*
G37*
G36*
X728218Y286018D02*
X725608Y285675D01*
X723175Y284667D01*
X721086Y283064D01*
X719483Y280975D01*
X718475Y278542D01*
X718132Y275932D01*
Y268008D01*
X714956D01*
Y265444D01*
X713403D01*
Y265763D01*
X690403D01*
Y245264D01*
X713403D01*
Y245272D01*
X714956D01*
Y242708D01*
X739956D01*
Y268008D01*
X738304D01*
Y275932D01*
X737961Y278542D01*
X736953Y280975D01*
X735350Y283064D01*
X733261Y284667D01*
X730828Y285675D01*
X728218Y286018D01*
D02*
G37*
G36*
X791718Y249424D02*
X788455Y248994D01*
X785414Y247735D01*
X782803Y245731D01*
X780799Y243120D01*
X779540Y240079D01*
X779110Y236816D01*
Y217707D01*
X777840Y217181D01*
X776949Y218072D01*
X775125Y219125D01*
X773090Y219670D01*
X770984D01*
X768949Y219125D01*
X767125Y218072D01*
X765636Y216582D01*
X764582Y214758D01*
X764037Y212723D01*
Y210617D01*
X764116Y210322D01*
X763351Y210005D01*
X761697Y208900D01*
X760592Y207246D01*
X760204Y205295D01*
Y172996D01*
X760592Y171045D01*
X761697Y169392D01*
X763351Y168286D01*
X765302Y167898D01*
X781972D01*
Y161267D01*
X781514Y160670D01*
X780255Y157629D01*
X779825Y154366D01*
Y137282D01*
X780255Y134019D01*
X781514Y130978D01*
X783518Y128367D01*
X786129Y126363D01*
X789170Y125104D01*
X792433Y124674D01*
X795696Y125104D01*
X798737Y126363D01*
X801348Y128367D01*
X803352Y130978D01*
X804611Y134019D01*
X805041Y137282D01*
Y154366D01*
X804611Y157629D01*
X803352Y160670D01*
X802222Y162142D01*
Y165278D01*
X801972Y167178D01*
Y188142D01*
X801896D01*
Y196844D01*
X801718Y197739D01*
Y205439D01*
X802637Y206636D01*
X803896Y209677D01*
X804326Y212940D01*
Y223455D01*
X810006D01*
X813269Y223885D01*
X816310Y225144D01*
X818921Y227148D01*
X820925Y229759D01*
X822184Y232800D01*
X822614Y236063D01*
X822184Y239326D01*
X820925Y242367D01*
X818921Y244978D01*
X816310Y246982D01*
X813269Y248241D01*
X810006Y248671D01*
X795762D01*
X794981Y248994D01*
X791718Y249424D01*
D02*
G37*
G36*
X225462Y224934D02*
X223223D01*
X221062Y224354D01*
X219123Y223235D01*
X217541Y221653D01*
X216422Y219715D01*
X215842Y217553D01*
Y215315D01*
X216422Y213153D01*
X217541Y211215D01*
X219123Y209632D01*
X221062Y208513D01*
X223223Y207934D01*
X225462D01*
X227623Y208513D01*
X229562Y209632D01*
X231144Y211215D01*
X232263Y213153D01*
X232842Y215315D01*
Y217553D01*
X232263Y219715D01*
X231144Y221653D01*
X229562Y223235D01*
X227623Y224354D01*
X225462Y224934D01*
D02*
G37*
G36*
X734163Y210518D02*
X731925D01*
X729763Y209939D01*
X727825Y208820D01*
X726242Y207237D01*
X725123Y205299D01*
X724544Y203137D01*
Y200899D01*
X724975Y199291D01*
Y191791D01*
X724544Y190183D01*
Y187945D01*
X724975Y186337D01*
Y183664D01*
X724730Y182750D01*
X724257Y181562D01*
X722019D01*
X719857Y180983D01*
X717919Y179864D01*
X716336Y178281D01*
X715217Y176343D01*
X714638Y174181D01*
Y171943D01*
X715217Y169781D01*
X716336Y167843D01*
X717919Y166260D01*
X719857Y165141D01*
X722019Y164562D01*
X724257D01*
X725865Y164993D01*
X730316D01*
X731925Y164562D01*
X734163D01*
X736325Y165141D01*
X738263Y166260D01*
X739846Y167843D01*
X740965Y169781D01*
X741172Y170555D01*
Y175569D01*
X741113Y175790D01*
Y178209D01*
X741172Y178429D01*
Y183443D01*
X741113Y183664D01*
Y186337D01*
X741172Y186557D01*
Y191571D01*
X741113Y191791D01*
Y199291D01*
X741172Y199511D01*
Y204525D01*
X740965Y205299D01*
X739846Y207237D01*
X738263Y208820D01*
X736325Y209939D01*
X734163Y210518D01*
D02*
G37*
G36*
X-11835Y140668D02*
X-14073D01*
X-16235Y140089D01*
X-18173Y138970D01*
X-19756Y137387D01*
X-20875Y135449D01*
X-21454Y133287D01*
Y131049D01*
X-20875Y128887D01*
X-19756Y126949D01*
X-18173Y125366D01*
X-16235Y124247D01*
X-14073Y123668D01*
X-11835D01*
X-9673Y124247D01*
X-7735Y125366D01*
X-6152Y126949D01*
X-5033Y128887D01*
X-4454Y131049D01*
Y133287D01*
X-5033Y135449D01*
X-6152Y137387D01*
X-7735Y138970D01*
X-9673Y140089D01*
X-11835Y140668D01*
D02*
G37*
G36*
X42371Y204826D02*
X39417D01*
X36519Y204250D01*
X33789Y203119D01*
X31332Y201477D01*
X29243Y199388D01*
X27601Y196931D01*
X26470Y194201D01*
X25894Y191303D01*
Y188349D01*
X26470Y185451D01*
X27601Y182721D01*
X29243Y180264D01*
X31332Y178175D01*
X31951Y177761D01*
Y176491D01*
X31332Y176077D01*
X29243Y173988D01*
X27601Y171531D01*
X26470Y168801D01*
X25894Y165903D01*
Y162949D01*
X26470Y160051D01*
X27601Y157321D01*
X29243Y154864D01*
X31332Y152775D01*
X31951Y152361D01*
Y151091D01*
X31332Y150677D01*
X29243Y148588D01*
X27601Y146131D01*
X26470Y143401D01*
X25894Y140503D01*
Y137549D01*
X26470Y134651D01*
X27601Y131921D01*
X29243Y129464D01*
X31332Y127375D01*
X31951Y126961D01*
Y125691D01*
X31332Y125277D01*
X29243Y123188D01*
X27601Y120731D01*
X26470Y118001D01*
X25894Y115103D01*
Y112149D01*
X26470Y109251D01*
X27601Y106521D01*
X29243Y104064D01*
X31332Y101975D01*
X31951Y101561D01*
Y100291D01*
X31332Y99877D01*
X29243Y97788D01*
X27601Y95331D01*
X26470Y92601D01*
X25894Y89703D01*
Y86749D01*
X26470Y83851D01*
X27601Y81121D01*
X29243Y78664D01*
X31332Y76575D01*
X33789Y74933D01*
X36519Y73802D01*
X39417Y73226D01*
X42371D01*
X45269Y73802D01*
X47999Y74933D01*
X50456Y76575D01*
X52545Y78664D01*
X54187Y81121D01*
X55318Y83851D01*
X55894Y86749D01*
Y89703D01*
X55318Y92601D01*
X54187Y95331D01*
X52545Y97788D01*
X50456Y99877D01*
X49837Y100291D01*
Y101561D01*
X50456Y101975D01*
X52545Y104064D01*
X54187Y106521D01*
X55318Y109251D01*
X55894Y112149D01*
Y115103D01*
X55318Y118001D01*
X54187Y120731D01*
X52545Y123188D01*
X50456Y125277D01*
X49837Y125691D01*
Y126961D01*
X50456Y127375D01*
X52545Y129464D01*
X54187Y131921D01*
X55318Y134651D01*
X55894Y137549D01*
Y140503D01*
X55318Y143401D01*
X54187Y146131D01*
X52545Y148588D01*
X50456Y150677D01*
X49837Y151091D01*
Y152361D01*
X50456Y152775D01*
X52545Y154864D01*
X54187Y157321D01*
X55318Y160051D01*
X55894Y162949D01*
Y165903D01*
X55318Y168801D01*
X54187Y171531D01*
X52545Y173988D01*
X50456Y176077D01*
X49837Y176491D01*
Y177761D01*
X50456Y178175D01*
X52545Y180264D01*
X54187Y182721D01*
X55318Y185451D01*
X55894Y188349D01*
Y191303D01*
X55318Y194201D01*
X54187Y196931D01*
X52545Y199388D01*
X50456Y201477D01*
X47999Y203119D01*
X45269Y204250D01*
X42371Y204826D01*
D02*
G37*
G36*
X811317Y60000D02*
X808683D01*
X806140Y59318D01*
X803860Y58002D01*
X801998Y56140D01*
X800682Y53860D01*
X800000Y51316D01*
Y48684D01*
X800682Y46140D01*
X801998Y43860D01*
X803860Y41998D01*
X806140Y40682D01*
X808683Y40000D01*
X811317D01*
X813860Y40682D01*
X816140Y41998D01*
X818002Y43860D01*
X819318Y46140D01*
X820000Y48684D01*
Y51316D01*
X819318Y53860D01*
X818002Y56140D01*
X816140Y58002D01*
X813860Y59318D01*
X811317Y60000D01*
D02*
G37*
G36*
X636847Y55378D02*
X634741D01*
X632706Y54833D01*
X630882Y53780D01*
X629393Y52290D01*
X628340Y50466D01*
X627794Y48431D01*
Y46325D01*
X628340Y44290D01*
X629393Y42466D01*
X630882Y40976D01*
X632706Y39923D01*
X634741Y39378D01*
X636847D01*
X638882Y39923D01*
X640706Y40976D01*
X642196Y42466D01*
X643249Y44290D01*
X643794Y46325D01*
Y48431D01*
X643249Y50466D01*
X642196Y52290D01*
X640706Y53780D01*
X638882Y54833D01*
X636847Y55378D01*
D02*
G37*
G36*
X309729Y56327D02*
X306779D01*
X304253Y55825D01*
X302111Y54394D01*
X300680Y52252D01*
X300177Y49725D01*
Y43453D01*
X299905Y43181D01*
X298664Y42849D01*
X296840Y41796D01*
X295350Y40306D01*
X294297Y38482D01*
X293752Y36447D01*
Y34341D01*
X294297Y32306D01*
X295350Y30482D01*
X296840Y28992D01*
X298664Y27939D01*
X300699Y27394D01*
X302805D01*
X304840Y27939D01*
X306664Y28992D01*
X308154Y30482D01*
X309207Y32306D01*
X309596Y33758D01*
X309832Y33994D01*
X312255Y34476D01*
X314397Y35907D01*
X315828Y38049D01*
X316331Y40575D01*
Y49725D01*
X315828Y52252D01*
X314397Y54394D01*
X312255Y55825D01*
X309729Y56327D01*
D02*
G37*
G36*
X772532Y23996D02*
X770426D01*
X768391Y23451D01*
X766567Y22398D01*
X765077Y20908D01*
X764024Y19084D01*
X763479Y17049D01*
Y14943D01*
X764024Y12908D01*
X765077Y11084D01*
X766567Y9595D01*
X768391Y8541D01*
X770426Y7996D01*
X772532D01*
X774567Y8541D01*
X776391Y9595D01*
X777881Y11084D01*
X778934Y12908D01*
X779479Y14943D01*
Y17049D01*
X778934Y19084D01*
X777881Y20908D01*
X776391Y22398D01*
X774567Y23451D01*
X772532Y23996D01*
D02*
G37*
G36*
X576063Y35602D02*
X573713Y35293D01*
X571524Y34386D01*
X569644Y32943D01*
X569369Y32668D01*
X567926Y30788D01*
X567019Y28599D01*
X566710Y26249D01*
Y6069D01*
X566787Y5479D01*
Y-6008D01*
X582168D01*
Y13296D01*
X584865D01*
Y24434D01*
X585140Y26525D01*
X584831Y28874D01*
X583924Y31063D01*
X582482Y32943D01*
X580602Y34386D01*
X578412Y35293D01*
X576063Y35602D01*
D02*
G37*
G36*
X70207Y165560D02*
X67969D01*
X65807Y164981D01*
X63869Y163862D01*
X62286Y162279D01*
X61167Y160341D01*
X60588Y158179D01*
Y155941D01*
X61167Y153779D01*
X62286Y151841D01*
X63869Y150258D01*
X65807Y149139D01*
X67969Y148560D01*
X68937D01*
X71098Y146398D01*
Y30696D01*
X67433D01*
Y8635D01*
Y-7386D01*
X88015D01*
Y-6373D01*
X93341D01*
Y-7777D01*
X99659D01*
X104722Y-12840D01*
Y-17946D01*
X105065Y-20556D01*
X106073Y-22989D01*
X107676Y-25078D01*
X109765Y-26681D01*
X112198Y-27689D01*
X114808Y-28032D01*
X117418Y-27689D01*
X119851Y-26681D01*
X121940Y-25078D01*
X123543Y-22989D01*
X124551Y-20556D01*
X124894Y-17946D01*
Y-8662D01*
X124551Y-6051D01*
X123543Y-3619D01*
X121940Y-1530D01*
X113923Y6487D01*
Y30305D01*
X108918D01*
Y41867D01*
X109164Y42113D01*
X110283Y44051D01*
X110862Y46213D01*
Y48451D01*
X110283Y50613D01*
X109164Y52551D01*
X107581Y54134D01*
X105643Y55253D01*
X103481Y55832D01*
X101243D01*
X99081Y55253D01*
X97143Y54134D01*
X95560Y52551D01*
X94441Y50613D01*
X93862Y48451D01*
Y46213D01*
X94441Y44051D01*
X95560Y42113D01*
X95806Y41867D01*
Y30305D01*
X93341D01*
Y13800D01*
X88015D01*
Y30696D01*
X83334D01*
Y148932D01*
X82868Y151273D01*
X81542Y153258D01*
X77588Y157212D01*
Y158179D01*
X77009Y160341D01*
X75890Y162279D01*
X74307Y163862D01*
X72369Y164981D01*
X70207Y165560D01*
D02*
G37*
%LPD*%
G36*
X420201Y807154D02*
X418068Y806582D01*
X415332Y805002D01*
X413098Y802768D01*
X411518Y800032D01*
X410700Y796980D01*
Y793820D01*
X411518Y790768D01*
X413098Y788032D01*
X415332Y785798D01*
X418068Y784218D01*
X421120Y783400D01*
X424280D01*
X427332Y784218D01*
X428099Y784661D01*
X429199Y784026D01*
Y781374D01*
X428099Y780739D01*
X427332Y781182D01*
X424280Y782000D01*
X421120D01*
X418068Y781182D01*
X415332Y779602D01*
X413098Y777368D01*
X411518Y774632D01*
X410700Y771580D01*
Y768420D01*
X411518Y765368D01*
X413098Y762632D01*
X415332Y760398D01*
X418068Y758818D01*
X421120Y758000D01*
X424280D01*
X427332Y758818D01*
X428099Y759261D01*
X429199Y758626D01*
Y751612D01*
X429423Y749916D01*
X430078Y748335D01*
X431120Y746977D01*
X437436Y740660D01*
Y691961D01*
X437659Y690264D01*
X438314Y688683D01*
X439356Y687325D01*
X456379Y670302D01*
X455893Y669129D01*
X440658D01*
Y671427D01*
X440231Y673571D01*
X439016Y675389D01*
X437199Y676603D01*
X435055Y677030D01*
X434289D01*
Y678544D01*
X433744Y680579D01*
X432690Y682403D01*
X431201Y683892D01*
X429377Y684946D01*
X427342Y685491D01*
X425236D01*
X423201Y684946D01*
X421377Y683892D01*
X419887Y682403D01*
X418834Y680579D01*
X418289Y678544D01*
Y677030D01*
X417545D01*
X415401Y676603D01*
X414840Y676228D01*
X409877D01*
X408064Y676979D01*
X406106Y677237D01*
X404148Y676979D01*
X402324Y676223D01*
X400757Y675021D01*
X398102Y672366D01*
X396928Y672852D01*
Y695581D01*
X397093Y695977D01*
X397436Y698588D01*
X397093Y701199D01*
X396085Y703631D01*
X394482Y705720D01*
X392393Y707323D01*
X389961Y708331D01*
X387350Y708674D01*
X384739Y708331D01*
X382307Y707323D01*
X380218Y705720D01*
X379710Y705212D01*
X378107Y703123D01*
X377099Y700691D01*
X376756Y698080D01*
Y673442D01*
Y669688D01*
X350167D01*
Y670645D01*
X333042D01*
Y704291D01*
X351085D01*
X352264Y704446D01*
X353449Y704536D01*
X353751Y704641D01*
X354068Y704683D01*
X355166Y705138D01*
X356208Y705504D01*
X362036D01*
Y711976D01*
X362485Y712912D01*
X363042Y715868D01*
X362814Y718868D01*
X362036Y721086D01*
Y744504D01*
X358598D01*
Y746055D01*
X358053Y748090D01*
X357000Y749914D01*
X355510Y751403D01*
X353686Y752457D01*
X351651Y753002D01*
X349545D01*
X347510Y752457D01*
X346618Y751941D01*
X345348Y752675D01*
Y757508D01*
X345780Y758000D01*
X348080D01*
X351132Y758818D01*
X353868Y760398D01*
X356102Y762632D01*
X357682Y765368D01*
X358500Y768420D01*
Y771580D01*
X357682Y774632D01*
X356102Y777368D01*
X353868Y779602D01*
X351132Y781182D01*
X348080Y782000D01*
X344920D01*
X341868Y781182D01*
X339132Y779602D01*
X336898Y777368D01*
X335318Y774632D01*
X335251Y774382D01*
X334024Y774054D01*
X332192Y775886D01*
X332019Y776304D01*
X330885Y777782D01*
X331534Y778280D01*
X337583Y784330D01*
X338113Y785020D01*
X338897Y785619D01*
X339869Y785372D01*
X341868Y784218D01*
X344920Y783400D01*
X348080D01*
X351132Y784218D01*
X353868Y785798D01*
X356102Y788032D01*
X357682Y790768D01*
X358500Y793820D01*
Y796980D01*
X357682Y800032D01*
X356102Y802768D01*
X353868Y805002D01*
X351132Y806582D01*
X348999Y807154D01*
X349167Y808424D01*
X369233D01*
X369401Y807154D01*
X367268Y806582D01*
X364532Y805002D01*
X362298Y802768D01*
X360718Y800032D01*
X359900Y796980D01*
Y793820D01*
X360718Y790768D01*
X362298Y788032D01*
X364532Y785798D01*
X367268Y784218D01*
X370320Y783400D01*
X373480D01*
X376532Y784218D01*
X379268Y785798D01*
X381502Y788032D01*
X383082Y790768D01*
X383900Y793820D01*
Y796980D01*
X383082Y800032D01*
X381502Y802768D01*
X379268Y805002D01*
X376532Y806582D01*
X374399Y807154D01*
X374567Y808424D01*
X394633D01*
X394801Y807154D01*
X392668Y806582D01*
X389932Y805002D01*
X387698Y802768D01*
X386118Y800032D01*
X385300Y796980D01*
Y793820D01*
X386118Y790768D01*
X387698Y788032D01*
X389932Y785798D01*
X392668Y784218D01*
X395720Y783400D01*
X398880D01*
X401932Y784218D01*
X404668Y785798D01*
X406902Y788032D01*
X408482Y790768D01*
X409300Y793820D01*
Y796980D01*
X408482Y800032D01*
X406902Y802768D01*
X404668Y805002D01*
X401932Y806582D01*
X399799Y807154D01*
X399967Y808424D01*
X420033D01*
X420201Y807154D01*
D02*
G37*
G36*
X196944Y732022D02*
X197670Y731053D01*
Y719330D01*
X201244D01*
Y711884D01*
X199470D01*
X197519Y711496D01*
X195865Y710391D01*
X194760Y708737D01*
X194372Y706786D01*
Y695286D01*
X194428Y695009D01*
X194425Y694976D01*
X193717Y694545D01*
X193198Y694407D01*
X191404Y696200D01*
X189018Y698032D01*
X186238Y699183D01*
X183256Y699576D01*
X168217D01*
X167225Y700567D01*
Y730498D01*
X170434D01*
X173417Y730891D01*
X176147Y732022D01*
X186289D01*
X186944Y731936D01*
X187327D01*
X187982Y732022D01*
X196944D01*
D02*
G37*
G36*
X245364Y676044D02*
X208552Y678766D01*
X199470Y695286D01*
Y706786D01*
X222828D01*
X224028Y707986D01*
Y719924D01*
X245364D01*
X245364Y676044D01*
D02*
G37*
G36*
X551617Y678064D02*
X551255Y677786D01*
X544524Y671056D01*
X543483Y669698D01*
X542828Y668117D01*
X542604Y666420D01*
Y655008D01*
X534703D01*
Y667364D01*
X546673Y679334D01*
X551186D01*
X551617Y678064D01*
D02*
G37*
G36*
X260759Y723951D02*
X259751Y721518D01*
X259408Y718908D01*
X259751Y716298D01*
X260759Y713865D01*
X262362Y711776D01*
X264451Y710173D01*
X266745Y709223D01*
X266769Y709133D01*
X265762Y706701D01*
X265418Y704090D01*
Y702756D01*
X262626D01*
Y674756D01*
X270156D01*
Y665913D01*
X269676Y664754D01*
X269333Y662144D01*
X269676Y659533D01*
X270684Y657101D01*
X271589Y655921D01*
X270963Y654651D01*
X262881D01*
Y668491D01*
X262198D01*
X261654Y670519D01*
X260535Y672458D01*
X258952Y674040D01*
X257014Y675159D01*
X254852Y675739D01*
X252614D01*
X251653Y675481D01*
X251506Y675504D01*
X251450Y675522D01*
X251335Y675583D01*
X250462Y676477D01*
X250462Y705606D01*
X255618D01*
Y720886D01*
X257381Y722238D01*
X259709Y724567D01*
X260759Y723951D01*
D02*
G37*
G36*
X310181Y762844D02*
X312185Y760233D01*
X320132Y752285D01*
Y743398D01*
X320562Y740135D01*
X321821Y737094D01*
X322740Y735896D01*
Y727338D01*
X321518D01*
X318536Y726945D01*
X315756Y725794D01*
X313370Y723963D01*
X311539Y721576D01*
X310387Y718797D01*
X309995Y715814D01*
Y656620D01*
X307958Y654583D01*
X288539D01*
X288013Y655853D01*
X292374Y660214D01*
X293977Y662303D01*
X294985Y664735D01*
X295328Y667346D01*
Y675139D01*
X294985Y677750D01*
X293977Y680182D01*
X292374Y682271D01*
X285626Y689020D01*
Y699948D01*
X294586Y708908D01*
X300322D01*
Y718253D01*
X300408Y718908D01*
X300322Y719563D01*
Y727697D01*
X301241Y728895D01*
X302500Y731936D01*
X302930Y735199D01*
Y757263D01*
X304615Y758948D01*
X306619Y761559D01*
X307878Y764600D01*
X307927Y764968D01*
X309230Y765140D01*
X310181Y762844D01*
D02*
G37*
G36*
X483216Y723095D02*
X483859Y722091D01*
Y713988D01*
Y701288D01*
X487741D01*
Y698798D01*
X488207Y696457D01*
X489533Y694472D01*
X496958Y687047D01*
X496792Y685788D01*
X495888Y685266D01*
X494398Y683776D01*
X493345Y681952D01*
X492800Y679917D01*
Y677811D01*
X491712Y676963D01*
X489901Y676603D01*
X488083Y675389D01*
X486869Y673571D01*
X486442Y671427D01*
Y667917D01*
X486869Y665773D01*
X488083Y663955D01*
X489901Y662741D01*
X492045Y662314D01*
X507770D01*
Y651030D01*
X492045D01*
X489901Y650603D01*
X488083Y649389D01*
X487007Y647778D01*
X486071Y647866D01*
X485737Y647990D01*
Y656772D01*
X485514Y658469D01*
X484859Y660050D01*
X483817Y661408D01*
X450548Y694677D01*
Y723095D01*
X483216D01*
D02*
G37*
G36*
X411942Y661417D02*
X412240Y659922D01*
X411942Y658427D01*
Y654917D01*
X412240Y653422D01*
X411942Y651927D01*
Y648417D01*
X412240Y646922D01*
X411942Y645427D01*
Y641917D01*
X412240Y640422D01*
X411942Y638927D01*
Y635417D01*
X412240Y633922D01*
X411942Y632427D01*
Y632230D01*
X410672Y631255D01*
X409870Y631470D01*
X407763D01*
X405729Y630925D01*
X403904Y629872D01*
X402415Y628382D01*
X401362Y626558D01*
X400817Y624524D01*
Y622417D01*
X401362Y620382D01*
X402415Y618558D01*
X403904Y617069D01*
X405729Y616016D01*
X407763Y615470D01*
X409870D01*
X410701Y615693D01*
X412170Y614772D01*
X412240Y614422D01*
X411942Y612927D01*
Y609646D01*
X411408Y609168D01*
X410760Y608865D01*
X410704Y608894D01*
X409636Y609511D01*
X407475Y610090D01*
X405237D01*
X403075Y609511D01*
X401137Y608392D01*
X399619Y606874D01*
X369898Y636595D01*
X367914Y637921D01*
X365572Y638387D01*
X326015D01*
X325529Y639560D01*
X329667Y643698D01*
X331498Y646085D01*
X332523Y648558D01*
X350167D01*
Y649516D01*
X380984D01*
X381861Y648746D01*
Y635109D01*
X401983D01*
Y646498D01*
X406903Y651419D01*
X406903Y651419D01*
X408105Y652985D01*
X408861Y654810D01*
X409118Y656768D01*
X409118Y656768D01*
Y661986D01*
X410248Y663116D01*
X411942D01*
Y661417D01*
D02*
G37*
G36*
X480939Y617616D02*
X486442D01*
Y615917D01*
X486869Y613773D01*
X488083Y611955D01*
X489901Y610741D01*
X492045Y610314D01*
X509555D01*
X511699Y610741D01*
X512260Y611116D01*
X514963D01*
X516660Y611339D01*
X518241Y611994D01*
X519599Y613036D01*
X520641Y614394D01*
X520677Y614483D01*
X521302Y615296D01*
X521368Y615456D01*
X522688Y615326D01*
X522934Y614094D01*
X524260Y612109D01*
X525077Y611292D01*
X517399Y603614D01*
X491992D01*
X478956Y616650D01*
X479611Y617791D01*
X480939Y617616D01*
D02*
G37*
G36*
X69578Y624420D02*
X40640D01*
Y607910D01*
X35814Y603084D01*
X11176D01*
Y642454D01*
X69578D01*
Y624420D01*
D02*
G37*
G36*
X683274Y621664D02*
X684394Y621018D01*
X684658Y619486D01*
X636274Y571102D01*
X584194D01*
X583621Y572372D01*
X584501Y573895D01*
X585080Y576057D01*
Y578295D01*
X584501Y580457D01*
X583893Y581510D01*
Y600780D01*
X585291D01*
X586685Y599849D01*
X589026Y599383D01*
X591367Y599849D01*
X592761Y600780D01*
X637794D01*
X639745Y601168D01*
X641399Y602273D01*
X642504Y603927D01*
X642892Y605878D01*
Y621118D01*
X642839Y621385D01*
X643645Y622366D01*
X682571D01*
X683274Y621664D01*
D02*
G37*
G36*
X557400Y601912D02*
X559224Y600858D01*
X561259Y600313D01*
X563365D01*
X565400Y600858D01*
X567224Y601912D01*
X567998Y602685D01*
X569268Y602159D01*
Y581510D01*
X568659Y580457D01*
X568080Y578295D01*
Y576057D01*
X568659Y573895D01*
X569539Y572372D01*
X568966Y571102D01*
X557016D01*
X547676Y580441D01*
Y590424D01*
X547211Y592765D01*
X545884Y594750D01*
X544713Y595921D01*
X543368Y596820D01*
X543899Y597993D01*
X544326Y597878D01*
X546564D01*
X548726Y598457D01*
X550664Y599576D01*
X551160Y600072D01*
X552281Y600220D01*
X553863Y600875D01*
X555220Y601917D01*
X556308Y603004D01*
X557400Y601912D01*
D02*
G37*
G36*
X97710Y577938D02*
X59436Y577938D01*
X59436Y616791D01*
X74676Y616791D01*
Y696010D01*
X97710D01*
X97710Y577938D01*
D02*
G37*
G36*
X146854Y685000D02*
X181847Y655773D01*
X181864Y635000D01*
X174498D01*
Y564730D01*
X155000D01*
Y635000D01*
X113538D01*
X113538Y685000D01*
X146854Y685000D01*
D02*
G37*
G36*
X181182Y627418D02*
X182498Y625138D01*
X184360Y623276D01*
X186640Y621959D01*
X189184Y621278D01*
X191817D01*
X194360Y621959D01*
X196640Y623276D01*
X198502Y625138D01*
X199593Y627028D01*
X200740Y627466D01*
X201152Y627487D01*
X202316Y626709D01*
X204657Y626244D01*
X269844D01*
X270944Y624973D01*
X270699Y623111D01*
X271086Y620174D01*
X271609Y618912D01*
Y610837D01*
X217536Y556764D01*
X185186D01*
X185118Y556801D01*
X182292Y557663D01*
X179352Y557958D01*
X176411Y557674D01*
X173582Y556822D01*
X173473Y556764D01*
X152862D01*
Y558762D01*
X154132Y559805D01*
X155000Y559632D01*
X174498D01*
X176449Y560020D01*
X178103Y561125D01*
X179208Y562779D01*
X179596Y564730D01*
Y628429D01*
X180866Y628596D01*
X181182Y627418D01*
D02*
G37*
G36*
X371673Y617517D02*
X370588Y616431D01*
X369534Y614607D01*
X369013Y612663D01*
X353758Y597408D01*
X352716Y596050D01*
X352061Y594469D01*
X351838Y592772D01*
Y514003D01*
X350939Y512446D01*
X350553Y511004D01*
X343854D01*
X343408Y511062D01*
X342962Y511004D01*
X334363D01*
Y510500D01*
X332161Y510211D01*
X329729Y509203D01*
X327640Y507600D01*
X326624Y506584D01*
X325021Y504495D01*
X324013Y502062D01*
X323670Y499452D01*
X324013Y496842D01*
X325021Y494409D01*
X326624Y492320D01*
X328713Y490717D01*
X331146Y489709D01*
X333284Y489428D01*
X334363Y488916D01*
X334363Y488916D01*
X334363Y488916D01*
X339598D01*
Y489546D01*
X340106Y490054D01*
X354485D01*
Y501055D01*
X355755Y501783D01*
X357341Y501358D01*
X358747D01*
Y490054D01*
X378869D01*
Y498344D01*
X379148Y500468D01*
Y513168D01*
X378805Y515779D01*
X377797Y518211D01*
X376194Y520300D01*
X374105Y521903D01*
X371673Y522911D01*
X369062Y523254D01*
X366451Y522911D01*
X366006Y522726D01*
X364950Y523432D01*
Y590056D01*
X378549Y603655D01*
X380077Y604064D01*
X381901Y605118D01*
X382987Y606203D01*
X428793Y560397D01*
X430778Y559071D01*
X433119Y558605D01*
X499439D01*
X499925Y557432D01*
X473854Y531361D01*
X472584Y531827D01*
Y547552D01*
X447584D01*
Y537744D01*
X447439Y537555D01*
X446431Y535122D01*
X446087Y532512D01*
Y524683D01*
X444828Y523569D01*
X444251Y523645D01*
X441990D01*
X439379Y523301D01*
X436947Y522294D01*
X434858Y520691D01*
X433255Y518602D01*
X432247Y516169D01*
X431903Y513559D01*
Y510893D01*
X428788D01*
X427904Y512163D01*
X428170Y514184D01*
X427827Y516795D01*
X426819Y519227D01*
X425216Y521316D01*
X423127Y522919D01*
X420695Y523927D01*
X418084Y524270D01*
X415474Y523927D01*
X413041Y522919D01*
X410952Y521316D01*
X406695Y517059D01*
X405092Y514970D01*
X404084Y512537D01*
X403882Y511004D01*
X403705D01*
Y500155D01*
X403680Y499960D01*
X403705Y499765D01*
Y490054D01*
X424251D01*
X424781Y490519D01*
X425827Y490382D01*
X426057D01*
Y490054D01*
X462737D01*
Y488551D01*
X468023D01*
Y491362D01*
X469293Y492041D01*
X469449Y491936D01*
X469306Y491401D01*
Y489294D01*
X469851Y487260D01*
X470904Y485435D01*
X472393Y483946D01*
X474218Y482893D01*
X476252Y482348D01*
X477585D01*
X478111Y481078D01*
X462737Y465703D01*
Y463638D01*
X460672D01*
X459677Y462644D01*
X422518D01*
X420177Y462178D01*
X418193Y460852D01*
X383024Y425683D01*
X381698Y423699D01*
X381232Y421358D01*
Y381082D01*
X381000Y380849D01*
Y376516D01*
X376666D01*
X368052Y367902D01*
X340634D01*
X340203Y369172D01*
X341142Y369892D01*
X343715Y372465D01*
X344109D01*
X344765Y372551D01*
X355214D01*
Y392673D01*
X344365D01*
X344170Y392698D01*
X343975Y392673D01*
X333126D01*
Y390237D01*
X332405Y389683D01*
X326878Y384156D01*
X325275Y382067D01*
X324267Y379635D01*
X323924Y377024D01*
X324267Y374413D01*
X325275Y371981D01*
X326878Y369892D01*
X328596Y368574D01*
X328619Y368509D01*
X328609Y367365D01*
X328508Y367104D01*
X327020Y366110D01*
X191397Y230488D01*
X146111D01*
X145427Y231172D01*
X143489Y232291D01*
X143130Y232387D01*
X143298Y233657D01*
X145452D01*
X147793Y234123D01*
X149778Y235449D01*
X230262Y315933D01*
X231849Y315724D01*
X232466Y314655D01*
X234049Y313072D01*
X235987Y311953D01*
X238149Y311374D01*
X240387D01*
X242549Y311953D01*
X244487Y313072D01*
X246070Y314655D01*
X247189Y316593D01*
X247768Y318755D01*
Y320993D01*
X247189Y323155D01*
X246070Y325093D01*
X244487Y326676D01*
X243418Y327293D01*
X243209Y328880D01*
X248609Y334280D01*
X249935Y336264D01*
X250401Y338605D01*
Y405078D01*
X251334Y405395D01*
X251671Y405415D01*
X257476Y399610D01*
X259565Y398007D01*
X261997Y396999D01*
X264608Y396656D01*
X344170D01*
X344365Y396681D01*
X355214D01*
Y416803D01*
X344365D01*
X344170Y416828D01*
X300000D01*
Y415000D01*
X275000D01*
X273172Y416828D01*
X268836D01*
Y431750D01*
X268493Y434361D01*
X267485Y436793D01*
X265882Y438882D01*
X263793Y440485D01*
X261360Y441493D01*
X258750Y441836D01*
X256140Y441493D01*
X253707Y440485D01*
X251671Y438923D01*
X251222Y438993D01*
X250401Y439272D01*
Y441935D01*
X250685Y442219D01*
X251738Y444043D01*
X252283Y446078D01*
Y448185D01*
X251738Y450219D01*
X250685Y452043D01*
X249196Y453533D01*
X247371Y454586D01*
X245337Y455131D01*
X243230D01*
X241196Y454586D01*
X239371Y453533D01*
X237882Y452043D01*
X236829Y450219D01*
X236283Y448185D01*
Y446078D01*
X236829Y444043D01*
X237882Y442219D01*
X238166Y441935D01*
Y389353D01*
X236896Y388827D01*
X235733Y389990D01*
X233644Y391593D01*
X231211Y392601D01*
X228601Y392944D01*
X220274D01*
X217663Y392601D01*
X215231Y391593D01*
X213142Y389990D01*
X211539Y387901D01*
X210531Y385469D01*
X210417Y384600D01*
X208514Y383140D01*
X206911Y381051D01*
X205903Y378619D01*
X205560Y376008D01*
Y360514D01*
X205646Y359859D01*
Y357900D01*
X198620D01*
Y363508D01*
X198534Y364163D01*
Y365425D01*
X198368D01*
X198277Y366118D01*
X197269Y368551D01*
X195666Y370640D01*
X189410Y376895D01*
Y383628D01*
X189324Y384283D01*
Y393972D01*
X189708Y394286D01*
X191587Y396567D01*
X192985Y399170D01*
X193848Y401996D01*
X194142Y404936D01*
X194376Y531548D01*
X222758D01*
X226021Y531978D01*
X229062Y533237D01*
X231673Y535241D01*
X291871Y595439D01*
X301777Y605345D01*
X303781Y607956D01*
X305040Y610997D01*
X305470Y614260D01*
X305040Y617523D01*
X303781Y620564D01*
X303432Y621018D01*
X303696Y623019D01*
X303450Y624882D01*
X304551Y626152D01*
X363038D01*
X371673Y617517D01*
D02*
G37*
G36*
X521517Y547279D02*
X487121Y512883D01*
X485850Y513409D01*
Y514235D01*
X485305Y516269D01*
X484252Y518093D01*
X483968Y518378D01*
Y524173D01*
X508248Y548452D01*
X521031D01*
X521517Y547279D01*
D02*
G37*
G36*
X392408Y345013D02*
Y301184D01*
X391138Y300451D01*
X390458Y300844D01*
X388296Y301423D01*
X386058D01*
X385876Y301374D01*
X384823Y303197D01*
X383241Y304780D01*
X381302Y305899D01*
X379141Y306478D01*
X377639D01*
Y333952D01*
X378909Y334831D01*
X380194Y334487D01*
X382301D01*
X384335Y335032D01*
X386160Y336085D01*
X387649Y337574D01*
X388702Y339399D01*
X389247Y341433D01*
Y343540D01*
X389225Y343625D01*
X391138Y345539D01*
X392408Y345013D01*
D02*
G37*
G36*
X365404Y281180D02*
X349049Y264824D01*
X347876Y265310D01*
Y289536D01*
X348882Y290317D01*
X349146Y290313D01*
X351704Y289976D01*
X354315Y290319D01*
X355949Y290996D01*
X362397D01*
X363052Y291083D01*
X365404D01*
Y281180D01*
D02*
G37*
G36*
X559617Y312341D02*
X559261Y311725D01*
X558682Y309563D01*
Y307325D01*
X559261Y305163D01*
X559617Y304547D01*
Y285740D01*
X559515Y285563D01*
X558936Y283401D01*
Y281163D01*
X559515Y279001D01*
X559617Y278824D01*
Y271482D01*
X559442Y271178D01*
X558896Y269143D01*
Y267036D01*
X558926Y266926D01*
X558153Y265918D01*
X556897D01*
X556896Y265918D01*
X555626Y265856D01*
X553913Y267002D01*
X551679Y267446D01*
X547329D01*
X545095Y267002D01*
X544754Y266774D01*
X544413Y267002D01*
X542179Y267446D01*
X537829D01*
X535595Y267002D01*
X535254Y266774D01*
X534913Y267002D01*
X532679Y267446D01*
X528329D01*
X526095Y267002D01*
X524201Y265736D01*
X522936Y263843D01*
X522649Y262401D01*
X477684D01*
X475343Y261936D01*
X473358Y260609D01*
X459771Y247022D01*
X452043D01*
X449701Y246557D01*
X449402Y246356D01*
X447823Y247267D01*
X445662Y247846D01*
X443424D01*
X441262Y247267D01*
X439324Y246148D01*
X437741Y244566D01*
X436763Y242872D01*
X436420Y242670D01*
X436127Y242599D01*
X435287Y242552D01*
X413534Y264305D01*
Y274890D01*
X414488Y275727D01*
X415529Y275590D01*
X418139Y275934D01*
X420572Y276942D01*
X422661Y278545D01*
X426081Y281965D01*
X427351Y281439D01*
Y261395D01*
X447933D01*
Y266984D01*
X449203Y267324D01*
X449607Y266625D01*
X451096Y265135D01*
X452920Y264082D01*
X454955Y263537D01*
X457062D01*
X459096Y264082D01*
X460920Y265135D01*
X461204Y265420D01*
X495054D01*
X497395Y265885D01*
X499380Y267211D01*
X507435Y275266D01*
X522649D01*
X522936Y273825D01*
X524201Y271931D01*
X526095Y270666D01*
X528329Y270222D01*
X532679D01*
X534913Y270666D01*
X536806Y271931D01*
X538072Y273825D01*
X538516Y276059D01*
Y286709D01*
X538072Y288943D01*
X536806Y290836D01*
X534913Y292102D01*
X532679Y292546D01*
X528329D01*
X526095Y292102D01*
X524201Y290836D01*
X522936Y288943D01*
X522649Y287501D01*
X519211D01*
Y302123D01*
Y313485D01*
X522384Y316658D01*
X523654Y316632D01*
Y314240D01*
X532544D01*
Y296055D01*
X537139D01*
X537771Y294531D01*
X538813Y293173D01*
X542379Y289606D01*
X541936Y288943D01*
X541492Y286709D01*
Y276059D01*
X541936Y273825D01*
X543201Y271931D01*
X545095Y270666D01*
X547329Y270222D01*
X551679D01*
X553913Y270666D01*
X555806Y271931D01*
X557072Y273825D01*
X557516Y276059D01*
Y286709D01*
X557072Y288943D01*
X556060Y290457D01*
Y291753D01*
X555837Y293450D01*
X555182Y295031D01*
X554140Y296389D01*
X552544Y297985D01*
Y314240D01*
X556354D01*
Y317534D01*
X559617D01*
Y312341D01*
D02*
G37*
G36*
X501558Y239767D02*
X501451D01*
X499754Y239543D01*
X498173Y238888D01*
X496815Y237847D01*
X491928Y232960D01*
X490755Y233446D01*
Y243043D01*
X488118D01*
X487725Y243556D01*
Y245662D01*
X487179Y247697D01*
X486487Y248896D01*
X487212Y250166D01*
X501558D01*
Y239767D01*
D02*
G37*
G36*
X309446Y202526D02*
X309673Y200802D01*
X308656Y199532D01*
X286816D01*
Y194596D01*
X284374Y194275D01*
X281942Y193267D01*
X279853Y191664D01*
X274798Y186609D01*
X273195Y184520D01*
X272187Y182088D01*
X271843Y179477D01*
X272187Y176866D01*
X273195Y174434D01*
X274798Y172345D01*
X276887Y170742D01*
X279319Y169734D01*
X281930Y169391D01*
X282648Y168761D01*
Y155550D01*
X281475Y155064D01*
X268151Y168388D01*
Y174269D01*
Y196330D01*
X267946D01*
Y202970D01*
X280278Y215302D01*
X309446D01*
Y202526D01*
D02*
G37*
G36*
X314489Y193791D02*
X316922Y192783D01*
X319532Y192440D01*
X322142Y192783D01*
X322614Y192979D01*
X323670Y192273D01*
Y158053D01*
X317937Y152320D01*
X317423D01*
X307713Y162031D01*
Y162215D01*
X307713Y162215D01*
X307648Y162707D01*
Y174532D01*
X312116D01*
Y194011D01*
X313386Y194637D01*
X314489Y193791D01*
D02*
G37*
G36*
X455005Y189603D02*
Y132735D01*
X437692D01*
Y131840D01*
X425637D01*
X423131Y134346D01*
X421043Y135949D01*
X418610Y136957D01*
X415999Y137300D01*
X415598D01*
Y139230D01*
X390598D01*
Y113930D01*
X415229D01*
X416416Y113019D01*
X418849Y112011D01*
X421459Y111668D01*
X437158D01*
X437522Y110642D01*
X436828Y109512D01*
X412183D01*
Y90026D01*
X397270D01*
X365910Y121386D01*
Y212134D01*
X385677Y231901D01*
X387004Y233886D01*
X387469Y236227D01*
Y255480D01*
X388643Y255966D01*
X455005Y189603D01*
D02*
G37*
G36*
X246244Y138068D02*
X246305Y137601D01*
X246235Y137068D01*
X246321Y136413D01*
Y123328D01*
X258542D01*
X260192Y123111D01*
X269091D01*
X269145Y122699D01*
X270152Y120267D01*
X271755Y118178D01*
X273697Y116236D01*
X273191Y114966D01*
X215150D01*
X214261Y115856D01*
X212974Y116599D01*
X213153Y117962D01*
X214627Y118357D01*
X216565Y119476D01*
X218148Y121058D01*
X219267Y122997D01*
X219616Y124298D01*
X221040Y125083D01*
X221425Y124924D01*
X223774Y124614D01*
X226124Y124924D01*
X228313Y125831D01*
X230193Y127273D01*
X231635Y129153D01*
X232542Y131342D01*
X232852Y133692D01*
Y144263D01*
X246244D01*
Y138068D01*
D02*
G37*
G36*
X330475Y125009D02*
X332637Y124430D01*
X334875D01*
X335640Y123843D01*
Y121906D01*
X328701Y114966D01*
X307595D01*
Y125288D01*
X329991D01*
X330475Y125009D01*
D02*
G37*
G36*
X265147Y101558D02*
X251648Y88059D01*
X223053D01*
X222079Y89329D01*
X222368Y90409D01*
Y92647D01*
X221789Y94809D01*
X220670Y96747D01*
X219087Y98330D01*
X217149Y99449D01*
X214987Y100028D01*
X212749D01*
X212512Y101243D01*
X214261Y102252D01*
X214740Y102732D01*
X264661D01*
X265147Y101558D01*
D02*
G37*
G36*
X528429Y226347D02*
Y224109D01*
X529008Y221947D01*
X530127Y220009D01*
X531710Y218426D01*
X533648Y217307D01*
X535810Y216728D01*
X538048D01*
X540210Y217307D01*
X542148Y218426D01*
X542380Y218659D01*
X581343D01*
X582479Y217524D01*
X584417Y216405D01*
X586579Y215825D01*
X588817D01*
X590979Y216405D01*
X592917Y217524D01*
X594500Y219106D01*
X595619Y221045D01*
X595860Y221946D01*
X597109Y221697D01*
X596995Y220835D01*
Y207187D01*
X597144Y206058D01*
Y196712D01*
X597230Y196057D01*
Y181552D01*
X617230D01*
Y196057D01*
X617316Y196712D01*
Y207038D01*
X617230Y207694D01*
Y211872D01*
X617168D01*
Y213608D01*
X621899D01*
X622554Y213522D01*
X623209Y213608D01*
X630693D01*
X631898Y213449D01*
X634508Y213793D01*
X636941Y214801D01*
X639030Y216404D01*
X639202Y216576D01*
X640805Y218664D01*
X641434Y220183D01*
X642704Y219931D01*
Y216358D01*
X643883D01*
Y207134D01*
X640439D01*
Y176814D01*
X668305D01*
X669109Y174872D01*
X670712Y172783D01*
X672801Y171180D01*
X673725Y170798D01*
X673472Y169528D01*
X637032D01*
X634691Y169062D01*
X632706Y167736D01*
X582668Y117698D01*
X581342Y115713D01*
X580877Y113372D01*
Y83284D01*
X579607Y82658D01*
X578325Y83642D01*
X576135Y84548D01*
X573786Y84858D01*
X571437Y84548D01*
X569247Y83642D01*
X567367Y82199D01*
X556818Y71650D01*
X534320D01*
Y101381D01*
X519110D01*
Y101382D01*
X499110D01*
Y71062D01*
X500032D01*
Y67258D01*
X500342Y64909D01*
X501249Y62719D01*
X502691Y60840D01*
X505346Y58185D01*
X504860Y57011D01*
X488432D01*
X482548Y62896D01*
X483469Y63817D01*
X484522Y65642D01*
X485068Y67676D01*
Y69783D01*
X484522Y71817D01*
X483469Y73642D01*
X483400Y73710D01*
Y101206D01*
X482935Y103547D01*
X481609Y105532D01*
X479931Y107209D01*
Y129002D01*
X481433D01*
X483595Y129581D01*
X485533Y130700D01*
X485779Y130946D01*
X512952D01*
X514649Y131169D01*
X516230Y131824D01*
X517588Y132866D01*
X555585Y170863D01*
X556627Y172221D01*
X557282Y173802D01*
X557505Y175499D01*
Y183238D01*
X558516Y184249D01*
X559636Y186187D01*
X560215Y188349D01*
Y190587D01*
X559636Y192749D01*
X558516Y194687D01*
X556934Y196270D01*
X554996Y197389D01*
X552834Y197968D01*
X550596D01*
X548434Y197389D01*
X546496Y196270D01*
X544913Y194687D01*
X543794Y192749D01*
X543215Y190587D01*
Y188349D01*
X543794Y186187D01*
X544393Y185149D01*
Y178215D01*
X510237Y144058D01*
X485779D01*
X485533Y144304D01*
X483595Y145423D01*
X481433Y146002D01*
X479931D01*
Y181552D01*
X489794D01*
Y179120D01*
X490137Y176509D01*
X491145Y174077D01*
X492748Y171988D01*
X496618Y168118D01*
X498707Y166515D01*
X501139Y165507D01*
X503750Y165164D01*
X506361Y165507D01*
X508793Y166515D01*
X510882Y168118D01*
X512485Y170207D01*
X513493Y172640D01*
X513836Y175250D01*
X513493Y177861D01*
X512485Y180293D01*
X510882Y182382D01*
X509966Y183298D01*
Y196712D01*
X509880Y197367D01*
Y211872D01*
X490756D01*
Y213244D01*
X504166Y226655D01*
X528193D01*
X528429Y226347D01*
D02*
G37*
G36*
X355474Y48402D02*
X356800Y46417D01*
X360643Y42573D01*
X362628Y41247D01*
X364969Y40781D01*
X388556D01*
Y25357D01*
X380715D01*
X376759Y29314D01*
X374774Y30640D01*
X372433Y31106D01*
X350328D01*
X347118Y34315D01*
Y49074D01*
X355340D01*
X355474Y48402D01*
D02*
G37*
%LPC*%
G36*
X398880Y782000D02*
X395720D01*
X392668Y781182D01*
X389932Y779602D01*
X387698Y777368D01*
X386118Y774632D01*
X385300Y771580D01*
Y768420D01*
X386118Y765368D01*
X387698Y762632D01*
X389932Y760398D01*
X392668Y758818D01*
X395720Y758000D01*
X398880D01*
X401932Y758818D01*
X404668Y760398D01*
X406902Y762632D01*
X408482Y765368D01*
X409300Y768420D01*
Y771580D01*
X408482Y774632D01*
X406902Y777368D01*
X404668Y779602D01*
X401932Y781182D01*
X398880Y782000D01*
D02*
G37*
G36*
X373480D02*
X370320D01*
X367268Y781182D01*
X364532Y779602D01*
X362298Y777368D01*
X360718Y774632D01*
X359900Y771580D01*
Y768420D01*
X360718Y765368D01*
X362298Y762632D01*
X364532Y760398D01*
X367268Y758818D01*
X370320Y758000D01*
X373480D01*
X376532Y758818D01*
X379268Y760398D01*
X381502Y762632D01*
X383082Y765368D01*
X383900Y768420D01*
Y771580D01*
X383082Y774632D01*
X381502Y777368D01*
X379268Y779602D01*
X376532Y781182D01*
X373480Y782000D01*
D02*
G37*
G36*
X405334Y570631D02*
X380034D01*
Y545631D01*
X381025D01*
Y515741D01*
X380820Y514184D01*
X381013Y512715D01*
Y500021D01*
X381099Y499365D01*
Y490054D01*
X401221D01*
Y499765D01*
X401246Y499960D01*
X401221Y500155D01*
Y511004D01*
X401186D01*
Y513991D01*
X401165Y514146D01*
X401197Y514389D01*
Y545631D01*
X405334D01*
Y570631D01*
D02*
G37*
G36*
X313744Y482892D02*
X288798D01*
Y457592D01*
X313744D01*
Y460317D01*
X328061D01*
X328391Y457810D01*
X329398Y455378D01*
X331001Y453289D01*
X331713Y452576D01*
Y446719D01*
X341579D01*
X341774Y446694D01*
X342757D01*
X342952Y446719D01*
X353801D01*
Y449922D01*
X352806D01*
Y464146D01*
X345186D01*
Y477597D01*
X344840Y477862D01*
X339598D01*
Y480297D01*
X338133Y480490D01*
X313744D01*
Y482892D01*
D02*
G37*
G36*
X218035Y441150D02*
X215797D01*
X213635Y440571D01*
X211697Y439452D01*
X210114Y437869D01*
X208995Y435931D01*
X208416Y433769D01*
Y431531D01*
X208995Y429369D01*
X210114Y427431D01*
X211697Y425848D01*
X213635Y424729D01*
X215797Y424150D01*
X218035D01*
X220197Y424729D01*
X222135Y425848D01*
X223718Y427431D01*
X224837Y429369D01*
X225416Y431531D01*
Y433769D01*
X224837Y435931D01*
X223718Y437869D01*
X222135Y439452D01*
X220197Y440571D01*
X218035Y441150D01*
D02*
G37*
G36*
X348886Y442736D02*
X348691Y442711D01*
X338825D01*
Y442676D01*
X338775D01*
X336165Y442332D01*
X333732Y441324D01*
X331643Y439721D01*
X328402Y436480D01*
X326799Y434391D01*
X325791Y431959D01*
X325448Y429348D01*
X325791Y426738D01*
X326799Y424305D01*
X328402Y422216D01*
X330491Y420613D01*
X332924Y419605D01*
X335534Y419262D01*
X338144Y419605D01*
X340577Y420613D01*
X342666Y422216D01*
X342953Y422503D01*
X348825D01*
X349481Y422589D01*
X358394D01*
Y442711D01*
X349081D01*
X348886Y442736D01*
D02*
G37*
G36*
X263652Y381776D02*
X261042Y381433D01*
X258609Y380425D01*
X256520Y378822D01*
X254917Y376733D01*
X253909Y374300D01*
X253566Y371690D01*
Y366609D01*
X253909Y363998D01*
X254917Y361566D01*
X256520Y359477D01*
X271371Y344626D01*
Y336803D01*
X291493D01*
Y358890D01*
X285636D01*
X273738Y370787D01*
Y371690D01*
X273395Y374300D01*
X272387Y376733D01*
X270784Y378822D01*
X268695Y380425D01*
X266262Y381433D01*
X263652Y381776D01*
D02*
G37*
G36*
X432258Y201061D02*
X406958D01*
Y176061D01*
X414858D01*
Y166916D01*
X413453D01*
Y141616D01*
X438453D01*
Y166916D01*
X435031D01*
Y175839D01*
X441177Y181985D01*
X442780Y184074D01*
X443787Y186507D01*
X444131Y189117D01*
X443787Y191728D01*
X442780Y194160D01*
X441177Y196249D01*
X439088Y197852D01*
X436655Y198860D01*
X434045Y199203D01*
X432258D01*
Y201061D01*
D02*
G37*
%LPD*%
G36*
X767125Y205268D02*
X768949Y204215D01*
X770984Y203670D01*
X773090D01*
X773938Y203897D01*
X775208Y202923D01*
Y199224D01*
X781718D01*
Y196844D01*
X796798D01*
Y175442D01*
X781972D01*
Y172996D01*
X765302D01*
Y205295D01*
X766572Y205821D01*
X767125Y205268D01*
D02*
G37*
D11*
X694326Y52641D02*
X695309D01*
X689358Y57610D02*
X694326Y52641D01*
X688457Y57610D02*
X689358D01*
X733044Y189064D02*
Y202018D01*
Y180936D02*
Y189064D01*
Y173062D02*
Y180936D01*
X723138Y173062D02*
X733044D01*
D12*
X406106Y669672D02*
X426300D01*
X485902Y657694D02*
Y678873D01*
X480431Y684344D02*
X485902Y678873D01*
X479181Y625929D02*
Y656772D01*
X443992Y691961D02*
X479181Y656772D01*
X443992Y691961D02*
Y743376D01*
X485902Y657694D02*
X486924Y656672D01*
X480939Y624172D02*
X500800D01*
X479181Y625929D02*
X480939Y624172D01*
X549160Y644677D02*
Y666420D01*
X539433Y644677D02*
X549160D01*
Y666420D02*
X555890Y673150D01*
X549160Y644677D02*
X561594D01*
X555890Y673150D02*
X569963D01*
X701200Y32003D02*
X710349D01*
X738632Y60286D01*
X729849Y136740D02*
X730160Y136429D01*
X633730Y136740D02*
X729849D01*
X600788Y103798D02*
X633730Y136740D01*
X655007Y130390D02*
X655246Y130151D01*
X640588Y130390D02*
X655007D01*
X613288Y103090D02*
X640588Y130390D01*
X613288Y4704D02*
Y103090D01*
X600788Y21247D02*
Y103798D01*
Y4704D02*
Y21247D01*
X606872Y685060D02*
X638857D01*
X606298Y685634D02*
X606872Y685060D01*
X638857D02*
X639431Y684485D01*
X650439Y223354D02*
X653734Y226649D01*
X650439Y191975D02*
Y223354D01*
Y229944D02*
Y236308D01*
Y229944D02*
X653734Y226649D01*
X655951Y241821D02*
Y242903D01*
X650439Y236308D02*
X655951Y241821D01*
X545620Y606553D02*
X550585D01*
X561594Y617562D01*
X545445Y606378D02*
X545620Y606553D01*
X484200Y197492D02*
Y215960D01*
Y197492D02*
X484980Y196712D01*
X589207Y241514D02*
Y324294D01*
X580904Y233211D02*
X589207Y241514D01*
X501451Y233211D02*
X580904D01*
X484200Y215960D02*
X501451Y233211D01*
X512952Y137502D02*
X550949Y175499D01*
Y188703D01*
X480314Y137502D02*
X512952D01*
X550949Y188703D02*
X551715Y189468D01*
X253351Y659699D02*
X253733Y660082D01*
X251851Y658200D02*
X253351Y659699D01*
X253733Y660082D02*
Y667239D01*
X234561Y658200D02*
X235829D01*
X233731Y657370D02*
X234561Y658200D01*
X223070Y657370D02*
X233731D01*
X540245Y245477D02*
Y256043D01*
X513590Y243384D02*
X538151D01*
X540004Y256284D02*
X540245Y256043D01*
X538151Y243384D02*
X540245Y245477D01*
X538151Y243384D02*
X565030D01*
X566896Y245250D01*
X326898Y782916D02*
X332948Y788966D01*
Y810302D02*
X337626Y814980D01*
X332948Y788966D02*
Y810302D01*
X337626Y814980D02*
X426910D01*
X435755Y806134D01*
Y751612D02*
Y806134D01*
Y751612D02*
X443992Y743376D01*
X376989Y611367D02*
Y611519D01*
X358394Y509358D02*
Y592772D01*
X376989Y611367D01*
X489767Y246678D02*
X490264D01*
X489767D02*
X493061Y243384D01*
X500890D01*
X531876Y298203D02*
Y306055D01*
X539905Y281483D02*
Y290174D01*
Y281483D02*
X540004Y281384D01*
X531876Y298203D02*
X539905Y290174D01*
X549504Y281384D02*
Y291753D01*
X543448Y297809D02*
Y304927D01*
Y297809D02*
X549504Y291753D01*
X543448Y323367D02*
X544322Y324240D01*
X543448Y306055D02*
Y323367D01*
Y304927D02*
X544576Y306055D01*
X391922Y630119D02*
X392127Y629914D01*
Y618172D02*
Y629914D01*
X409167Y623821D02*
X425949D01*
X486704Y611172D02*
X500800D01*
X515050Y623018D02*
X515624Y622444D01*
Y618574D02*
Y622444D01*
X514963Y622932D02*
X515050Y623018D01*
X514963Y617672D02*
Y622932D01*
X500800Y617672D02*
X514963D01*
X500800Y669672D02*
Y678864D01*
X426300Y617672D02*
X453626D01*
X460145Y624192D01*
Y645304D01*
X445234Y636829D02*
X445576Y636487D01*
X426642Y636829D02*
X445234D01*
X426300Y637172D02*
X426642Y636829D01*
X419389Y611172D02*
X426300D01*
X418638Y603798D02*
Y610422D01*
X419389Y611172D01*
X418232Y603392D02*
X418638Y603798D01*
X561594Y617562D02*
Y644677D01*
X538734Y643978D02*
X539433Y644677D01*
X102362Y20545D02*
Y47332D01*
Y20545D02*
X103632Y19275D01*
X456164Y733386D02*
Y761936D01*
X448100Y770000D02*
X456164Y761936D01*
X316484Y310459D02*
X357378Y351353D01*
Y352386D01*
X316484Y297776D02*
Y310459D01*
X257384Y782916D02*
X326898D01*
X244900Y795400D02*
X257384Y782916D01*
X472186Y733386D02*
X473500Y734700D01*
Y770000D01*
D13*
X457999Y472469D02*
G03*
X459478Y473133I-10J2000D01*
G01*
X444556Y37358D02*
X447556Y34358D01*
X442529Y38530D02*
Y42684D01*
X447556Y30358D02*
Y34358D01*
X443701Y37358D02*
X444556D01*
X442529Y38530D02*
X443701Y37358D01*
X364969Y46899D02*
X432658D01*
X438056Y41501D01*
Y33358D02*
Y41501D01*
X434315Y50899D02*
X442529Y42684D01*
X435056Y30358D02*
X438056Y33358D01*
X366626Y50899D02*
X434315D01*
X366297Y57151D02*
X375900D01*
X365126Y55979D02*
X366297Y57151D01*
X365126Y52400D02*
Y55979D01*
Y52400D02*
X366626Y50899D01*
X359954Y57151D02*
X361125Y55979D01*
X350800Y57151D02*
X359954D01*
X361125Y50743D02*
X364969Y46899D01*
X361125Y50743D02*
Y55979D01*
X327254Y60638D02*
X328426Y59466D01*
X337486D01*
X327254Y60638D02*
Y70251D01*
X328426Y55466D02*
X335829D01*
X327254Y45150D02*
Y54295D01*
X328426Y55466D01*
X335829D02*
X337001Y54295D01*
Y30125D02*
Y54295D01*
X341001Y31781D02*
Y55952D01*
X337486Y59466D02*
X341001Y55952D01*
X372433Y24988D02*
X378181Y19240D01*
X347794Y24988D02*
X372433D01*
X399195Y19240D02*
X400457Y20502D01*
Y27457D01*
X397556Y30358D02*
X400457Y27457D01*
X378181Y19240D02*
X399195D01*
X341001Y31781D02*
X347794Y24988D01*
X410056Y26358D02*
Y30358D01*
X370776Y20988D02*
X376524Y15240D01*
X404556Y18944D02*
Y22186D01*
X407056Y23358D02*
X410056Y26358D01*
X400852Y15240D02*
X404556Y18944D01*
X337001Y30125D02*
X346138Y20988D01*
X405728Y23358D02*
X407056D01*
X376524Y15240D02*
X400852D01*
X346138Y20988D02*
X370776D01*
X404556Y22186D02*
X405728Y23358D01*
X452631Y54148D02*
X471189D01*
X440832Y65947D02*
X452631Y54148D01*
X440832Y65947D02*
Y76908D01*
X446532Y66758D02*
Y79082D01*
Y66758D02*
X454473Y58816D01*
X477976D01*
X438814Y285417D02*
X451657D01*
X437642Y272425D02*
Y284245D01*
X438814Y285417D01*
X451657D02*
X452422Y286182D01*
X349500Y120392D02*
Y256624D01*
X333957Y104849D02*
X349500Y120392D01*
X277089Y104849D02*
X333957D01*
X331235Y108849D02*
X341758Y119372D01*
X209247Y108849D02*
X331235D01*
X341758Y119372D02*
Y321200D01*
X456008Y271537D02*
X495054D01*
X504901Y281384D01*
X451043Y239905D02*
X452043Y240905D01*
X445101Y239905D02*
X451043D01*
X444543Y239347D02*
X445101Y239905D01*
X452043Y240905D02*
X463703D01*
Y242303D01*
Y232752D02*
Y240905D01*
X132437Y136903D02*
Y137233D01*
X177813Y91528D02*
X213868D01*
X132437Y136903D02*
X177813Y91528D01*
X167432Y126730D02*
X210893D01*
X140462Y153700D02*
Y154012D01*
Y153700D02*
X167432Y126730D01*
X69088Y157060D02*
Y157060D01*
Y157060D02*
X77216Y148932D01*
Y20264D02*
Y148932D01*
X244284Y338605D02*
Y447131D01*
X145452Y239774D02*
X244284Y338605D01*
X532248Y742881D02*
X538789D01*
X547125Y751217D01*
Y753311D01*
X547370Y742022D02*
Y751217D01*
X558118Y741723D02*
Y742318D01*
X547125Y753311D02*
X558118Y742318D01*
X471710Y615244D02*
X489458Y597496D01*
X464800Y663011D02*
X471710Y656102D01*
Y615244D02*
Y656102D01*
X426300Y663172D02*
X426461Y663011D01*
X464800D01*
X676978Y-13750D02*
X689118Y-25890D01*
X669000Y-23026D02*
X682325D01*
X669000Y-23750D02*
Y-23026D01*
X598932D02*
X654500D01*
X531114D02*
X598932D01*
X638430Y151346D02*
X664976D01*
X593852Y106768D02*
X638430Y151346D01*
X637032Y163410D02*
X698500D01*
X482071Y43265D02*
X581026D01*
X593852Y56092D02*
Y106768D01*
X581026Y43265D02*
X593852Y56092D01*
X586994Y113372D02*
X637032Y163410D01*
X586994Y61384D02*
Y113372D01*
X576504Y50894D02*
X586994Y61384D01*
X485898Y50894D02*
X572372D01*
X573676Y52198D01*
X576038Y50427D02*
X576504Y50894D01*
Y51027D01*
X573676Y52198D02*
X575333D01*
X576504Y51027D01*
X572372Y50427D02*
X576038D01*
X702190Y628366D02*
Y633619D01*
X554482Y564984D02*
X638808D01*
X702190Y628366D01*
X687578Y628484D02*
X688086Y627976D01*
X648208Y628484D02*
X687578D01*
X599186D02*
X648208D01*
X587756Y639914D02*
X599186Y628484D01*
X571500Y639914D02*
X587756D01*
X567690Y636104D02*
X571500Y639914D01*
X567690Y613691D02*
Y636104D01*
X562312Y608313D02*
X567690Y613691D01*
X634844Y554570D02*
X759415Y679141D01*
X505714Y554570D02*
X634844D01*
X759415Y679141D02*
X804369D01*
X634928Y546696D02*
X744669Y656437D01*
X529585Y546696D02*
X634928D01*
X744669Y656437D02*
X804085D01*
X395350Y374793D02*
Y418044D01*
X341758Y321200D02*
X395350Y374793D01*
X330454Y291680D02*
Y315955D01*
X391350Y376851D02*
Y419701D01*
X330454Y315955D02*
X391350Y376851D01*
X77884Y377789D02*
Y395058D01*
X66294Y366199D02*
X77884Y377789D01*
X66294Y344363D02*
Y366199D01*
X77884Y395058D02*
X94996D01*
X125984Y426046D01*
X18034Y522000D02*
Y532726D01*
X7284Y521750D02*
Y532476D01*
X-2672Y521886D02*
Y532612D01*
X377750Y280588D02*
X381352Y276987D01*
Y236227D02*
Y276987D01*
X359792Y214668D02*
X381352Y236227D01*
X377750Y280588D02*
Y297707D01*
X80713Y632040D02*
X81302D01*
X2814Y724317D02*
Y736413D01*
X2480Y744972D02*
X13852D01*
X2814Y726870D02*
Y736413D01*
X80713Y632040D02*
X81302D01*
X438277Y323634D02*
X445024Y330381D01*
X2814Y723333D02*
X6631Y719516D01*
X2814Y723333D02*
Y736413D01*
X6631Y719516D02*
X25400Y700747D01*
X6631Y719516D02*
X22970Y735855D01*
X1830Y724317D02*
Y726870D01*
X-231Y726378D02*
X1830Y724317D01*
X-231Y726378D02*
Y729958D01*
X13852Y744972D02*
X22970Y735855D01*
X-8893Y744972D02*
X13852D01*
X-5604Y735331D02*
X-231Y729958D01*
X-8697Y735331D02*
X-5604D01*
X-9189Y726378D02*
X-231D01*
X298770Y132961D02*
Y141820D01*
X300325Y131406D02*
X330879D01*
X298770Y132961D02*
X300325Y131406D01*
X355792Y115986D02*
Y232636D01*
X392950Y78828D02*
X438912D01*
X355792Y115986D02*
X392950Y78828D01*
X394736Y83908D02*
X441706D01*
X359792Y118852D02*
X394736Y83908D01*
X359792Y118852D02*
Y214668D01*
X355913Y232758D02*
Y235351D01*
X356870Y236308D01*
X355792Y232636D02*
X355913Y232758D01*
X419608Y190080D02*
X420571Y189117D01*
X689779Y81483D02*
X691563Y83267D01*
X808857D02*
X836930Y111340D01*
X691563Y83267D02*
X808857D01*
X836930Y111340D02*
Y272834D01*
X740868Y368896D02*
X836930Y272834D01*
X564134Y368896D02*
X740868D01*
X506685Y342641D02*
X537879D01*
X496326Y353000D02*
X506685Y342641D01*
X537879D02*
X564134Y368896D01*
X461214Y362062D02*
X470276Y353000D01*
X496326D01*
X105624Y239774D02*
X145452D01*
X387177Y266082D02*
Y292923D01*
Y266082D02*
X461123Y192137D01*
Y76219D02*
Y192137D01*
X453633Y68730D02*
X461123Y76219D01*
X471189Y54148D02*
X482071Y43265D01*
X438912Y78828D02*
X440832Y76908D01*
X477976Y58816D02*
X485898Y50894D01*
X537380Y224777D02*
X587247D01*
X536929Y225228D02*
X537380Y224777D01*
X587247D02*
X587698Y224325D01*
X138885Y314282D02*
Y432079D01*
X146903Y306264D02*
X200958D01*
X138885Y314282D02*
X146903Y306264D01*
X210546Y315853D02*
Y336527D01*
X200958Y306264D02*
X210546Y315853D01*
X338582Y347586D02*
Y348068D01*
X297945Y306950D02*
X338582Y347586D01*
X297945Y289137D02*
Y306950D01*
X331345Y361784D02*
X370586D01*
X193931Y224370D02*
X331345Y361784D01*
X140208Y224370D02*
X193931D01*
X204657Y632361D02*
X285878D01*
X193548Y643470D02*
X204657Y632361D01*
X365572Y632269D02*
X433119Y564723D01*
X285970Y632269D02*
X365572D01*
X285878Y632361D02*
X285970Y632269D01*
X549700Y755552D02*
Y770000D01*
X547370Y753222D02*
X549700Y755552D01*
X448024Y630449D02*
X452861Y635286D01*
X426300Y630672D02*
X426523Y630449D01*
X448024D01*
X463363Y576648D02*
Y599906D01*
X466146Y602688D01*
Y647790D01*
X484753Y490348D02*
X533990Y539584D01*
X477305Y490348D02*
X484753D01*
X533990Y539584D02*
X656713D01*
X381247Y343569D02*
X382583Y344905D01*
Y345636D01*
X397716Y360768D01*
X403172D01*
X381247Y342486D02*
Y343569D01*
X407416Y261771D02*
Y356524D01*
X403172Y360768D02*
X407416Y356524D01*
X467323Y68730D02*
X468089Y69495D01*
Y71892D01*
X468097Y71901D01*
Y194134D01*
X477283Y68945D02*
Y101206D01*
X473814Y104675D02*
X477283Y101206D01*
X473814Y104675D02*
Y195373D01*
X441706Y83908D02*
X446532Y79082D01*
X470241Y342480D02*
X470462D01*
X445024Y330381D02*
Y338646D01*
X462475Y342163D02*
X462792Y342480D01*
X462475Y341439D02*
Y342163D01*
X459681Y338646D02*
X462475Y341439D01*
X365248Y400034D02*
X365722Y399560D01*
Y396855D02*
Y399560D01*
X365430Y396563D02*
X365722Y396855D01*
X365248Y400034D02*
Y402681D01*
X361187Y406742D02*
X365248Y402681D01*
X360426Y406742D02*
X361187D01*
X477068Y68730D02*
X477283Y68945D01*
X214433Y607967D02*
X215495D01*
X205206Y598740D02*
X213868Y590077D01*
X205206Y598740D02*
X214433Y607967D01*
X214078Y590287D02*
X215094Y589272D01*
X213868Y580224D02*
Y590077D01*
X200279Y593813D02*
X213868Y580224D01*
Y571842D02*
Y580224D01*
X200279Y593813D02*
X210553D01*
X788162Y595501D02*
Y595501D01*
X747161Y554500D02*
X788162Y595501D01*
X698430Y554500D02*
X747161D01*
X788162Y595501D02*
X803547Y610887D01*
X750791Y633662D02*
X804805D01*
X804085Y656437D02*
X804617Y655905D01*
X617220Y473290D02*
X698430Y554500D01*
X553720Y473290D02*
X617220D01*
X534670Y454240D02*
X553720Y473290D01*
X534670Y433158D02*
Y454240D01*
X490982Y389470D02*
X534670Y433158D01*
X490982Y381850D02*
Y389470D01*
Y381850D02*
X496238Y376594D01*
X502998D01*
X656713Y539584D02*
X750791Y633662D01*
X470806Y501022D02*
X483912D01*
X529585Y546696D01*
X531873Y526188D02*
X532953D01*
X422518Y456526D02*
X462211D01*
X531873Y526188D01*
X477850Y526707D02*
X505714Y554570D01*
X477850Y513181D02*
Y526707D01*
X413766Y474897D02*
Y482799D01*
X391160Y474897D02*
Y483307D01*
X389128Y472865D02*
X391160Y474897D01*
X389128Y471512D02*
Y472865D01*
X411734D02*
X413766Y474897D01*
X411734Y471512D02*
Y472865D01*
X457649Y472469D02*
X457999D01*
X456692Y471512D02*
X457649Y472469D01*
X534999Y583311D02*
X535178Y583132D01*
Y570714D02*
Y583132D01*
X529187Y564723D02*
X535178Y570714D01*
X433119Y564723D02*
X529187D01*
X504901Y281384D02*
X508920D01*
Y297131D01*
Y281384D02*
X530504D01*
X463703Y242303D02*
X464566Y243166D01*
X477684Y256284D01*
X530504D01*
X431306Y237881D02*
X431306D01*
X473814Y195373D01*
X407416Y261771D02*
X431306Y237881D01*
X398526Y263706D02*
Y352386D01*
Y263706D02*
X468097Y194134D01*
X576392Y685451D02*
X588259Y697318D01*
X576392Y685451D02*
Y685451D01*
X588259Y697318D02*
X645668D01*
X528586Y669898D02*
X544139Y685451D01*
X576392D01*
X519933Y597496D02*
X537951Y615514D01*
X425949Y623821D02*
X426300Y624172D01*
X408817Y623470D02*
X409167Y623821D01*
X462631Y651304D02*
X466146Y647790D01*
X457660Y651304D02*
X462631D01*
X452861Y646505D02*
X457660Y651304D01*
X182211Y45773D02*
X194087Y33897D01*
X182211Y45773D02*
Y46082D01*
X91694Y440016D02*
X130947D01*
X138885Y432079D01*
X541559Y577907D02*
Y590424D01*
X527533D02*
X528705Y591596D01*
X540387D02*
X541559Y590424D01*
X527533Y579946D02*
Y590424D01*
X528705Y591596D02*
X540387D01*
X525401Y715580D02*
X526170Y714810D01*
X524300Y770000D02*
X525401Y768899D01*
Y715580D02*
Y768899D01*
X511308Y782408D02*
X524300Y795400D01*
X490728Y782408D02*
X511308D01*
X485648Y777328D02*
X490728Y782408D01*
X485648Y756500D02*
Y777328D01*
Y756500D02*
X493859Y748289D01*
Y726020D02*
Y748289D01*
X498900Y770000D02*
X511275Y757625D01*
Y743882D02*
Y757625D01*
X493859Y698798D02*
Y713320D01*
Y698798D02*
X513887Y678770D01*
Y644844D02*
Y678770D01*
X518668Y639660D02*
Y695370D01*
X510794Y730700D02*
X511275Y731182D01*
X510794Y703244D02*
Y730700D01*
Y703244D02*
X518668Y695370D01*
X523494Y634580D02*
Y689190D01*
X526170Y691866D02*
Y702110D01*
X523494Y689190D02*
X526170Y691866D01*
X500800Y643672D02*
X512716D01*
X513887Y644844D01*
X516180Y637172D02*
X518668Y639660D01*
X500800Y637172D02*
X516180D01*
X519586Y630672D02*
X523494Y634580D01*
X500800Y630672D02*
X519586D01*
X528586Y616435D02*
X533302Y611718D01*
X528586Y616435D02*
Y669898D01*
X452861Y635286D02*
Y646505D01*
X517556Y569968D02*
X527533Y579946D01*
X437977Y569968D02*
X517556D01*
X406356Y601590D02*
X437977Y569968D01*
X544189Y615514D02*
X544954Y616279D01*
X489458Y597496D02*
X519933D01*
X537951Y615514D02*
X544189D01*
X541559Y577907D02*
X554482Y564984D01*
X148148Y81942D02*
X254182D01*
X142748Y76542D02*
X148148Y81942D01*
X254182D02*
X277089Y104849D01*
X399350Y369749D02*
Y410154D01*
X371522Y278646D02*
Y341921D01*
X399350Y369749D01*
X-2672Y532612D02*
Y542518D01*
Y516602D02*
Y532612D01*
X18034Y495896D02*
Y532726D01*
X7284Y506646D02*
Y532476D01*
X18034Y532726D02*
Y542726D01*
X7284Y532476D02*
Y542476D01*
X669500Y-13750D02*
X676978D01*
X598932Y-23026D02*
Y-22772D01*
X646434Y-24500D02*
X654500D01*
X29210Y414940D02*
X66618D01*
X91694Y440016D01*
X7284Y506646D02*
X18034Y495896D01*
X-2672Y516602D02*
X7284Y506646D01*
X77216Y20264D02*
X77724Y19756D01*
X210893Y126730D02*
X211346Y126277D01*
X349500Y256624D02*
X371522Y278646D01*
X370586Y361784D02*
X387350Y378548D01*
X178054Y108800D02*
X178181Y108927D01*
X208915D02*
X209042Y109054D01*
X178181Y108927D02*
X208915D01*
X209042Y109054D02*
X209247Y108849D01*
X387350Y378548D02*
Y421358D01*
X422518Y456526D01*
X337201Y680808D02*
X365252D01*
X366776Y679284D01*
X645668Y697318D02*
X653034Y689952D01*
X92596Y677506D02*
X93726D01*
X92446D02*
X92596D01*
X80713Y633019D02*
X81692Y632040D01*
X82042Y639540D02*
Y666479D01*
X79756Y632040D02*
X81302D01*
X81788Y688314D02*
X92596Y677506D01*
X81731Y666790D02*
X92446Y677506D01*
X81731Y666790D02*
X82042Y666479D01*
X80713Y633019D02*
Y638211D01*
X81302Y632040D02*
X81731Y631611D01*
X80713Y638211D02*
X82042Y639540D01*
X81731Y626632D02*
Y631611D01*
X79951Y624851D02*
X81731Y626632D01*
X79951Y616268D02*
Y621177D01*
Y623091D02*
Y624851D01*
X78994Y622134D02*
X79951Y621177D01*
X78994Y622134D02*
X79951Y623091D01*
Y616268D02*
X81731Y614488D01*
Y598040D02*
Y614488D01*
X330879Y131406D02*
X332403Y132930D01*
X333756D01*
X490982Y473036D02*
X501650D01*
X465582Y447636D02*
X490982Y473036D01*
X424942Y447636D02*
X465582D01*
X498546Y487204D02*
X502610D01*
X503174Y487768D01*
X463550Y452208D02*
X498546Y487204D01*
X423857Y452208D02*
X463550D01*
X308610Y269836D02*
X330454Y291680D01*
X81788Y688314D02*
Y689053D01*
X342395Y378551D02*
X345694Y381850D01*
X614426Y610958D02*
X614680Y610704D01*
X590905Y610958D02*
X614426D01*
X589026Y605501D02*
Y609079D01*
X590905Y610958D01*
X302006Y687636D02*
X303125Y688755D01*
X280924Y348354D02*
X281432Y347846D01*
X401579Y127850D02*
X402215Y127214D01*
X470462Y342480D02*
X478422Y334520D01*
X445024Y338646D02*
X459681D01*
X440579Y304126D02*
Y325000D01*
X440182Y333804D02*
X445024Y338646D01*
X440182Y325000D02*
Y333804D01*
X413258Y398249D02*
X413369Y398360D01*
X427228D01*
X348547Y471453D02*
X350579D01*
X351536Y470496D01*
X358747Y465007D02*
X364744Y471004D01*
X358747Y456824D02*
Y465007D01*
X368808Y475068D02*
X373126Y470750D01*
X368808Y475068D02*
Y483672D01*
X435102Y471512D02*
Y482799D01*
X436118Y483815D01*
X358747Y456824D02*
X358791Y456780D01*
X362490Y382612D02*
Y383915D01*
X365248Y386673D01*
X374393D01*
X374396Y386676D01*
X391350Y419701D02*
X423857Y452208D01*
X395350Y418044D02*
X424942Y447636D01*
X377750Y297707D02*
X378022Y297978D01*
X430228Y441032D02*
X456438D01*
X399350Y410154D02*
X430228Y441032D01*
X238506Y134463D02*
X240021Y135978D01*
X773676Y-15152D02*
X790702D01*
X772155Y-13631D02*
X773676Y-15152D01*
X104731Y689527D02*
X104902Y689698D01*
X142862Y578840D02*
X144272Y577430D01*
X366268Y433015D02*
Y444588D01*
X365903Y432650D02*
X366268Y433015D01*
X460248Y425538D02*
X476107D01*
X476361Y425284D01*
X343408Y500976D02*
X344424Y499960D01*
X570484Y492086D02*
X571500Y493102D01*
D14*
X611886Y640422D02*
X616204Y636104D01*
X695047D01*
X699457Y640514D01*
X709609D01*
X696599Y648494D02*
X697401D01*
X692185Y644080D02*
X696599Y648494D01*
X621624Y644080D02*
X692185D01*
X612980Y651843D02*
X613860D01*
X621624Y644080D01*
X612866Y660332D02*
X622858D01*
X634571Y648620D01*
X582364Y666761D02*
X636425D01*
X572789Y657186D02*
X582364Y666761D01*
X636425D02*
X646203Y656983D01*
X582576Y675351D02*
X637409D01*
X560922Y664409D02*
X571633D01*
X582576Y675351D01*
X637409D02*
X645922Y666838D01*
X646203Y656983D02*
X647226D01*
X634571Y648620D02*
X684850D01*
X571754Y657186D02*
X572789D01*
X560155Y663642D02*
X560922Y664409D01*
X684850Y648620D02*
X692903Y656672D01*
D18*
X447556Y30358D02*
D03*
X435056D02*
D03*
X422556D02*
D03*
X410056D02*
D03*
X397556D02*
D03*
X385056D02*
D03*
X613288Y4704D02*
D03*
X600788D02*
D03*
X588288D02*
D03*
X575788D02*
D03*
D19*
X473056Y1358D02*
D03*
X359556D02*
D03*
X638787Y-24296D02*
D03*
X550288D02*
D03*
D20*
X77724Y19666D02*
D03*
Y3644D02*
D03*
X103632Y19275D02*
D03*
Y3253D02*
D03*
X437642Y256403D02*
D03*
Y272425D02*
D03*
X257860Y185300D02*
D03*
Y169278D02*
D03*
X124206Y689053D02*
D03*
Y705075D02*
D03*
X81788Y689053D02*
D03*
Y705075D02*
D03*
X538734Y627956D02*
D03*
Y643978D02*
D03*
X508920Y297131D02*
D03*
Y313153D02*
D03*
D21*
X669755Y226649D02*
D03*
X653734D02*
D03*
X62601Y395058D02*
D03*
X78623D02*
D03*
X605260Y303731D02*
D03*
X589239D02*
D03*
X235829Y658200D02*
D03*
X251851D02*
D03*
X472186Y733386D02*
D03*
X456164D02*
D03*
X463703Y232752D02*
D03*
X479725D02*
D03*
D23*
X426300Y611172D02*
D03*
Y617672D02*
D03*
Y624172D02*
D03*
Y630672D02*
D03*
Y637172D02*
D03*
Y643672D02*
D03*
Y650172D02*
D03*
Y656672D02*
D03*
Y663172D02*
D03*
Y669672D02*
D03*
X500800Y611172D02*
D03*
Y617672D02*
D03*
Y624172D02*
D03*
Y630672D02*
D03*
Y637172D02*
D03*
Y643672D02*
D03*
Y650172D02*
D03*
Y656672D02*
D03*
Y663172D02*
D03*
Y669672D02*
D03*
D26*
X29210Y402440D02*
D03*
Y414940D02*
D03*
Y427440D02*
D03*
D27*
X210Y376940D02*
D03*
Y452940D02*
D03*
D33*
X274126Y688755D02*
D03*
X303125D02*
D03*
X165840Y574890D02*
D03*
X194840D02*
D03*
X212744Y707391D02*
D03*
X183744D02*
D03*
D36*
X695309Y52641D02*
D03*
X711343D02*
D03*
X349869Y432650D02*
D03*
X365903D02*
D03*
X344170Y382612D02*
D03*
X360204D02*
D03*
X555609Y405218D02*
D03*
X571643D02*
D03*
X554450Y492086D02*
D03*
X570484D02*
D03*
X342757Y456780D02*
D03*
X358791D02*
D03*
X465185Y292188D02*
D03*
X481219D02*
D03*
X420481Y302094D02*
D03*
X436515D02*
D03*
X492395Y425284D02*
D03*
X476361D02*
D03*
X344170Y406742D02*
D03*
X360204D02*
D03*
X253492Y683094D02*
D03*
X237458D02*
D03*
D39*
X215646Y360514D02*
D03*
Y347814D02*
D03*
X142862Y566140D02*
D03*
Y578840D02*
D03*
X104902Y705737D02*
D03*
Y693037D02*
D03*
X245618Y715606D02*
D03*
Y728306D02*
D03*
X290322Y718908D02*
D03*
Y731608D02*
D03*
X332740Y727290D02*
D03*
Y739990D02*
D03*
X791718Y194144D02*
D03*
Y206844D02*
D03*
X791972Y165442D02*
D03*
Y178142D02*
D03*
X608076Y257644D02*
D03*
Y244944D02*
D03*
X511275Y733214D02*
D03*
Y745914D02*
D03*
X526170Y704142D02*
D03*
Y716842D02*
D03*
X493859Y723988D02*
D03*
Y711288D02*
D03*
X179324Y385660D02*
D03*
Y398360D02*
D03*
X566896Y255918D02*
D03*
Y243218D02*
D03*
D40*
X609854Y223608D02*
D03*
X622554D02*
D03*
X285482Y67850D02*
D03*
X272782D02*
D03*
X542544Y306055D02*
D03*
X529844D02*
D03*
X533654Y324240D02*
D03*
X546354D02*
D03*
X511558Y243384D02*
D03*
X498857D02*
D03*
X358003Y93543D02*
D03*
X345303D02*
D03*
X174244Y742022D02*
D03*
X186944D02*
D03*
D43*
X351536Y733504D02*
D03*
Y716504D02*
D03*
D44*
X298770Y141820D02*
D03*
X315770D02*
D03*
X225670Y729830D02*
D03*
X208670D02*
D03*
D45*
X701903Y231514D02*
D03*
Y255513D02*
D03*
D66*
X190500Y631278D02*
D03*
X810000Y50000D02*
D03*
D67*
X406863Y98404D02*
Y105024D01*
X412921Y111082D01*
X380278Y129230D02*
X382928Y126580D01*
X422094Y206381D02*
X432539D01*
X420361Y208114D02*
X422094Y206381D01*
X432539D02*
X434263Y204657D01*
X405602Y97143D02*
X406863Y98404D01*
X415529Y285677D02*
X419437Y289585D01*
Y302033D01*
X419498Y302094D01*
X420481D01*
X520967Y375487D02*
Y375596D01*
Y375487D02*
X523748Y372706D01*
X507810Y388753D02*
X520967Y375596D01*
X502668Y388753D02*
X507810D01*
X723993Y409028D02*
X726643Y411678D01*
X722630Y409028D02*
X723993D01*
X726643Y411678D02*
Y432956D01*
X726388D02*
X726643D01*
X200397Y755092D02*
X203510D01*
X187327Y742022D02*
X200397Y755092D01*
X186944Y742022D02*
X187327D01*
X203510Y755092D02*
X218418Y770000D01*
X219500D01*
X280243Y680139D02*
X285242Y675139D01*
X274126Y686255D02*
X280243Y680139D01*
X279729Y661833D02*
X285242Y667346D01*
X280243Y662967D02*
Y680139D01*
X279419Y662144D02*
X280243Y662967D01*
X568460Y447524D02*
Y447560D01*
X578041Y442578D02*
X593227Y427392D01*
X573406Y442578D02*
X578041D01*
X568460Y447524D02*
X573406Y442578D01*
X572626Y405218D02*
X583280Y415872D01*
X594642D02*
X605301Y426531D01*
X571643Y405218D02*
X572626D01*
X583280Y415872D02*
X594642D01*
X605301Y426531D02*
Y426633D01*
X670845Y677283D02*
X671195Y677633D01*
X665725Y677283D02*
X670845D01*
X220274Y382858D02*
X228601D01*
X230170Y381289D01*
Y376778D02*
Y381289D01*
X227420Y368552D02*
X231154Y372285D01*
X224377Y376778D02*
X230170D01*
X215646Y376008D02*
X223607D01*
X224377Y376778D01*
X223607Y376008D02*
Y376243D01*
X215646Y360514D02*
Y376008D01*
Y360514D02*
X225552Y370420D01*
X231154Y372285D02*
Y375794D01*
X230170Y376778D02*
X231154Y375794D01*
X188534Y347814D02*
X215646D01*
X188534Y347560D02*
Y347814D01*
Y347560D02*
Y350265D01*
Y346798D02*
Y347560D01*
X796403Y236063D02*
X796506Y235960D01*
X386842Y698080D02*
X387350Y698588D01*
X386842Y673442D02*
Y698080D01*
X171900Y707221D02*
X183575D01*
X183744Y707391D01*
X-31992Y652534D02*
Y663860D01*
X64588Y642443D02*
X65747Y641284D01*
Y635675D02*
Y641284D01*
X40988Y638268D02*
X47191Y632065D01*
X63944D01*
X60601Y639018D02*
X63944Y635675D01*
Y632065D02*
Y635675D01*
X26681Y608273D02*
Y637018D01*
X19810D02*
X26681D01*
X27931Y638268D01*
X40988D01*
X19810Y624018D02*
Y637018D01*
X-32090Y663958D02*
X-31992Y663860D01*
X-32090Y640336D02*
X-31992Y640434D01*
Y663860D01*
X-32090Y625350D02*
Y640336D01*
Y663958D02*
Y676068D01*
Y695068D01*
Y614092D02*
Y625350D01*
Y597968D02*
Y614092D01*
X166952Y-29826D02*
X179653D01*
X166842Y-29716D02*
X166952Y-29826D01*
X265192Y-17385D02*
X272812Y-9764D01*
X265192Y-28466D02*
Y-17385D01*
X263942Y-29716D02*
X265192Y-28466D01*
X272812Y-9764D02*
X278466D01*
X286985Y184532D02*
X296816D01*
X281930Y179477D02*
X286985Y184532D01*
X296816D02*
Y186337D01*
X459080Y305802D02*
X465328Y299554D01*
X459080Y305802D02*
Y322663D01*
X465328Y299554D02*
X465328D01*
X490260Y98116D02*
X496118Y103974D01*
X490260Y86222D02*
Y98116D01*
X496118Y103974D02*
X500380D01*
X499880Y179120D02*
X503750Y175250D01*
X499880Y179120D02*
Y196712D01*
X607081Y207187D02*
X607230Y207038D01*
X607081Y207187D02*
Y220835D01*
X584454Y180428D02*
X584980Y180954D01*
Y196712D01*
X584980Y196712D01*
X607230D02*
Y207038D01*
X607081Y220835D02*
X609854Y223608D01*
X257860Y207148D02*
X276100Y225388D01*
X319532Y202526D02*
Y219530D01*
X313674Y225388D02*
X319532Y219530D01*
X276100Y225388D02*
X313674D01*
X256321Y137068D02*
X260192Y133197D01*
X380278Y129230D02*
Y139264D01*
X382928Y126580D02*
X383027D01*
X367792Y145122D02*
X374420D01*
X380278Y139264D01*
X382606Y161427D02*
Y215339D01*
X405385Y154514D02*
X405633Y154266D01*
X382606Y161427D02*
X389518Y154514D01*
X405385D01*
X424944Y180017D02*
X434045Y189117D01*
X424944Y154667D02*
Y180017D01*
X420571Y189117D02*
X434045D01*
X404156Y575951D02*
X408826Y571281D01*
X395184Y575951D02*
X404156D01*
X392684Y578451D02*
X395184Y575951D01*
X390906Y514184D02*
X391111Y514389D01*
Y558077D01*
X390906Y514184D02*
X391099Y513991D01*
X523423Y353580D02*
X523748Y353905D01*
X503428Y357212D02*
X507060Y353580D01*
X523423D01*
X579334Y352854D02*
X582930Y356450D01*
X569936Y352854D02*
X579334D01*
X567436Y350354D02*
X569936Y352854D01*
X71564Y222190D02*
X71722Y222033D01*
X71564Y222190D02*
Y235800D01*
X179324Y372718D02*
X188534Y363508D01*
X179324Y372718D02*
Y383628D01*
X188534Y346798D02*
Y363508D01*
X167386Y320890D02*
X177038D01*
X166116Y319620D02*
X167386Y320890D01*
X155702Y328002D02*
X166370D01*
X155194Y327494D02*
X155702Y328002D01*
X177038Y320890D02*
Y328002D01*
X155448Y319620D02*
X166116D01*
X155194Y319366D02*
X155448Y319620D01*
X166370Y328002D02*
X177038D01*
X81184Y342177D02*
Y350265D01*
Y342177D02*
X81205Y342156D01*
Y308055D02*
Y342156D01*
X44450Y271300D02*
X81205Y308055D01*
X176979Y320831D02*
X177038Y320890D01*
X166258Y328114D02*
Y346798D01*
Y328114D02*
X166370Y328002D01*
X673100Y189576D02*
Y196176D01*
X677668D02*
Y203738D01*
Y189576D02*
X680466Y186778D01*
X677668Y190816D02*
Y203738D01*
Y189576D02*
Y190816D01*
X673100Y186622D02*
Y196176D01*
Y186622D02*
X677844Y181877D01*
X677493Y203914D02*
X677668Y203738D01*
X677493Y200569D02*
Y203914D01*
X673100Y196176D02*
X677493Y200569D01*
X677844Y179915D02*
Y181877D01*
X772689Y194144D02*
X791718D01*
X772689Y191975D02*
Y194144D01*
X749994Y180614D02*
Y186808D01*
X750432D01*
X750439Y186814D01*
Y191975D01*
X747776Y178396D02*
X749994Y180614D01*
X272288Y718908D02*
X281305Y709891D01*
X290322Y718908D01*
X275504Y704090D02*
X281305Y709891D01*
X269494Y718908D02*
X272288D01*
X269494D02*
X271762Y721176D01*
X278215D02*
X280484Y718908D01*
X290322D01*
X271762Y721176D02*
X278215D01*
X608076Y263740D02*
X629666D01*
X630174Y257644D02*
X630936Y258406D01*
X608076Y257644D02*
X630174D01*
X608076Y263740D02*
Y269836D01*
Y257644D02*
Y263740D01*
X608330Y270090D02*
X629158D01*
X629412Y269836D01*
X608076D02*
X608330Y270090D01*
X608076Y225386D02*
X609854Y223608D01*
X608076Y225386D02*
Y244944D01*
X632070Y223708D02*
Y240135D01*
X631898Y240307D02*
X632070Y240135D01*
X622554Y239492D02*
X623369Y240307D01*
X631898D01*
X622554Y223608D02*
Y239492D01*
X631898Y223536D02*
X632070Y223708D01*
X796506Y235960D02*
X800566D01*
X792136Y136985D02*
X792433Y137282D01*
X792136Y154663D02*
X792433Y154366D01*
X792136Y154663D02*
Y165278D01*
X274126Y688755D02*
Y691377D01*
Y686255D02*
Y688755D01*
X302006Y687636D02*
X303727Y685916D01*
Y673759D02*
Y685916D01*
X275504Y692756D02*
Y704090D01*
X274126Y691377D02*
X275504Y692756D01*
X129523Y818038D02*
X263677D01*
X117949Y795449D02*
Y806463D01*
X117900Y795400D02*
X117949Y795449D01*
Y806463D02*
X129523Y818038D01*
X269535Y796165D02*
Y812180D01*
X263677Y818038D02*
X269535Y812180D01*
X105664Y740752D02*
X109220Y744308D01*
X104902Y739990D02*
X105664Y740752D01*
X90424Y739990D02*
X104902D01*
X109220Y744308D02*
X117348D01*
Y769448D02*
X117900Y770000D01*
X117348Y744308D02*
Y769448D01*
X117900Y770000D02*
Y795400D01*
X269535Y796165D02*
X270300Y795400D01*
X701903Y255513D02*
X703247D01*
X703403Y255358D01*
X728975D01*
X391099Y500021D02*
Y513991D01*
Y500021D02*
X391160Y499960D01*
X441990Y506704D02*
Y513559D01*
X436118Y500832D02*
X441990Y506704D01*
X342900Y500468D02*
X343408Y500976D01*
X334772Y500468D02*
X342900D01*
X333756Y499452D02*
X334772Y500468D01*
X449112Y508920D02*
X449620D01*
X448969Y509063D02*
X449112Y508920D01*
X448746Y509063D02*
X448969D01*
X444251Y513559D02*
X448746Y509063D01*
X441990Y513559D02*
X444251D01*
X348825Y432589D02*
X348886Y432650D01*
X338775Y432589D02*
X348825D01*
X335534Y429348D02*
X338775Y432589D01*
X344109Y382551D02*
X344170Y382612D01*
X339537Y382551D02*
X344109D01*
X334010Y377024D02*
X339537Y382551D01*
X432479Y381171D02*
X435102Y378548D01*
X413319Y381171D02*
X432479D01*
X263652Y366609D02*
Y371690D01*
Y366609D02*
X281371Y348890D01*
Y348354D02*
Y348890D01*
X258750Y412600D02*
Y431750D01*
Y412600D02*
X264608Y406742D01*
X344170D01*
X351704Y300062D02*
X352725Y301083D01*
X362397D01*
X362458Y301143D02*
Y302126D01*
X362397Y301083D02*
X362458Y301143D01*
X492395Y406853D02*
Y425284D01*
Y406853D02*
X492506Y406742D01*
X369062Y500468D02*
Y513168D01*
X465328Y292249D02*
Y299554D01*
X465267Y292188D02*
X465328Y292249D01*
X465185Y292188D02*
X465267D01*
X299035Y470404D02*
X338133D01*
Y460421D02*
Y470404D01*
Y460421D02*
X341774Y456780D01*
X342757D01*
X413827Y509927D02*
X418084Y514184D01*
X413827Y500021D02*
Y509927D01*
X413766Y499960D02*
X413827Y500021D01*
X443674Y537293D02*
Y547705D01*
X450031Y554062D01*
X462592D01*
X441283Y534902D02*
X443674Y537293D01*
X196340Y594829D02*
X203861Y602350D01*
X449620Y508920D02*
X457962Y500578D01*
Y499595D02*
Y500578D01*
Y499595D02*
Y499661D01*
X457901Y499722D02*
X457962Y499661D01*
X436179Y499722D02*
X457901D01*
X436179D02*
Y500771D01*
X436118Y500832D02*
X436179Y500771D01*
X436118Y499783D02*
Y499849D01*
X450316Y513559D02*
X456174Y519417D01*
Y532512D01*
X458564Y534902D01*
X425827Y500468D02*
X436057D01*
X436118Y500407D01*
X178054Y544156D02*
X179324Y542886D01*
X538734Y627217D02*
Y627956D01*
Y627217D02*
X539025Y626926D01*
X552328D01*
X553067Y626187D01*
X314912Y92290D02*
X329946D01*
X423164Y96862D02*
X424682Y95344D01*
X436143D01*
X34810Y609018D02*
Y630262D01*
X285242Y667346D02*
Y675139D01*
X19810Y609018D02*
Y624018D01*
X380984Y659602D02*
X386842Y665460D01*
Y673442D01*
X340106Y659602D02*
X380984D01*
X196340Y578890D02*
Y594829D01*
X43688Y540124D02*
X51134Y532678D01*
X43688Y540124D02*
Y544410D01*
X5850Y402432D02*
X29202D01*
X125222Y566254D02*
X125336Y566140D01*
X142862D01*
X166258Y346798D02*
X166258Y346798D01*
X103632Y2514D02*
X114808Y-8662D01*
Y-17946D02*
Y-8662D01*
X103632Y2514D02*
Y3253D01*
X349758Y268820D02*
Y272409D01*
X362397Y285049D01*
Y286031D01*
X362458Y286092D01*
X77794Y3714D02*
X103341D01*
X238501Y683155D02*
Y696297D01*
X238441Y683094D02*
X238501Y683155D01*
X236475Y683094D02*
X238441D01*
X195856Y573874D02*
Y578406D01*
X196340Y578890D01*
X209170Y729830D02*
X209670Y730330D01*
X208670Y729830D02*
X209170D01*
X746506Y466940D02*
X753346D01*
X747862Y423928D02*
Y430000D01*
X755800Y437938D01*
X753346Y466940D02*
X753346Y466940D01*
X755800Y437938D02*
Y466940D01*
X545292Y429693D02*
X567341D01*
X567436Y429597D01*
X421459Y121754D02*
X450342D01*
X415999Y127214D02*
X421459Y121754D01*
X402215Y127214D02*
X415999D01*
X333756Y153875D02*
Y202084D01*
X314457Y120484D02*
X329946D01*
X313896Y91274D02*
X314912Y92290D01*
X321701Y141820D02*
X333756Y153875D01*
X278887Y125310D02*
X281186Y123011D01*
X101346Y709293D02*
Y715860D01*
Y709293D02*
X104902Y705737D01*
X273799Y133197D02*
X278384Y128612D01*
X289568Y123011D02*
X292349Y120230D01*
X281186Y123011D02*
X289568D01*
X281371Y330769D02*
X281432Y330829D01*
Y331812D01*
X271498Y330769D02*
X281371D01*
X270510Y329780D02*
X271498Y330769D01*
X316839Y178551D02*
X319839Y181551D01*
X316839Y168477D02*
Y178551D01*
X314058Y165696D02*
X316839Y168477D01*
X313949Y165696D02*
X314058D01*
X82042Y705329D02*
Y705560D01*
X81497Y706105D02*
X82042Y705560D01*
X65532Y708494D02*
X67921Y706105D01*
X81497D01*
X424750Y139026D02*
X450333D01*
X450342Y139035D01*
X260192Y133197D02*
X273799D01*
X791718Y178396D02*
Y194144D01*
X279459Y91274D02*
X292349D01*
X728218Y256115D02*
X728975Y255358D01*
X728218Y256115D02*
Y275932D01*
X571500Y493102D02*
Y504786D01*
X746257Y253820D02*
Y255358D01*
Y253820D02*
X747522Y252555D01*
Y243420D02*
Y252555D01*
X662732Y281649D02*
Y298238D01*
X662686Y298284D02*
X662732Y298238D01*
X198852Y616800D02*
X215138D01*
X188862Y606810D02*
X198852Y616800D01*
X188862Y583368D02*
Y606810D01*
X705358Y409037D02*
Y421982D01*
X705349Y409028D02*
X705358Y409037D01*
X747862Y423928D02*
X747862Y423928D01*
Y392138D02*
Y423928D01*
X188862Y583368D02*
X195856Y576374D01*
X791718Y236816D02*
X791718Y236816D01*
X238506Y119976D02*
Y134463D01*
X257860Y185300D02*
Y207148D01*
X275952Y200602D02*
X281183Y205833D01*
X299466D01*
X104731Y661540D02*
Y689527D01*
X142862Y578840D02*
Y601560D01*
D68*
X350800Y76150D02*
X360322D01*
X362426Y74047D02*
X363508D01*
X360322Y76150D02*
X362426Y74047D01*
X308254Y41973D02*
Y45150D01*
X302006Y35725D02*
X308254Y41973D01*
X302006Y35648D02*
Y35725D01*
X301752Y35394D02*
X302006Y35648D01*
D69*
X437699Y256346D02*
X456192D01*
X437642Y256403D02*
X437699Y256346D01*
X456192D02*
X456249Y256290D01*
X430229Y255586D02*
Y256403D01*
X437642D01*
X343219Y96043D02*
Y104006D01*
X343028Y104197D02*
X343219Y104006D01*
X343999Y95264D02*
X345615D01*
X343219Y96043D02*
X343999Y95264D01*
X332740Y724790D02*
X335240D01*
X331762D02*
X332740D01*
Y727290D01*
Y715814D02*
Y724790D01*
X331762Y726312D02*
X332740Y727290D01*
X330240Y724790D02*
X331762Y726312D01*
Y724790D02*
Y726312D01*
Y716792D02*
Y724790D01*
X332740Y715814D02*
X332740Y715814D01*
X726260Y433084D02*
X726388Y432956D01*
X726260Y433084D02*
Y441610D01*
X712848Y455022D02*
Y456272D01*
Y455022D02*
X726260Y441610D01*
X332740Y727290D02*
X335240Y724790D01*
X348536Y720004D02*
X351536Y717004D01*
X346635Y720004D02*
X348536D01*
X351536Y716504D02*
Y717004D01*
X492252Y367372D02*
X510794D01*
X512826Y369404D01*
X331762Y716792D02*
X332740Y715814D01*
X300148Y158897D02*
Y162215D01*
Y158897D02*
X312270Y146775D01*
Y144820D02*
Y146775D01*
X296667Y165696D02*
X300148Y162215D01*
X315270Y141820D02*
X315770D01*
X312270Y144820D02*
X315270Y141820D01*
X335240Y723829D02*
X342146Y716923D01*
X536154Y326740D02*
Y331755D01*
X539083Y334684D01*
X562786D01*
X567436Y330034D01*
X533654Y324240D02*
X536154Y326740D01*
X519269Y324240D02*
X533654D01*
X567182Y308444D02*
Y329780D01*
X567436Y330034D01*
X567182Y258236D02*
Y308444D01*
X335240Y723829D02*
Y724790D01*
X253351Y666856D02*
X253733Y667239D01*
X253351Y659699D02*
Y666856D01*
X350598Y745002D02*
X350790Y744810D01*
Y734250D02*
X351536Y733504D01*
X350790Y734250D02*
Y744810D01*
X211718Y68278D02*
X211910Y68086D01*
X222070D02*
X223012Y67144D01*
X211910Y68086D02*
X222070D01*
X427515Y66651D02*
Y66973D01*
X423567Y70922D02*
X427515Y66973D01*
X555609Y394069D02*
Y405218D01*
Y394069D02*
X558538Y391141D01*
X588665D01*
X601472Y403948D01*
X578737Y516849D02*
X579120Y517232D01*
X570128Y516849D02*
X578737D01*
X557926Y504647D02*
X570128Y516849D01*
X557926Y494647D02*
Y504647D01*
X555365Y492086D02*
X557926Y494647D01*
X554450Y492086D02*
X555365D01*
X508920Y313153D02*
Y313892D01*
X519269Y324240D01*
X479725Y232752D02*
Y244609D01*
X566896Y257950D02*
X567182Y258236D01*
X566896Y257950D02*
Y268090D01*
X549504Y256284D02*
Y257550D01*
X549904Y257950D02*
X566896D01*
X549504Y257550D02*
X549904Y257950D01*
X391922Y646153D02*
Y647136D01*
X401554Y656768D01*
Y665120D01*
X406106Y669672D01*
X426289Y669922D02*
Y677491D01*
X425958Y669922D02*
X426289D01*
X264414Y68668D02*
X273997D01*
X274814Y67850D01*
X5842Y402424D02*
X5850Y402432D01*
X29202D02*
X29210Y402440D01*
X209670Y730330D02*
Y743412D01*
D70*
X414274Y14587D02*
X417870D01*
X381762Y1358D02*
X382016Y1104D01*
X359556Y1358D02*
X381762D01*
X422556Y19273D02*
Y30358D01*
X417870Y14587D02*
X422556Y19273D01*
X703834Y-21248D02*
Y-19745D01*
X708901D01*
X702756Y-25890D02*
X706367Y-22279D01*
X689118Y-25890D02*
X702756D01*
X654500Y-11668D02*
X674896D01*
X686997Y-23768D01*
X738171Y-8D02*
X746682Y8503D01*
X674569Y33160D02*
Y81484D01*
X707737Y-8D02*
X738171D01*
X674569Y33160D02*
X707737Y-8D01*
X746682Y8503D02*
Y36442D01*
X671195Y677633D02*
X675101D01*
X675367Y677368D01*
X101600Y282254D02*
Y338924D01*
X575788Y6069D02*
Y26249D01*
X576063Y26525D01*
X509110Y67258D02*
Y86222D01*
X513796Y62572D02*
X560578D01*
X509110Y67258D02*
X513796Y62572D01*
X250635Y153341D02*
X255321Y148655D01*
X228460Y153341D02*
X250635D01*
X223774Y133692D02*
Y148655D01*
X255321Y138068D02*
Y148655D01*
X223774D02*
X228460Y153341D01*
X255321Y138068D02*
X256321Y137068D01*
X90439Y239004D02*
Y271093D01*
X101600Y282254D01*
X665339Y197134D02*
X672118Y203914D01*
X665339Y191975D02*
Y197134D01*
X672118Y203914D02*
X677493D01*
X560578Y62572D02*
X573786Y75780D01*
X237984Y33601D02*
X238791D01*
X227984D02*
X237984D01*
X238791D02*
X239087Y33897D01*
X247687D02*
X247984Y33601D01*
X239087Y33897D02*
X247687D01*
X313896Y91274D02*
X313969D01*
X317750Y72301D02*
Y87493D01*
X313969Y91274D02*
X317750Y87493D01*
X386546Y66678D02*
X386588Y66636D01*
X386546Y66678D02*
X386546D01*
X375928D02*
X386546D01*
X375900Y66651D02*
X375928Y66678D01*
X689118Y-25890D02*
Y-21646D01*
X654500Y-13500D02*
Y-11668D01*
X587508Y4998D02*
Y4998D01*
X165608Y574658D02*
X165840Y574890D01*
X124206Y704336D02*
X125497Y703045D01*
X124206Y704336D02*
Y705075D01*
X130021Y703045D02*
X137018Y696048D01*
X125497Y703045D02*
X130021D01*
X137018Y696048D02*
X139700D01*
X165354Y620102D02*
Y639202D01*
X165862Y639710D01*
Y665060D01*
Y601560D02*
Y619594D01*
X165354Y620102D02*
X165862Y619594D01*
X165851Y601549D02*
X165862Y601560D01*
X124206Y679030D02*
X145892D01*
X159862Y665060D02*
X165862D01*
X145892Y679030D02*
X159862Y665060D01*
X165851Y574901D02*
Y601549D01*
X165840Y574890D02*
X165851Y574901D01*
D71*
X747745Y231514D02*
X748030Y231228D01*
X701903Y231514D02*
X747745D01*
X688848Y434936D02*
X696468Y427316D01*
X688848Y434936D02*
Y456272D01*
D72*
X791718Y212940D02*
Y236816D01*
X792471Y236063D01*
X796403D02*
X810006D01*
X792471D02*
X796403D01*
X282956Y604354D02*
X292862Y614260D01*
X109220Y550014D02*
Y608926D01*
X115078Y544156D02*
X178054D01*
X109220Y550014D02*
X115078Y544156D01*
X270300Y752988D02*
Y770000D01*
X248465Y731153D02*
X270300Y752988D01*
X792433Y137282D02*
Y154366D01*
X290322Y735199D02*
Y762485D01*
X295700Y767863D01*
Y770000D01*
X321100Y769148D02*
Y770000D01*
Y769148D02*
X332740Y757508D01*
Y743398D02*
Y757508D01*
X178054Y544156D02*
X222758D01*
X109220Y608926D02*
X112717Y612423D01*
X222758Y544156D02*
X282956Y604354D01*
X76774Y561945D02*
Y583497D01*
D73*
X439274Y53011D02*
X443789Y48496D01*
X439274Y53011D02*
Y54695D01*
X436931Y57038D02*
X439274Y54695D01*
X436931Y57038D02*
Y58928D01*
X432054D02*
X436931D01*
X443459Y52400D01*
X450962Y44897D02*
X461616D01*
X443459Y52400D02*
X450962Y44897D01*
X486924Y656672D02*
X500800D01*
X262306Y164248D02*
X282448Y144106D01*
Y144106D02*
Y144106D01*
X262151Y164248D02*
X262306D01*
X257860Y168539D02*
X262151Y164248D01*
X257860Y168539D02*
Y169278D01*
X225670Y729830D02*
Y743918D01*
X267462Y53936D02*
X286201D01*
X250262Y64162D02*
X257236D01*
X267462Y53936D01*
X246265Y68159D02*
X250262Y64162D01*
X288544Y56279D02*
Y66821D01*
X287514Y67850D02*
X288544Y66821D01*
X287514Y67850D02*
X288714Y69050D01*
X307304D01*
X286201Y53936D02*
X288544Y56279D01*
X307304Y69050D02*
X308254Y70001D01*
Y70251D01*
X372800Y76150D02*
X375900D01*
X388387D01*
X371850Y77101D02*
X372800Y76150D01*
X371850Y77101D02*
Y81728D01*
X388387Y76150D02*
X395075Y69463D01*
X360035Y93543D02*
X371850Y81728D01*
X395075Y69463D02*
X407421D01*
X410234Y66651D01*
D74*
X576580Y577176D02*
Y627239D01*
X577968Y628626D01*
Y629303D01*
X563372Y589622D02*
X563499Y589749D01*
D75*
X267059Y667749D02*
X267208Y667600D01*
X254475Y683094D02*
X267059Y670510D01*
Y667749D02*
Y670510D01*
X253492Y683094D02*
X254475D01*
D85*
X671195Y677633D02*
D03*
D92*
X0Y820000D02*
D03*
Y0D02*
D03*
X820000Y820000D02*
D03*
Y0D02*
D03*
D93*
X727500Y795400D02*
D03*
Y770000D02*
D03*
X702100Y795400D02*
D03*
Y770000D02*
D03*
X676700Y795400D02*
D03*
Y770000D02*
D03*
X651300Y795400D02*
D03*
Y770000D02*
D03*
X625900Y795400D02*
D03*
Y770000D02*
D03*
X600500Y795400D02*
D03*
Y770000D02*
D03*
X575100Y795400D02*
D03*
Y770000D02*
D03*
X549700Y795400D02*
D03*
Y770000D02*
D03*
X524300Y795400D02*
D03*
Y770000D02*
D03*
X498900Y795400D02*
D03*
Y770000D02*
D03*
X473500Y795400D02*
D03*
Y770000D02*
D03*
X448100Y795400D02*
D03*
Y770000D02*
D03*
X422700Y795400D02*
D03*
Y770000D02*
D03*
X397300Y795400D02*
D03*
Y770000D02*
D03*
X371900Y795400D02*
D03*
Y770000D02*
D03*
X346500Y795400D02*
D03*
Y770000D02*
D03*
X321100Y795400D02*
D03*
Y770000D02*
D03*
X295700Y795400D02*
D03*
Y770000D02*
D03*
X270300Y795400D02*
D03*
Y770000D02*
D03*
X244900Y795400D02*
D03*
Y770000D02*
D03*
X219500Y795400D02*
D03*
Y770000D02*
D03*
X194100Y795400D02*
D03*
Y770000D02*
D03*
X168700Y795400D02*
D03*
Y770000D02*
D03*
X143300Y795400D02*
D03*
Y770000D02*
D03*
X117900Y795400D02*
D03*
Y770000D02*
D03*
X92500Y795400D02*
D03*
D94*
Y770000D02*
D03*
D95*
X40894Y215226D02*
D03*
D96*
Y189826D02*
D03*
Y139026D02*
D03*
Y113626D02*
D03*
Y88226D02*
D03*
Y62826D02*
D03*
Y164426D02*
D03*
D97*
X443459Y52400D02*
D03*
X317759Y35606D02*
D03*
X343028Y104197D02*
D03*
X456008Y271537D02*
D03*
X430229Y255586D02*
D03*
X452422Y286182D02*
D03*
X415529Y285677D02*
D03*
X360172Y30988D02*
D03*
X663187Y52972D02*
D03*
X480431Y684344D02*
D03*
X771479Y15996D02*
D03*
X639189Y81636D02*
D03*
X638022Y89015D02*
D03*
X635794Y47378D02*
D03*
X688457Y57610D02*
D03*
X701200Y32003D02*
D03*
X664976Y151346D02*
D03*
X730160Y136429D02*
D03*
X698500Y163156D02*
D03*
X655246Y130151D02*
D03*
X738632Y60286D02*
D03*
X688186Y628066D02*
D03*
X702190Y633619D02*
D03*
X562312Y608313D02*
D03*
X612095Y640679D02*
D03*
X697401Y648494D02*
D03*
X709609Y640514D02*
D03*
X612980Y651843D02*
D03*
X612866Y660332D02*
D03*
X692903Y656672D02*
D03*
X220274Y382858D02*
D03*
X230002Y381456D02*
D03*
X231154Y372285D02*
D03*
X221488Y368642D02*
D03*
X223607Y376243D02*
D03*
X658518Y25943D02*
D03*
X652422Y16037D02*
D03*
X648612Y30515D02*
D03*
X642770Y22133D02*
D03*
X633078Y26283D02*
D03*
X636381Y34411D02*
D03*
X-31992Y652534D02*
D03*
X-32090Y663958D02*
D03*
Y676068D02*
D03*
Y640336D02*
D03*
Y625350D02*
D03*
Y614092D02*
D03*
X461214Y362062D02*
D03*
X244284Y447131D02*
D03*
X155194Y319366D02*
D03*
X166116Y319620D02*
D03*
X177038Y320890D02*
D03*
Y328002D02*
D03*
X155194Y327494D02*
D03*
X350598Y745002D02*
D03*
X225670Y743918D02*
D03*
X194122Y729388D02*
D03*
X423567Y70922D02*
D03*
X772037Y211670D02*
D03*
X814723Y208477D02*
D03*
X806172D02*
D03*
X490291Y66729D02*
D03*
X477068Y68730D02*
D03*
X467323D02*
D03*
X453633D02*
D03*
X363508Y74047D02*
D03*
X489767Y246678D02*
D03*
X804805Y633662D02*
D03*
X804617Y655905D02*
D03*
X804369Y679141D02*
D03*
X502998Y376594D02*
D03*
X803547Y610887D02*
D03*
X725814Y577820D02*
D03*
Y587200D02*
D03*
Y595582D02*
D03*
X477850Y513181D02*
D03*
X477305Y490348D02*
D03*
X470806Y501022D02*
D03*
X479725Y244609D02*
D03*
X566896Y268090D02*
D03*
X554990Y713828D02*
D03*
X392127Y618172D02*
D03*
X408817Y623470D02*
D03*
X301752Y35394D02*
D03*
X534999Y583311D02*
D03*
X486704Y611172D02*
D03*
X515050Y623018D02*
D03*
X463363Y576648D02*
D03*
X500800Y678864D02*
D03*
X376989Y611519D02*
D03*
X358394Y509358D02*
D03*
X445576Y636487D02*
D03*
X460145Y645304D02*
D03*
X418232Y603392D02*
D03*
X426289Y677491D02*
D03*
X211718Y68278D02*
D03*
X264414Y68668D02*
D03*
X386546Y66678D02*
D03*
X414937Y14587D02*
D03*
X382016Y1104D02*
D03*
X600760Y138966D02*
D03*
X381247Y342486D02*
D03*
X210546Y336527D02*
D03*
D98*
X412921Y111082D02*
D03*
X444543Y239347D02*
D03*
X434263Y204657D02*
D03*
X726643Y432956D02*
D03*
X636449Y202508D02*
D03*
X635508Y193493D02*
D03*
X635762Y184095D02*
D03*
Y175205D02*
D03*
X593227Y427392D02*
D03*
X605301Y426633D02*
D03*
X532248Y742881D02*
D03*
X558118Y741723D02*
D03*
X746682Y36442D02*
D03*
X675367Y677368D02*
D03*
X665725Y677283D02*
D03*
X606014Y596208D02*
D03*
X597305Y591694D02*
D03*
X577968Y629303D02*
D03*
X645922Y666838D02*
D03*
X560155Y663642D02*
D03*
X647226Y656983D02*
D03*
X639431Y684485D02*
D03*
X571754Y657186D02*
D03*
X215646Y376008D02*
D03*
X101747Y329742D02*
D03*
X367633Y698486D02*
D03*
X367125Y689088D02*
D03*
X371972Y265918D02*
D03*
X371774Y255501D02*
D03*
X702939Y820463D02*
D03*
X703019Y831677D02*
D03*
X688447Y820438D02*
D03*
X672154Y820600D02*
D03*
X671993Y831300D02*
D03*
X688608Y831838D02*
D03*
X191841Y721461D02*
D03*
X182697Y725525D02*
D03*
X172537Y726287D02*
D03*
X172283Y716889D02*
D03*
X248631Y-27130D02*
D03*
X201099Y-26405D02*
D03*
X179653Y-29826D02*
D03*
X281930Y179477D02*
D03*
X2480Y744972D02*
D03*
X2814Y736413D02*
D03*
X1830Y726870D02*
D03*
X-8893Y744972D02*
D03*
X-8697Y735331D02*
D03*
X-9189Y726378D02*
D03*
X576063Y26525D02*
D03*
X408826Y571281D02*
D03*
X276657Y433816D02*
D03*
X71722Y222033D02*
D03*
X125984Y426046D02*
D03*
X44450Y271300D02*
D03*
X677844Y179915D02*
D03*
X677668Y190816D02*
D03*
X677493Y203914D02*
D03*
X253733Y667239D02*
D03*
X274000Y734622D02*
D03*
X278215Y721176D02*
D03*
X279419Y662144D02*
D03*
X618871Y259803D02*
D03*
X629031Y260565D02*
D03*
X629285Y270217D02*
D03*
X618871D02*
D03*
X608330Y270090D02*
D03*
X587698Y224325D02*
D03*
X631898Y240307D02*
D03*
X622625Y239563D02*
D03*
X632070Y231836D02*
D03*
X631898Y223536D02*
D03*
X792250Y137100D02*
D03*
X792524Y145961D02*
D03*
X792433Y154366D02*
D03*
X800566Y235960D02*
D03*
X810006Y236063D02*
D03*
X269494Y718908D02*
D03*
X237490Y707986D02*
D03*
X215646Y685126D02*
D03*
X217424Y694270D02*
D03*
X208287Y690835D02*
D03*
X303727Y673759D02*
D03*
X285242Y675139D02*
D03*
X309478Y748760D02*
D03*
X317271Y748677D02*
D03*
X193548Y643470D02*
D03*
X209670Y743412D02*
D03*
X171900Y707221D02*
D03*
X223070Y657370D02*
D03*
X117348Y744308D02*
D03*
X292726Y505415D02*
D03*
X462592Y554062D02*
D03*
X204362Y616800D02*
D03*
X215495Y607967D02*
D03*
X213868Y571842D02*
D03*
X502668Y388753D02*
D03*
X532953Y526188D02*
D03*
X489493Y516829D02*
D03*
X441990Y513559D02*
D03*
X425827Y500468D02*
D03*
X835584Y767422D02*
D03*
Y785454D02*
D03*
X820763Y785672D02*
D03*
Y767422D02*
D03*
X805942Y785672D02*
D03*
Y767422D02*
D03*
X518801Y333585D02*
D03*
X536929Y225228D02*
D03*
X569963Y673150D02*
D03*
X576392Y685451D02*
D03*
X434045Y189117D02*
D03*
X456249Y256290D02*
D03*
X382606Y215339D02*
D03*
X183931Y55699D02*
D03*
X170469Y44777D02*
D03*
X173929Y52805D02*
D03*
X227984Y33601D02*
D03*
X247984D02*
D03*
X237984D02*
D03*
X182211Y46082D02*
D03*
X545445Y606378D02*
D03*
X553067Y626187D02*
D03*
X544954Y616279D02*
D03*
X338133Y470404D02*
D03*
X406356Y601590D02*
D03*
X792480Y519264D02*
D03*
X551715Y189468D02*
D03*
X436143Y95344D02*
D03*
X285242Y667346D02*
D03*
X82042Y677506D02*
D03*
X278466Y-9764D02*
D03*
X589207Y324294D02*
D03*
X503847Y367715D02*
D03*
X275512Y454076D02*
D03*
X18034Y532726D02*
D03*
X-2672Y542518D02*
D03*
X7284Y542476D02*
D03*
X-2672Y532612D02*
D03*
X7284Y532476D02*
D03*
X18034Y542726D02*
D03*
X118110Y466686D02*
D03*
X5842Y402424D02*
D03*
X69088Y157060D02*
D03*
X101600Y338924D02*
D03*
X336296Y10502D02*
D03*
X319786Y10248D02*
D03*
X102362Y47332D02*
D03*
X216916Y432650D02*
D03*
X258750Y431750D02*
D03*
X-12954Y132168D02*
D03*
X125222Y566254D02*
D03*
X43688Y544410D02*
D03*
X166370Y328002D02*
D03*
X292500Y433750D02*
D03*
X16250Y522000D02*
D03*
X5500Y521750D02*
D03*
X-4456Y521886D02*
D03*
X584454Y180428D02*
D03*
X399796Y-11850D02*
D03*
X399034Y596D02*
D03*
X224342Y216434D02*
D03*
X221488Y168998D02*
D03*
X114808Y-17946D02*
D03*
X237490Y90004D02*
D03*
X132437Y137233D02*
D03*
X140462Y154012D02*
D03*
X356870Y236308D02*
D03*
X349758Y268820D02*
D03*
X140208Y224370D02*
D03*
X142748Y76542D02*
D03*
X178054Y108800D02*
D03*
X209042Y109054D02*
D03*
X211346Y126277D02*
D03*
X130556Y-8802D02*
D03*
Y-20232D02*
D03*
Y-31916D02*
D03*
X236728Y-26582D02*
D03*
X220472D02*
D03*
X469392Y-9056D02*
D03*
X483616Y-8802D02*
D03*
X497332Y-8040D02*
D03*
X320548Y-1436D02*
D03*
X337058Y-1182D02*
D03*
X748538Y-21756D02*
D03*
X598932Y-22772D02*
D03*
X703834Y-21248D02*
D03*
X366776Y679284D02*
D03*
X240792Y698588D02*
D03*
X573786Y75780D02*
D03*
X723138Y173062D02*
D03*
X733044D02*
D03*
Y180936D02*
D03*
Y189064D02*
D03*
X696722Y477354D02*
D03*
X738020Y466686D02*
D03*
X765095Y466940D02*
D03*
X746506D02*
D03*
X755800D02*
D03*
X606298Y685634D02*
D03*
X653034Y689952D02*
D03*
X545292Y429693D02*
D03*
X278384Y511644D02*
D03*
X278130Y503008D02*
D03*
X278384Y519772D02*
D03*
X281686Y167474D02*
D03*
X282448Y144106D02*
D03*
X329946Y120484D02*
D03*
Y92290D02*
D03*
X367792Y145122D02*
D03*
X90678Y631786D02*
D03*
X90424Y621880D02*
D03*
X78994Y622134D02*
D03*
X333756Y132930D02*
D03*
X278887Y125310D02*
D03*
X270510Y329780D02*
D03*
X503174Y487768D02*
D03*
X456692Y471512D02*
D03*
X579120Y517232D02*
D03*
X357378Y352386D02*
D03*
X435102Y378548D02*
D03*
X319839Y181551D02*
D03*
X312928Y332320D02*
D03*
X165354Y629500D02*
D03*
X90424Y739990D02*
D03*
X105664Y740752D02*
D03*
X139700Y696048D02*
D03*
X65532Y708494D02*
D03*
X101346Y715860D02*
D03*
X263652Y371690D02*
D03*
X213868Y91528D02*
D03*
X601472Y403948D02*
D03*
X547370Y742022D02*
D03*
X500380Y103974D02*
D03*
X503750Y175250D02*
D03*
X480314Y137502D02*
D03*
X424750Y139026D02*
D03*
X398526Y352386D02*
D03*
X335534Y429348D02*
D03*
X171902Y642939D02*
D03*
X160020D02*
D03*
X165354Y620102D02*
D03*
X655951Y242903D02*
D03*
X333756Y499452D02*
D03*
X351704Y300062D02*
D03*
X279459Y91274D02*
D03*
X334010Y377024D02*
D03*
X497090Y458894D02*
D03*
X553435Y532344D02*
D03*
X503936Y438746D02*
D03*
X492506Y406742D02*
D03*
X418084Y514184D02*
D03*
X369062Y513168D02*
D03*
X390906Y514184D02*
D03*
X239268Y319874D02*
D03*
X793496Y467194D02*
D03*
X571500Y504786D02*
D03*
X316484Y297776D02*
D03*
X338582Y348068D02*
D03*
X308610Y269836D02*
D03*
X563372Y589622D02*
D03*
X538988Y658211D02*
D03*
X576580Y577176D02*
D03*
X365430Y396563D02*
D03*
X390999Y339593D02*
D03*
X416102Y341379D02*
D03*
X582930Y356450D02*
D03*
X747522Y243420D02*
D03*
X728218Y275932D02*
D03*
X733194Y304380D02*
D03*
X723900D02*
D03*
X748030Y134558D02*
D03*
Y153146D02*
D03*
Y143852D02*
D03*
X733044Y202018D02*
D03*
X722677Y514184D02*
D03*
X704088D02*
D03*
X713382D02*
D03*
X278638Y563714D02*
D03*
X662686Y298284D02*
D03*
X747776Y178396D02*
D03*
X415999Y127214D02*
D03*
X222504Y291934D02*
D03*
X373092Y553639D02*
D03*
X215138Y616800D02*
D03*
X739648Y-28868D02*
D03*
X729648D02*
D03*
X719648D02*
D03*
X739140Y-17184D02*
D03*
X729140D02*
D03*
X719140D02*
D03*
X723750Y387946D02*
D03*
X733044D02*
D03*
X714455D02*
D03*
X745000Y430000D02*
D03*
Y411411D02*
D03*
Y420706D02*
D03*
X705358Y421982D02*
D03*
X54852Y834664D02*
D03*
Y824664D02*
D03*
Y814664D02*
D03*
X42352Y834664D02*
D03*
Y814664D02*
D03*
Y824664D02*
D03*
X566154Y-16674D02*
D03*
X576154D02*
D03*
X586154D02*
D03*
X566662Y-28358D02*
D03*
X576662D02*
D03*
X586662D02*
D03*
X485140Y342480D02*
D03*
X477691D02*
D03*
X465328Y299554D02*
D03*
X447893Y342480D02*
D03*
X470241D02*
D03*
X462792D02*
D03*
X455343D02*
D03*
X458180Y398811D02*
D03*
X467831D02*
D03*
X476721D02*
D03*
X445770Y398360D02*
D03*
X436880D02*
D03*
X427228D02*
D03*
X351536Y471512D02*
D03*
X364744D02*
D03*
X373126D02*
D03*
X389128D02*
D03*
X423616D02*
D03*
X411734D02*
D03*
X374396Y386676D02*
D03*
Y416902D02*
D03*
Y405472D02*
D03*
Y397681D02*
D03*
Y444588D02*
D03*
Y430872D02*
D03*
X501650Y473036D02*
D03*
X387350Y698588D02*
D03*
X723000Y548000D02*
D03*
X669500Y-13750D02*
D03*
X669000Y-23750D02*
D03*
X654500Y-24500D02*
D03*
Y-13500D02*
D03*
X401000Y230750D02*
D03*
X387177Y292923D02*
D03*
X378022Y297978D02*
D03*
X-16000Y33108D02*
D03*
X2032D02*
D03*
X2250Y47929D02*
D03*
X-16000D02*
D03*
X2250Y62750D02*
D03*
X-16000D02*
D03*
X791718Y236816D02*
D03*
X333756Y202272D02*
D03*
X319532Y202526D02*
D03*
X223774Y133692D02*
D03*
X238506Y119976D02*
D03*
X297945Y289137D02*
D03*
X386842Y673442D02*
D03*
X567436Y282282D02*
D03*
X567182Y308444D02*
D03*
X267208Y667600D02*
D03*
X275952Y200602D02*
D03*
X696976Y520026D02*
D03*
X726440Y520788D02*
D03*
X790956Y-24296D02*
D03*
X531114Y-23026D02*
D03*
X530860Y-13374D02*
D03*
X790702Y-15152D02*
D03*
X658876Y560412D02*
D03*
X771906Y473798D02*
D03*
X456438Y441032D02*
D03*
X503428Y357212D02*
D03*
D99*
X9398Y252818D02*
D03*
X-1270D02*
D03*
X-13208Y253580D02*
D03*
X-24892Y254088D02*
D03*
X14500Y308500D02*
D03*
X14250Y320000D02*
D03*
X-8250Y308000D02*
D03*
X3250Y308500D02*
D03*
X3000Y319750D02*
D03*
X-8500Y320000D02*
D03*
D100*
X292348Y623806D02*
D03*
X64588Y642443D02*
D03*
X65139Y629379D02*
D03*
X108907Y597945D02*
D03*
X112717Y612423D02*
D03*
X282046Y623111D02*
D03*
X296182Y643128D02*
D03*
X283472D02*
D03*
D109*
X19810Y669018D02*
D03*
Y654018D02*
D03*
Y639018D02*
D03*
Y624018D02*
D03*
D110*
X-32090Y597968D02*
D03*
Y695068D02*
D03*
D111*
X90414Y239775D02*
D03*
X71564D02*
D03*
X81184Y350265D02*
D03*
X66284D02*
D03*
X105624Y239774D02*
D03*
X188534Y350265D02*
D03*
X509110Y86222D02*
D03*
X490260D02*
D03*
X499880Y196712D02*
D03*
X484980D02*
D03*
X524320Y86221D02*
D03*
X607230Y196712D02*
D03*
X674569Y81484D02*
D03*
X655719D02*
D03*
X665339Y191975D02*
D03*
X650439D02*
D03*
X689779Y81483D02*
D03*
X772689Y191975D02*
D03*
D112*
X166284Y350265D02*
D03*
X584980Y196712D02*
D03*
X750439Y191975D02*
D03*
D113*
X237892Y22184D02*
D03*
X222892D02*
D03*
X207892D02*
D03*
X192892D02*
D03*
D114*
X166842Y-29716D02*
D03*
X263942D02*
D03*
D115*
X58731Y661540D02*
D03*
X81731D02*
D03*
X104731D02*
D03*
X188862Y601560D02*
D03*
X165862D02*
D03*
X142862D02*
D03*
D116*
X81731Y598040D02*
D03*
X165862Y665060D02*
D03*
D117*
X76506Y561678D02*
D03*
Y532678D02*
D03*
D118*
X567436Y428078D02*
D03*
Y448398D02*
D03*
X392684Y578451D02*
D03*
Y558131D02*
D03*
X523748Y353905D02*
D03*
Y374225D02*
D03*
X299466Y207352D02*
D03*
Y187032D02*
D03*
X450342Y120235D02*
D03*
Y140555D02*
D03*
X419608Y188561D02*
D03*
Y208881D02*
D03*
X567436Y330034D02*
D03*
Y350354D02*
D03*
D119*
X301244Y470242D02*
D03*
X280924D02*
D03*
X479400Y322663D02*
D03*
X459080D02*
D03*
X439764Y534902D02*
D03*
X460084D02*
D03*
X295095Y120230D02*
D03*
X315415D02*
D03*
X382778Y126580D02*
D03*
X403098D02*
D03*
X238501Y135978D02*
D03*
X258821D02*
D03*
X727456Y255358D02*
D03*
X747776D02*
D03*
X703829Y409028D02*
D03*
X724149D02*
D03*
X295148Y165696D02*
D03*
X315468D02*
D03*
X315415Y91274D02*
D03*
X295095D02*
D03*
X405633Y154266D02*
D03*
X425953D02*
D03*
X424683Y96862D02*
D03*
X404363D02*
D03*
X408714Y66651D02*
D03*
X429035D02*
D03*
D120*
X413766Y499960D02*
D03*
Y483926D02*
D03*
X413258Y382215D02*
D03*
Y398249D02*
D03*
X362458Y302126D02*
D03*
Y286092D02*
D03*
X281432Y347846D02*
D03*
Y331812D02*
D03*
X368808Y499960D02*
D03*
Y483926D02*
D03*
X344424Y499960D02*
D03*
Y483926D02*
D03*
X391160Y499960D02*
D03*
Y483926D02*
D03*
X436118Y499849D02*
D03*
Y483815D02*
D03*
X457962Y499595D02*
D03*
Y483561D02*
D03*
X340106Y675636D02*
D03*
Y659602D02*
D03*
X670814Y703557D02*
D03*
Y687523D02*
D03*
X391922Y630119D02*
D03*
Y646153D02*
D03*
D121*
X247012Y67144D02*
D03*
X223012D02*
D03*
X712848Y456272D02*
D03*
X688848D02*
D03*
D122*
X375900Y76150D02*
D03*
X350800D02*
D03*
Y57151D02*
D03*
X375900D02*
D03*
Y66651D02*
D03*
D123*
X308254Y70251D02*
D03*
Y45150D02*
D03*
X327254D02*
D03*
Y70251D02*
D03*
X317754D02*
D03*
D124*
X530504Y281384D02*
D03*
X540004D02*
D03*
X549504D02*
D03*
X530504Y256284D02*
D03*
X540004D02*
D03*
X549504D02*
D03*
D125*
X332740Y715814D02*
X351085D01*
X351536Y716504D01*
X283404Y643059D02*
X312731D01*
X321518Y715814D02*
X332740D01*
X321518Y651846D02*
Y715814D01*
X198435Y660889D02*
X216196Y643128D01*
X283472D01*
X198435Y660889D02*
Y672873D01*
X183256Y688052D02*
X198435Y672873D01*
X163444Y688052D02*
X183256D01*
X155702Y695794D02*
X163444Y688052D01*
X155702Y695794D02*
Y736164D01*
X161560Y742022D01*
X170434Y742022D01*
X312731Y643059D02*
X321518Y651846D01*
D126*
X218446Y768946D02*
X219500Y770000D01*
X282138Y623019D02*
X292348D01*
X282138D02*
X282956Y622201D01*
X282046Y623111D02*
X282138Y623019D01*
X282956Y604354D02*
Y622201D01*
X51134Y532678D02*
X76506D01*
D127*
X275512Y434961D02*
Y454076D01*
Y434961D02*
X276657Y433816D01*
D128*
X179070Y404964D02*
X179324Y542886D01*
D129*
X188160Y37553D02*
D03*
D130*
X239495Y33820D02*
D03*
D131*
X18034Y495896D02*
D03*
D132*
X635Y342988D02*
D03*
D133*
X689118Y-25890D02*
D03*
D134*
X823341Y-7024D02*
D03*
D135*
X352497Y679693D02*
D03*
D136*
X25400Y700874D02*
D03*
D137*
X609600Y613498D02*
D03*
D138*
X200279Y593813D02*
D03*
D139*
X462500Y341414D02*
D03*
D140*
X438023Y323634D02*
D03*
D141*
X484228Y317411D02*
D03*
D142*
X547125Y753311D02*
D03*
M02*
