G04*
G04 #@! TF.GenerationSoftware,Altium Limited,Altium Designer,21.1.1 (26)*
G04*
G04 Layer_Color=16711935*
%FSLAX44Y44*%
%MOMM*%
G71*
G04*
G04 #@! TF.SameCoordinates,DA55104B-334F-46BF-AAC2-A5A3D9E97D21*
G04*
G04*
G04 #@! TF.FilePolarity,Positive*
G04*
G01*
G75*
%ADD12C,0.3000*%
%ADD15C,0.1500*%
%ADD71C,0.7000*%
%ADD156C,0.3810*%
D12*
X870000Y-40000D02*
Y295000D01*
X860000Y-50000D02*
X870000Y-40000D01*
X869620Y298340D02*
X870000Y295000D01*
X-50000Y525000D02*
Y860000D01*
X510000Y-35000D02*
Y-30000D01*
X509870Y-28890D02*
X510000Y-30000D01*
X509500Y-27830D02*
X509870Y-28890D01*
X508910Y-26880D02*
X509500Y-27830D01*
X508120Y-26090D02*
X508910Y-26880D01*
X507170Y-25500D02*
X508120Y-26090D01*
X506110Y-25130D02*
X507170Y-25500D01*
X505000Y-25000D02*
X506110Y-25130D01*
X315000Y-25000D02*
X505000D01*
X313890Y-25130D02*
X315000Y-25000D01*
X312830Y-25500D02*
X313890Y-25130D01*
X311880Y-26090D02*
X312830Y-25500D01*
X311090Y-26880D02*
X311880Y-26090D01*
X310500Y-27830D02*
X311090Y-26880D01*
X310130Y-28890D02*
X310500Y-27830D01*
X310000Y-30000D02*
X310130Y-28890D01*
X310000Y-35000D02*
Y-30000D01*
X309620Y-38340D02*
X310000Y-35000D01*
X308510Y-41510D02*
X309620Y-38340D01*
X306730Y-44350D02*
X308510Y-41510D01*
X304350Y-46730D02*
X306730Y-44350D01*
X-40000Y-50000D02*
X295000D01*
X-50000Y-40000D02*
X-40000Y-50000D01*
X-50000Y-40000D02*
Y295000D01*
X-49620Y298340D01*
X-48510Y301510D01*
X-46730Y304350D01*
X-44350Y306730D01*
X-41510Y308510D01*
X-38340Y309620D01*
X-35000Y310000D01*
X-30000D01*
X-28890Y310130D01*
X-27830Y310500D01*
X-26880Y311090D01*
X-26090Y311880D01*
X-25500Y312830D01*
X-25130Y313890D01*
X-25000Y315000D01*
Y505000D01*
X-25130Y506110D02*
X-25000Y505000D01*
X-25500Y507170D02*
X-25130Y506110D01*
X-26090Y508120D02*
X-25500Y507170D01*
X-26880Y508910D02*
X-26090Y508120D01*
X-27830Y509500D02*
X-26880Y508910D01*
X-28890Y509870D02*
X-27830Y509500D01*
X-30000Y510000D02*
X-28890Y509870D01*
X-35000Y510000D02*
X-30000D01*
X-38340Y510380D02*
X-35000Y510000D01*
X-41510Y511490D02*
X-38340Y510380D01*
X-44350Y513270D02*
X-41510Y511490D01*
X-46730Y515650D02*
X-44350Y513270D01*
X-48510Y518490D02*
X-46730Y515650D01*
X-49620Y521660D02*
X-48510Y518490D01*
X-50000Y525000D02*
X-49620Y521660D01*
X-50000Y860000D02*
X-40000Y870000D01*
X295000D01*
X298340Y869620D01*
X301510Y868510D01*
X304350Y866730D01*
X306730Y864350D01*
X308510Y861510D01*
X309620Y858340D01*
X310000Y855000D01*
Y850000D02*
Y855000D01*
Y850000D02*
X310130Y848890D01*
X310500Y847830D01*
X311090Y846880D01*
X311880Y846090D01*
X312830Y845500D01*
X313890Y845130D01*
X315000Y845000D01*
X505000D01*
X506110Y845130D01*
X507170Y845500D01*
X508120Y846090D01*
X508910Y846880D01*
X509500Y847830D01*
X509870Y848890D01*
X510000Y850000D01*
Y855000D01*
X510380Y858340D01*
X511490Y861510D01*
X513270Y864350D01*
X515650Y866730D01*
X518490Y868510D01*
X521660Y869620D01*
X525000Y870000D01*
X860000D01*
X870000Y860000D01*
Y525000D02*
Y860000D01*
X869620Y521660D02*
X870000Y525000D01*
X868510Y518490D02*
X869620Y521660D01*
X866730Y515650D02*
X868510Y518490D01*
X864350Y513270D02*
X866730Y515650D01*
X861510Y511490D02*
X864350Y513270D01*
X858340Y510380D02*
X861510Y511490D01*
X855000Y510000D02*
X858340Y510380D01*
X850000Y510000D02*
X855000D01*
X848890Y509870D02*
X850000Y510000D01*
X847830Y509500D02*
X848890Y509870D01*
X846880Y508910D02*
X847830Y509500D01*
X846090Y508120D02*
X846880Y508910D01*
X845500Y507170D02*
X846090Y508120D01*
X845130Y506110D02*
X845500Y507170D01*
X845000Y505000D02*
X845130Y506110D01*
X845000Y315000D02*
Y505000D01*
Y315000D02*
X845130Y313890D01*
X845500Y312830D01*
X846090Y311880D01*
X846880Y311090D01*
X847830Y310500D01*
X848890Y310130D01*
X850000Y310000D01*
X855000D01*
X858340Y309620D01*
X861510Y308510D01*
X864350Y306730D01*
X866730Y304350D01*
X868510Y301510D01*
X869620Y298340D01*
X525000Y-50000D02*
X860000D01*
X521660Y-49620D02*
X525000Y-50000D01*
X518490Y-48510D02*
X521660Y-49620D01*
X515650Y-46730D02*
X518490Y-48510D01*
X513270Y-44350D02*
X515650Y-46730D01*
X511490Y-41510D02*
X513270Y-44350D01*
X510380Y-38340D02*
X511490Y-41510D01*
X510000Y-35000D02*
X510380Y-38340D01*
D15*
X743487Y88492D02*
Y96823D01*
X741821Y98489D01*
X738489D01*
X736823Y96823D01*
Y88492D01*
X733491Y98489D02*
X730158D01*
X731824D01*
Y88492D01*
X733491Y90158D01*
X718495Y98489D02*
X725160D01*
X718495Y91824D01*
Y90158D01*
X720162Y88492D01*
X723494D01*
X725160Y90158D01*
X615188Y646609D02*
Y638278D01*
X616854Y636612D01*
X620186D01*
X621852Y638278D01*
Y646609D01*
X631849D02*
X628517Y644943D01*
X625185Y641610D01*
Y638278D01*
X626851Y636612D01*
X630183D01*
X631849Y638278D01*
Y639944D01*
X630183Y641610D01*
X625185D01*
X481330Y646609D02*
Y638278D01*
X479664Y636612D01*
X476331D01*
X474665Y638278D01*
Y646609D01*
X471333D02*
X464669D01*
Y644943D01*
X471333Y638278D01*
Y636612D01*
D71*
X873500Y860000D02*
G03*
X872475Y862475I-3500J0D01*
G01*
X873500Y860000D02*
G03*
X872475Y862475I-3500J0D01*
G01*
X873478Y524604D02*
G03*
X873500Y525000I-3478J396D01*
G01*
X873478Y524604D02*
G03*
X873500Y525000I-3478J396D01*
G01*
X872924Y520503D02*
G03*
X873098Y521264I-3304J1157D01*
G01*
X872922Y520499D02*
G03*
X873098Y521264I-3302J1161D01*
G01*
X871476Y516631D02*
G03*
X871815Y517338I-2966J1859D01*
G01*
X871476Y516631D02*
G03*
X871814Y517333I-2966J1859D01*
G01*
X869205Y513175D02*
G03*
X869696Y513791I-2475J2475D01*
G01*
X862475Y872475D02*
G03*
X860000Y873500I-2475J-2475D01*
G01*
X862475Y872475D02*
G03*
X860000Y873500I-2475J-2475D01*
G01*
X869205Y513175D02*
G03*
X869696Y513791I-2475J2475D01*
G01*
X866204Y510301D02*
G03*
X866825Y510795I-1854J2969D01*
G01*
X862667Y508186D02*
G03*
X863369Y508524I-1157J3304D01*
G01*
X858736Y506902D02*
G03*
X859497Y507076I-396J3478D01*
G01*
X866209Y510304D02*
G03*
X866825Y510795I-1859J2966D01*
G01*
X862667Y508186D02*
G03*
X863374Y508527I-1157J3304D01*
G01*
X858736Y506902D02*
G03*
X859497Y507076I-396J3478D01*
G01*
X855000Y506500D02*
G03*
X855396Y506522I0J3500D01*
G01*
X855000Y506500D02*
G03*
X855396Y506522I0J3500D01*
G01*
X525000Y873500D02*
G03*
X524604Y873478I0J-3500D01*
G01*
X525000Y873500D02*
G03*
X524604Y873478I0J-3500D01*
G01*
X521264Y873098D02*
G03*
X520503Y872924I396J-3478D01*
G01*
X521264Y873098D02*
G03*
X520503Y872924I396J-3478D01*
G01*
X517333Y871814D02*
G03*
X516631Y871476I1157J-3304D01*
G01*
X517333Y871814D02*
G03*
X516626Y871473I1157J-3304D01*
G01*
X513796Y869699D02*
G03*
X513175Y869205I1854J-2969D01*
G01*
X513791Y869696D02*
G03*
X513175Y869205I1859J-2966D01*
G01*
X510795Y866825D02*
G03*
X510304Y866209I2475J-2475D01*
G01*
X510795Y866825D02*
G03*
X510301Y866204I2475J-2475D01*
G01*
X508527Y863374D02*
G03*
X508186Y862667I2963J-1864D01*
G01*
X508524Y863369D02*
G03*
X508186Y862667I2966J-1859D01*
G01*
X507076Y859497D02*
G03*
X506902Y858736I3304J-1157D01*
G01*
X507076Y859497D02*
G03*
X506902Y858736I3304J-1157D01*
G01*
X506522Y855396D02*
G03*
X506500Y855000I3478J-396D01*
G01*
X506522Y855396D02*
G03*
X506500Y855000I3478J-396D01*
G01*
X855396Y313478D02*
G03*
X855000Y313500I-396J-3478D01*
G01*
X859497Y312924D02*
G03*
X858736Y313098I-1157J-3304D01*
G01*
X863376Y311471D02*
G03*
X862667Y311814I-1866J-2961D01*
G01*
X863369Y311476D02*
G03*
X862667Y311814I-1859J-2966D01*
G01*
X866825Y309205D02*
G03*
X866202Y309700I-2475J-2475D01*
G01*
X855396Y313478D02*
G03*
X855000Y313500I-396J-3478D01*
G01*
X859497Y312924D02*
G03*
X858736Y313098I-1157J-3304D01*
G01*
X871814Y302667D02*
G03*
X871476Y303369I-3304J-1157D01*
G01*
X873098Y298736D02*
G03*
X872924Y299497I-3478J-396D01*
G01*
X873098Y298736D02*
G03*
X872924Y299497I-3478J-396D01*
G01*
X869696Y306209D02*
G03*
X869205Y306825I-2966J-1859D01*
G01*
X866825Y309205D02*
G03*
X866209Y309696I-2475J-2475D01*
G01*
X873500Y295000D02*
G03*
X873478Y295396I-3500J0D01*
G01*
X873500Y295000D02*
G03*
X873478Y295396I-3500J0D01*
G01*
X872475Y-42475D02*
G03*
X873500Y-40000I-2475J2475D01*
G01*
X872468Y-42482D02*
G03*
X873500Y-40000I-2468J2482D01*
G01*
X869696Y306209D02*
G03*
X869205Y306825I-2966J-1859D01*
G01*
X871814Y302667D02*
G03*
X871476Y303369I-3304J-1157D01*
G01*
X860000Y-53500D02*
G03*
X862475Y-52475I0J3500D01*
G01*
X860000Y-53500D02*
G03*
X862482Y-52468I0J3500D01*
G01*
X524604Y-53478D02*
G03*
X525000Y-53500I396J3478D01*
G01*
X520503Y-52924D02*
G03*
X521264Y-53098I1157J3304D01*
G01*
X524604Y-53478D02*
G03*
X525000Y-53500I396J3478D01*
G01*
X516631Y-51476D02*
G03*
X517341Y-51816I1859J2966D01*
G01*
X520495Y-52921D02*
G03*
X521264Y-53098I1165J3301D01*
G01*
X516631Y-51476D02*
G03*
X517333Y-51814I1859J2966D01*
G01*
X506902Y-38736D02*
G03*
X507076Y-39497I3478J396D01*
G01*
X506500Y-35000D02*
G03*
X506522Y-35396I3500J0D01*
G01*
X506500Y-35000D02*
G03*
X506522Y-35396I3500J0D01*
G01*
X510300Y-46202D02*
G03*
X510795Y-46825I2970J1852D01*
G01*
X513168Y-49198D02*
G03*
X513791Y-49696I2482J2468D01*
G01*
X508186Y-42667D02*
G03*
X508529Y-43376I3304J1157D01*
G01*
X513175Y-49205D02*
G03*
X513791Y-49696I2475J2475D01*
G01*
X510304Y-46209D02*
G03*
X510802Y-46832I2966J1859D01*
G01*
X508187Y-42669D02*
G03*
X508524Y-43369I3303J1159D01*
G01*
X508186Y-42665D02*
G03*
X508187Y-42669I3304J1155D01*
G01*
X507076Y-39495D02*
G03*
X507077Y-39499I3304J1155D01*
G01*
X506902Y-38736D02*
G03*
X507076Y-39495I3478J396D01*
G01*
X311814Y862667D02*
G03*
X311476Y863369I-3304J-1157D01*
G01*
X311814Y862667D02*
G03*
X311473Y863374I-3304J-1157D01*
G01*
X313098Y858736D02*
G03*
X312924Y859497I-3478J-396D01*
G01*
X309699Y866204D02*
G03*
X309205Y866825I-2969J-1854D01*
G01*
X306825Y869205D02*
G03*
X306209Y869696I-2475J-2475D01*
G01*
X313500Y855000D02*
G03*
X313478Y855396I-3500J0D01*
G01*
X313500Y855000D02*
G03*
X313478Y855396I-3500J0D01*
G01*
X313098Y858736D02*
G03*
X312924Y859497I-3478J-396D01*
G01*
X299497Y872924D02*
G03*
X298736Y873098I-1157J-3304D01*
G01*
X299497Y872924D02*
G03*
X298736Y873098I-1157J-3304D01*
G01*
X303374Y871473D02*
G03*
X302667Y871814I-1864J-2963D01*
G01*
X295396Y873478D02*
G03*
X295000Y873500I-396J-3478D01*
G01*
X295396Y873478D02*
G03*
X295000Y873500I-396J-3478D01*
G01*
X306825Y869205D02*
G03*
X306204Y869699I-2475J-2475D01*
G01*
X309696Y866209D02*
G03*
X309205Y866825I-2966J-1859D01*
G01*
X303369Y871476D02*
G03*
X302667Y871814I-1859J-2966D01*
G01*
X-40000Y873500D02*
G03*
X-42475Y872475I0J-3500D01*
G01*
X-40000Y873500D02*
G03*
X-42482Y872468I0J-3500D01*
G01*
X-43369Y508524D02*
G03*
X-42667Y508186I1859J2966D01*
G01*
X-35396Y506522D02*
G03*
X-35000Y506500I396J3478D01*
G01*
X-39495Y507076D02*
G03*
X-38736Y506902I1155J3304D01*
G01*
X-39499Y507077D02*
G03*
X-39495Y507076I1159J3303D01*
G01*
X-52468Y862482D02*
G03*
X-53500Y860000I2468J-2482D01*
G01*
Y525000D02*
G03*
X-53478Y524604I3500J0D01*
G01*
X-52475Y862475D02*
G03*
X-53500Y860000I2475J-2475D01*
G01*
Y525000D02*
G03*
X-53478Y524604I3500J0D01*
G01*
X-49696Y513791D02*
G03*
X-49205Y513175I2966J1859D01*
G01*
X-51814Y517333D02*
G03*
X-51476Y516631I3304J1157D01*
G01*
X-46825Y510795D02*
G03*
X-46209Y510304I2475J2475D01*
G01*
X-49696Y513791D02*
G03*
X-49205Y513175I2966J1859D01*
G01*
X-53098Y521264D02*
G03*
X-52924Y520503I3478J396D01*
G01*
X-51814Y517333D02*
G03*
X-51476Y516631I3304J1157D01*
G01*
X-53098Y521264D02*
G03*
X-52924Y520503I3478J396D01*
G01*
X-39497Y507076D02*
G03*
X-38736Y506902I1157J3304D01*
G01*
X-46825Y510795D02*
G03*
X-46209Y510304I2475J2475D01*
G01*
X-42669Y508187D02*
G03*
X-42665Y508186I1159J3303D01*
G01*
X-43369Y508524D02*
G03*
X-42669Y508187I1859J2966D01*
G01*
X-35396Y506522D02*
G03*
X-35000Y506500I396J3478D01*
G01*
X313478Y-35396D02*
G03*
X313500Y-35000I-3478J396D01*
G01*
X313478Y-35396D02*
G03*
X313500Y-35000I-3478J396D01*
G01*
X312924Y-39497D02*
G03*
X313098Y-38736I-3304J1157D01*
G01*
X312924Y-39495D02*
G03*
X313098Y-38736I-3304J1155D01*
G01*
X312923Y-39499D02*
G03*
X312924Y-39495I-3303J1159D01*
G01*
X311471Y-43376D02*
G03*
X311814Y-42667I-2961J1866D01*
G01*
X311813Y-42669D02*
G03*
X311814Y-42665I-3303J1159D01*
G01*
X311476Y-43369D02*
G03*
X311813Y-42669I-2966J1859D01*
G01*
X309205Y-46825D02*
G03*
X309700Y-46202I-2475J2475D01*
G01*
X306209Y-49696D02*
G03*
X306832Y-49198I-1859J2966D01*
G01*
X309198Y-46832D02*
G03*
X309696Y-46209I-2468J2482D01*
G01*
X306209Y-49696D02*
G03*
X306825Y-49205I-1859J2966D01*
G01*
X302667Y-51814D02*
G03*
X303369Y-51476I-1157J3304D01*
G01*
X298736Y-53098D02*
G03*
X299505Y-52921I-396J3478D01*
G01*
X302659Y-51816D02*
G03*
X303369Y-51476I-1149J3306D01*
G01*
X298736Y-53098D02*
G03*
X299497Y-52924I-396J3478D01*
G01*
X295000Y-53500D02*
G03*
X295396Y-53478I0J3500D01*
G01*
X295000Y-53500D02*
G03*
X295396Y-53478I0J3500D01*
G01*
X-35000Y313500D02*
G03*
X-35396Y313478I0J-3500D01*
G01*
X-38736Y313098D02*
G03*
X-39497Y312924I396J-3478D01*
G01*
X-42659Y311816D02*
G03*
X-43369Y311476I1149J-3306D01*
G01*
X-35000Y313500D02*
G03*
X-35396Y313478I0J-3500D01*
G01*
X-38736Y313098D02*
G03*
X-39505Y312921I396J-3478D01*
G01*
X-42667Y311814D02*
G03*
X-43369Y311476I1157J-3304D01*
G01*
X-46209Y309696D02*
G03*
X-46825Y309205I1859J-2966D01*
G01*
X-42475Y-52475D02*
G03*
X-40000Y-53500I2475J2475D01*
G01*
X-42475Y-52475D02*
G03*
X-40000Y-53500I2475J2475D01*
G01*
X-49205Y306825D02*
G03*
X-49696Y306209I2475J-2475D01*
G01*
X-46209Y309696D02*
G03*
X-46825Y309205I1859J-2966D01*
G01*
X-49205Y306825D02*
G03*
X-49696Y306209I2475J-2475D01*
G01*
X-51476Y303369D02*
G03*
X-51814Y302667I2966J-1859D01*
G01*
X-51476Y303369D02*
G03*
X-51816Y302659I2966J-1859D01*
G01*
X-52921Y299505D02*
G03*
X-53098Y298736I3301J-1165D01*
G01*
X-52924Y299497D02*
G03*
X-53098Y298736I3304J-1157D01*
G01*
X-53478Y295396D02*
G03*
X-53500Y295000I3478J-396D01*
G01*
X-53478Y295396D02*
G03*
X-53500Y295000I3478J-396D01*
G01*
Y-40000D02*
G03*
X-52475Y-42475I3500J0D01*
G01*
X-53500Y-40000D02*
G03*
X-52475Y-42475I3500J0D01*
G01*
X873500Y525000D02*
Y860000D01*
X873098Y521264D02*
X873478Y524604D01*
X872922Y520499D02*
X872924Y520503D01*
X871815Y517338D02*
X872922Y520499D01*
X871814Y517333D02*
X871815Y517338D01*
X869696Y513791D02*
X871476Y516631D01*
X862475Y872475D02*
X872475Y862475D01*
X525000Y873500D02*
X860000D01*
X866825Y510795D02*
X869205Y513175D01*
X866204Y510301D02*
X866209Y510304D01*
X863374Y508527D02*
X866204Y510301D01*
X863369Y508524D02*
X863374Y508527D01*
X859497Y507076D02*
X862667Y508186D01*
X855396Y506522D02*
X858736Y506902D01*
X850204Y506500D02*
X855000D01*
X849680Y506438D02*
X850204Y506500D01*
X849348Y506323D02*
X849680Y506438D01*
X849070Y506150D02*
X849348Y506323D01*
X848850Y505930D02*
X849070Y506150D01*
X848677Y505652D02*
X848850Y505930D01*
X848500Y504796D02*
X848562Y505320D01*
X848677Y505652D01*
X848500Y315204D02*
Y504796D01*
X521264Y873098D02*
X524604Y873478D01*
X517333Y871814D02*
X520503Y872924D01*
X516626Y871473D02*
X516631Y871476D01*
X513796Y869699D02*
X516626Y871473D01*
X513791Y869696D02*
X513796Y869699D01*
X510795Y866825D02*
X513175Y869205D01*
X510301Y866204D02*
X510304Y866209D01*
X508527Y863374D02*
X510301Y866204D01*
X508524Y863369D02*
X508527Y863374D01*
X507076Y859497D02*
X508186Y862667D01*
X506522Y855396D02*
X506902Y858736D01*
X506500Y850204D02*
Y855000D01*
X506323Y849348D02*
X506438Y849680D01*
X506150Y849070D02*
X506323Y849348D01*
X506438Y849680D02*
X506500Y850204D01*
X505930Y848850D02*
X506150Y849070D01*
X505652Y848677D02*
X505930Y848850D01*
X505320Y848562D02*
X505652Y848677D01*
X504796Y848500D02*
X505320Y848562D01*
X855396Y313478D02*
X858736Y313098D01*
X850204Y313500D02*
X855000D01*
X859497Y312924D02*
X862667Y311814D01*
X849348Y313677D02*
X849680Y313562D01*
X850204Y313500D01*
X866202Y309700D02*
X866209Y309696D01*
X863376Y311471D02*
X866202Y309700D01*
X863369Y311476D02*
X863376Y311471D01*
X848677Y314348D02*
X848850Y314070D01*
X849070Y313850D01*
X848562Y314680D02*
X848677Y314348D01*
X849070Y313850D02*
X849348Y313677D01*
X848500Y315204D02*
X848562Y314680D01*
X871814Y302667D02*
X872924Y299497D01*
X873098Y298736D02*
X873478Y295396D01*
X866825Y309205D02*
X869205Y306825D01*
X869696Y306209D02*
X871476Y303369D01*
X873500Y-40000D02*
Y295000D01*
X872468Y-42482D02*
X872475Y-42475D01*
X862482Y-52468D02*
X872468Y-42482D01*
X862475Y-52475D02*
X862482Y-52468D01*
X525000Y-53500D02*
X860000D01*
X505320Y-28562D02*
X505652Y-28677D01*
X504796Y-28500D02*
X505320Y-28562D01*
X505930Y-28851D02*
X506149Y-29070D01*
X506323Y-29348D01*
X505652Y-28677D02*
X505930Y-28851D01*
X506438Y-29680D02*
X506500Y-30204D01*
X506323Y-29348D02*
X506438Y-29680D01*
X521264Y-53098D02*
X524604Y-53478D01*
X520495Y-52921D02*
X520503Y-52924D01*
X517341Y-51816D02*
X520495Y-52921D01*
X517333Y-51814D02*
X517341Y-51816D01*
X513791Y-49696D02*
X516631Y-51476D01*
X506500Y-35000D02*
Y-30204D01*
X506522Y-35396D02*
X506902Y-38736D01*
X507076Y-39495D02*
X507076Y-39497D01*
X507077Y-39499D01*
X508186Y-42665D01*
X508186Y-42667D01*
X508187Y-42669D01*
X510795Y-46825D02*
X510802Y-46832D01*
X513168Y-49198D01*
X513175Y-49205D01*
X508524Y-43369D02*
X508529Y-43376D01*
X510300Y-46202D01*
X510304Y-46209D01*
X309696Y866209D02*
X309699Y866204D01*
X311473Y863374D01*
X311476Y863369D01*
X311814Y862667D02*
X312924Y859497D01*
X306825Y869205D02*
X309205Y866825D01*
X313098Y858736D02*
X313478Y855396D01*
X313500Y850204D02*
Y855000D01*
X295396Y873478D02*
X298736Y873098D01*
X306204Y869699D02*
X306209Y869696D01*
X303374Y871473D02*
X306204Y869699D01*
X303369Y871476D02*
X303374Y871473D01*
X299497Y872924D02*
X302667Y871814D01*
X-40000Y873500D02*
X295000D01*
X314070Y848850D02*
X314348Y848677D01*
X314680Y848562D01*
X313850Y849070D02*
X314070Y848850D01*
X315204Y848500D02*
X504796D01*
X314680Y848562D02*
X315204Y848500D01*
X313500Y850204D02*
X313562Y849680D01*
X313677Y849348D02*
X313850Y849070D01*
X313562Y849680D02*
X313677Y849348D01*
X-42482Y872468D02*
X-42475Y872475D01*
X-52468Y862482D02*
X-42482Y872468D01*
X-52475Y862475D02*
X-52468Y862482D01*
X-53500Y525000D02*
Y860000D01*
X-53478Y524604D02*
X-53098Y521264D01*
X-51476Y516631D02*
X-49696Y513791D01*
X-52924Y520503D02*
X-51814Y517333D01*
X-28562Y505320D02*
X-28500Y504796D01*
X-28677Y505652D02*
X-28562Y505320D01*
X-35000Y506500D02*
X-30204D01*
X-38736Y506902D02*
X-35396Y506522D01*
X-49205Y513175D02*
X-46825Y510795D01*
X-39497Y507076D02*
X-39495Y507076D01*
X-39499Y507077D02*
X-39497Y507076D01*
X-42665Y508186D02*
X-39499Y507077D01*
X-42667Y508186D02*
X-42665Y508186D01*
X-42669Y508187D02*
X-42667Y508186D01*
X-46209Y510304D02*
X-43369Y508524D01*
X-28850Y505930D02*
X-28677Y505652D01*
X-29680Y506438D02*
X-29348Y506323D01*
X-29070Y506150D01*
X-28850Y505930D01*
X-30204Y506500D02*
X-29680Y506438D01*
X315204Y-28500D02*
X504796D01*
X314348Y-28677D02*
X314680Y-28562D01*
X314070Y-28851D02*
X314348Y-28677D01*
X314680Y-28562D02*
X315204Y-28500D01*
X313850Y-29070D02*
X314070Y-28851D01*
X313677Y-29348D02*
X313850Y-29070D01*
X313500Y-30204D02*
X313562Y-29680D01*
X313677Y-29348D01*
X313500Y-35000D02*
Y-30204D01*
X313098Y-38736D02*
X313478Y-35396D01*
X312924Y-39497D02*
X312924Y-39495D01*
X312923Y-39499D02*
X312924Y-39497D01*
X311814Y-42665D02*
X312923Y-39499D01*
X311814Y-42667D02*
X311814Y-42665D01*
X311813Y-42669D02*
X311814Y-42667D01*
X311471Y-43376D02*
X311476Y-43369D01*
X309700Y-46202D02*
X311471Y-43376D01*
X309696Y-46209D02*
X309700Y-46202D01*
X309198Y-46832D02*
X309205Y-46825D01*
X306832Y-49198D02*
X309198Y-46832D01*
X306825Y-49205D02*
X306832Y-49198D01*
X303369Y-51476D02*
X306209Y-49696D01*
X302659Y-51816D02*
X302667Y-51814D01*
X299505Y-52921D02*
X302659Y-51816D01*
X299497Y-52924D02*
X299505Y-52921D01*
X295396Y-53478D02*
X298736Y-53098D01*
X-40000Y-53500D02*
X295000D01*
X-28500Y315204D02*
Y504796D01*
X-28562Y314680D02*
X-28500Y315204D01*
X-28677Y314348D02*
X-28562Y314680D01*
X-28850Y314070D02*
X-28677Y314348D01*
X-29070Y313850D02*
X-28850Y314070D01*
X-29348Y313677D02*
X-29070Y313850D01*
X-29680Y313562D02*
X-29348Y313677D01*
X-30204Y313500D02*
X-29680Y313562D01*
X-35000Y313500D02*
X-30204D01*
X-38736Y313098D02*
X-35396Y313478D01*
X-39505Y312921D02*
X-39497Y312924D01*
X-42659Y311816D02*
X-39505Y312921D01*
X-42667Y311814D02*
X-42659Y311816D01*
X-46209Y309696D02*
X-43369Y311476D01*
X-49205Y306825D02*
X-46825Y309205D01*
X-51476Y303369D02*
X-49696Y306209D01*
X-51816Y302659D02*
X-51814Y302667D01*
X-52921Y299505D02*
X-51816Y302659D01*
X-52924Y299497D02*
X-52921Y299505D01*
X-53478Y295396D02*
X-53098Y298736D01*
X-52475Y-42475D02*
X-42475Y-52475D01*
X-53500Y-40000D02*
Y295000D01*
D156*
X192051Y242225D02*
Y347725D01*
X53511Y242225D02*
X192051D01*
X53511Y347725D02*
X192051D01*
X53511Y242225D02*
Y347725D01*
X610747Y88672D02*
Y194172D01*
X472207Y88672D02*
X610747D01*
X472207Y194172D02*
X610747D01*
X472207Y88672D02*
Y194172D01*
X776205Y83934D02*
Y189435D01*
X637665Y83934D02*
X776205D01*
X637665Y189435D02*
X776205D01*
X637665Y83934D02*
Y189435D01*
M02*
