G04*
G04 #@! TF.GenerationSoftware,Altium Limited,Altium Designer,21.1.1 (26)*
G04*
G04 Layer_Physical_Order=1*
G04 Layer_Color=255*
%FSLAX44Y44*%
%MOMM*%
G71*
G04*
G04 #@! TF.SameCoordinates,DA55104B-334F-46BF-AAC2-A5A3D9E97D21*
G04*
G04*
G04 #@! TF.FilePolarity,Positive*
G04*
G01*
G75*
%ADD11C,0.6000*%
%ADD12C,0.3000*%
%ADD13C,0.2000*%
%ADD14C,0.2540*%
%ADD15C,0.1500*%
%ADD18R,0.8000X1.6000*%
%ADD19R,2.1000X3.0000*%
%ADD20R,1.0582X1.2061*%
%ADD21R,1.2061X1.0582*%
G04:AMPARAMS|DCode=22|XSize=1.2061mm|YSize=1.0582mm|CornerRadius=0mm|HoleSize=0mm|Usage=FLASHONLY|Rotation=135.000|XOffset=0mm|YOffset=0mm|HoleType=Round|Shape=Rectangle|*
%AMROTATEDRECTD22*
4,1,4,0.8005,-0.0523,0.0523,-0.8005,-0.8005,0.0523,-0.0523,0.8005,0.8005,-0.0523,0.0*
%
%ADD22ROTATEDRECTD22*%

G04:AMPARAMS|DCode=23|XSize=0.45mm|YSize=1.85mm|CornerRadius=0.0495mm|HoleSize=0mm|Usage=FLASHONLY|Rotation=270.000|XOffset=0mm|YOffset=0mm|HoleType=Round|Shape=RoundedRectangle|*
%AMROUNDEDRECTD23*
21,1,0.4500,1.7510,0,0,270.0*
21,1,0.3510,1.8500,0,0,270.0*
1,1,0.0990,-0.8755,-0.1755*
1,1,0.0990,-0.8755,0.1755*
1,1,0.0990,0.8755,0.1755*
1,1,0.0990,0.8755,-0.1755*
%
%ADD23ROUNDEDRECTD23*%
%ADD24R,1.1000X1.2500*%
%ADD25R,1.2500X1.1000*%
%ADD26R,1.6000X0.8000*%
%ADD27R,3.0000X2.1000*%
G04:AMPARAMS|DCode=28|XSize=2.4741mm|YSize=0.6221mm|CornerRadius=0.3111mm|HoleSize=0mm|Usage=FLASHONLY|Rotation=90.000|XOffset=0mm|YOffset=0mm|HoleType=Round|Shape=RoundedRectangle|*
%AMROUNDEDRECTD28*
21,1,2.4741,0.0000,0,0,90.0*
21,1,1.8519,0.6221,0,0,90.0*
1,1,0.6221,0.0000,0.9260*
1,1,0.6221,0.0000,-0.9260*
1,1,0.6221,0.0000,-0.9260*
1,1,0.6221,0.0000,0.9260*
%
%ADD28ROUNDEDRECTD28*%
%ADD29R,0.6221X2.4741*%
G04:AMPARAMS|DCode=30|XSize=2.4741mm|YSize=0.6221mm|CornerRadius=0.3111mm|HoleSize=0mm|Usage=FLASHONLY|Rotation=180.000|XOffset=0mm|YOffset=0mm|HoleType=Round|Shape=RoundedRectangle|*
%AMROUNDEDRECTD30*
21,1,2.4741,0.0000,0,0,180.0*
21,1,1.8519,0.6221,0,0,180.0*
1,1,0.6221,-0.9260,0.0000*
1,1,0.6221,0.9260,0.0000*
1,1,0.6221,0.9260,0.0000*
1,1,0.6221,-0.9260,0.0000*
%
%ADD30ROUNDEDRECTD30*%
%ADD31R,2.4741X0.6221*%
%ADD32R,1.6000X2.0000*%
%ADD33R,1.3000X1.8000*%
%ADD34O,2.1000X0.3000*%
%ADD35O,0.3000X2.1000*%
%ADD36R,1.2087X1.0121*%
%ADD37R,1.6000X0.3000*%
%ADD38R,0.3000X1.6000*%
%ADD39R,1.0000X1.0000*%
%ADD40R,1.0000X1.0000*%
%ADD41R,2.1000X2.1000*%
%ADD42R,0.5000X1.5000*%
%ADD43R,1.1000X1.2000*%
%ADD44R,1.2000X1.1000*%
%ADD45R,1.3000X1.0500*%
%ADD66C,1.0000*%
%ADD67C,1.0000*%
%ADD68C,0.3400*%
%ADD69C,0.5000*%
%ADD70C,0.8000*%
%ADD71C,0.7000*%
%ADD72C,1.5000*%
%ADD73C,0.4000*%
%ADD74C,0.4500*%
%ADD75C,0.6220*%
%ADD76R,5.1534X2.5250*%
%ADD77R,7.6156X10.3750*%
%ADD78R,8.0264X4.1058*%
%ADD79R,5.9878X12.4968*%
%ADD80R,5.5626X3.0734*%
%ADD81R,9.2070X11.4510*%
%ADD82R,8.0264X3.9116*%
%ADD83R,7.2632X3.0086*%
%ADD84R,2.2606X1.1938*%
%ADD85R,2.4130X2.0066*%
%ADD86R,2.6416X1.2954*%
%ADD87R,2.1336X1.7780*%
%ADD88R,2.0000X5.2500*%
%ADD89R,5.4610X1.8288*%
%ADD90R,2.4750X2.5606*%
%ADD91R,2.5250X8.0744*%
%ADD92C,5.0000*%
%ADD93C,1.4000*%
%ADD94R,1.4000X1.4000*%
%ADD95R,2.0000X2.0000*%
%ADD96C,2.0000*%
%ADD97C,0.6000*%
%ADD98C,0.7000*%
%ADD99C,0.8000*%
%ADD100C,0.9000*%
G36*
X867961Y859155D02*
Y525116D01*
X867620Y522118D01*
X866661Y519379D01*
X865125Y516928D01*
X863071Y514875D01*
X860620Y513339D01*
X857882Y512380D01*
X854884Y512039D01*
X850000D01*
X849882Y512016D01*
X849763Y512025D01*
X848653Y511895D01*
X848440Y511826D01*
X848218Y511795D01*
X847158Y511425D01*
X846964Y511311D01*
X846754Y511232D01*
X845804Y510642D01*
X845633Y510482D01*
X845438Y510352D01*
X844648Y509562D01*
X844518Y509367D01*
X844358Y509196D01*
X843768Y508246D01*
X843689Y508035D01*
X843575Y507842D01*
X843205Y506782D01*
X843174Y506561D01*
X843105Y506347D01*
X842975Y505237D01*
X842984Y505118D01*
X842961Y505000D01*
Y315000D01*
X842984Y314882D01*
X842975Y314763D01*
X843105Y313653D01*
X843174Y313440D01*
X843205Y313218D01*
X843575Y312158D01*
X843689Y311964D01*
X843768Y311754D01*
X844358Y310804D01*
X844518Y310633D01*
X844648Y310438D01*
X845438Y309648D01*
X845633Y309518D01*
X845804Y309358D01*
X846754Y308768D01*
X846964Y308689D01*
X847158Y308575D01*
X848218Y308205D01*
X848440Y308174D01*
X848653Y308105D01*
X849763Y307975D01*
X849882Y307984D01*
X850000Y307961D01*
X854884D01*
X857882Y307620D01*
X860620Y306661D01*
X863071Y305125D01*
X865125Y303071D01*
X866661Y300621D01*
X867620Y297882D01*
X867961Y294884D01*
Y-39155D01*
X859155Y-47961D01*
X525116D01*
X522118Y-47620D01*
X519379Y-46661D01*
X516929Y-45125D01*
X514875Y-43071D01*
X513339Y-40621D01*
X512380Y-37882D01*
X512039Y-34885D01*
Y-30000D01*
X512016Y-29882D01*
X512025Y-29763D01*
X511895Y-28653D01*
X511826Y-28440D01*
X511795Y-28218D01*
X511425Y-27158D01*
X511311Y-26965D01*
X511232Y-26754D01*
X510642Y-25804D01*
X510482Y-25633D01*
X510352Y-25438D01*
X509562Y-24648D01*
X509367Y-24518D01*
X509196Y-24358D01*
X508246Y-23768D01*
X508036Y-23689D01*
X507842Y-23575D01*
X506782Y-23205D01*
X506560Y-23174D01*
X506347Y-23105D01*
X505237Y-22975D01*
X505118Y-22984D01*
X505000Y-22961D01*
X315000D01*
X314882Y-22984D01*
X314763Y-22975D01*
X313653Y-23105D01*
X313440Y-23174D01*
X313218Y-23205D01*
X312158Y-23575D01*
X311964Y-23689D01*
X311754Y-23768D01*
X310804Y-24358D01*
X310633Y-24518D01*
X310438Y-24648D01*
X309648Y-25438D01*
X309518Y-25633D01*
X309358Y-25804D01*
X308768Y-26754D01*
X308689Y-26964D01*
X308575Y-27158D01*
X308205Y-28218D01*
X308174Y-28440D01*
X308105Y-28653D01*
X307975Y-29763D01*
X307984Y-29882D01*
X307961Y-30000D01*
Y-34885D01*
X307620Y-37882D01*
X306661Y-40621D01*
X305125Y-43071D01*
X303071Y-45125D01*
X300621Y-46661D01*
X297882Y-47620D01*
X294884Y-47961D01*
X-39155D01*
X-47961Y-39155D01*
Y294884D01*
X-47620Y297882D01*
X-46661Y300621D01*
X-45125Y303071D01*
X-43071Y305125D01*
X-40621Y306661D01*
X-37882Y307620D01*
X-34884Y307961D01*
X-30000D01*
X-29882Y307984D01*
X-29763Y307975D01*
X-28653Y308105D01*
X-28440Y308174D01*
X-28218Y308205D01*
X-27158Y308575D01*
X-26964Y308689D01*
X-26754Y308768D01*
X-25804Y309358D01*
X-25633Y309518D01*
X-25438Y309648D01*
X-24648Y310438D01*
X-24518Y310633D01*
X-24358Y310804D01*
X-23768Y311754D01*
X-23689Y311964D01*
X-23575Y312158D01*
X-23205Y313218D01*
X-23174Y313440D01*
X-23105Y313653D01*
X-22975Y314763D01*
X-22984Y314882D01*
X-22961Y315000D01*
Y505000D01*
X-22984Y505118D01*
X-22975Y505237D01*
X-23105Y506347D01*
X-23174Y506560D01*
X-23205Y506782D01*
X-23575Y507842D01*
X-23689Y508036D01*
X-23768Y508246D01*
X-24358Y509196D01*
X-24518Y509367D01*
X-24648Y509562D01*
X-25438Y510352D01*
X-25633Y510482D01*
X-25804Y510642D01*
X-26754Y511232D01*
X-26964Y511311D01*
X-27158Y511425D01*
X-28218Y511795D01*
X-28440Y511826D01*
X-28653Y511895D01*
X-29763Y512025D01*
X-29883Y512016D01*
X-30000Y512039D01*
X-34885D01*
X-37882Y512380D01*
X-40621Y513339D01*
X-43071Y514875D01*
X-45125Y516928D01*
X-46661Y519379D01*
X-47620Y522118D01*
X-47961Y525116D01*
Y859155D01*
X-39155Y867961D01*
X294884D01*
X297882Y867620D01*
X300621Y866661D01*
X303071Y865125D01*
X305125Y863072D01*
X306661Y860621D01*
X307620Y857882D01*
X307961Y854884D01*
Y850000D01*
X307984Y849882D01*
X307975Y849763D01*
X308105Y848653D01*
X308174Y848440D01*
X308205Y848218D01*
X308575Y847158D01*
X308689Y846964D01*
X308768Y846754D01*
X309358Y845804D01*
X309518Y845633D01*
X309648Y845438D01*
X310438Y844648D01*
X310633Y844518D01*
X310804Y844358D01*
X311754Y843768D01*
X311964Y843689D01*
X312158Y843575D01*
X312888Y843320D01*
X312673Y842050D01*
X289623D01*
X279708Y851965D01*
X278350Y853007D01*
X276768Y853662D01*
X275072Y853886D01*
X171856D01*
X170159Y853662D01*
X168578Y853007D01*
X167220Y851965D01*
X163906Y848651D01*
X162864Y847293D01*
X162209Y845712D01*
X162126Y845085D01*
X158542D01*
Y825085D01*
Y812385D01*
X162144D01*
Y805471D01*
X161332Y805002D01*
X159098Y802768D01*
X157518Y800032D01*
X156700Y796980D01*
Y793820D01*
X157104Y792315D01*
X155965Y791657D01*
X154983Y792638D01*
X155300Y793820D01*
Y796980D01*
X154482Y800032D01*
X152902Y802768D01*
X150668Y805002D01*
X147932Y806582D01*
X144880Y807400D01*
X141720D01*
X138668Y806582D01*
X135932Y805002D01*
X133698Y802768D01*
X132118Y800032D01*
X131300Y796980D01*
Y793820D01*
X132118Y790768D01*
X133698Y788032D01*
X135932Y785798D01*
X138668Y784218D01*
X141720Y783400D01*
X144880D01*
X144967Y783423D01*
X145126Y783216D01*
X145080Y782987D01*
X144458Y782000D01*
X141720D01*
X138668Y781182D01*
X135932Y779602D01*
X133698Y777368D01*
X132118Y774632D01*
X131300Y771580D01*
Y768420D01*
X132118Y765368D01*
X133698Y762632D01*
X135932Y760398D01*
X138668Y758818D01*
X141720Y758000D01*
X144880D01*
X147554Y758716D01*
X148557Y758179D01*
X148848Y757880D01*
X148914Y757227D01*
X137771Y746084D01*
X136729Y744726D01*
X136074Y743145D01*
X135851Y741448D01*
Y740325D01*
X132407D01*
Y720325D01*
Y707625D01*
X135997D01*
X136074Y707037D01*
X136346Y706382D01*
X135492Y705126D01*
X128408D01*
X125308Y708226D01*
Y717138D01*
X109803D01*
X109267Y719141D01*
X108148Y721079D01*
X106565Y722662D01*
X104627Y723781D01*
X102465Y724360D01*
X100227D01*
X98065Y723781D01*
X96127Y722662D01*
X94544Y721079D01*
X93425Y719141D01*
X92846Y716979D01*
Y714741D01*
X93425Y712579D01*
X94544Y710641D01*
X96127Y709058D01*
X98065Y707939D01*
X100227Y707360D01*
X102465D01*
X103301Y707584D01*
X104308Y706811D01*
Y694638D01*
X113220D01*
X118229Y689629D01*
X120109Y688187D01*
X122298Y687280D01*
X124648Y686970D01*
X139700D01*
X142050Y687280D01*
X144239Y688187D01*
X146119Y689629D01*
X147562Y691509D01*
X147944Y692432D01*
X149189Y692680D01*
X186992Y654877D01*
Y648935D01*
X186746Y648689D01*
X185627Y646751D01*
X185048Y644589D01*
Y643056D01*
X180402D01*
Y644058D01*
X179823Y646219D01*
X178704Y648158D01*
X177121Y649740D01*
X175183Y650859D01*
X173021Y651439D01*
X170783D01*
X168621Y650859D01*
X166683Y649740D01*
X165961Y649018D01*
X165239Y649740D01*
X163301Y650859D01*
X161139Y651439D01*
X158901D01*
X156739Y650859D01*
X154801Y649740D01*
X153218Y648158D01*
X152099Y646219D01*
X151896Y645462D01*
X151461Y645280D01*
X150522Y645238D01*
X149683Y646332D01*
X98689Y697325D01*
X97331Y698367D01*
X95750Y699022D01*
X94053Y699245D01*
X90256D01*
Y717138D01*
X70694D01*
X70575Y717229D01*
X68142Y718237D01*
X65532Y718580D01*
X62922Y718237D01*
X60489Y717229D01*
X58400Y715626D01*
X56797Y713537D01*
X56023Y711667D01*
X54616Y711278D01*
X53846Y712048D01*
X52488Y713090D01*
X50907Y713745D01*
X49210Y713969D01*
X18000D01*
Y716750D01*
X-8000D01*
Y698750D01*
Y686250D01*
Y673750D01*
Y661250D01*
Y648750D01*
Y636250D01*
X18000D01*
Y639132D01*
X21047D01*
X22031Y638148D01*
Y616472D01*
X22297Y615138D01*
X21262Y613868D01*
X18000D01*
Y616750D01*
X-8000D01*
Y598750D01*
Y586250D01*
Y573750D01*
Y561250D01*
X18000D01*
Y564132D01*
X28082D01*
X115984Y476231D01*
X115604Y474814D01*
X114829Y474607D01*
X112891Y473488D01*
X111308Y471905D01*
X110189Y469967D01*
X109610Y467805D01*
Y465567D01*
X110189Y463405D01*
X111308Y461467D01*
X112891Y459884D01*
X114829Y458765D01*
X116991Y458186D01*
X119229D01*
X121391Y458765D01*
X123329Y459884D01*
X124912Y461467D01*
X126031Y463405D01*
X126238Y464180D01*
X127655Y464560D01*
X137729Y454486D01*
X139713Y453160D01*
X142054Y452695D01*
X236803D01*
X237525Y451424D01*
X236829Y450219D01*
X236283Y448185D01*
Y446078D01*
X236829Y444043D01*
X237882Y442219D01*
X239371Y440730D01*
X240381Y440147D01*
X240602Y438571D01*
X233881Y431851D01*
X225416D01*
Y433769D01*
X224837Y435931D01*
X223718Y437869D01*
X222135Y439452D01*
X220197Y440571D01*
X218035Y441150D01*
X215797D01*
X213635Y440571D01*
X211697Y439452D01*
X210114Y437869D01*
X208995Y435931D01*
X208416Y433769D01*
Y431851D01*
X132200D01*
X131203Y432848D01*
X129265Y433967D01*
X127103Y434546D01*
X124865D01*
X122703Y433967D01*
X120765Y432848D01*
X119182Y431265D01*
X118063Y429327D01*
X117697Y427960D01*
X116281Y427581D01*
X61114Y482747D01*
X59129Y484073D01*
X56788Y484539D01*
X42210D01*
Y486440D01*
X16210D01*
Y468440D01*
Y455940D01*
Y443440D01*
Y430940D01*
Y418440D01*
Y405940D01*
Y393440D01*
Y380940D01*
Y368440D01*
Y355940D01*
Y343440D01*
Y330940D01*
X28620D01*
X29210Y330862D01*
X35553D01*
X35770Y330891D01*
X92670D01*
Y329742D01*
X92979Y327393D01*
X93886Y325204D01*
X95329Y323324D01*
X97209Y321881D01*
X99398Y320974D01*
X101747Y320665D01*
X104097Y320974D01*
X106286Y321881D01*
X108166Y323324D01*
X109609Y325204D01*
X110516Y327393D01*
X110825Y329742D01*
Y338777D01*
X110516Y341126D01*
X109609Y343315D01*
X108925Y344207D01*
X109551Y345476D01*
X208130D01*
X208297Y344207D01*
X207459Y343982D01*
X205634Y342929D01*
X204145Y341439D01*
X203092Y339615D01*
X202547Y337580D01*
Y335474D01*
X203092Y333439D01*
X204145Y331615D01*
X205634Y330125D01*
X207459Y329072D01*
X209493Y328527D01*
X211600D01*
X211771Y328573D01*
X212779Y327800D01*
Y315049D01*
X219836D01*
X222143Y312742D01*
X224233Y311139D01*
X226665Y310131D01*
X229276Y309788D01*
X242185D01*
Y293467D01*
X245886D01*
Y288662D01*
X239728D01*
Y264932D01*
X235358D01*
X233017Y264466D01*
X231033Y263140D01*
X196080Y228188D01*
X194754Y226203D01*
X194289Y223862D01*
Y202710D01*
X194073Y202191D01*
X193850Y200494D01*
Y55636D01*
X181688Y43474D01*
X149053D01*
X148567Y44647D01*
X161608Y57689D01*
X162650Y59047D01*
X163305Y60628D01*
X163528Y62325D01*
Y101427D01*
X163305Y103124D01*
X162650Y104705D01*
X161608Y106063D01*
X153473Y114198D01*
X152170Y115198D01*
X152159Y115326D01*
X152597Y116468D01*
X161114D01*
X169554Y108028D01*
Y107681D01*
X170133Y105519D01*
X171252Y103581D01*
X172835Y101998D01*
X174773Y100879D01*
X176935Y100300D01*
X179173D01*
X181335Y100879D01*
X183273Y101998D01*
X184856Y103581D01*
X185975Y105519D01*
X186554Y107681D01*
Y109919D01*
X185975Y112081D01*
X184856Y114019D01*
X183273Y115602D01*
X181335Y116721D01*
X179173Y117300D01*
X178826D01*
X168466Y127660D01*
X167108Y128702D01*
X165527Y129357D01*
X163830Y129580D01*
X138602D01*
X138076Y130850D01*
X139239Y132013D01*
X140358Y133952D01*
X140938Y136114D01*
Y138352D01*
X140358Y140513D01*
X139239Y142452D01*
X137657Y144034D01*
X135718Y145153D01*
X133557Y145732D01*
X133209D01*
X127914Y151028D01*
X126556Y152070D01*
X124975Y152725D01*
X123278Y152948D01*
X117593D01*
Y156683D01*
X79511D01*
Y152948D01*
X77850D01*
X77126Y154218D01*
X77588Y155941D01*
Y158179D01*
X77009Y160341D01*
X76730Y160824D01*
X78338Y162431D01*
X79511Y161945D01*
Y159469D01*
X117593D01*
Y163204D01*
X121998D01*
X131962Y153240D01*
Y152893D01*
X132541Y150731D01*
X133660Y148793D01*
X135243Y147210D01*
X137181Y146091D01*
X139343Y145512D01*
X141581D01*
X143743Y146091D01*
X145681Y147210D01*
X147264Y148793D01*
X148383Y150731D01*
X148962Y152893D01*
Y155131D01*
X148383Y157293D01*
X147264Y159231D01*
X146764Y159731D01*
Y218905D01*
X147010Y219151D01*
X148129Y221089D01*
X148708Y223251D01*
Y225489D01*
X148129Y227651D01*
X147010Y229589D01*
X145427Y231172D01*
X143489Y232291D01*
X141327Y232870D01*
X139089D01*
X136927Y232291D01*
X134989Y231172D01*
X133406Y229589D01*
X132287Y227651D01*
X131708Y225489D01*
Y223251D01*
X132287Y221089D01*
X133406Y219151D01*
X133652Y218905D01*
Y171753D01*
X132479Y171267D01*
X129350Y174396D01*
X127992Y175438D01*
X126411Y176093D01*
X124714Y176316D01*
X117593D01*
Y180051D01*
X79511D01*
Y176824D01*
X76903D01*
X75206Y176601D01*
X73625Y175946D01*
X72267Y174904D01*
X68614Y171251D01*
X55053Y184812D01*
X55318Y185451D01*
X55894Y188349D01*
Y191303D01*
X55318Y194201D01*
X54187Y196931D01*
X52545Y199388D01*
X50456Y201477D01*
X47999Y203119D01*
X45269Y204250D01*
X42371Y204826D01*
X39417D01*
X36519Y204250D01*
X33789Y203119D01*
X31332Y201477D01*
X29243Y199388D01*
X27601Y196931D01*
X26470Y194201D01*
X25894Y191303D01*
Y188349D01*
X26470Y185451D01*
X26698Y184902D01*
X19297Y177501D01*
X18124Y177987D01*
Y178460D01*
X-7876D01*
Y160460D01*
Y147960D01*
Y142046D01*
X-11374D01*
X-12954Y142254D01*
X-15565Y141911D01*
X-17997Y140903D01*
X-20086Y139300D01*
X-21689Y137211D01*
X-22697Y134778D01*
X-23040Y132168D01*
X-22697Y129558D01*
X-21689Y127125D01*
X-20086Y125036D01*
X-19878Y124828D01*
X-17789Y123225D01*
X-15357Y122217D01*
X-12746Y121874D01*
X-7876D01*
Y110460D01*
X14226D01*
X28304Y96383D01*
X27601Y95331D01*
X26470Y92601D01*
X25894Y89703D01*
Y86749D01*
X26470Y83851D01*
X27601Y81121D01*
X29243Y78664D01*
X31332Y76575D01*
X33789Y74933D01*
X36519Y73802D01*
X39417Y73226D01*
X42371D01*
X45269Y73802D01*
X47999Y74933D01*
X50456Y76575D01*
X52545Y78664D01*
X54187Y81121D01*
X55318Y83851D01*
X55894Y86749D01*
Y89703D01*
X55515Y91610D01*
X56320Y92592D01*
X79765D01*
Y88857D01*
X117847D01*
Y90512D01*
X119020Y90998D01*
X134248Y75770D01*
Y75423D01*
X134827Y73261D01*
X135946Y71323D01*
X137529Y69740D01*
X139467Y68621D01*
X141629Y68042D01*
X143867D01*
X146029Y68621D01*
X147967Y69740D01*
X149146Y70919D01*
X150416Y70393D01*
Y65040D01*
X139264Y53888D01*
X107827D01*
X107581Y54134D01*
X105643Y55253D01*
X103481Y55832D01*
X101243D01*
X99081Y55253D01*
X97143Y54134D01*
X95560Y52551D01*
X94441Y50613D01*
X93862Y48451D01*
Y46213D01*
X94256Y44744D01*
X93405Y43474D01*
X76502D01*
X74805Y43251D01*
X73224Y42596D01*
X71866Y41554D01*
X51875Y21562D01*
X50833Y20204D01*
X50178Y18623D01*
X49954Y16926D01*
Y-7510D01*
X50178Y-9207D01*
X50833Y-10788D01*
X51875Y-12146D01*
X66628Y-26900D01*
X67986Y-27942D01*
X69567Y-28597D01*
X71264Y-28820D01*
X93980D01*
X95677Y-28597D01*
X97258Y-27942D01*
X98616Y-26900D01*
X104043Y-21472D01*
X105541Y-21770D01*
X106027Y-22943D01*
X107630Y-25032D01*
X107676Y-25078D01*
X109765Y-26681D01*
X112198Y-27689D01*
X114808Y-28032D01*
X117418Y-27689D01*
X119851Y-26681D01*
X121940Y-25078D01*
X123543Y-22989D01*
X124551Y-20556D01*
X124894Y-17946D01*
X124848Y-17597D01*
Y1660D01*
X124505Y4270D01*
X124000Y5489D01*
Y15102D01*
X198192D01*
X200533Y15568D01*
X202517Y16894D01*
X218330Y32707D01*
X219572Y32153D01*
X220063Y30320D01*
X220953Y28779D01*
X214822Y22648D01*
X213496Y20663D01*
X213110Y18720D01*
X210148D01*
Y-7280D01*
X240648D01*
Y15059D01*
X304241D01*
X304240Y15836D01*
X328906D01*
X330424Y16851D01*
X370429Y56855D01*
X371603Y56369D01*
Y47378D01*
X368720D01*
Y21378D01*
X399220D01*
Y47378D01*
X400295Y47849D01*
X405145D01*
X406220Y47378D01*
Y21378D01*
X408887D01*
X408887Y21375D01*
X409542Y19794D01*
X410584Y18436D01*
X412341Y16679D01*
X413440Y15836D01*
X501333D01*
X502432Y16679D01*
X524851Y39099D01*
X525893Y40457D01*
X526548Y42038D01*
X526771Y43734D01*
Y52929D01*
X530507D01*
Y57403D01*
X548008D01*
X549704Y57627D01*
X551286Y58281D01*
X552643Y59323D01*
X556578Y63258D01*
X557620Y64616D01*
X558275Y66197D01*
X558498Y67894D01*
Y84109D01*
X561679D01*
X563796Y84388D01*
X565769Y85205D01*
X567464Y86505D01*
X568764Y88200D01*
X569581Y90173D01*
X569860Y92290D01*
X569581Y94407D01*
X568764Y96380D01*
X567464Y98075D01*
Y99206D01*
X568764Y100900D01*
X569581Y102873D01*
X569764Y104263D01*
X571105Y104719D01*
X575159Y100664D01*
X577144Y99338D01*
X579485Y98872D01*
X583370D01*
Y84179D01*
X590098D01*
Y82282D01*
X587184D01*
Y61782D01*
X598279D01*
X598934Y61695D01*
X608917D01*
X612052Y58560D01*
Y48139D01*
X611987Y47647D01*
X612052Y47155D01*
Y40125D01*
X619232D01*
X619552Y40082D01*
X619872Y40125D01*
X632052D01*
X632052Y40125D01*
Y40125D01*
X632466Y39997D01*
X632706Y39923D01*
X633226Y39784D01*
X634741Y39378D01*
X636847D01*
X638882Y39923D01*
X640706Y40976D01*
X642196Y42466D01*
X643249Y44290D01*
X643794Y46325D01*
Y48431D01*
X643249Y50466D01*
X642196Y52290D01*
X640706Y53780D01*
X638882Y54833D01*
X637795Y55124D01*
X636510Y55656D01*
X634552Y55914D01*
X632052D01*
Y62169D01*
X632138Y62825D01*
X633285Y63597D01*
X633589Y63633D01*
X669855Y27367D01*
X671212Y26325D01*
X672794Y25670D01*
X674490Y25447D01*
X696555D01*
X698112Y24548D01*
X700147Y24003D01*
X702253D01*
X702694Y23665D01*
Y18000D01*
X700250D01*
Y-8000D01*
X730750D01*
Y18000D01*
X728306D01*
Y46942D01*
X728170Y47975D01*
Y63376D01*
X730113Y65319D01*
X731539Y64949D01*
X731719Y64313D01*
X731177Y63374D01*
X730632Y61339D01*
Y59233D01*
X731177Y57198D01*
X732230Y55374D01*
X733720Y53884D01*
X735544Y52831D01*
X737579Y52286D01*
X739685D01*
X741720Y52831D01*
X743544Y53884D01*
X745034Y55374D01*
X746087Y57198D01*
X746632Y59233D01*
Y61339D01*
X746087Y63374D01*
X745529Y64341D01*
X746322Y65373D01*
X748600D01*
Y63674D01*
X749026Y61530D01*
X750241Y59712D01*
X752058Y58498D01*
X754202Y58071D01*
X761053D01*
Y46688D01*
X761109Y46262D01*
Y31867D01*
Y15845D01*
X763331D01*
X763606Y13757D01*
X764412Y11810D01*
X765695Y10139D01*
X767366Y8857D01*
X769312Y8051D01*
X771400Y7776D01*
X773489Y8051D01*
X775435Y8857D01*
X777106Y10139D01*
X777667Y10871D01*
X777881Y11084D01*
X778031Y11345D01*
X778388Y11810D01*
X778613Y12352D01*
X778934Y12908D01*
X779100Y13528D01*
X779194Y13757D01*
X779227Y14001D01*
X779479Y14943D01*
Y15845D01*
X781692D01*
Y31867D01*
Y39610D01*
X786234D01*
Y35875D01*
X808295D01*
Y56458D01*
X786234D01*
Y52723D01*
X781692D01*
Y53927D01*
X774165D01*
Y58704D01*
X775674Y59712D01*
X776889Y61530D01*
X777315Y63674D01*
Y67184D01*
X777018Y68679D01*
X777315Y70174D01*
Y73684D01*
X777018Y75179D01*
X777315Y76674D01*
Y80184D01*
X777018Y81679D01*
X777315Y83174D01*
Y86684D01*
X777018Y88179D01*
X777315Y89674D01*
Y93184D01*
X776889Y95328D01*
X775674Y97146D01*
X773857Y98360D01*
X771712Y98786D01*
X754202D01*
X752058Y98360D01*
X751497Y97985D01*
X747289D01*
X744172Y101102D01*
Y128973D01*
X743949Y130670D01*
X743294Y132251D01*
X742252Y133609D01*
X738080Y137781D01*
X737615Y139517D01*
X736561Y141341D01*
X735072Y142831D01*
X733248Y143884D01*
X731213Y144429D01*
X729107D01*
X727072Y143884D01*
X726562Y143590D01*
X725587Y144071D01*
X725370Y144368D01*
X724752Y145860D01*
X723710Y147218D01*
X709052Y161876D01*
X709546Y163046D01*
X739660Y162631D01*
X739696Y162637D01*
X739731Y162630D01*
X740671Y162817D01*
X741617Y162992D01*
X741647Y163011D01*
X741682Y163018D01*
X742480Y163551D01*
X743286Y164074D01*
X743306Y164103D01*
X743336Y164123D01*
X744269Y165056D01*
X744798Y165848D01*
X745340Y166630D01*
X745349Y166674D01*
X745374Y166710D01*
X745560Y167644D01*
X745761Y168574D01*
X745845Y173483D01*
X745777Y173856D01*
X745802Y174235D01*
X745601Y174826D01*
X745490Y175440D01*
X745285Y175759D01*
X745163Y176119D01*
X744606Y177083D01*
X744374Y177948D01*
Y178844D01*
X744606Y179709D01*
X745332Y180967D01*
X745426Y181244D01*
X745593Y181485D01*
X745743Y182178D01*
X745971Y182850D01*
X745952Y183143D01*
X746014Y183429D01*
X746634Y219822D01*
X746629Y219843D01*
X746634Y219865D01*
X746452Y220822D01*
X746279Y221779D01*
X746267Y221797D01*
X746263Y221819D01*
X745728Y222634D01*
X745202Y223451D01*
X745184Y223464D01*
X745172Y223482D01*
X744281Y224388D01*
X744263Y224401D01*
X744251Y224419D01*
X743442Y224959D01*
X742637Y225507D01*
X742615Y225512D01*
X742597Y225524D01*
X741641Y225714D01*
X740689Y225912D01*
X740668Y225908D01*
X740646Y225912D01*
X737967D01*
X737178Y226239D01*
X734568Y226582D01*
X724433D01*
Y243142D01*
X718393D01*
Y244770D01*
X751455D01*
Y223151D01*
Y207129D01*
X757773D01*
X760364Y204538D01*
X762453Y202935D01*
X764885Y201927D01*
X767496Y201584D01*
X772037D01*
X774648Y201927D01*
X777080Y202935D01*
X779169Y204538D01*
X780772Y206627D01*
X781780Y209060D01*
X782123Y211670D01*
X782011Y212522D01*
X782849Y213477D01*
X797162D01*
Y226758D01*
X798432Y227732D01*
X799447Y227460D01*
X801685D01*
X803847Y228039D01*
X805375Y228922D01*
X806725Y228142D01*
X808887Y227563D01*
X811125D01*
X813287Y228142D01*
X815225Y229261D01*
X816808Y230844D01*
X817927Y232782D01*
X818506Y234944D01*
Y237182D01*
X817927Y239344D01*
X816808Y241282D01*
X815225Y242865D01*
X813287Y243984D01*
X811125Y244563D01*
X808887D01*
X806725Y243984D01*
X805197Y243101D01*
X803847Y243881D01*
X801685Y244460D01*
X799447D01*
X797285Y243881D01*
X796883Y243649D01*
X794999Y244737D01*
X793337Y245182D01*
Y270770D01*
X767955D01*
Y310503D01*
X767489Y312844D01*
X766163Y314829D01*
X730575Y350417D01*
X728590Y351744D01*
X726249Y352209D01*
X647013D01*
X642032Y357191D01*
X642518Y358364D01*
X754968D01*
X757309Y358830D01*
X759294Y360156D01*
X771085Y371946D01*
X772411Y373931D01*
X772876Y376272D01*
Y436770D01*
X793337D01*
Y456969D01*
X793496Y457108D01*
X796106Y457451D01*
X798539Y458459D01*
X800628Y460062D01*
X802231Y462151D01*
X803239Y464584D01*
X803582Y467194D01*
Y471775D01*
X803787D01*
Y487797D01*
Y509857D01*
X799746D01*
X799315Y511127D01*
X800625Y512132D01*
X815249Y526756D01*
X821567D01*
Y542778D01*
Y564838D01*
X800985D01*
Y559926D01*
X791722D01*
X789381Y559460D01*
X787396Y558134D01*
X780017Y550755D01*
X778843Y551241D01*
Y560728D01*
X777461D01*
Y561841D01*
X776995Y564183D01*
X775669Y566167D01*
X770353Y571484D01*
X768368Y572810D01*
X766027Y573275D01*
X735899D01*
X735193Y574332D01*
X735557Y575210D01*
X735900Y577820D01*
Y587200D01*
Y600204D01*
X753814D01*
Y600458D01*
X774692D01*
X774962Y600458D01*
X775962D01*
X776232Y600458D01*
X798462D01*
Y603393D01*
X800603D01*
X802494Y602887D01*
X804601D01*
X806635Y603432D01*
X808459Y604485D01*
X809949Y605975D01*
X811002Y607799D01*
X811547Y609833D01*
Y611940D01*
X811002Y613974D01*
X809949Y615799D01*
X808459Y617288D01*
X806635Y618341D01*
X804601Y618886D01*
X802494D01*
X801136Y618523D01*
X798462D01*
Y621458D01*
X776232D01*
X775962Y621458D01*
X774962D01*
X774692Y621458D01*
X752462D01*
Y621204D01*
X735900D01*
Y623149D01*
X753814D01*
Y623233D01*
X774692D01*
X774962Y623233D01*
X775962D01*
X776232Y623233D01*
X798462D01*
Y626169D01*
X801861D01*
X803752Y625662D01*
X805859D01*
X807893Y626207D01*
X809717Y627260D01*
X811207Y628750D01*
X812260Y630574D01*
X812805Y632609D01*
Y634715D01*
X812260Y636750D01*
X811207Y638574D01*
X809717Y640063D01*
X807893Y641117D01*
X805859Y641662D01*
X803752D01*
X802394Y641298D01*
X798462D01*
Y644233D01*
X776232D01*
X775962Y644233D01*
X774962D01*
X774692Y644233D01*
X752462D01*
Y644149D01*
X735900D01*
Y646093D01*
X752462D01*
Y646009D01*
X774692D01*
X774962Y646009D01*
X775962D01*
X776232Y646009D01*
X798462D01*
Y648412D01*
X801673D01*
X803564Y647905D01*
X805670D01*
X807705Y648450D01*
X809529Y649503D01*
X811018Y650993D01*
X812072Y652817D01*
X812617Y654852D01*
Y656958D01*
X812072Y658993D01*
X811018Y660817D01*
X809529Y662307D01*
X807705Y663360D01*
X805670Y663905D01*
X803564D01*
X802206Y663541D01*
X798462D01*
Y667009D01*
X776232D01*
X775962Y667009D01*
X774962D01*
X774692Y667009D01*
X753814D01*
Y667093D01*
X735900D01*
Y669038D01*
X752462D01*
Y668784D01*
X774692D01*
X774962Y668784D01*
X775962D01*
X776232Y668784D01*
X798462D01*
Y671648D01*
X801424D01*
X803316Y671141D01*
X805422D01*
X807457Y671686D01*
X809281Y672739D01*
X810770Y674229D01*
X811824Y676053D01*
X812369Y678088D01*
Y680194D01*
X811824Y682229D01*
X810770Y684053D01*
X809281Y685543D01*
X807457Y686596D01*
X805422Y687141D01*
X803316D01*
X801958Y686777D01*
X798462D01*
Y689784D01*
X776232D01*
X775962Y689784D01*
X774962D01*
X774692Y689784D01*
X753814D01*
Y690038D01*
X727153D01*
X726667Y691211D01*
X777278Y741822D01*
X778320Y743180D01*
X778975Y744761D01*
X779198Y746458D01*
Y828380D01*
X778975Y830077D01*
X778320Y831658D01*
X777278Y833016D01*
X745138Y865156D01*
X743780Y866198D01*
X742590Y866691D01*
X742843Y867961D01*
X859155D01*
X867961Y859155D01*
D02*
G37*
G36*
X355124Y812779D02*
X354583Y812238D01*
X353541Y810881D01*
X352886Y809299D01*
X352663Y807602D01*
Y806968D01*
X351563Y806333D01*
X351132Y806582D01*
X348080Y807400D01*
X344920D01*
X341868Y806582D01*
X339132Y805002D01*
X336898Y802768D01*
X335318Y800032D01*
X334500Y796980D01*
Y793820D01*
X335318Y790768D01*
X336898Y788032D01*
X339132Y785798D01*
X341868Y784218D01*
X344920Y783400D01*
X348080D01*
X351132Y784218D01*
X351563Y784467D01*
X352663Y783832D01*
Y781568D01*
X351563Y780933D01*
X351132Y781182D01*
X348080Y782000D01*
X344920D01*
X341868Y781182D01*
X339132Y779602D01*
X336898Y777368D01*
X335318Y774632D01*
X334500Y771580D01*
Y768420D01*
X335318Y765368D01*
X336898Y762632D01*
X339132Y760398D01*
X341868Y758818D01*
X344920Y758000D01*
X348080D01*
X351132Y758818D01*
X351563Y759067D01*
X352663Y758432D01*
Y753774D01*
X351656Y753001D01*
X351651Y753002D01*
X349545D01*
X347510Y752457D01*
X345686Y751403D01*
X344197Y749914D01*
X343144Y748090D01*
X342598Y746055D01*
Y743949D01*
X343034Y742324D01*
Y741901D01*
X322412Y721279D01*
X321142Y721805D01*
Y723742D01*
X302877D01*
Y729014D01*
X302653Y730711D01*
X301998Y732292D01*
X300956Y733650D01*
X290481Y744124D01*
Y757789D01*
X291751Y758635D01*
X294120Y758000D01*
X297280D01*
X300332Y758818D01*
X303068Y760398D01*
X305302Y762632D01*
X306882Y765368D01*
X307700Y768420D01*
Y771580D01*
X306882Y774632D01*
X305302Y777368D01*
X303068Y779602D01*
X300332Y781182D01*
X297280Y782000D01*
X294120D01*
X293482Y781829D01*
X292814Y782965D01*
X293417Y783588D01*
X294120Y783400D01*
X297280D01*
X300332Y784218D01*
X303068Y785798D01*
X305302Y788032D01*
X306882Y790768D01*
X307700Y793820D01*
Y796980D01*
X306882Y800032D01*
X305302Y802768D01*
X303470Y804600D01*
X303996Y805870D01*
X312804D01*
X313330Y804600D01*
X311498Y802768D01*
X309918Y800032D01*
X309100Y796980D01*
Y793820D01*
X309918Y790768D01*
X311498Y788032D01*
X313732Y785798D01*
X316468Y784218D01*
X319520Y783400D01*
X322680D01*
X325732Y784218D01*
X328468Y785798D01*
X330702Y788032D01*
X332282Y790768D01*
X333100Y793820D01*
Y796980D01*
X332282Y800032D01*
X330702Y802768D01*
X328468Y805002D01*
X327656Y805471D01*
Y809662D01*
X327433Y811359D01*
X326885Y812682D01*
X327426Y813952D01*
X354637D01*
X355124Y812779D01*
D02*
G37*
G36*
X183458Y825085D02*
Y812385D01*
X187544D01*
Y805471D01*
X186732Y805002D01*
X184498Y802768D01*
X182918Y800032D01*
X182100Y796980D01*
Y793820D01*
X182918Y790768D01*
X184498Y788032D01*
X186732Y785798D01*
X189468Y784218D01*
X192520Y783400D01*
X195680D01*
X198732Y784218D01*
X201468Y785798D01*
X203702Y788032D01*
X205282Y790768D01*
X206100Y793820D01*
Y796980D01*
X205282Y800032D01*
X203702Y802768D01*
X201468Y805002D01*
X200656Y805471D01*
Y812385D01*
X203458D01*
Y825085D01*
Y828529D01*
X217372D01*
X217803Y827259D01*
X217006Y826647D01*
X214663Y824304D01*
X213541Y822841D01*
X212835Y821138D01*
X212595Y819311D01*
Y805270D01*
X212132Y805002D01*
X209898Y802768D01*
X208318Y800032D01*
X207500Y796980D01*
Y793820D01*
X208318Y790768D01*
X209898Y788032D01*
X212132Y785798D01*
X214868Y784218D01*
X217920Y783400D01*
X221080D01*
X224132Y784218D01*
X226868Y785798D01*
X229102Y788032D01*
X230682Y790768D01*
X231500Y793820D01*
Y796980D01*
X230682Y800032D01*
X229102Y802768D01*
X226868Y805002D01*
X226716Y805090D01*
Y811738D01*
X250979D01*
X251616Y811003D01*
X251828Y810468D01*
X251582Y809873D01*
X251359Y808176D01*
Y806798D01*
X250259Y806163D01*
X249532Y806582D01*
X246480Y807400D01*
X243320D01*
X240268Y806582D01*
X237532Y805002D01*
X235298Y802768D01*
X233718Y800032D01*
X232900Y796980D01*
Y793820D01*
X233718Y790768D01*
X235298Y788032D01*
X237532Y785798D01*
X240268Y784218D01*
X243320Y783400D01*
X246480D01*
X249532Y784218D01*
X250259Y784637D01*
X251359Y784002D01*
Y781398D01*
X250259Y780763D01*
X249532Y781182D01*
X246480Y782000D01*
X243320D01*
X240268Y781182D01*
X237532Y779602D01*
X235298Y777368D01*
X233718Y774632D01*
X232900Y771580D01*
Y768420D01*
X233718Y765368D01*
X235298Y762632D01*
X237532Y760398D01*
X240268Y758818D01*
X243320Y758000D01*
X245702D01*
X246228Y756730D01*
X236804Y747305D01*
X235762Y745948D01*
X235107Y744366D01*
X234940Y743099D01*
X233670Y743182D01*
Y744971D01*
X233125Y747006D01*
X232072Y748830D01*
X230582Y750320D01*
X228758Y751373D01*
X226723Y751918D01*
X224617D01*
X222582Y751373D01*
X220758Y750320D01*
X219268Y748830D01*
X218546Y747579D01*
X217102Y747539D01*
X216472Y748631D01*
X214889Y750214D01*
X212951Y751333D01*
X210789Y751912D01*
X208551D01*
X206389Y751333D01*
X204451Y750214D01*
X202868Y748631D01*
X201749Y746693D01*
X201170Y744531D01*
Y742293D01*
X201749Y740131D01*
X202868Y738193D01*
X204451Y736610D01*
X206389Y735491D01*
X208551Y734912D01*
X210789D01*
X212951Y735491D01*
X214889Y736610D01*
X216472Y738193D01*
X217340Y739696D01*
X218610Y739356D01*
Y729239D01*
X212002Y722630D01*
X206509Y717138D01*
X195494D01*
Y694638D01*
X199287D01*
X200166Y693368D01*
X199787Y691955D01*
Y689716D01*
X200366Y687555D01*
X201485Y685616D01*
X203068Y684034D01*
X205006Y682915D01*
X207168Y682336D01*
X207594D01*
X207725Y681845D01*
X208844Y679907D01*
X210427Y678324D01*
X212365Y677205D01*
X214527Y676626D01*
X216765D01*
X217850Y676917D01*
X219120Y675942D01*
Y664904D01*
X217851Y664171D01*
X216268Y662589D01*
X215149Y660651D01*
X214570Y658489D01*
Y656988D01*
X203111Y645529D01*
X201695Y645908D01*
X201469Y646751D01*
X200350Y648689D01*
X200104Y648935D01*
Y657593D01*
X199881Y659290D01*
X199226Y660871D01*
X198184Y662229D01*
X152407Y708006D01*
Y720325D01*
Y740325D01*
X152215D01*
X151729Y741498D01*
X160522Y750292D01*
X161564Y751649D01*
X162219Y753231D01*
X162442Y754927D01*
Y758486D01*
X163542Y759121D01*
X164068Y758818D01*
X167120Y758000D01*
X170280D01*
X173332Y758818D01*
X176068Y760398D01*
X178302Y762632D01*
X179882Y765368D01*
X180700Y768420D01*
Y771580D01*
X179882Y774632D01*
X178302Y777368D01*
X176068Y779602D01*
X173332Y781182D01*
X170280Y782000D01*
X167120D01*
X164068Y781182D01*
X163542Y780879D01*
X162442Y781514D01*
Y782464D01*
X162268Y783791D01*
X163277Y784674D01*
X164068Y784218D01*
X167120Y783400D01*
X170280D01*
X173332Y784218D01*
X176068Y785798D01*
X178302Y788032D01*
X179882Y790768D01*
X180700Y793820D01*
Y796980D01*
X179882Y800032D01*
X178302Y802768D01*
X176068Y805002D01*
X175256Y805471D01*
Y812385D01*
X178542D01*
Y825085D01*
Y840773D01*
X183458D01*
Y825085D01*
D02*
G37*
G36*
X742693Y821557D02*
Y752307D01*
X692765Y702378D01*
X691723Y701021D01*
X691068Y699439D01*
X690844Y697743D01*
Y664403D01*
X689815Y664127D01*
X687991Y663074D01*
X686501Y661584D01*
X685590Y660005D01*
X684385Y660459D01*
X684576Y661417D01*
Y662764D01*
X685211Y662890D01*
X686865Y663995D01*
X687970Y665649D01*
X688358Y667600D01*
Y687666D01*
X687970Y689617D01*
X686865Y691271D01*
X685211Y692376D01*
X683260Y692764D01*
X661080D01*
X660955Y693233D01*
X659836Y695171D01*
X658253Y696754D01*
X656315Y697873D01*
X654153Y698452D01*
X651915D01*
X649753Y697873D01*
X647993Y696857D01*
X647214Y697873D01*
X667853Y718512D01*
X686700D01*
Y731212D01*
Y751212D01*
X684265D01*
Y760594D01*
X686302Y762632D01*
X687882Y765368D01*
X688700Y768420D01*
Y771580D01*
X687882Y774632D01*
X686302Y777368D01*
X684068Y779602D01*
X681332Y781182D01*
X678280Y782000D01*
X675120D01*
X672068Y781182D01*
X669332Y779602D01*
X667098Y777368D01*
X665518Y774632D01*
X664700Y771580D01*
Y768420D01*
X665518Y765368D01*
X667098Y762632D01*
X669135Y760594D01*
Y751212D01*
X666700D01*
Y734485D01*
X666365Y734418D01*
X664558Y733211D01*
X663288Y733643D01*
Y751514D01*
X660853D01*
Y762582D01*
X660902Y762632D01*
X662482Y765368D01*
X663300Y768420D01*
Y771580D01*
X662482Y774632D01*
X660902Y777368D01*
X658668Y779602D01*
X655932Y781182D01*
X652880Y782000D01*
X649720D01*
X646668Y781182D01*
X643932Y779602D01*
X641698Y777368D01*
X640118Y774632D01*
X639300Y771580D01*
Y768420D01*
X640118Y765368D01*
X641698Y762632D01*
X643932Y760398D01*
X645723Y759363D01*
Y751514D01*
X643288D01*
Y731514D01*
Y728654D01*
X639569Y724935D01*
X638396Y725421D01*
Y731768D01*
Y751768D01*
X635961D01*
Y763426D01*
X637082Y765368D01*
X637900Y768420D01*
Y771580D01*
X637082Y774632D01*
X635502Y777368D01*
X633268Y779602D01*
X630532Y781182D01*
X627480Y782000D01*
X624320D01*
X621268Y781182D01*
X618532Y779602D01*
X616298Y777368D01*
X614718Y774632D01*
X613900Y771580D01*
Y770481D01*
X612630Y769802D01*
X612500Y769889D01*
Y771580D01*
X611682Y774632D01*
X610102Y777368D01*
X607868Y779602D01*
X605132Y781182D01*
X602080Y782000D01*
X598920D01*
X595868Y781182D01*
X593132Y779602D01*
X590898Y777368D01*
X589318Y774632D01*
X588500Y771580D01*
Y768420D01*
X588896Y766943D01*
X587757Y766285D01*
X586788Y767255D01*
X587100Y768420D01*
Y771580D01*
X586282Y774632D01*
X584702Y777368D01*
X582468Y779602D01*
X579732Y781182D01*
X576680Y782000D01*
X573520D01*
X570468Y781182D01*
X567732Y779602D01*
X565498Y777368D01*
X563918Y774632D01*
X563100Y771580D01*
Y768420D01*
X563918Y765368D01*
X565498Y762632D01*
X567732Y760398D01*
X570468Y758818D01*
X573520Y758000D01*
X574646D01*
X579614Y753032D01*
Y750597D01*
X577242D01*
Y732241D01*
X510414D01*
X508717Y732017D01*
X507136Y731362D01*
X505778Y730320D01*
X487292Y711834D01*
X486250Y710477D01*
X485595Y708895D01*
X485372Y707198D01*
Y646141D01*
X485595Y644444D01*
X486250Y642863D01*
X487292Y641505D01*
X507130Y621667D01*
X507595Y619931D01*
X508648Y618106D01*
X509306Y617449D01*
X502486Y610628D01*
X453061D01*
X452575Y611801D01*
X464781Y624008D01*
X465823Y625366D01*
X466478Y626947D01*
X466702Y628644D01*
Y640660D01*
X467600Y642217D01*
X468145Y644251D01*
Y646358D01*
X467600Y648392D01*
X466547Y650217D01*
X465058Y651706D01*
X463233Y652759D01*
X461199Y653305D01*
X459092D01*
X457058Y652759D01*
X455233Y651706D01*
X453744Y650217D01*
X452691Y648392D01*
X452146Y646358D01*
Y644251D01*
X452593Y642580D01*
X451455Y641922D01*
X450489Y642889D01*
X448664Y643942D01*
X446630Y644487D01*
X444523D01*
X442489Y643942D01*
X440664Y642889D01*
X439175Y641399D01*
X438122Y639575D01*
X437576Y637540D01*
Y635434D01*
X438122Y633399D01*
X439119Y631671D01*
Y622633D01*
X425578Y609091D01*
X423814Y609124D01*
X423144Y609794D01*
X421320Y610847D01*
X419285Y611392D01*
X417179D01*
X415144Y610847D01*
X413320Y609794D01*
X411830Y608304D01*
X410704Y608894D01*
X409636Y609511D01*
X407475Y610090D01*
X405237D01*
X403075Y609511D01*
X401137Y608392D01*
X399554Y606809D01*
X398435Y604871D01*
X397856Y602709D01*
Y601741D01*
X388848Y592733D01*
X387506Y593189D01*
X387425Y593811D01*
X386770Y595392D01*
X385728Y596750D01*
X379663Y602815D01*
X379952Y603895D01*
X380161Y604113D01*
X381901Y605118D01*
X383391Y606607D01*
X384444Y608431D01*
X384989Y610466D01*
Y612573D01*
X384444Y614607D01*
X383391Y616431D01*
X383688Y617745D01*
X384024Y618081D01*
X402892D01*
X403904Y617069D01*
X405729Y616016D01*
X407763Y615470D01*
X409870D01*
X411904Y616016D01*
X413729Y617069D01*
X415218Y618558D01*
X416271Y620382D01*
X416816Y622417D01*
Y624524D01*
X416271Y626558D01*
X415947Y627120D01*
X416582Y628220D01*
X418858D01*
X421199Y628686D01*
X423184Y630012D01*
X471836Y678665D01*
X473162Y680649D01*
X473628Y682990D01*
Y694142D01*
X477510D01*
Y706842D01*
Y726842D01*
X474067D01*
Y737171D01*
X478136Y741240D01*
X479178Y742598D01*
X479833Y744179D01*
X480056Y745876D01*
Y759929D01*
X480868Y760398D01*
X483102Y762632D01*
X484682Y765368D01*
X485500Y768420D01*
Y771580D01*
X485156Y772865D01*
X486240Y774025D01*
X487385Y773389D01*
X486900Y771580D01*
Y768420D01*
X487718Y765368D01*
X489298Y762632D01*
X491532Y760398D01*
X494268Y758818D01*
X497320Y758000D01*
X500480D01*
X503532Y758818D01*
X506268Y760398D01*
X508502Y762632D01*
X510082Y765368D01*
X510900Y768420D01*
Y771580D01*
X510082Y774632D01*
X508502Y777368D01*
X506268Y779602D01*
X503532Y781182D01*
X500480Y782000D01*
X497320D01*
X494268Y781182D01*
X493740Y780877D01*
X492732Y781762D01*
X492876Y782109D01*
X493053Y783453D01*
X494063Y784171D01*
X494369Y784191D01*
X497320Y783400D01*
X500480D01*
X503532Y784218D01*
X506268Y785798D01*
X508502Y788032D01*
X510082Y790768D01*
X510900Y793820D01*
Y796980D01*
X510082Y800032D01*
X508502Y802768D01*
X506268Y805002D01*
X503532Y806582D01*
X500480Y807400D01*
X497320D01*
X494369Y806609D01*
X494047Y806630D01*
X493099Y807177D01*
Y810278D01*
X492876Y811975D01*
X492583Y812682D01*
X493432Y813952D01*
X531622D01*
X533319Y814175D01*
X534900Y814830D01*
X536258Y815872D01*
X558248Y837862D01*
X726388D01*
X742693Y821557D01*
D02*
G37*
G36*
X437010Y800191D02*
X436918Y800032D01*
X436100Y796980D01*
Y793820D01*
X436918Y790768D01*
X438498Y788032D01*
X440732Y785798D01*
X443468Y784218D01*
X446520Y783400D01*
X447112D01*
X447791Y782130D01*
X447704Y782000D01*
X446520D01*
X443468Y781182D01*
X440732Y779602D01*
X438498Y777368D01*
X436918Y774632D01*
X436100Y771580D01*
Y768420D01*
X436918Y765368D01*
X438498Y762632D01*
X440732Y760398D01*
X441544Y759929D01*
Y726842D01*
X438794D01*
Y706842D01*
Y694142D01*
X442834D01*
Y688047D01*
X434984Y680198D01*
X434029Y680454D01*
X433680Y680689D01*
X432690Y682403D01*
X431201Y683892D01*
X429377Y684946D01*
X427342Y685491D01*
X425236D01*
X423201Y684946D01*
X421377Y683892D01*
X419887Y682403D01*
X418834Y680579D01*
X418289Y678544D01*
Y676438D01*
X418834Y674403D01*
X419887Y672579D01*
X421377Y671089D01*
X423090Y670100D01*
X423326Y669751D01*
X423582Y668795D01*
X415550Y660764D01*
X392667D01*
X392665Y660766D01*
X392123Y662034D01*
X393010Y663190D01*
X393766Y665015D01*
X394024Y666973D01*
X394024Y666973D01*
Y668882D01*
X394763Y670161D01*
X395342Y672323D01*
Y674561D01*
X394763Y676723D01*
X394661Y676900D01*
Y694250D01*
X395271Y695307D01*
X395850Y697469D01*
Y699707D01*
X395271Y701869D01*
X394152Y703807D01*
X392569Y705390D01*
X390631Y706509D01*
X388469Y707088D01*
X386231D01*
X384069Y706509D01*
X382131Y705390D01*
X380548Y703807D01*
X379429Y701869D01*
X378850Y699707D01*
Y697469D01*
X379429Y695307D01*
X379531Y695130D01*
Y677779D01*
X378921Y676723D01*
X378342Y674561D01*
Y672323D01*
X378087Y671991D01*
X349190D01*
X348353Y672946D01*
X348412Y673399D01*
Y691919D01*
X348134Y694036D01*
X347316Y696009D01*
X346788Y696698D01*
Y698008D01*
X389154Y740375D01*
X390196Y741733D01*
X390851Y743314D01*
X391074Y745011D01*
Y758468D01*
X392174Y759103D01*
X392668Y758818D01*
X395720Y758000D01*
X398880D01*
X401932Y758818D01*
X404668Y760398D01*
X406902Y762632D01*
X408482Y765368D01*
X409300Y768420D01*
Y771580D01*
X408482Y774632D01*
X406902Y777368D01*
X404668Y779602D01*
X401932Y781182D01*
X398880Y782000D01*
X395720D01*
X392668Y781182D01*
X392174Y780897D01*
X391074Y781532D01*
Y783868D01*
X392174Y784503D01*
X392668Y784218D01*
X395720Y783400D01*
X398880D01*
X401932Y784218D01*
X404668Y785798D01*
X406902Y788032D01*
X408482Y790768D01*
X409300Y793820D01*
Y796980D01*
X408482Y800032D01*
X408390Y800191D01*
X409025Y801291D01*
X410975D01*
X411610Y800191D01*
X411518Y800032D01*
X410700Y796980D01*
Y793820D01*
X411518Y790768D01*
X413098Y788032D01*
X415332Y785798D01*
X418068Y784218D01*
X421120Y783400D01*
X424280D01*
X427332Y784218D01*
X430068Y785798D01*
X432302Y788032D01*
X433882Y790768D01*
X434700Y793820D01*
Y796980D01*
X433882Y800032D01*
X433790Y800191D01*
X434425Y801291D01*
X436375D01*
X437010Y800191D01*
D02*
G37*
G36*
X287930Y804600D02*
X286098Y802768D01*
X284518Y800032D01*
X283700Y796980D01*
Y793820D01*
X283943Y792914D01*
X279289Y788261D01*
X278248Y786903D01*
X277593Y785322D01*
X277369Y783625D01*
Y781045D01*
X276269Y780410D01*
X274932Y781182D01*
X271880Y782000D01*
X268720D01*
X265741Y781202D01*
X265499Y781178D01*
X264471Y781880D01*
Y805461D01*
X264880Y805870D01*
X287404D01*
X287930Y804600D01*
D02*
G37*
G36*
X277369Y758955D02*
Y741409D01*
X277593Y739712D01*
X278248Y738131D01*
X279289Y736773D01*
X289764Y726298D01*
Y719500D01*
X287143D01*
X286715Y720057D01*
Y722295D01*
X286136Y724457D01*
X285017Y726395D01*
X283434Y727978D01*
X281496Y729097D01*
X279334Y729676D01*
X277096D01*
X274934Y729097D01*
X272996Y727978D01*
X272043Y727025D01*
X270613Y727408D01*
X268375D01*
X266213Y726829D01*
X264275Y725710D01*
X262692Y724127D01*
X262185Y723248D01*
X247873D01*
X247269Y724518D01*
X247772Y725733D01*
X247996Y727430D01*
Y739954D01*
X262550Y754509D01*
X263592Y755866D01*
X264247Y757448D01*
X264336Y758121D01*
X265663Y758815D01*
X265707Y758807D01*
X268720Y758000D01*
X271880D01*
X274932Y758818D01*
X276269Y759590D01*
X277369Y758955D01*
D02*
G37*
G36*
X577242Y712515D02*
X597825D01*
Y717494D01*
X598760Y718471D01*
X599742Y718421D01*
Y692242D01*
X598483Y691810D01*
X598472Y691810D01*
X585612Y704670D01*
X584254Y705712D01*
X582673Y706367D01*
X580976Y706590D01*
X575143D01*
Y708711D01*
X554561D01*
Y706590D01*
X521970D01*
X520273Y706367D01*
X518692Y705712D01*
X517334Y704670D01*
X499754Y687090D01*
X498490Y687519D01*
X498484Y687524D01*
Y704483D01*
X513129Y719128D01*
X577242D01*
Y712515D01*
D02*
G37*
G36*
X528697Y674233D02*
X549279D01*
Y678895D01*
X561999D01*
X562732Y677625D01*
X562043Y676431D01*
X561464Y674269D01*
Y672288D01*
X561274Y672142D01*
X559036D01*
X556874Y671563D01*
X554936Y670444D01*
X553353Y668861D01*
X552234Y666923D01*
X551655Y664761D01*
Y664183D01*
X531783Y644311D01*
X530397Y642237D01*
X529910Y639790D01*
Y638053D01*
X520620Y628762D01*
X519962Y629420D01*
X518138Y630473D01*
X516401Y630938D01*
X498484Y648856D01*
Y670159D01*
X499491Y670933D01*
X499747Y670864D01*
X501853D01*
X503888Y671409D01*
X505712Y672462D01*
X507201Y673952D01*
X508255Y675776D01*
X508720Y677513D01*
X524686Y693478D01*
X528697D01*
Y674233D01*
D02*
G37*
G36*
X274996Y697500D02*
Y680500D01*
X275156D01*
Y671524D01*
X272903Y669271D01*
X271300Y667182D01*
X270292Y664750D01*
X269949Y662139D01*
Y661885D01*
X270154Y660323D01*
X269317Y659368D01*
X260289D01*
Y661774D01*
X260535Y662020D01*
X261654Y663958D01*
X262212Y666040D01*
X263299Y666491D01*
X264994Y667791D01*
X266294Y669485D01*
X267111Y671458D01*
X267390Y673576D01*
Y692095D01*
X267111Y694212D01*
X266294Y696185D01*
X264994Y697879D01*
X263299Y699180D01*
X262579Y699478D01*
X262831Y700748D01*
X266024D01*
Y702110D01*
X274996D01*
Y697500D01*
D02*
G37*
G36*
X313865Y699972D02*
X312714Y699821D01*
X310741Y699003D01*
X309047Y697703D01*
X307747Y696009D01*
X306930Y694036D01*
X306651Y691919D01*
Y673399D01*
X306930Y671282D01*
X307267Y670468D01*
Y667355D01*
X307525Y665397D01*
X308281Y663573D01*
X309483Y662006D01*
X312412Y659077D01*
X312639Y658903D01*
X312722Y657635D01*
X310506Y655419D01*
X309180Y653435D01*
X308836Y651708D01*
X306721D01*
Y645409D01*
X305451Y645242D01*
X305035Y646795D01*
X303784Y648961D01*
X302016Y650730D01*
X300238Y651756D01*
X299850Y653164D01*
X300956Y654270D01*
X301998Y655628D01*
X302653Y657209D01*
X302877Y658906D01*
Y701242D01*
X313781D01*
X313865Y699972D01*
D02*
G37*
G36*
X572451Y636009D02*
X572401Y635757D01*
X571166Y634522D01*
X570047Y632584D01*
X569468Y630422D01*
Y628184D01*
X570047Y626022D01*
X571166Y624084D01*
X572748Y622501D01*
X574687Y621382D01*
X576848Y620803D01*
X579087D01*
X580321Y621133D01*
X580458Y621112D01*
X581501Y620135D01*
X581360Y619427D01*
Y615917D01*
X581787Y613773D01*
X583001Y611955D01*
X584819Y610741D01*
X586963Y610314D01*
X604473D01*
X606617Y610741D01*
X607851Y611565D01*
X614568D01*
X617014Y612052D01*
X619088Y613438D01*
X636239Y630588D01*
X637870Y630753D01*
X642472Y626152D01*
X642507Y625793D01*
X591144Y574430D01*
X585687D01*
X584914Y575437D01*
X585080Y576057D01*
Y578295D01*
X584501Y580457D01*
X583382Y582395D01*
X581799Y583978D01*
X579861Y585097D01*
X577699Y585676D01*
X575461D01*
X573299Y585097D01*
X571361Y583978D01*
X570677Y583294D01*
X545291D01*
X544805Y584467D01*
X560780Y600442D01*
X561259Y600313D01*
X563365D01*
X565400Y600858D01*
X567224Y601912D01*
X568714Y603401D01*
X569767Y605225D01*
X570312Y607260D01*
Y609366D01*
X569767Y611401D01*
X568714Y613225D01*
X567224Y614715D01*
X565400Y615768D01*
X563365Y616313D01*
X561259D01*
X559224Y615768D01*
X557400Y614715D01*
X555910Y613225D01*
X555269Y612114D01*
X554909Y611874D01*
X554196Y611160D01*
X552809Y611357D01*
X552382Y612145D01*
X552875Y612998D01*
X553454Y615160D01*
Y617398D01*
X554658Y617813D01*
X556348Y618266D01*
X558286Y619386D01*
X559869Y620968D01*
X560988Y622906D01*
X561567Y625068D01*
Y627306D01*
X560988Y629468D01*
X559869Y631406D01*
X558313Y632962D01*
X562631Y637279D01*
X571651D01*
X572451Y636009D01*
D02*
G37*
G36*
X126808Y607410D02*
X127463Y605829D01*
X128505Y604471D01*
X201075Y531900D01*
X202433Y530858D01*
X204014Y530203D01*
X205711Y529980D01*
X278970D01*
X282242Y526708D01*
Y520280D01*
X282465Y518583D01*
X283120Y517002D01*
X284162Y515644D01*
X292848Y506958D01*
X294206Y505916D01*
X295787Y505262D01*
X296654Y505147D01*
X297463Y503850D01*
X297461Y503778D01*
X297260Y503291D01*
X297172Y502626D01*
X185695D01*
X130182Y558139D01*
X130347Y559398D01*
X130441Y559452D01*
X132024Y561035D01*
X133143Y562973D01*
X133722Y565135D01*
Y567373D01*
X133143Y569535D01*
X132024Y571473D01*
X130441Y573056D01*
X128503Y574175D01*
X126341Y574754D01*
X124103D01*
X121941Y574175D01*
X120003Y573056D01*
X118420Y571473D01*
X118366Y571380D01*
X117107Y571214D01*
X102715Y585606D01*
X103435Y586682D01*
X105644Y585767D01*
X108907Y585337D01*
X112170Y585767D01*
X115211Y587026D01*
X117822Y589030D01*
X121632Y592840D01*
X123636Y595451D01*
X124895Y598492D01*
X125325Y601755D01*
Y609081D01*
X126584Y609107D01*
X126808Y607410D01*
D02*
G37*
G36*
X217757Y639972D02*
Y600513D01*
X217980Y598817D01*
X218635Y597235D01*
X219677Y595878D01*
X227713Y587841D01*
X227227Y586668D01*
X224442D01*
Y566668D01*
X257142D01*
Y570112D01*
X270126D01*
X270126Y570112D01*
X298987D01*
Y559717D01*
X297754Y558853D01*
X297099Y559125D01*
X295402Y559348D01*
X224966D01*
X193500Y590814D01*
Y610356D01*
X196944D01*
Y623056D01*
Y626300D01*
X199710D01*
X201407Y626523D01*
X202988Y627178D01*
X204346Y628220D01*
X216583Y640458D01*
X217757Y639972D01*
D02*
G37*
G36*
X476667Y576467D02*
X471766Y571566D01*
X470440Y569581D01*
X469974Y567240D01*
Y550503D01*
X469395Y550426D01*
X468592Y550094D01*
X467789Y550426D01*
X466092Y550650D01*
X464395Y550426D01*
X463592Y550094D01*
X462789Y550426D01*
X462210Y550503D01*
Y568572D01*
X462310Y568648D01*
X464416D01*
X466451Y569193D01*
X468275Y570247D01*
X469765Y571736D01*
X470818Y573560D01*
X471363Y575595D01*
Y577701D01*
X471390Y577737D01*
X476141D01*
X476667Y576467D01*
D02*
G37*
G36*
X800985Y541020D02*
X786361Y526396D01*
X784758Y524307D01*
X783750Y521875D01*
X783407Y519264D01*
X783750Y516654D01*
X784758Y514221D01*
X786361Y512132D01*
X787670Y511127D01*
X787239Y509857D01*
X783205D01*
Y504944D01*
X761691D01*
X759465Y507170D01*
X665000D01*
Y510232D01*
X635009D01*
X634523Y511405D01*
X649978Y526861D01*
X665000D01*
Y529424D01*
X765000D01*
Y528131D01*
X772162D01*
X774503Y528596D01*
X776488Y529922D01*
X794256Y547691D01*
X800985D01*
Y541020D01*
D02*
G37*
G36*
X602365Y550144D02*
X593901Y541680D01*
X573067D01*
X570726Y541215D01*
X568741Y539889D01*
X541315Y512462D01*
X539974Y512917D01*
X539925Y513291D01*
X539269Y514872D01*
X538228Y516230D01*
X536870Y517272D01*
X536883Y518641D01*
X538172Y519386D01*
X539755Y520969D01*
X540874Y522907D01*
X541453Y525069D01*
Y527307D01*
X540874Y529468D01*
X539755Y531407D01*
X538172Y532989D01*
X536234Y534108D01*
X534072Y534688D01*
X532842D01*
X528110Y539420D01*
X526125Y540746D01*
X523784Y541211D01*
X512648D01*
Y544094D01*
X512425Y545791D01*
X511770Y547372D01*
X510728Y548730D01*
X509370Y549771D01*
X508704Y550047D01*
X508957Y551317D01*
X601879D01*
X602365Y550144D01*
D02*
G37*
G36*
X454536Y519378D02*
Y510736D01*
X454759Y509039D01*
X455414Y507458D01*
X456456Y506100D01*
X462886Y499671D01*
X463351Y497934D01*
X464404Y496110D01*
X465894Y494621D01*
X467718Y493568D01*
X469741Y493025D01*
X469306Y491401D01*
Y489294D01*
X469851Y487260D01*
X470904Y485435D01*
X472393Y483946D01*
X474218Y482893D01*
X474743Y482752D01*
X475072Y481525D01*
X452112Y458566D01*
X450786Y456581D01*
X450321Y454240D01*
Y446935D01*
X449636Y446251D01*
X448517Y444313D01*
X447938Y442151D01*
Y439913D01*
X448517Y437751D01*
X449636Y435813D01*
X451219Y434230D01*
X453157Y433111D01*
X455319Y432532D01*
X457557D01*
X459719Y433111D01*
X461657Y434230D01*
X463240Y435813D01*
X464359Y437751D01*
X464938Y439913D01*
Y442151D01*
X464359Y444313D01*
X463240Y446251D01*
X462556Y446935D01*
Y451706D01*
X487920Y477070D01*
X489534Y476889D01*
X490316Y475718D01*
X493150Y472884D01*
Y471917D01*
X493729Y469755D01*
X494848Y467817D01*
X496431Y466234D01*
X498369Y465115D01*
X500531Y464536D01*
X502769D01*
X504931Y465115D01*
X506869Y466234D01*
X507835Y467200D01*
X509037Y466606D01*
X509036Y466594D01*
X509259Y464897D01*
X509592Y464094D01*
X509259Y463291D01*
X509036Y461594D01*
X509259Y459897D01*
X509914Y458316D01*
X510956Y456958D01*
Y456230D01*
X509914Y454872D01*
X509259Y453291D01*
X509036Y451594D01*
X509259Y449897D01*
X509592Y449094D01*
X509259Y448291D01*
X509036Y446594D01*
X509259Y444897D01*
X509592Y444094D01*
X509259Y443291D01*
X509036Y441594D01*
X509259Y439897D01*
X509592Y439094D01*
X509259Y438291D01*
X509036Y436594D01*
X509123Y435928D01*
X507983Y434862D01*
X506202Y435097D01*
X503592Y434753D01*
X501159Y433745D01*
X499070Y432142D01*
X485374Y418446D01*
X483771Y416357D01*
X482763Y413924D01*
X482420Y411314D01*
Y406742D01*
X482763Y404132D01*
X483771Y401699D01*
X485374Y399610D01*
X487463Y398007D01*
X489896Y396999D01*
X492506Y396656D01*
X495117Y396999D01*
X497549Y398007D01*
X499638Y399610D01*
X501241Y401699D01*
X502249Y404132D01*
X502592Y406742D01*
Y407136D01*
X507862Y412405D01*
X509064Y411812D01*
X509036Y411594D01*
X509259Y409897D01*
X509592Y409094D01*
X509259Y408291D01*
X509036Y406594D01*
X509259Y404897D01*
X509592Y404094D01*
X509259Y403291D01*
X509036Y401594D01*
X509259Y399897D01*
X509592Y399094D01*
X509259Y398291D01*
X509036Y396594D01*
X509259Y394897D01*
X509592Y394094D01*
X509259Y393291D01*
X509036Y391594D01*
X509259Y389897D01*
X509592Y389094D01*
X509259Y388291D01*
X509036Y386594D01*
X509259Y384897D01*
X509474Y384380D01*
X509027Y383468D01*
X507695Y383120D01*
X506086Y384049D01*
X504052Y384594D01*
X501945D01*
X499910Y384049D01*
X498086Y382996D01*
X496597Y381506D01*
X495544Y379682D01*
X494998Y377648D01*
Y375541D01*
X495544Y373506D01*
X496597Y371682D01*
X498086Y370193D01*
X499910Y369140D01*
X501945Y368594D01*
X504052D01*
X506086Y369140D01*
X507696Y370069D01*
X509027Y369721D01*
X509474Y368809D01*
X509259Y368291D01*
X509036Y366594D01*
X509226Y365146D01*
X508682Y364601D01*
X508126Y364315D01*
X506709Y365133D01*
X504547Y365712D01*
X502309D01*
X500147Y365133D01*
X498209Y364014D01*
X496783Y362588D01*
X495399Y362534D01*
X461747Y396186D01*
X459762Y397512D01*
X457421Y397977D01*
X405381D01*
X403040Y397512D01*
X401056Y396186D01*
X388265Y383396D01*
X367792D01*
X365451Y382930D01*
X363466Y381604D01*
X338430Y356568D01*
X337463D01*
X335301Y355989D01*
X333363Y354870D01*
X331780Y353287D01*
X330661Y351349D01*
X330082Y349187D01*
Y346949D01*
X330661Y344787D01*
X331780Y342849D01*
X333363Y341266D01*
X335301Y340147D01*
X336223Y339900D01*
X336092Y338650D01*
X334395Y338427D01*
X333592Y338094D01*
X332789Y338427D01*
X331092Y338650D01*
X330218Y338535D01*
X328948Y339524D01*
Y342988D01*
X328560Y344939D01*
X328034Y345726D01*
X328148Y346594D01*
X327925Y348291D01*
X327592Y349094D01*
X327925Y349897D01*
X328148Y351594D01*
X327925Y353291D01*
X327592Y354094D01*
X327925Y354897D01*
X328148Y356594D01*
X327925Y358291D01*
X327592Y359094D01*
X327925Y359897D01*
X328148Y361594D01*
X327925Y363291D01*
X327592Y364094D01*
X327925Y364897D01*
X328148Y366594D01*
X327925Y368291D01*
X327836Y368504D01*
X328245Y369316D01*
X329675Y369712D01*
X330729Y369103D01*
X332891Y368524D01*
X335129D01*
X337291Y369103D01*
X339229Y370222D01*
X340812Y371805D01*
X341931Y373743D01*
X342510Y375905D01*
Y378143D01*
X341931Y380305D01*
X340812Y382243D01*
X339229Y383826D01*
X337291Y384945D01*
X335129Y385524D01*
X334551D01*
X333960Y386114D01*
X331886Y387500D01*
X329440Y387987D01*
X328144D01*
X327596Y389104D01*
X327925Y389897D01*
X328148Y391594D01*
X327925Y393291D01*
X327270Y394872D01*
X326228Y396230D01*
Y396958D01*
X327270Y398316D01*
X327925Y399897D01*
X328148Y401594D01*
X327925Y403291D01*
X327592Y404094D01*
X327925Y404897D01*
X328148Y406594D01*
X327925Y408291D01*
X327592Y409094D01*
X327925Y409897D01*
X328148Y411594D01*
X327925Y413291D01*
X327592Y414094D01*
X327925Y414897D01*
X328148Y416594D01*
X327925Y418291D01*
X327596Y419084D01*
X328144Y420201D01*
X331816D01*
X334263Y420688D01*
X334502Y420848D01*
X336653D01*
X338815Y421427D01*
X340753Y422546D01*
X342336Y424129D01*
X343455Y426067D01*
X344034Y428229D01*
Y430467D01*
X343455Y432629D01*
X342824Y433721D01*
X343117Y434583D01*
X345206Y436186D01*
X346809Y438275D01*
X347817Y440708D01*
X348160Y443318D01*
Y469954D01*
X348219Y470404D01*
X347876Y473014D01*
X346868Y475447D01*
X345811Y476824D01*
X346437Y478094D01*
X352016D01*
X354357Y478560D01*
X356342Y479886D01*
X362720Y486264D01*
X364046Y488248D01*
X364511Y490590D01*
Y502854D01*
X365782Y503703D01*
X366451Y503425D01*
X369062Y503082D01*
X371673Y503425D01*
X374105Y504433D01*
X376194Y506036D01*
X380766Y510608D01*
X381389Y511420D01*
X382649Y511255D01*
X383128Y510098D01*
X384731Y508009D01*
X386819Y506406D01*
X389252Y505398D01*
X391863Y505054D01*
X400006D01*
X402616Y505398D01*
X405049Y506406D01*
X407138Y508009D01*
X409186Y510056D01*
X410652Y509942D01*
X410764Y509863D01*
X411282Y508965D01*
X412865Y507382D01*
X414803Y506263D01*
X415982Y505947D01*
X416084Y505741D01*
X415740Y503131D01*
Y500468D01*
X416084Y497858D01*
X417092Y495425D01*
X418695Y493336D01*
X420784Y491733D01*
X423216Y490725D01*
X425827Y490382D01*
X428437Y490725D01*
X430870Y491733D01*
X432959Y493336D01*
X434562Y495425D01*
X435569Y497858D01*
X435683Y498723D01*
X437408Y500448D01*
X439011Y502537D01*
X439533Y503796D01*
X441990Y503473D01*
X444600Y503816D01*
X447033Y504824D01*
X449122Y506427D01*
X450725Y508516D01*
X451732Y510948D01*
X452076Y513559D01*
Y518218D01*
X451889Y519643D01*
X452789Y519761D01*
X453374Y520004D01*
X454536Y519378D01*
D02*
G37*
G36*
X570620Y517012D02*
Y516113D01*
X571199Y513951D01*
X572318Y512013D01*
X573901Y510430D01*
X575839Y509311D01*
X576527Y509127D01*
X581587Y504067D01*
Y502457D01*
X578781Y499651D01*
X553122D01*
X552636Y500824D01*
X569350Y517538D01*
X570620Y517012D01*
D02*
G37*
G36*
X783205Y487797D02*
Y471775D01*
X783410D01*
Y467194D01*
X783753Y464584D01*
X784067Y463826D01*
X783362Y462770D01*
X713530D01*
X713044Y463943D01*
X725097Y475996D01*
X725743Y475728D01*
Y475728D01*
X766143D01*
Y492709D01*
X783205D01*
Y487797D01*
D02*
G37*
G36*
X720188Y496824D02*
X698052Y474687D01*
X691887D01*
X691335Y475728D01*
Y497997D01*
X719702D01*
X720188Y496824D01*
D02*
G37*
G36*
X745641Y385019D02*
X743221Y382599D01*
X671859D01*
X638461Y415997D01*
X638947Y417170D01*
X695558D01*
X697899Y417636D01*
X699883Y418962D01*
X711085Y430163D01*
X712411Y432148D01*
X712877Y434489D01*
Y436770D01*
X717652D01*
X718524Y435500D01*
X718143Y434075D01*
Y431837D01*
X718722Y429675D01*
X719841Y427737D01*
X721424Y426155D01*
X723362Y425036D01*
X725524Y424456D01*
X727762D01*
X729924Y425036D01*
X731862Y426155D01*
X733445Y427737D01*
X734564Y429675D01*
X735143Y431837D01*
Y434075D01*
X734761Y435500D01*
X735634Y436770D01*
X745641D01*
Y385019D01*
D02*
G37*
G36*
X657382Y379772D02*
X656896Y378599D01*
X654866D01*
X612405Y421060D01*
X610421Y422386D01*
X608080Y422852D01*
X569557D01*
Y433476D01*
X603678D01*
X657382Y379772D01*
D02*
G37*
G36*
X458449Y370864D02*
X458214Y369635D01*
X458047Y369471D01*
X456302Y368463D01*
X456018Y368179D01*
X445977D01*
X443635Y367713D01*
X441651Y366387D01*
X416936Y341673D01*
X416250Y341803D01*
X415667Y342143D01*
Y356255D01*
X422839Y363428D01*
X422839Y363428D01*
X430395Y370983D01*
X431204D01*
X431821Y370627D01*
X433983Y370048D01*
X436221D01*
X438383Y370627D01*
X440321Y371746D01*
X441904Y373329D01*
X443023Y375267D01*
X443602Y377429D01*
Y378931D01*
X450383D01*
X458449Y370864D01*
D02*
G37*
G36*
X489581Y339732D02*
X489469Y338947D01*
X489253Y338368D01*
X487814Y337772D01*
X487005Y337151D01*
X486092Y336850D01*
X485179Y337151D01*
X484370Y337772D01*
X482789Y338427D01*
X481092Y338650D01*
X479395Y338427D01*
X478592Y338094D01*
X477789Y338427D01*
X476092Y338650D01*
X474395Y338427D01*
X473592Y338094D01*
X472789Y338427D01*
X471092Y338650D01*
X469395Y338427D01*
X468592Y338094D01*
X467789Y338427D01*
X466092Y338650D01*
X464395Y338427D01*
X463592Y338094D01*
X462789Y338427D01*
X461092Y338650D01*
X459395Y338427D01*
X458592Y338094D01*
X457789Y338427D01*
X456092Y338650D01*
X454395Y338427D01*
X453592Y338094D01*
X452789Y338427D01*
X451092Y338650D01*
X449395Y338427D01*
X448592Y338094D01*
X447789Y338427D01*
X446092Y338650D01*
X444395Y338427D01*
X443592Y338094D01*
X442789Y338427D01*
X441092Y338650D01*
X439395Y338427D01*
X438592Y338094D01*
X437789Y338427D01*
X436092Y338650D01*
X434395Y338427D01*
X433784Y338174D01*
X432763Y338607D01*
X432442Y339876D01*
X448511Y355944D01*
X456018D01*
X456302Y355660D01*
X458126Y354607D01*
X460161Y354062D01*
X462267D01*
X464302Y354607D01*
X466126Y355660D01*
X467616Y357149D01*
X468623Y358894D01*
X468788Y359061D01*
X470017Y359296D01*
X489581Y339732D01*
D02*
G37*
G36*
X598969Y349009D02*
X598483Y347836D01*
X564113D01*
Y360476D01*
X587502D01*
X598969Y349009D01*
D02*
G37*
G36*
X508321Y349982D02*
X509405Y349505D01*
X509437Y349468D01*
X509592Y349094D01*
X509259Y348291D01*
X509036Y346594D01*
X509259Y344897D01*
X509914Y343316D01*
X510956Y341958D01*
X512314Y340916D01*
X513895Y340261D01*
X515592Y340038D01*
X533592D01*
X535289Y340261D01*
X535808Y340476D01*
X536833D01*
X557443Y319866D01*
X557995Y319497D01*
X557610Y318227D01*
X522021D01*
X514860Y325388D01*
X512875Y326714D01*
X512648Y326760D01*
Y332094D01*
X512425Y333791D01*
X511770Y335372D01*
X510728Y336730D01*
X509370Y337772D01*
X507789Y338427D01*
X507210Y338503D01*
Y348189D01*
X507011Y349190D01*
X507988Y350013D01*
X508321Y349982D01*
D02*
G37*
G36*
X636823Y305499D02*
X638807Y304173D01*
X641149Y303707D01*
X690776D01*
X695720Y298763D01*
Y281486D01*
X692512Y278278D01*
X691186Y276293D01*
X690720Y273952D01*
Y270770D01*
X665338D01*
Y245620D01*
X664068Y245453D01*
X663872Y246184D01*
X662753Y248122D01*
X661170Y249705D01*
X659232Y250824D01*
X657070Y251403D01*
X654832D01*
X652670Y250824D01*
X650732Y249705D01*
X649149Y248122D01*
X648030Y246184D01*
X647451Y244022D01*
Y241784D01*
X648030Y239622D01*
X649149Y237684D01*
X649395Y237438D01*
Y229812D01*
X641608Y222025D01*
X640872Y222263D01*
X640398Y222611D01*
Y224655D01*
X639818Y226817D01*
X639403Y227537D01*
X639990Y228555D01*
X640570Y230716D01*
Y232955D01*
X639990Y235116D01*
X639353Y236220D01*
X639818Y237026D01*
X640398Y239188D01*
Y241426D01*
X639818Y243588D01*
X638699Y245526D01*
X637117Y247109D01*
X635178Y248228D01*
X633017Y248807D01*
X630779D01*
X628617Y248228D01*
X626679Y247109D01*
X626633Y247064D01*
X625906Y247484D01*
X623744Y248063D01*
X621506D01*
X619344Y247484D01*
X617406Y246365D01*
X615823Y244782D01*
X614704Y242844D01*
X614125Y240682D01*
Y238444D01*
X614704Y236282D01*
X615823Y234344D01*
X617406Y232761D01*
X619344Y231642D01*
X621506Y231063D01*
X623570D01*
Y230716D01*
X624149Y228555D01*
X624565Y227834D01*
X623977Y226817D01*
X623398Y224655D01*
Y222417D01*
X623670Y221402D01*
X622695Y220132D01*
X600269D01*
X596198Y224203D01*
Y225444D01*
X595619Y227606D01*
X594500Y229545D01*
X592917Y231127D01*
X590979Y232246D01*
X588817Y232825D01*
X586579D01*
X584417Y232246D01*
X582479Y231127D01*
X580896Y229545D01*
X579777Y227606D01*
X579198Y225444D01*
Y223206D01*
X579346Y222654D01*
X578207Y221997D01*
X529641Y270564D01*
X530127Y271737D01*
X558332D01*
X558429Y271688D01*
X559277Y270563D01*
X558896Y269143D01*
Y267036D01*
X559442Y265002D01*
X560495Y263178D01*
X561984Y261688D01*
X563809Y260635D01*
X565843Y260090D01*
X567950D01*
X569984Y260635D01*
X571809Y261688D01*
X573298Y263178D01*
X574351Y265002D01*
X574896Y267036D01*
Y269143D01*
X574652Y270053D01*
Y275337D01*
X575917Y276985D01*
X576925Y279417D01*
X577268Y282028D01*
X576925Y284639D01*
X575917Y287071D01*
X574314Y289160D01*
X572225Y290763D01*
X569793Y291771D01*
X567182Y292114D01*
X559045D01*
Y292319D01*
X520963D01*
Y288146D01*
X518423D01*
X500193Y306376D01*
X500786Y307579D01*
X501092Y307538D01*
X502789Y307762D01*
X503592Y308094D01*
X504395Y307762D01*
X506092Y307538D01*
X507789Y307762D01*
X509370Y308417D01*
X510728Y309458D01*
X511146Y310003D01*
X512804Y310142D01*
X518366Y304579D01*
X520351Y303253D01*
X520572Y303209D01*
Y297645D01*
X558654D01*
Y297850D01*
X566674D01*
X569285Y298193D01*
X571717Y299201D01*
X573806Y300804D01*
X575409Y302893D01*
X576417Y305326D01*
X576760Y307936D01*
X576417Y310546D01*
X575409Y312979D01*
X573806Y315068D01*
X571717Y316671D01*
X571395Y316805D01*
X571647Y318074D01*
X583405D01*
X583988Y317492D01*
X585926Y316373D01*
X588088Y315794D01*
X590326D01*
X592488Y316373D01*
X594426Y317492D01*
X596008Y319075D01*
X597127Y321013D01*
X597707Y323175D01*
Y325413D01*
X597127Y327575D01*
X596008Y329513D01*
X594426Y331096D01*
X592488Y332215D01*
X590326Y332794D01*
X588088D01*
X585926Y332215D01*
X583988Y331096D01*
X583201Y330310D01*
X564302D01*
X560185Y334427D01*
X560671Y335601D01*
X606721D01*
X636823Y305499D01*
D02*
G37*
G36*
X296146Y331050D02*
X296534Y329099D01*
X297639Y327445D01*
X299293Y326340D01*
X301244Y325952D01*
X301520D01*
Y319324D01*
X274951D01*
X273254Y319101D01*
X271673Y318446D01*
X270315Y317404D01*
X264037Y311126D01*
X262767Y311229D01*
Y315527D01*
Y331549D01*
X242185D01*
Y329960D01*
X233454D01*
X233361Y330053D01*
Y340038D01*
X296146D01*
Y331050D01*
D02*
G37*
G36*
X740641Y301756D02*
Y270770D01*
X736262D01*
X736096Y270959D01*
Y272577D01*
X736139Y272651D01*
X736718Y274813D01*
Y277051D01*
X736139Y279213D01*
X735020Y281151D01*
X733437Y282734D01*
X731499Y283853D01*
X729337Y284432D01*
X727099D01*
X724937Y283853D01*
X722999Y282734D01*
X721416Y281151D01*
X720931Y280310D01*
X719344Y280101D01*
X717876Y281569D01*
Y305853D01*
X717411Y308194D01*
X716084Y310179D01*
X704113Y322150D01*
X702129Y323476D01*
X700982Y323704D01*
X701107Y324974D01*
X717423D01*
X740641Y301756D01*
D02*
G37*
G36*
X484062Y255011D02*
X483343Y253934D01*
X482335Y254351D01*
X479725Y254695D01*
X477114Y254351D01*
X474682Y253344D01*
X472593Y251741D01*
X470990Y249652D01*
X469982Y247219D01*
X469638Y244609D01*
X469974Y242062D01*
Y198940D01*
X470317Y196329D01*
X471325Y193897D01*
X472928Y191808D01*
X496618Y168118D01*
X498707Y166515D01*
X501139Y165507D01*
X503750Y165164D01*
X506361Y165507D01*
X508793Y166515D01*
X510882Y168118D01*
X512485Y170207D01*
X513493Y172640D01*
X513836Y175250D01*
X513493Y177861D01*
X512485Y180293D01*
X510882Y182382D01*
X490146Y203118D01*
Y211025D01*
X491362Y211394D01*
X491441Y211275D01*
X563044Y139672D01*
X562451Y138469D01*
X561679Y138571D01*
X543160D01*
X541042Y138292D01*
X539069Y137475D01*
X537809Y136508D01*
X535988D01*
X533647Y136042D01*
X531663Y134716D01*
X489556Y92609D01*
X488319Y93168D01*
Y108711D01*
Y130772D01*
X486881D01*
X486875Y132042D01*
X487116Y132283D01*
X488235Y134221D01*
X488814Y136383D01*
Y138621D01*
X488235Y140783D01*
X487116Y142721D01*
X485533Y144304D01*
X483595Y145423D01*
X481433Y146002D01*
X479195D01*
X477033Y145423D01*
X475095Y144304D01*
X473512Y142721D01*
X472393Y140783D01*
X471814Y138621D01*
Y136383D01*
X472393Y134221D01*
X473512Y132283D01*
X473753Y132042D01*
X473747Y130772D01*
X467737D01*
Y110860D01*
X462834D01*
Y122804D01*
Y132804D01*
Y142804D01*
Y152804D01*
Y162804D01*
Y172804D01*
Y182804D01*
Y192804D01*
Y197804D01*
Y210804D01*
X438383D01*
X437857Y212074D01*
X456291Y230509D01*
X457617Y232493D01*
X458083Y234834D01*
Y251381D01*
X457617Y253722D01*
X456291Y255706D01*
X455866Y256131D01*
Y256448D01*
X460334Y260916D01*
X461660Y262900D01*
X462126Y265241D01*
Y266341D01*
X462410Y266625D01*
X463463Y268449D01*
X464008Y270484D01*
Y272590D01*
X463760Y273516D01*
X464899Y274174D01*
X484062Y255011D01*
D02*
G37*
G36*
X416771Y277532D02*
Y243194D01*
X379457Y205880D01*
X377794Y205748D01*
X357004Y226538D01*
X357529Y227808D01*
X357989D01*
X360151Y228387D01*
X362089Y229506D01*
X362943Y230361D01*
X363049Y230290D01*
X365000Y229902D01*
X385000D01*
X386951Y230290D01*
X388470Y231305D01*
X389050D01*
Y232062D01*
X389710Y233049D01*
X390098Y235000D01*
Y262195D01*
X414450D01*
Y277657D01*
X414476Y277677D01*
X416582D01*
X416771Y277532D01*
D02*
G37*
G36*
X302493Y260334D02*
Y241218D01*
X302958Y238877D01*
X304284Y236893D01*
X329879Y211298D01*
X329659Y209722D01*
X328537Y209074D01*
X327584Y208120D01*
X326490Y207792D01*
X325910Y208169D01*
X324751Y209328D01*
X322813Y210447D01*
X320651Y211026D01*
X318413D01*
X316251Y210447D01*
X314313Y209328D01*
X312730Y207745D01*
X311611Y205807D01*
X311403Y205031D01*
X306437Y200065D01*
X305235Y198498D01*
X304479Y196674D01*
X304221Y194716D01*
Y166540D01*
X298750Y161069D01*
X286007D01*
X276391Y170684D01*
X274824Y171887D01*
X274020Y172220D01*
X272300Y173940D01*
X270942Y174982D01*
X270834Y175026D01*
Y182748D01*
X272963D01*
X273736Y181740D01*
X273430Y180596D01*
Y178358D01*
X274009Y176196D01*
X275128Y174258D01*
X276711Y172675D01*
X278649Y171556D01*
X280811Y170977D01*
X283049D01*
X285211Y171556D01*
X287149Y172675D01*
X288731Y174258D01*
X289851Y176196D01*
X290430Y178358D01*
Y180596D01*
X289851Y182758D01*
X288731Y184696D01*
X288296Y185132D01*
X288098Y186637D01*
X287443Y188218D01*
X286401Y189576D01*
X282036Y193940D01*
X280679Y194982D01*
X279098Y195637D01*
X277401Y195860D01*
X270834D01*
Y210804D01*
X252785D01*
X252573Y212074D01*
X301319Y260820D01*
X302493Y260334D01*
D02*
G37*
G36*
X695281Y242903D02*
X678726D01*
Y225912D01*
X672084D01*
X670133Y225524D01*
X668479Y224419D01*
X667374Y222765D01*
X666986Y220814D01*
Y205538D01*
X666913Y205360D01*
X666569Y202750D01*
Y191829D01*
X666913Y189218D01*
X666986Y189041D01*
Y168661D01*
X667173Y167720D01*
X667348Y166775D01*
X667367Y166745D01*
X667374Y166710D01*
X667907Y165912D01*
X668430Y165107D01*
X668459Y165086D01*
X668479Y165056D01*
X669278Y164523D01*
X670068Y163979D01*
X670103Y163971D01*
X670133Y163951D01*
X671075Y163764D01*
X672014Y163564D01*
X690500Y163309D01*
Y162103D01*
X691045Y160068D01*
X692098Y158244D01*
X693588Y156754D01*
X695412Y155701D01*
X697148Y155236D01*
X712518Y139866D01*
Y94830D01*
X712741Y93133D01*
X713396Y91552D01*
X714438Y90194D01*
X724339Y80293D01*
X724822Y79922D01*
X724906Y78655D01*
X717076Y70826D01*
X716683Y70868D01*
X715806Y71286D01*
Y75862D01*
X715583Y77559D01*
X714928Y79140D01*
X713886Y80498D01*
X711319Y83065D01*
X709961Y84107D01*
X708380Y84762D01*
X706683Y84985D01*
X702815D01*
Y86684D01*
X702518Y88179D01*
X702815Y89674D01*
Y93184D01*
X702518Y94679D01*
X702815Y96174D01*
Y99684D01*
X702518Y101179D01*
X702815Y102674D01*
Y106184D01*
X702518Y107679D01*
X702815Y109174D01*
Y112684D01*
X702518Y114179D01*
X702815Y115674D01*
Y119184D01*
X702518Y120679D01*
X702815Y122174D01*
Y125684D01*
X702389Y127828D01*
X701174Y129646D01*
X699357Y130860D01*
X697212Y131286D01*
X679703D01*
X677619Y130872D01*
X677395Y130858D01*
X676349Y131513D01*
Y145718D01*
X676125Y147414D01*
X675470Y148996D01*
X674428Y150353D01*
X672976Y151806D01*
Y152399D01*
X672431Y154434D01*
X671377Y156258D01*
X669888Y157748D01*
X668064Y158801D01*
X666029Y159346D01*
X663923D01*
X661888Y158801D01*
X660064Y157748D01*
X658574Y156258D01*
X657521Y154434D01*
X656976Y152399D01*
Y150293D01*
X657521Y148258D01*
X658574Y146434D01*
X660064Y144944D01*
X661888Y143891D01*
X662515Y143723D01*
X663236Y143002D01*
Y134852D01*
X661966Y134511D01*
X661648Y135063D01*
X660158Y136553D01*
X658334Y137606D01*
X656299Y138151D01*
X654193D01*
X652158Y137606D01*
X650334Y136553D01*
X648845Y135063D01*
X647791Y133239D01*
X647246Y131205D01*
Y129098D01*
X647791Y127064D01*
X648690Y125507D01*
Y103389D01*
X647517Y102903D01*
X630737Y119683D01*
Y166934D01*
X630271Y169275D01*
X628945Y171259D01*
X592692Y207512D01*
X593531Y208469D01*
X594275Y207898D01*
X595856Y207243D01*
X597553Y207020D01*
X642430D01*
X644127Y207243D01*
X645708Y207898D01*
X647066Y208940D01*
X660587Y222461D01*
X661629Y223819D01*
X662284Y225400D01*
X662507Y227097D01*
Y237438D01*
X662753Y237684D01*
X663872Y239622D01*
X664451Y241784D01*
Y243867D01*
X664898Y244322D01*
X665565Y244770D01*
X695281D01*
Y242903D01*
D02*
G37*
G36*
X436834Y209255D02*
Y198484D01*
X435701Y197473D01*
X435164Y197617D01*
X432926D01*
X430764Y197038D01*
X428825Y195919D01*
X427243Y194336D01*
X426124Y192398D01*
X425742Y190971D01*
X422119Y187348D01*
X420917Y185782D01*
X420161Y183957D01*
X419903Y181999D01*
Y160122D01*
X420161Y158164D01*
X420917Y156340D01*
X422119Y154773D01*
X427784Y149108D01*
X429350Y147906D01*
X431175Y147150D01*
X433133Y146893D01*
X435091Y147150D01*
X435564Y147346D01*
X436834Y146498D01*
Y142902D01*
X436733Y142496D01*
X435879Y141747D01*
X434952Y141869D01*
X432994Y141611D01*
X431170Y140855D01*
X429603Y139653D01*
X426058Y136108D01*
X420268D01*
X419505Y136424D01*
X417547Y136682D01*
X416674D01*
X414716Y136424D01*
X413809Y136049D01*
X412539Y136897D01*
Y186756D01*
X435564Y209781D01*
X436834Y209255D01*
D02*
G37*
G36*
X741536Y219908D02*
X740917Y183516D01*
X739855Y181677D01*
X739276Y179515D01*
Y177277D01*
X739855Y175115D01*
X740748Y173570D01*
X740664Y168661D01*
X739731Y167728D01*
X704759Y168211D01*
X703412Y169558D01*
X701588Y170611D01*
X699553Y171156D01*
X697447D01*
X695412Y170611D01*
X693588Y169558D01*
X692411Y168381D01*
X672084Y168661D01*
Y220814D01*
X740646D01*
X741536Y219908D01*
D02*
G37*
G36*
X229918Y163287D02*
X225835D01*
Y150421D01*
X214922D01*
Y177190D01*
X229918D01*
Y163287D01*
D02*
G37*
G36*
X327378Y196629D02*
X328537Y195470D01*
X330475Y194351D01*
X332637Y193772D01*
X334875D01*
X336029Y194081D01*
X337037Y193308D01*
Y142443D01*
X335766Y141764D01*
X334827Y142392D01*
X332486Y142858D01*
X291047D01*
X290948Y142987D01*
Y145225D01*
X291496Y145939D01*
X301884D01*
X303841Y146197D01*
X305666Y146953D01*
X307233Y148155D01*
X317135Y158057D01*
X317135Y158057D01*
X318337Y159624D01*
X319093Y161448D01*
X319351Y163406D01*
X319351Y163407D01*
Y191582D01*
X322213Y194445D01*
X322813Y194605D01*
X324751Y195724D01*
X325704Y196678D01*
X326798Y197006D01*
X327378Y196629D01*
D02*
G37*
G36*
X612048Y165196D02*
Y126564D01*
X611093Y125727D01*
X610000Y125871D01*
X591481D01*
X589364Y125592D01*
X587391Y124775D01*
X587357Y124749D01*
X586087Y125375D01*
Y145796D01*
X585622Y148137D01*
X584295Y150122D01*
X554217Y180200D01*
X554546Y181427D01*
X554996Y181547D01*
X556934Y182666D01*
X558516Y184249D01*
X559636Y186187D01*
X560215Y188349D01*
Y190587D01*
X559636Y192749D01*
X558516Y194687D01*
X557832Y195371D01*
Y217753D01*
X559006Y218239D01*
X612048Y165196D01*
D02*
G37*
G36*
X325835Y129649D02*
X326954Y127711D01*
X328537Y126128D01*
X330475Y125009D01*
X332637Y124430D01*
X334875D01*
X334973Y124456D01*
X336256Y123546D01*
X336293Y123037D01*
X333358Y120101D01*
X300185D01*
X298576Y120422D01*
X287150D01*
X286515Y121521D01*
X286808Y122029D01*
X287387Y124191D01*
Y126429D01*
X286808Y128591D01*
X286368Y129352D01*
X287102Y130623D01*
X325574D01*
X325835Y129649D01*
D02*
G37*
G36*
X430996Y119935D02*
X430803Y119855D01*
X429236Y118653D01*
X428034Y117086D01*
X427278Y115262D01*
X427020Y113304D01*
Y97443D01*
X427278Y95485D01*
X427643Y94605D01*
Y94225D01*
X428222Y92063D01*
X429341Y90125D01*
X429445Y90020D01*
X428959Y88847D01*
X421232D01*
X418891Y88381D01*
X416906Y87055D01*
X414913Y85062D01*
X413643Y85588D01*
Y85931D01*
X401164D01*
X400678Y87104D01*
X410840Y97267D01*
X412167Y99251D01*
X412632Y101593D01*
Y108297D01*
X412539Y108766D01*
Y118027D01*
X413809Y119001D01*
X414880Y118714D01*
X417118D01*
X419280Y119293D01*
X421218Y120412D01*
X421785Y120979D01*
X429191D01*
X430664Y121173D01*
X430996Y119935D01*
D02*
G37*
G36*
X368344Y190424D02*
Y122034D01*
X363711Y117400D01*
X362538Y117886D01*
Y194571D01*
X363711Y195057D01*
X368344Y190424D01*
D02*
G37*
G36*
X298896Y107866D02*
X334466D01*
X334581Y107806D01*
X335389Y106596D01*
X335028Y105250D01*
Y103144D01*
X335573Y101109D01*
X336626Y99285D01*
X337712Y98199D01*
X300787Y61273D01*
X269995D01*
X269603Y62544D01*
X270816Y63756D01*
X271869Y65580D01*
X272414Y67615D01*
Y69721D01*
X271869Y71756D01*
X270816Y73580D01*
X269326Y75070D01*
X267502Y76123D01*
X265467Y76668D01*
X263361D01*
X261326Y76123D01*
X259502Y75070D01*
X258012Y73580D01*
X256959Y71756D01*
X256414Y69721D01*
Y67615D01*
X256959Y65580D01*
X258012Y63756D01*
X259225Y62544D01*
X258833Y61273D01*
X212624D01*
X210283Y60808D01*
X208298Y59482D01*
X208135Y59319D01*
X206962Y59805D01*
Y84617D01*
X208232Y85143D01*
X208649Y84726D01*
X210587Y83607D01*
X212749Y83028D01*
X214987D01*
X217149Y83607D01*
X219087Y84726D01*
X220670Y86309D01*
X221789Y88247D01*
X222368Y90409D01*
Y91376D01*
X224178Y93187D01*
X244834D01*
Y82804D01*
X257408D01*
X257834Y82748D01*
X268978D01*
X269404Y82804D01*
X270834D01*
Y83037D01*
X272256Y83626D01*
X273614Y84668D01*
X273664Y84718D01*
X273994D01*
X274240Y84472D01*
X276178Y83353D01*
X278340Y82774D01*
X280578D01*
X282740Y83353D01*
X284678Y84472D01*
X286261Y86055D01*
X287380Y87993D01*
X287959Y90155D01*
Y92393D01*
X287380Y94555D01*
X286261Y96493D01*
X284678Y98076D01*
X282740Y99195D01*
X280578Y99774D01*
X278340D01*
X276178Y99195D01*
X274240Y98076D01*
X273994Y97830D01*
X270948D01*
X270834Y97930D01*
Y108187D01*
X297287D01*
X298896Y107866D01*
D02*
G37*
G36*
X652513Y80603D02*
X654498Y79277D01*
X656839Y78811D01*
X657436D01*
X657922Y77638D01*
X648024Y67741D01*
X633909Y81857D01*
Y97412D01*
X635178Y97938D01*
X652513Y80603D01*
D02*
G37*
G36*
X355508Y73397D02*
Y72994D01*
X356054Y70959D01*
X357107Y69135D01*
X357768Y68473D01*
X320789Y31493D01*
X313605D01*
X313119Y32667D01*
X354335Y73883D01*
X355508Y73397D01*
D02*
G37*
G36*
X509924Y52929D02*
X513659D01*
Y46450D01*
X495080Y27871D01*
X486720D01*
Y47378D01*
X483624D01*
Y64085D01*
X484522Y65642D01*
X485068Y67676D01*
Y68612D01*
X509924D01*
Y52929D01*
D02*
G37*
G36*
X447077Y60348D02*
Y47378D01*
X443720D01*
Y27871D01*
X436720D01*
Y47378D01*
X433838D01*
Y48767D01*
X445904Y60834D01*
X447077Y60348D01*
D02*
G37*
%LPC*%
G36*
X94080Y807400D02*
X90920D01*
X87868Y806582D01*
X85132Y805002D01*
X82898Y802768D01*
X81318Y800032D01*
X80500Y796980D01*
Y793820D01*
X81318Y790768D01*
X82898Y788032D01*
X85132Y785798D01*
X87868Y784218D01*
X90920Y783400D01*
X94080D01*
X97132Y784218D01*
X99868Y785798D01*
X102102Y788032D01*
X103682Y790768D01*
X104500Y793820D01*
Y796980D01*
X103682Y800032D01*
X102102Y802768D01*
X99868Y805002D01*
X97132Y806582D01*
X94080Y807400D01*
D02*
G37*
G36*
X104500Y782000D02*
X80500D01*
Y758000D01*
X104500D01*
Y782000D01*
D02*
G37*
G36*
X34729Y768019D02*
X32097D01*
X29553Y767338D01*
X27273Y766021D01*
X25411Y764160D01*
X24095Y761879D01*
X23413Y759336D01*
Y756703D01*
X24095Y754160D01*
X25411Y751879D01*
X27273Y750018D01*
X29553Y748701D01*
X32097Y748020D01*
X34729D01*
X37273Y748701D01*
X39553Y750018D01*
X41415Y751879D01*
X42731Y754160D01*
X43413Y756703D01*
Y759336D01*
X42731Y761879D01*
X41415Y764160D01*
X39553Y766021D01*
X37273Y767338D01*
X34729Y768019D01*
D02*
G37*
G36*
X6961Y410924D02*
X4723D01*
X2561Y410345D01*
X623Y409226D01*
X-960Y407643D01*
X-2079Y405705D01*
X-2658Y403543D01*
Y401305D01*
X-2079Y399143D01*
X-960Y397205D01*
X623Y395622D01*
X2561Y394503D01*
X4723Y393924D01*
X6961D01*
X9123Y394503D01*
X11061Y395622D01*
X12644Y397205D01*
X13763Y399143D01*
X14342Y401305D01*
Y403543D01*
X13763Y405705D01*
X12644Y407643D01*
X11061Y409226D01*
X9123Y410345D01*
X6961Y410924D01*
D02*
G37*
G36*
X45569Y279800D02*
X43331D01*
X41169Y279221D01*
X39231Y278102D01*
X37648Y276519D01*
X36529Y274581D01*
X35950Y272419D01*
Y270181D01*
X36529Y268019D01*
X37648Y266081D01*
X39231Y264498D01*
X41169Y263379D01*
X43331Y262800D01*
X45569D01*
X47731Y263379D01*
X49669Y264498D01*
X51252Y266081D01*
X52371Y268019D01*
X52950Y270181D01*
Y272419D01*
X52371Y274581D01*
X51252Y276519D01*
X49669Y278102D01*
X47731Y279221D01*
X45569Y279800D01*
D02*
G37*
G36*
X793552Y162866D02*
X791314D01*
X789152Y162287D01*
X787214Y161168D01*
X785631Y159585D01*
X784512Y157647D01*
X783933Y155485D01*
Y153247D01*
X784512Y151085D01*
X785090Y150084D01*
X784603Y149242D01*
X784024Y147080D01*
Y144842D01*
X784603Y142680D01*
X785130Y141768D01*
X784329Y140380D01*
X783750Y138218D01*
Y135980D01*
X784329Y133819D01*
X785448Y131880D01*
X787031Y130298D01*
X788969Y129179D01*
X791131Y128600D01*
X793369D01*
X795531Y129179D01*
X797469Y130298D01*
X799052Y131880D01*
X800171Y133819D01*
X800750Y135980D01*
Y138218D01*
X800171Y140380D01*
X799644Y141293D01*
X800445Y142680D01*
X801024Y144842D01*
Y147080D01*
X800445Y149242D01*
X799867Y150243D01*
X800353Y151085D01*
X800933Y153247D01*
Y155485D01*
X800353Y157647D01*
X799234Y159585D01*
X797652Y161168D01*
X795714Y162287D01*
X793552Y162866D01*
D02*
G37*
G36*
X850566Y267470D02*
X826569D01*
Y73574D01*
X850566D01*
Y267470D01*
D02*
G37*
G36*
X791317Y80000D02*
X788683D01*
X786140Y79318D01*
X783860Y78002D01*
X781998Y76140D01*
X780682Y73860D01*
X780000Y71316D01*
Y68684D01*
X780682Y66140D01*
X781998Y63860D01*
X783860Y61998D01*
X786140Y60682D01*
X788683Y60000D01*
X791317D01*
X793860Y60682D01*
X796140Y61998D01*
X798002Y63860D01*
X799318Y66140D01*
X800000Y68684D01*
Y71316D01*
X799318Y73860D01*
X798002Y76140D01*
X796140Y78002D01*
X793860Y79318D01*
X791317Y80000D01*
D02*
G37*
G36*
X573786Y84858D02*
X571437Y84548D01*
X569247Y83642D01*
X567367Y82199D01*
X565924Y80319D01*
X565018Y78130D01*
X564708Y75780D01*
Y28801D01*
X565018Y26452D01*
X565924Y24263D01*
X567367Y22383D01*
X569644Y20106D01*
X571524Y18663D01*
X573713Y17756D01*
X576063Y17447D01*
X578412Y17756D01*
X580602Y18663D01*
X582482Y20106D01*
X583924Y21986D01*
X584831Y24175D01*
X585140Y26525D01*
X584831Y28874D01*
X583924Y31063D01*
X582864Y32446D01*
Y75780D01*
X582554Y78130D01*
X581647Y80319D01*
X580205Y82199D01*
X578325Y83642D01*
X576135Y84548D01*
X573786Y84858D01*
D02*
G37*
G36*
X746682Y45519D02*
X744332Y45210D01*
X742143Y44303D01*
X740263Y42860D01*
X738820Y40980D01*
X737913Y38791D01*
X737604Y36442D01*
X737672Y35922D01*
Y4660D01*
X737750Y4070D01*
Y-8000D01*
X755750D01*
Y4070D01*
X755828Y4660D01*
Y36373D01*
X755518Y38723D01*
X754611Y40912D01*
X753169Y42792D01*
X753101Y42860D01*
X751220Y44303D01*
X749031Y45210D01*
X746682Y45519D01*
D02*
G37*
G36*
X322680Y782000D02*
X319520D01*
X316468Y781182D01*
X313732Y779602D01*
X311498Y777368D01*
X309918Y774632D01*
X309100Y771580D01*
Y768420D01*
X309918Y765368D01*
X311498Y762632D01*
X313732Y760398D01*
X316468Y758818D01*
X319520Y758000D01*
X322680D01*
X325732Y758818D01*
X328468Y760398D01*
X330702Y762632D01*
X332282Y765368D01*
X333100Y768420D01*
Y771580D01*
X332282Y774632D01*
X330702Y777368D01*
X328468Y779602D01*
X325732Y781182D01*
X322680Y782000D01*
D02*
G37*
G36*
X221080D02*
X217920D01*
X214868Y781182D01*
X212132Y779602D01*
X209898Y777368D01*
X208318Y774632D01*
X207500Y771580D01*
Y768420D01*
X208318Y765368D01*
X209898Y762632D01*
X212132Y760398D01*
X214868Y758818D01*
X217920Y758000D01*
X221080D01*
X224132Y758818D01*
X226868Y760398D01*
X229102Y762632D01*
X230682Y765368D01*
X231500Y768420D01*
Y771580D01*
X230682Y774632D01*
X229102Y777368D01*
X226868Y779602D01*
X224132Y781182D01*
X221080Y782000D01*
D02*
G37*
G36*
X195680D02*
X192520D01*
X189468Y781182D01*
X186732Y779602D01*
X184498Y777368D01*
X182918Y774632D01*
X182100Y771580D01*
Y768420D01*
X182918Y765368D01*
X184498Y762632D01*
X186732Y760398D01*
X189468Y758818D01*
X192520Y758000D01*
X195680D01*
X198732Y758818D01*
X201468Y760398D01*
X203702Y762632D01*
X205282Y765368D01*
X206100Y768420D01*
Y771580D01*
X205282Y774632D01*
X203702Y777368D01*
X201468Y779602D01*
X198732Y781182D01*
X195680Y782000D01*
D02*
G37*
G36*
X729080Y807400D02*
X725920D01*
X722868Y806582D01*
X720132Y805002D01*
X717898Y802768D01*
X716318Y800032D01*
X715500Y796980D01*
Y793820D01*
X716318Y790768D01*
X717898Y788032D01*
X720132Y785798D01*
X722868Y784218D01*
X725920Y783400D01*
X729080D01*
X732132Y784218D01*
X734868Y785798D01*
X737102Y788032D01*
X738682Y790768D01*
X739500Y793820D01*
Y796980D01*
X738682Y800032D01*
X737102Y802768D01*
X734868Y805002D01*
X732132Y806582D01*
X729080Y807400D01*
D02*
G37*
G36*
X678280D02*
X675120D01*
X672068Y806582D01*
X669332Y805002D01*
X667098Y802768D01*
X665518Y800032D01*
X664700Y796980D01*
Y793820D01*
X665518Y790768D01*
X667098Y788032D01*
X669332Y785798D01*
X672068Y784218D01*
X675120Y783400D01*
X678280D01*
X681332Y784218D01*
X684068Y785798D01*
X686302Y788032D01*
X687882Y790768D01*
X688700Y793820D01*
Y796980D01*
X687882Y800032D01*
X686302Y802768D01*
X684068Y805002D01*
X681332Y806582D01*
X678280Y807400D01*
D02*
G37*
G36*
X652880D02*
X649720D01*
X646668Y806582D01*
X643932Y805002D01*
X641698Y802768D01*
X640118Y800032D01*
X639300Y796980D01*
Y793820D01*
X640118Y790768D01*
X641698Y788032D01*
X643932Y785798D01*
X646668Y784218D01*
X649720Y783400D01*
X652880D01*
X655932Y784218D01*
X658668Y785798D01*
X660902Y788032D01*
X662482Y790768D01*
X663300Y793820D01*
Y796980D01*
X662482Y800032D01*
X660902Y802768D01*
X658668Y805002D01*
X655932Y806582D01*
X652880Y807400D01*
D02*
G37*
G36*
X627480D02*
X624320D01*
X621268Y806582D01*
X618532Y805002D01*
X616298Y802768D01*
X614718Y800032D01*
X613900Y796980D01*
Y793820D01*
X614718Y790768D01*
X616298Y788032D01*
X618532Y785798D01*
X621268Y784218D01*
X624320Y783400D01*
X627480D01*
X630532Y784218D01*
X633268Y785798D01*
X635502Y788032D01*
X637082Y790768D01*
X637900Y793820D01*
Y796980D01*
X637082Y800032D01*
X635502Y802768D01*
X633268Y805002D01*
X630532Y806582D01*
X627480Y807400D01*
D02*
G37*
G36*
X602080D02*
X598920D01*
X595868Y806582D01*
X593132Y805002D01*
X590898Y802768D01*
X589318Y800032D01*
X588500Y796980D01*
Y793820D01*
X589318Y790768D01*
X590898Y788032D01*
X593132Y785798D01*
X595868Y784218D01*
X598920Y783400D01*
X602080D01*
X605132Y784218D01*
X607868Y785798D01*
X610102Y788032D01*
X611682Y790768D01*
X612500Y793820D01*
Y796980D01*
X611682Y800032D01*
X610102Y802768D01*
X607868Y805002D01*
X605132Y806582D01*
X602080Y807400D01*
D02*
G37*
G36*
X576680D02*
X573520D01*
X570468Y806582D01*
X567732Y805002D01*
X565498Y802768D01*
X563918Y800032D01*
X563100Y796980D01*
Y793820D01*
X563918Y790768D01*
X565498Y788032D01*
X567732Y785798D01*
X570468Y784218D01*
X573520Y783400D01*
X576680D01*
X579732Y784218D01*
X582468Y785798D01*
X584702Y788032D01*
X586282Y790768D01*
X587100Y793820D01*
Y796980D01*
X586282Y800032D01*
X584702Y802768D01*
X582468Y805002D01*
X579732Y806582D01*
X576680Y807400D01*
D02*
G37*
G36*
X551280D02*
X548120D01*
X545068Y806582D01*
X542332Y805002D01*
X540098Y802768D01*
X538518Y800032D01*
X537700Y796980D01*
Y793820D01*
X538518Y790768D01*
X540098Y788032D01*
X542332Y785798D01*
X545068Y784218D01*
X548120Y783400D01*
X551280D01*
X554332Y784218D01*
X557068Y785798D01*
X559302Y788032D01*
X560882Y790768D01*
X561700Y793820D01*
Y796980D01*
X560882Y800032D01*
X559302Y802768D01*
X557068Y805002D01*
X554332Y806582D01*
X551280Y807400D01*
D02*
G37*
G36*
X525880D02*
X522720D01*
X519668Y806582D01*
X516932Y805002D01*
X514698Y802768D01*
X513118Y800032D01*
X512300Y796980D01*
Y793820D01*
X513118Y790768D01*
X514698Y788032D01*
X516932Y785798D01*
X519668Y784218D01*
X522720Y783400D01*
X525880D01*
X528932Y784218D01*
X531668Y785798D01*
X533902Y788032D01*
X535482Y790768D01*
X536300Y793820D01*
Y796980D01*
X535482Y800032D01*
X533902Y802768D01*
X531668Y805002D01*
X528932Y806582D01*
X525880Y807400D01*
D02*
G37*
G36*
X729080Y782000D02*
X725920D01*
X722868Y781182D01*
X720132Y779602D01*
X717898Y777368D01*
X716318Y774632D01*
X715500Y771580D01*
Y768420D01*
X716318Y765368D01*
X717898Y762632D01*
X720132Y760398D01*
X722868Y758818D01*
X725920Y758000D01*
X729080D01*
X732132Y758818D01*
X734868Y760398D01*
X737102Y762632D01*
X738682Y765368D01*
X739500Y768420D01*
Y771580D01*
X738682Y774632D01*
X737102Y777368D01*
X734868Y779602D01*
X732132Y781182D01*
X729080Y782000D01*
D02*
G37*
G36*
X525880D02*
X522720D01*
X519668Y781182D01*
X516932Y779602D01*
X514698Y777368D01*
X513118Y774632D01*
X512300Y771580D01*
Y768420D01*
X513118Y765368D01*
X514698Y762632D01*
X516932Y760398D01*
X519668Y758818D01*
X522720Y758000D01*
X525880D01*
X528932Y758818D01*
X531668Y760398D01*
X533902Y762632D01*
X535482Y765368D01*
X536300Y768420D01*
Y771580D01*
X535482Y774632D01*
X533902Y777368D01*
X531668Y779602D01*
X528932Y781182D01*
X525880Y782000D01*
D02*
G37*
G36*
X424280D02*
X421120D01*
X418068Y781182D01*
X415332Y779602D01*
X413098Y777368D01*
X411518Y774632D01*
X410700Y771580D01*
Y768420D01*
X411518Y765368D01*
X413098Y762632D01*
X415332Y760398D01*
X418068Y758818D01*
X421120Y758000D01*
X424280D01*
X427332Y758818D01*
X430068Y760398D01*
X432302Y762632D01*
X433882Y765368D01*
X434700Y768420D01*
Y771580D01*
X433882Y774632D01*
X432302Y777368D01*
X430068Y779602D01*
X427332Y781182D01*
X424280Y782000D01*
D02*
G37*
G36*
X630404Y278717D02*
X628166D01*
X626004Y278138D01*
X624078Y277026D01*
X622152Y278138D01*
X619990Y278717D01*
X617752D01*
X615590Y278138D01*
X613652Y277019D01*
X613534Y276901D01*
X611611Y278011D01*
X609449Y278590D01*
X607211D01*
X605049Y278011D01*
X603111Y276892D01*
X601528Y275309D01*
X600409Y273371D01*
X599830Y271209D01*
Y268971D01*
X600409Y266809D01*
X601528Y264871D01*
X603111Y263288D01*
X605049Y262169D01*
X607211Y261590D01*
X609235D01*
X609670Y261334D01*
X610371Y260522D01*
Y258684D01*
X610950Y256522D01*
X612069Y254584D01*
X613652Y253001D01*
X615590Y251882D01*
X617752Y251303D01*
X619990D01*
X622152Y251882D01*
X624090Y253001D01*
X624471Y253383D01*
X625750Y252644D01*
X627912Y252065D01*
X630150D01*
X632312Y252644D01*
X634250Y253763D01*
X635833Y255346D01*
X636952Y257284D01*
X637531Y259446D01*
Y261684D01*
X636952Y263846D01*
X636187Y265171D01*
X637206Y266936D01*
X637785Y269098D01*
Y271336D01*
X637206Y273498D01*
X636087Y275436D01*
X634504Y277019D01*
X632566Y278138D01*
X630404Y278717D01*
D02*
G37*
%LPD*%
D11*
X771400Y15845D02*
Y19902D01*
X688340Y62318D02*
Y64561D01*
Y62318D02*
X688457Y62201D01*
Y57610D02*
Y62201D01*
X728027Y274388D02*
Y275741D01*
Y270959D02*
Y274388D01*
Y275741D02*
X728218Y275932D01*
X240521Y698588D02*
X240792D01*
X233911Y692137D02*
X234071D01*
X233707Y681570D02*
Y691933D01*
X233911Y692137D01*
X234071D02*
X240521Y698588D01*
D12*
X485823Y783086D02*
G03*
X485792Y783055I38771J-38833D01*
G01*
X270948Y91274D02*
X279459D01*
X268978Y89304D02*
X270948Y91274D01*
X257834Y89304D02*
X268978D01*
X411092Y307835D02*
Y311626D01*
X231677Y652812D02*
X253733D01*
X290226D01*
X253733D02*
Y667669D01*
X142407Y708734D02*
X193548Y657593D01*
Y643470D02*
Y657593D01*
X353272Y619934D02*
Y633997D01*
X381092Y544144D02*
Y592114D01*
X353272Y619934D02*
X381092Y592114D01*
X316119Y619436D02*
X356092Y579463D01*
Y552615D02*
Y579463D01*
X316119Y619436D02*
Y633050D01*
X314832Y634338D02*
X316119Y633050D01*
X327532Y618969D02*
X361092Y585409D01*
X327532Y618969D02*
Y634338D01*
X361092Y535094D02*
Y585409D01*
X340848Y619198D02*
Y633721D01*
X366092Y535094D02*
Y593955D01*
X340848Y619198D02*
X366092Y593955D01*
X352932Y634338D02*
X353272Y633997D01*
X340232Y634338D02*
X340848Y633721D01*
X356092Y524365D02*
Y535094D01*
Y552615D01*
X340232Y682659D02*
Y700724D01*
X384518Y745011D02*
Y802209D01*
X340232Y700724D02*
X384518Y745011D01*
X359219Y732501D02*
Y807602D01*
X327532Y682659D02*
Y700813D01*
X359219Y732501D01*
X448100Y771933D02*
X460825Y784658D01*
Y803399D01*
X448100Y715504D02*
Y771933D01*
X390156Y807847D02*
X456377D01*
X384518Y802209D02*
X390156Y807847D01*
X456377D02*
X460825Y803399D01*
X726643Y432956D02*
X726837Y433151D01*
Y449770D01*
X199710Y632856D02*
X221070Y654216D01*
X186944Y633056D02*
X187144Y632856D01*
X199710D01*
X223070Y656287D02*
Y657370D01*
X221070Y654287D02*
X223070Y656287D01*
X221070Y654216D02*
Y654287D01*
X171856Y847330D02*
X275072D01*
X168542Y844015D02*
X171856Y847330D01*
X168542Y835085D02*
Y844015D01*
X660665Y59420D02*
X662494Y57591D01*
Y54478D02*
Y57591D01*
X663187Y52972D02*
Y53784D01*
X662494Y54478D02*
X663187Y53784D01*
X660665Y59420D02*
Y64781D01*
X660665D02*
X660665D01*
X491928Y707198D02*
X510414Y725685D01*
X491928Y646141D02*
Y707198D01*
Y646141D02*
X515050Y623018D01*
X771400Y42897D02*
X774670Y46166D01*
X797264D01*
X762958Y65429D02*
X766859D01*
X767609Y64679D01*
Y46688D02*
Y64679D01*
Y46688D02*
X771400Y42897D01*
X655246Y95158D02*
Y130151D01*
Y95158D02*
X658975Y91429D01*
X688457D01*
X627352Y79141D02*
X674490Y32003D01*
X627352Y79141D02*
Y99021D01*
X674490Y32003D02*
X701200D01*
X667812Y71929D02*
X688457D01*
X660665Y64781D02*
X667812Y71929D01*
X669793Y101185D02*
X673049Y97929D01*
X669793Y101185D02*
Y145718D01*
X664976Y150534D02*
X669793Y145718D01*
X664976Y150534D02*
Y151346D01*
X673049Y97929D02*
X688457D01*
X728975Y84929D02*
X762958D01*
X719074Y94830D02*
X728975Y84929D01*
X719074Y94830D02*
Y142582D01*
X698500Y163156D02*
X719074Y142582D01*
X737616Y98386D02*
Y128973D01*
X730160Y136429D02*
X737616Y128973D01*
X744573Y91429D02*
X762958D01*
X737616Y98386D02*
X744573Y91429D01*
X738632Y60286D02*
Y67174D01*
X743387Y71929D01*
X762958D01*
X688457Y78429D02*
X706683D01*
X709250Y75862D01*
Y5000D02*
Y75862D01*
X721614Y47078D02*
X721750Y46942D01*
Y5000D02*
Y46942D01*
X721614Y47078D02*
Y66092D01*
X733951Y78429D01*
X762958D01*
X709400Y640511D02*
X712661Y643772D01*
X704900Y655993D02*
Y690751D01*
X697401Y648494D02*
X704900Y655993D01*
X712661Y643772D02*
Y686477D01*
X692807Y656672D02*
X697401Y661265D01*
X236474Y153387D02*
Y188959D01*
X224864Y188488D02*
X234643D01*
X236474Y190319D01*
Y188959D02*
Y190319D01*
X224597Y188220D02*
X224864Y188488D01*
X236474Y190319D02*
X236872Y190716D01*
Y218164D02*
X316484Y297776D01*
X236872Y190716D02*
Y218164D01*
X236474Y153387D02*
X236865Y152996D01*
X200406Y52920D02*
Y200494D01*
X281765Y179642D02*
X281930Y179477D01*
X281765Y179642D02*
Y184940D01*
X277401Y189304D02*
X281765Y184940D01*
X257834Y189304D02*
X277401D01*
X253733Y667669D02*
X259209Y673145D01*
Y682835D01*
X241440Y742670D02*
X257915Y759145D01*
X241440Y727430D02*
Y742670D01*
X257915Y759145D02*
Y808176D01*
X587698Y223431D02*
X597553Y213576D01*
X587698Y223431D02*
Y224325D01*
X597553Y213576D02*
X642430D01*
X655951Y227097D02*
Y242903D01*
X642430Y213576D02*
X655951Y227097D01*
X225676Y711666D02*
X241440Y727430D01*
X225676Y659638D02*
Y711666D01*
X740981Y468972D02*
X748792D01*
X751459D01*
X257915Y808176D02*
X262164Y812426D01*
X318336D01*
X290226Y652812D02*
X296321Y658906D01*
Y729014D01*
X283925Y741409D02*
X296321Y729014D01*
X226217Y659097D02*
X238097D01*
X224313Y645448D02*
X231677Y652812D01*
X283925Y741409D02*
Y783625D01*
X295700Y795400D01*
X311150Y745004D02*
X314058Y747911D01*
X316506D02*
X317271Y748677D01*
X314058Y747911D02*
X316506D01*
X310642Y735992D02*
X311150Y736500D01*
Y745004D01*
X278069Y591461D02*
X324673D01*
X346092Y570042D01*
Y536263D02*
Y570042D01*
X259209Y610321D02*
X278069Y591461D01*
X223070Y657370D02*
X223407D01*
X225676Y659638D01*
X249291Y821738D02*
X250521Y820508D01*
X531622D01*
X193458Y835085D02*
X269523D01*
X275853Y828754D02*
X372972D01*
X269523Y835085D02*
X275853Y828754D01*
X275072Y847330D02*
X286907Y835494D01*
X518414D01*
X372972Y828754D02*
X373195Y828531D01*
X526410D01*
X531622Y820508D02*
X555532Y844418D01*
X416977Y21315D02*
X497796D01*
X520215Y43734D01*
Y63959D01*
X415220Y23072D02*
Y34378D01*
Y23072D02*
X416977Y21315D01*
X56510Y-7510D02*
Y16926D01*
X76502Y36918D01*
X56510Y-7510D02*
X71264Y-22264D01*
X356108Y305548D02*
Y312746D01*
X351704Y301144D02*
X356108Y305548D01*
X351704Y300062D02*
Y301144D01*
X391092Y317094D02*
Y323094D01*
Y339500D01*
X390999Y339593D02*
X391092Y339500D01*
X503847Y367715D02*
X509968Y361594D01*
X524592D01*
Y516594D02*
X541652D01*
X330532Y501594D02*
X332674Y499452D01*
X312592Y501594D02*
X330532D01*
X332674Y499452D02*
X333756D01*
X281686Y536536D02*
X288798Y529424D01*
Y520280D02*
Y529424D01*
Y520280D02*
X297484Y511594D01*
X312592D01*
X205711Y536536D02*
X281686D01*
X312592Y516594D02*
Y524172D01*
X293808Y505415D02*
X294987Y506594D01*
X312592D01*
X292726Y505415D02*
X293808D01*
X701837Y235073D02*
Y257770D01*
X699185Y232421D02*
X701837Y235073D01*
X689565Y232421D02*
X699185D01*
X761746Y234181D02*
X761905Y234022D01*
X778095D01*
X786871Y225246D01*
Y224507D02*
Y225246D01*
X486092Y520434D02*
Y535094D01*
Y520434D02*
X489493Y517034D01*
Y516829D02*
Y517034D01*
X251228Y275876D02*
Y277162D01*
X530352Y82526D02*
Y101137D01*
X534205Y104990D02*
X552419D01*
X527807Y79981D02*
X530352Y82526D01*
X520215Y79981D02*
X527807D01*
X530352Y101137D02*
X534205Y104990D01*
X551942Y67894D02*
Y91813D01*
X548008Y63959D02*
X551942Y67894D01*
X520215Y63959D02*
X548008D01*
X465220Y54907D02*
X467467Y57153D01*
X467323Y68730D02*
X467467Y68586D01*
Y57153D02*
Y68586D01*
X465220Y34378D02*
Y54907D01*
X15867Y118091D02*
X37641Y96317D01*
Y91479D02*
Y96317D01*
X5124Y119460D02*
X6492Y118091D01*
X15867D01*
X37641Y91479D02*
X40894Y88226D01*
X91046Y170268D02*
X91300Y170014D01*
X68614Y161979D02*
X76903Y170268D01*
X91046D01*
X68761Y157387D02*
X69088Y157060D01*
X68761Y157387D02*
Y162047D01*
X68721Y162087D02*
X68761Y162047D01*
X40894Y189699D02*
X68614Y161979D01*
X212497Y337665D02*
X219279D01*
X210546Y336527D02*
X211358D01*
X219279Y337665D02*
X223070Y341457D01*
X211358Y336527D02*
X212497Y337665D01*
X223070Y341457D02*
Y342303D01*
X330091Y319536D02*
X331092Y320537D01*
X320082Y312768D02*
X326849Y319536D01*
X330091D01*
X274951Y312768D02*
X320082D01*
X5337Y707412D02*
X49210D01*
X63933Y692689D02*
X94053D01*
X49210Y707412D02*
X63933Y692689D01*
X145047Y616526D02*
X217033Y544540D01*
X292225D02*
X312592Y524172D01*
X217033Y544540D02*
X292225D01*
X142407Y708734D02*
Y717625D01*
X729103Y844418D02*
X749249Y824272D01*
X555532Y844418D02*
X729103D01*
X734719Y852611D02*
X760688Y826642D01*
X550490Y852611D02*
X734719D01*
X526410Y828531D02*
X550490Y852611D01*
X740502Y860520D02*
X772642Y828380D01*
X543440Y860520D02*
X740502D01*
X518414Y835494D02*
X543440Y860520D01*
X749249Y749591D02*
Y824272D01*
X760688Y746539D02*
Y826642D01*
X772642Y746458D02*
Y828380D01*
X704900Y690751D02*
X760688Y746539D01*
X712661Y686477D02*
X772642Y746458D01*
X697401Y697743D02*
X749249Y749591D01*
X697401Y661265D02*
Y697743D01*
X477068Y35030D02*
Y68730D01*
Y35030D02*
X477720Y34378D01*
X453633Y35292D02*
Y68730D01*
X477850Y513181D02*
Y513335D01*
X471092Y520094D02*
X477850Y513335D01*
X471092Y520094D02*
Y535094D01*
X466092Y514928D02*
Y535094D01*
Y514928D02*
X477305Y503715D01*
Y490348D02*
Y503715D01*
X461092Y510736D02*
X470806Y501022D01*
X461092Y510736D02*
Y535094D01*
X482329Y814493D02*
X486543Y810278D01*
X366109Y814493D02*
X482329D01*
X359219Y807602D02*
X366109Y814493D01*
X193458Y822385D02*
X194100Y821743D01*
Y795400D02*
Y821743D01*
X168700Y795400D02*
Y822226D01*
X168542Y822385D02*
X168700Y822226D01*
X142407Y730325D02*
Y741448D01*
X155886Y754927D01*
Y782464D01*
X143300Y795050D02*
X155886Y782464D01*
X143300Y795050D02*
Y795400D01*
X570729Y672385D02*
X577891D01*
X580604Y669672D01*
X569963Y673150D02*
X570729Y672385D01*
X580604Y669672D02*
X594589D01*
X653034Y667568D02*
Y689952D01*
Y667568D02*
X657430Y663172D01*
X670218D01*
X295402Y552792D02*
X321310Y526884D01*
X222250Y552792D02*
X295402D01*
X321310Y526884D02*
Y526884D01*
Y526884D02*
X332740Y515454D01*
X351092Y518058D02*
Y535094D01*
X348488Y515454D02*
X351092Y518058D01*
X332740Y515454D02*
X348488D01*
X186944Y588098D02*
X222250Y552792D01*
X186944Y588098D02*
Y618324D01*
X318336Y812426D02*
X321100Y809662D01*
Y795400D02*
Y809662D01*
X224313Y600513D02*
X236474Y588352D01*
X224313Y600513D02*
Y645448D01*
X236474Y576668D02*
Y588352D01*
X133140Y609107D02*
X205711Y536536D01*
X133140Y609107D02*
Y641322D01*
X145047Y616526D02*
Y641696D01*
X94053Y692689D02*
X145047Y641696D01*
X105264Y669198D02*
X133140Y641322D01*
X71148Y669198D02*
X105264D01*
X45096Y695250D02*
X71148Y669198D01*
X5000Y695250D02*
X45096D01*
X5000Y707750D02*
X5337Y707412D01*
X233809Y606246D02*
X248401Y591654D01*
Y577441D02*
X249174Y576668D01*
X248401Y577441D02*
Y591654D01*
X263387Y576668D02*
X270126D01*
X233809Y606246D02*
Y634514D01*
X249174Y576668D02*
X263387D01*
X270126Y576668D02*
X318004D01*
X336092Y558580D01*
X585394Y725685D02*
X587533Y723545D01*
X510414Y725685D02*
X585394D01*
X554990Y713828D02*
X555115Y713703D01*
X564852D01*
X539176Y685451D02*
X576392D01*
X538988Y685263D02*
X539176Y685451D01*
X564852Y700034D02*
X580976D01*
X594589Y669672D02*
X595718D01*
X593839Y670422D02*
X594589Y669672D01*
X593839Y670422D02*
Y687171D01*
X580976Y700034D02*
X593839Y687171D01*
X536956Y700034D02*
X564852D01*
X521970D02*
X536956D01*
X433858Y189304D02*
X449834D01*
X473500Y745876D02*
Y770000D01*
X467510Y739886D02*
X473500Y745876D01*
X467510Y714810D02*
Y739886D01*
X500800Y678864D02*
X521970Y700034D01*
X416092Y584590D02*
X460145Y628644D01*
Y645304D01*
X416092Y532680D02*
Y584590D01*
X551942Y91813D02*
X552419Y92290D01*
X600741Y130390D02*
X600760Y130410D01*
X223070Y342303D02*
X227361Y346594D01*
X312592D01*
X291778Y456594D02*
X312592D01*
X20528Y169460D02*
X40386Y189318D01*
X40894Y189826D01*
X141980Y47332D02*
X156972Y62325D01*
X102362Y47332D02*
X141980D01*
X184404Y36918D02*
X200406Y52920D01*
X76502Y36918D02*
X184404D01*
X156972Y62325D02*
Y101427D01*
X90795Y112727D02*
Y123024D01*
X163830D02*
X178054Y108800D01*
X106817Y123024D02*
X163830D01*
X93960Y109562D02*
X148837D01*
X90795Y112727D02*
X93960Y109562D01*
X148837D02*
X156972Y101427D01*
X5124Y169460D02*
X20528D01*
X28557Y156960D02*
X36023Y164426D01*
X5124Y156960D02*
X28557D01*
X30860Y144460D02*
X36294Y139026D01*
X5124Y144460D02*
X30860D01*
X294437Y366594D02*
X312592D01*
X293920Y367110D02*
X294437Y366594D01*
X296429Y421594D02*
X312592D01*
X71264Y-22264D02*
X93980D01*
X102262Y-13982D01*
Y4450D01*
X58928Y146392D02*
X90541D01*
X40894Y164426D02*
X58928Y146392D01*
X60432Y122282D02*
X90053D01*
X43688Y139026D02*
X60432Y122282D01*
X40894Y139026D02*
X43688D01*
X51816Y99148D02*
X90795D01*
X40894Y88226D02*
X51816Y99148D01*
X36294Y139026D02*
X40894D01*
X36023Y164426D02*
X40894D01*
X242872Y94304D02*
X257834D01*
X238572Y90004D02*
X242872Y94304D01*
X237490Y90004D02*
X238572D01*
X123278Y146392D02*
X132437Y137233D01*
X106563Y146392D02*
X123278D01*
X124714Y169760D02*
X140462Y154012D01*
X106563Y169760D02*
X124714D01*
X140208Y154266D02*
Y224370D01*
Y154266D02*
X140462Y154012D01*
X106817Y99148D02*
X120142D01*
X142748Y76542D01*
X266680Y304497D02*
X274951Y312768D01*
X731837Y461328D02*
X736858Y466348D01*
X738358D02*
X740981Y468972D01*
X746506Y466686D02*
X748792Y468972D01*
X731837Y449770D02*
Y461328D01*
X736858Y466348D02*
X738358D01*
X738020Y466686D02*
X746506D01*
X606298Y685634D02*
Y727591D01*
X607822Y729115D01*
X542996Y428927D02*
X544527D01*
X545292Y429693D01*
X535663Y421594D02*
X542996Y428927D01*
X524592Y421594D02*
X535663D01*
X274856Y174304D02*
X281686Y167474D01*
X257834Y174304D02*
X274856D01*
X257834Y169304D02*
X267664D01*
X271042Y165926D01*
X312928Y341114D02*
X313000Y341186D01*
X433133Y154457D02*
X433286Y154304D01*
X449834D01*
X434834Y198329D02*
Y200072D01*
X235771Y152683D02*
X239150Y149304D01*
X524592Y406594D02*
X550934D01*
X551433Y407094D01*
X551934D01*
X711837Y231918D02*
Y257770D01*
X542914Y491594D02*
X543406Y492086D01*
X524592Y491594D02*
X542914D01*
X285242Y678912D02*
X285496Y679166D01*
X238347Y134304D02*
X257834D01*
X237735Y133692D02*
X238347Y134304D01*
X239588Y119976D02*
X243916Y124304D01*
X257834D01*
X238506Y119976D02*
X239588D01*
X433888Y144304D02*
X449834D01*
X434952Y134304D02*
X449834D01*
X478028Y119742D02*
X480314Y122028D01*
Y137502D01*
X406092Y323094D02*
Y338616D01*
X411092Y311626D02*
X411092Y311626D01*
X411092Y311626D02*
Y323094D01*
X431456Y119304D02*
X449834D01*
X430276Y120484D02*
X431456Y119304D01*
X436253Y114304D02*
X449834D01*
X312593Y431594D02*
X326350D01*
X312592Y431594D02*
X312593Y431594D01*
X509182Y426594D02*
X509182Y426594D01*
X508571Y426594D02*
X509182D01*
X506987Y425010D02*
X508571Y426594D01*
X509182Y426594D02*
X524592D01*
X441092Y519116D02*
Y535094D01*
X426092Y517352D02*
X430276Y513168D01*
X426092Y517352D02*
Y535094D01*
X376092Y520198D02*
Y535094D01*
X402592Y517727D02*
X403726D01*
X406092Y520094D01*
Y535094D01*
X593859Y567873D02*
X649470Y623484D01*
X670038D01*
X483796Y567873D02*
X593859D01*
X726837Y257770D02*
Y273198D01*
X493865Y562873D02*
X598389D01*
X652679Y617164D01*
X604023Y557873D02*
X657322Y611172D01*
X670218D01*
X312592Y396594D02*
X330442D01*
X257834Y199304D02*
X275764D01*
X276098Y198970D01*
X481092Y535094D02*
Y565169D01*
X483796Y567873D01*
X731837Y245334D02*
Y257770D01*
X436591Y196572D02*
X436986D01*
X434834Y198329D02*
X436591Y196572D01*
X439254Y194304D02*
X449834D01*
X436986Y196572D02*
X439254Y194304D01*
X401092Y274688D02*
Y323094D01*
X239150Y149304D02*
X257834D01*
X252476Y304497D02*
X266680D01*
X331092Y320537D02*
Y323094D01*
X252442Y275876D02*
Y277162D01*
Y279187D02*
Y302989D01*
Y277162D02*
Y279187D01*
X253253Y276687D02*
Y279187D01*
X251228Y274662D02*
Y275876D01*
X278892Y600544D02*
X325553D01*
X351092Y575005D01*
X271909Y607527D02*
X278892Y600544D01*
X271909Y607527D02*
Y634514D01*
X246509Y610755D02*
X272013Y585251D01*
X320564D02*
X341092Y564723D01*
X272013Y585251D02*
X320564D01*
X351092Y550544D02*
Y575005D01*
X336092Y535094D02*
Y558580D01*
X341092Y535094D02*
Y564723D01*
X473500Y770000D02*
X484511Y781774D01*
X486543Y783806D02*
Y810278D01*
X484511Y781774D02*
X485792Y783055D01*
X485823Y783086D02*
X486543Y783806D01*
X449834Y104304D02*
X477444D01*
X478028Y103720D01*
X326350Y431594D02*
X338074Y443318D01*
X371092Y535094D02*
Y550963D01*
X259209Y610321D02*
Y634514D01*
X246509Y610755D02*
Y634514D01*
X742814Y679538D02*
X743068Y679284D01*
X761934Y610704D02*
X763712Y612482D01*
X762357Y633649D02*
X763712Y635003D01*
X762781Y656593D02*
X763712Y657525D01*
X251228Y274662D02*
X252442Y275876D01*
X502376Y557873D02*
X604023D01*
X351092Y535094D02*
Y550544D01*
X351092Y550544D02*
X351092Y550544D01*
X356092Y552615D02*
X356092Y552615D01*
X496092Y551590D02*
X502376Y557873D01*
X496092Y535094D02*
Y551590D01*
X491092Y535094D02*
Y560100D01*
X493865Y562873D01*
X652679Y617164D02*
X670218D01*
X670038Y623484D02*
X670218Y623664D01*
D13*
X401356Y190786D02*
X444331Y233761D01*
X323323Y25376D02*
X401356Y103409D01*
Y190786D01*
X406421Y189290D02*
X451965Y234834D01*
X406421Y108390D02*
Y189290D01*
X406515Y101593D02*
Y108297D01*
X406421Y108390D02*
X406515Y108297D01*
X326099Y21176D02*
X406515Y101593D01*
X226202Y25376D02*
X323323D01*
X376033Y301320D02*
X378022Y299331D01*
X376033Y323035D02*
X376092Y323094D01*
X376033Y301320D02*
Y323035D01*
X378022Y297978D02*
Y299331D01*
X389089Y108600D02*
Y196810D01*
X317759Y36689D02*
X319170Y38099D01*
Y38681D02*
X389089Y108600D01*
X317759Y35606D02*
Y36689D01*
X319170Y38099D02*
Y38681D01*
X378958Y117418D02*
Y195932D01*
X220050Y43078D02*
X304618D01*
X378958Y117418D01*
X216745Y49587D02*
X304549D01*
X374462Y119500D02*
Y192957D01*
X304549Y49587D02*
X374462Y119500D01*
X303321Y55156D02*
X356420Y108255D01*
X212624Y55156D02*
X303321D01*
X356420Y108255D02*
Y202242D01*
X389089Y196810D02*
X430229Y237951D01*
X449749Y258982D02*
X456008Y265241D01*
X455521Y271537D02*
X456008D01*
Y265241D02*
Y271537D01*
X441170Y285887D02*
X455521Y271537D01*
X441092Y323094D02*
X441170Y323016D01*
Y285887D02*
Y323016D01*
X430229Y237951D02*
Y255586D01*
X444331Y233761D02*
Y239135D01*
X444543Y239347D01*
Y260112D01*
X447896Y263466D01*
Y273505D01*
X451965Y234834D02*
Y251381D01*
X449749Y253597D02*
X451965Y251381D01*
X449749Y253597D02*
Y258982D01*
X436092Y285309D02*
X447896Y273505D01*
X436092Y285309D02*
Y310352D01*
X436014Y323016D02*
X436092Y323094D01*
X436014Y310430D02*
Y323016D01*
Y310430D02*
X436092Y310352D01*
X446092Y291511D02*
X451421Y286182D01*
X452422D01*
X446092Y291511D02*
Y323094D01*
X232820Y21176D02*
X326099D01*
X377720Y34378D02*
Y66467D01*
X388948Y77695D02*
X400558D01*
X377720Y66467D02*
X388948Y77695D01*
X331933Y235486D02*
X374462Y192957D01*
X341758Y233132D02*
X378958Y195932D01*
X449634Y1506D02*
Y3136D01*
Y1506D02*
X459180Y-8040D01*
Y-9056D02*
Y-8040D01*
Y-9056D02*
X469392D01*
X381490Y624199D02*
X408088D01*
X408817Y623470D01*
X376989Y619698D02*
X381490Y624199D01*
X524592Y466594D02*
X625071D01*
X627869Y463797D02*
X704247D01*
X625071Y466594D02*
X627869Y463797D01*
X781655Y-24296D02*
X790956D01*
X772155Y-14796D02*
X781655Y-24296D01*
X675463Y-23750D02*
X683655Y-15558D01*
X669000Y-23750D02*
X675463D01*
X624619Y117149D02*
Y166934D01*
Y117149D02*
X656839Y84929D01*
X688457D01*
X618166Y108208D02*
Y167731D01*
X476092Y309804D02*
X618166Y167731D01*
X481092Y310461D02*
X624619Y166934D01*
X618166Y108208D02*
X627352Y99021D01*
X688407Y84879D02*
X688457Y84929D01*
X670218Y637172D02*
X685694D01*
X688186Y634680D01*
Y628066D02*
Y634680D01*
X702190Y633619D02*
X702190D01*
X670218Y643672D02*
X692136D01*
X702190Y633619D01*
X559235Y607548D02*
X561547D01*
X534999Y583311D02*
X559235Y607548D01*
X561547D02*
X562312Y608313D01*
X670306Y669760D02*
Y680554D01*
X605057Y597164D02*
X606014Y596208D01*
X601028Y597164D02*
X605057D01*
X599998Y598195D02*
X601028Y597164D01*
X598488Y598195D02*
X599998D01*
X595884Y600798D02*
X598488Y598195D01*
X587821Y600798D02*
X595884D01*
X588202D02*
X597305Y591694D01*
X29210Y389940D02*
X279810D01*
X298156Y371594D01*
X126297Y425733D02*
X236416D01*
X252276Y441594D01*
X125984Y426046D02*
X126297Y425733D01*
X84115Y356594D02*
X312592D01*
X75769Y364940D02*
X84115Y356594D01*
X29210Y364940D02*
X75769D01*
X98257Y361594D02*
X312592D01*
X29210Y377440D02*
X82411D01*
X98257Y361594D01*
X728027Y274388D02*
X728218Y274579D01*
X726837Y273198D02*
X728027Y274388D01*
X335900Y311976D02*
Y322903D01*
X328392Y304467D02*
X335900Y311976D01*
X302345Y304467D02*
X328392D01*
X346092Y309975D02*
Y323094D01*
X322560Y286443D02*
X346092Y309975D01*
X322560Y236103D02*
Y286443D01*
X246306Y214458D02*
X302110Y270262D01*
X246306Y155976D02*
Y214458D01*
X302110Y270262D02*
Y272528D01*
X340901Y311319D02*
Y322903D01*
X302110Y272528D02*
X340901Y311319D01*
X351092Y308750D02*
Y323094D01*
X331933Y289592D02*
X351092Y308750D01*
X331933Y235486D02*
Y289592D01*
X371972Y257507D02*
X372474Y257005D01*
X371972Y267292D02*
X374562Y269883D01*
X371972Y257507D02*
Y267292D01*
X372209Y254660D02*
X372474Y254925D01*
X370971Y255501D02*
X372474Y257005D01*
Y254925D02*
Y257005D01*
X370971Y251385D02*
X376050Y246305D01*
X370971Y251385D02*
Y255501D01*
X372209Y254660D02*
X375241Y251628D01*
X370870Y254597D02*
X371774Y255501D01*
X370870Y251485D02*
Y254597D01*
X374562Y250950D02*
X375241Y251628D01*
X374562Y247992D02*
Y250950D01*
X702044Y822973D02*
X703746Y821271D01*
X702939Y820463D02*
X703746Y821271D01*
X690475Y822973D02*
X702100Y811348D01*
X689215Y822973D02*
X690475D01*
X702100Y795647D02*
Y811348D01*
X690475Y822973D02*
X700179D01*
X689215Y823758D02*
Y831231D01*
X700179Y822973D02*
Y828836D01*
X703019Y831677D01*
X688447Y822205D02*
X689215Y822973D01*
X674527D02*
X689215D01*
X688447Y820438D02*
Y822205D01*
X686850Y825338D02*
X689215Y822973D01*
X672154Y820600D02*
X674527Y822973D01*
X671993Y831300D02*
X677955Y825338D01*
X686850D01*
X688608Y831838D02*
X689215Y831231D01*
X702100Y795647D02*
X702625Y795122D01*
X246306Y155976D02*
X247477Y154804D01*
X257334D01*
X208805Y219815D02*
X241622Y252632D01*
X261440D02*
X297945Y289137D01*
X241622Y252632D02*
X261440D01*
X256692Y258814D02*
X302345Y304467D01*
X235358Y258814D02*
X256692D01*
X200406Y223862D02*
X235358Y258814D01*
X200406Y200494D02*
Y223862D01*
X208805Y145476D02*
Y219815D01*
X209976Y144304D02*
X257834D01*
X208805Y145476D02*
X209976Y144304D01*
X201099Y-19487D02*
X203148Y-17438D01*
X201099Y-26405D02*
Y-19487D01*
X203148Y-17438D02*
X244035D01*
X-8697Y735331D02*
X-6631D01*
X1830Y726870D01*
X459994Y361784D02*
X460937D01*
X461214Y362062D01*
X445977D02*
X461214D01*
X421092Y337177D02*
X445977Y362062D01*
X421092Y323094D02*
Y337177D01*
X501092Y323094D02*
Y348189D01*
X457421Y391860D02*
X501092Y348189D01*
X405381Y391860D02*
X457421D01*
X367792Y377278D02*
X390799D01*
X405381Y391860D01*
X312516Y446518D02*
X312592Y446594D01*
X244897Y446518D02*
X312516D01*
X244284Y447131D02*
X244897Y446518D01*
X396283Y323286D02*
Y335685D01*
X398526Y337928D01*
Y352386D01*
X406146Y77695D02*
X416198D01*
X403352Y74901D02*
X406146Y77695D01*
X402717Y75536D02*
X403352Y74901D01*
X400558Y77695D02*
X402717Y75536D01*
X535988Y130390D02*
X552419D01*
X488328Y82730D02*
X535988Y130390D01*
X421232Y82730D02*
X488328D01*
X416198Y77695D02*
X421232Y82730D01*
X391392Y61673D02*
X400558D01*
X403352Y58879D01*
X403987Y59514D01*
X406146Y61673D01*
X390220Y60502D02*
X391392Y61673D01*
X390220Y34378D02*
Y60502D01*
X406146Y61673D02*
X424043D01*
X528945Y117690D02*
X552419D01*
X489985Y78730D02*
X528945Y117690D01*
X441099Y78730D02*
X489985D01*
X424043Y61673D02*
X441099Y78730D01*
X520215Y79242D02*
Y79981D01*
X515703Y74729D02*
X520215Y79242D01*
X451148Y74729D02*
X515703D01*
X427720Y51301D02*
X451148Y74729D01*
X427720Y34378D02*
Y51301D01*
X238097Y659097D02*
X246464Y667465D01*
Y682790D01*
X731612Y499595D02*
X744772D01*
X700585Y468569D02*
X727744Y495727D01*
X729501Y498728D02*
X730744D01*
X678023Y468569D02*
X700585D01*
X730744Y498728D02*
X731612Y499595D01*
X727744Y496971D02*
X729501Y498728D01*
X727744Y495727D02*
Y496971D01*
X671361Y475231D02*
X678023Y468569D01*
X497499Y458484D02*
X503692D01*
X497090Y458894D02*
X497499Y458484D01*
X503692D02*
X505583Y456594D01*
X524592D01*
X246464Y682790D02*
X246509Y682835D01*
X416097Y323099D02*
X416283Y323286D01*
X416097Y341374D02*
X416102Y341379D01*
X416097Y323099D02*
Y341374D01*
X416092Y323094D02*
X416097Y323099D01*
X503936Y438746D02*
X511088Y431594D01*
X524592D01*
X761837Y234272D02*
Y257770D01*
X761746Y234181D02*
X761837Y234272D01*
X510534Y321063D02*
X522692Y308905D01*
X530633D01*
X506554Y321063D02*
X510534D01*
X530633Y308905D02*
X531602Y307936D01*
X477691Y342480D02*
X485140D01*
X521004Y335787D02*
X522389D01*
X518801Y333585D02*
X521004Y335787D01*
X461092Y304510D02*
Y323094D01*
Y304510D02*
X465328Y300274D01*
Y299554D02*
Y300274D01*
X373092Y552963D02*
Y553639D01*
X371092Y550963D02*
X373092Y552963D01*
X486092Y323094D02*
Y341528D01*
X485140Y342480D02*
X486092Y341528D01*
X524400Y356785D02*
X524592Y356594D01*
X503855Y356785D02*
X524400D01*
X503428Y357212D02*
X503855Y356785D01*
X390906Y514184D02*
X391863Y515141D01*
X448951Y701372D02*
Y701953D01*
X506092Y321525D02*
Y323094D01*
Y321525D02*
X506554Y321063D01*
X451092Y296632D02*
Y323094D01*
Y296632D02*
X495767Y251957D01*
Y215601D02*
Y251957D01*
X503311Y222455D02*
Y251153D01*
X456092Y298372D02*
Y305742D01*
Y298372D02*
X503311Y251153D01*
X581141Y117690D02*
X600741D01*
X579970Y118862D02*
Y145796D01*
X503311Y222455D02*
X579970Y145796D01*
Y118862D02*
X581141Y117690D01*
X322560Y236103D02*
X356420Y202242D01*
X193672Y26513D02*
X216745Y49587D01*
X188788Y31320D02*
X212624Y55156D01*
X79278Y31320D02*
X188788D01*
X83321Y26513D02*
X193672D01*
X198192Y21220D02*
X220050Y43078D01*
X92311Y21220D02*
X198192D01*
X89762Y18671D02*
X92311Y21220D01*
X89762Y4450D02*
Y18671D01*
X77262Y20454D02*
X83321Y26513D01*
X64762Y16803D02*
X79278Y31320D01*
X64762Y4450D02*
Y16803D01*
X335900Y322903D02*
X336092Y323094D01*
X213792Y104304D02*
X257834D01*
X209042Y109054D02*
X213792Y104304D01*
X209042Y109054D02*
X209042D01*
X56915Y395500D02*
X280186D01*
X49976Y402440D02*
X56915Y395500D01*
X29210Y402440D02*
X49976D01*
X68782Y399500D02*
X281843D01*
X29210Y414940D02*
X53342D01*
X68782Y399500D01*
X53246Y427440D02*
X77186Y403500D01*
X29210Y427440D02*
X53246D01*
X77186Y403500D02*
X283500D01*
X53729Y439940D02*
X86169Y407500D01*
X285157D01*
X29210Y439940D02*
X53729D01*
X53633Y452440D02*
X94573Y411500D01*
X29210Y452440D02*
X53633D01*
X94573Y411500D02*
X286814D01*
X104132Y415500D02*
X288471D01*
X29750Y466000D02*
X53632D01*
X104132Y415500D01*
X29828Y478422D02*
X56788D01*
X115710Y419500D02*
X290128D01*
X56788Y478422D02*
X115710Y419500D01*
X163090Y481531D02*
X312529D01*
X28149Y616472D02*
Y640682D01*
Y616472D02*
X163090Y481531D01*
X26098Y607750D02*
X157254Y476594D01*
X5000Y607750D02*
X26098D01*
X157254Y476594D02*
X308425D01*
X27991Y595250D02*
X151799Y471441D01*
X312440D01*
X5000Y595250D02*
X27991D01*
X5000Y582750D02*
X29718D01*
X145874Y466594D01*
X175860D01*
X30616Y570250D02*
X142054Y458812D01*
X5000Y570250D02*
X30616D01*
X142054Y458812D02*
X267490D01*
X41234Y626187D02*
Y655042D01*
X175828Y491594D02*
X312592D01*
X41234Y626187D02*
X175828Y491594D01*
X47594Y632075D02*
X183161Y496508D01*
X47594Y632075D02*
Y657598D01*
X183161Y496508D02*
X312506D01*
X33950Y622457D02*
X168813Y487594D01*
X33950Y622457D02*
Y650028D01*
X5000Y645250D02*
X23581D01*
X28149Y640682D01*
X26026Y670250D02*
X41234Y655042D01*
X26228Y657750D02*
X33950Y650028D01*
X5000Y657750D02*
X26228D01*
X5000Y670250D02*
X26026D01*
X22442Y682750D02*
X47594Y657598D01*
X452720Y34378D02*
X453633Y35292D01*
X341758Y280519D02*
X361092Y299853D01*
X341758Y233132D02*
Y280519D01*
X502998Y376594D02*
X524592D01*
X506092Y535094D02*
X523784D01*
X532691Y526188D02*
X532953D01*
X523784Y535094D02*
X532691Y526188D01*
X169872Y486594D02*
X312592D01*
X168873Y487594D02*
X169872Y486594D01*
X168813Y487594D02*
X168873D01*
X312529Y481531D02*
X312592Y481594D01*
X312440Y471441D02*
X312592Y471594D01*
X745943Y534248D02*
X772162D01*
X745943Y534150D02*
Y543228D01*
X744772Y532978D02*
X745943Y534150D01*
X674190Y532978D02*
X744772D01*
X495767Y215601D02*
X571476Y139892D01*
X522389Y335787D02*
X524592Y337990D01*
Y341594D01*
X466091Y307983D02*
Y322988D01*
X536929Y225228D02*
Y237146D01*
X466091Y307983D02*
X536929Y237146D01*
X561768Y324192D02*
X589280D01*
X376989Y611519D02*
Y619698D01*
X448794Y702110D02*
X448951Y701953D01*
Y685513D02*
Y701372D01*
X418084Y654646D02*
X448951Y685513D01*
X448056Y701372D02*
X448794Y702110D01*
X318384Y654646D02*
X418084D01*
X352932Y634338D02*
X418858D01*
X467510Y682990D01*
Y702110D01*
X314832Y634338D02*
Y651093D01*
X318384Y654646D01*
X462598Y575883D02*
X463363Y576648D01*
X459372Y575883D02*
X462598D01*
X456092Y572603D02*
X459372Y575883D01*
X456092Y535094D02*
Y572603D01*
X386088Y307565D02*
X388088Y305566D01*
X386088Y307565D02*
Y323091D01*
X386092Y323094D01*
X388088Y293834D02*
Y305566D01*
X387177Y292923D02*
X388088Y293834D01*
X352016Y484212D02*
X358394Y490590D01*
Y509358D01*
X335026Y484212D02*
X352016D01*
X328422Y477608D02*
X335026Y484212D01*
X328422Y452970D02*
Y477608D01*
X327046Y451594D02*
X328422Y452970D01*
X312592Y451594D02*
X327046D01*
X445237Y620099D02*
Y636147D01*
X445576Y636487D01*
X396092Y570955D02*
X445237Y620099D01*
X396092Y535094D02*
Y570955D01*
X391092Y544144D02*
Y576252D01*
X418232Y603392D01*
X386092Y581326D02*
X406356Y601590D01*
X386092Y541920D02*
Y581326D01*
X571476Y112999D02*
X579485Y104990D01*
X571476Y112999D02*
Y139892D01*
X579485Y104990D02*
X600741D01*
X456092Y305742D02*
Y323094D01*
X471092Y309147D02*
X551715Y228524D01*
Y189468D02*
Y228524D01*
X381092Y342331D02*
X381247Y342486D01*
X381247D01*
X381092Y323094D02*
Y342331D01*
X219148Y18322D02*
X226202Y25376D01*
X231648Y5720D02*
Y20005D01*
X232820Y21176D01*
X219148Y5720D02*
Y18322D01*
X488696Y486498D02*
Y501769D01*
X501092Y514165D02*
Y535094D01*
X488696Y501769D02*
X501092Y514165D01*
X503039Y487903D02*
X503174Y487768D01*
X503039Y500587D02*
X508855Y506403D01*
X503039Y487903D02*
Y500587D01*
X481092Y310461D02*
Y323094D01*
X476092Y309804D02*
Y323094D01*
X772155Y-14796D02*
Y-13631D01*
X683655Y-15558D02*
Y-13631D01*
X654118Y-13882D02*
X654500Y-13500D01*
X639372Y-13882D02*
X654118D01*
X638356Y-14898D02*
X639372Y-13882D01*
X548332Y-13374D02*
X549856Y-14898D01*
X530860Y-13374D02*
X548332D01*
X539367Y346594D02*
X561768Y324192D01*
X524592Y346594D02*
X539367D01*
X711759Y279035D02*
X716837Y273956D01*
Y257770D02*
Y273956D01*
X711759Y279035D02*
Y305853D01*
Y257770D02*
Y279035D01*
X696837Y273952D02*
X701837Y278952D01*
Y257770D02*
Y278952D01*
X696837Y257770D02*
Y273952D01*
X701837Y278952D02*
Y301297D01*
X277931Y-14998D02*
X290454D01*
X249876Y-23280D02*
X269648D01*
X244035Y-17438D02*
X249876Y-23280D01*
X269648D02*
X277931Y-14998D01*
X30056Y351594D02*
X312592D01*
X267490Y458812D02*
X271272Y462594D01*
X293556D01*
X294556Y461594D01*
X312592D01*
X175860Y466594D02*
X312592D01*
X5000Y682750D02*
X22442D01*
X7284Y540543D02*
X10217D01*
X-783D02*
X10217D01*
X-9172Y539112D02*
X-2672Y532612D01*
X7284Y542726D02*
X18034D01*
X-9684Y540543D02*
X-7709Y542518D01*
X-783Y540543D02*
X7284Y532476D01*
X10217Y540543D02*
X18034Y532726D01*
X-2672Y542476D02*
X7284D01*
X-7709Y542518D02*
X-2672D01*
X-9172Y539112D02*
Y540031D01*
X-9684Y540543D02*
X-9172Y540031D01*
X-9684Y540543D02*
X-783D01*
X-7501Y542726D02*
X-2672D01*
X-9684Y540543D02*
X-7501Y542726D01*
X361092Y299853D02*
Y323094D01*
X524592Y386594D02*
X592663D01*
X527347Y391444D02*
X593470D01*
X527036Y396594D02*
X593977D01*
X252276Y441594D02*
X312592D01*
X294749Y386594D02*
X312592D01*
X283500Y403500D02*
X295406Y391594D01*
X293033Y416594D02*
X312592D01*
X291063Y401594D02*
X312592D01*
X290128Y419500D02*
X293033Y416594D01*
X292377Y411594D02*
X312592D01*
X280186Y395500D02*
X299092Y376594D01*
X295406Y391594D02*
X312592D01*
X281843Y399500D02*
X294749Y386594D01*
X285157Y407500D02*
X291063Y401594D01*
X286814Y411500D02*
X291720Y406594D01*
X288471Y415500D02*
X292377Y411594D01*
X291720Y406594D02*
X312592D01*
X312506Y496508D02*
X312592Y496594D01*
X29210Y352440D02*
X30056Y351594D01*
X299092Y376594D02*
X312592D01*
X298156Y371594D02*
X312592D01*
X257334Y154804D02*
X257834Y154304D01*
X221644Y99304D02*
X257834D01*
X213868Y91528D02*
X221644Y99304D01*
X356512Y236666D02*
X356870Y236308D01*
X356512Y236666D02*
Y283512D01*
X371092Y298092D01*
Y323094D01*
X211346Y126704D02*
X217300D01*
X338582Y348068D02*
X367792Y377278D01*
X217300Y126704D02*
X234700Y109304D01*
X257834D01*
X77262Y4450D02*
Y20454D01*
X364998Y681062D02*
X366776Y679284D01*
X354529Y681062D02*
X364998D01*
X704247Y463797D02*
X728678Y488228D01*
X671185Y488178D02*
Y497557D01*
X728678Y488228D02*
X733243D01*
X744772Y499595D02*
X745943Y498424D01*
Y488228D02*
Y498424D01*
X606212Y439594D02*
X669324Y376482D01*
X539136Y443594D02*
X607869D01*
X540793Y439594D02*
X606212D01*
X607869Y443594D02*
X628175Y423288D01*
X609526Y447594D02*
X629832Y427288D01*
X537793Y436594D02*
X540793Y439594D01*
X537480Y447594D02*
X609526D01*
X524688Y451594D02*
X611183D01*
X536671Y446785D02*
X537480Y447594D01*
X611183Y451594D02*
X631489Y431288D01*
X537136Y441594D02*
X539136Y443594D01*
X524688Y436594D02*
X537793D01*
X524592Y446594D02*
X524783Y446785D01*
X536671D01*
X524592Y441594D02*
X537136D01*
X272250Y154304D02*
X282448Y144106D01*
X257834Y154304D02*
X272250D01*
X271042Y165335D02*
Y165926D01*
X335892Y113984D02*
X343154Y121246D01*
X298896Y113984D02*
X335892D01*
X298576Y114304D02*
X298896Y113984D01*
X257834Y114304D02*
X298576D01*
X343154Y121246D02*
Y206674D01*
X571363Y528202D02*
X600250D01*
X524783Y501785D02*
X539289D01*
X573067Y535563D01*
X524783Y496785D02*
X539946D01*
X573067Y535563D02*
X596435D01*
X539946Y496785D02*
X571363Y528202D01*
X524592Y496594D02*
X524783Y496785D01*
X396092Y323094D02*
X396283Y323286D01*
X415186Y385048D02*
X452917D01*
X496092Y341873D01*
Y331304D02*
Y341873D01*
X382524Y352386D02*
X415186Y385048D01*
X357378Y352386D02*
X382524D01*
X456438Y454240D02*
X488696Y486498D01*
X332486Y136740D02*
X332740Y136486D01*
X277800Y136740D02*
X332486D01*
X270236Y144304D02*
X277800Y136740D01*
X257834Y144304D02*
X270236D01*
X693309Y309825D02*
X701837Y301297D01*
X524592Y371594D02*
X590693D01*
X644462Y317824D01*
X699788D02*
X711759Y305853D01*
X644462Y317824D02*
X699788D01*
X642805Y313825D02*
X697184D01*
X706759Y304249D01*
Y254563D02*
Y304249D01*
X641149Y309825D02*
X693309D01*
X590036Y366594D02*
X642805Y313825D01*
X609255Y341718D02*
X641149Y309825D01*
X761837Y257770D02*
Y310503D01*
X726249Y346092D02*
X761837Y310503D01*
X756837Y257770D02*
Y308354D01*
X724099Y341092D02*
X756837Y308354D01*
X722028Y336092D02*
X751759Y306361D01*
Y254563D02*
Y306361D01*
X719957Y331092D02*
X746759Y304290D01*
Y254563D02*
Y304290D01*
X548656Y411594D02*
X549656Y412594D01*
X524688Y411594D02*
X548656D01*
X549656Y412594D02*
X606563D01*
X594634Y401594D02*
X631746Y364482D01*
X524688Y401594D02*
X594634D01*
X593977Y396594D02*
X644479Y346092D01*
X606563Y412594D02*
X650675Y368481D01*
X631746Y364482D02*
X754968D01*
X526900Y366594D02*
X590036D01*
X592006Y381594D02*
X642508Y331092D01*
X527850Y381594D02*
X592006D01*
X592663Y386594D02*
X643166Y336092D01*
X593470Y391444D02*
X643822Y341092D01*
X643166Y336092D02*
X722028D01*
X643822Y341092D02*
X724099D01*
X642508Y331092D02*
X719957D01*
X644479Y346092D02*
X726249D01*
X552454Y341718D02*
X609255D01*
X608080Y416734D02*
X652332Y372481D01*
X524827Y416734D02*
X608080D01*
X650675Y368481D02*
X751897D01*
X652332Y372481D02*
X748826D01*
X524592Y416498D02*
X524827Y416734D01*
X629832Y427288D02*
X693901D01*
X606935Y461498D02*
X633146Y435288D01*
X693901Y427288D02*
X701759Y435145D01*
X669324Y376482D02*
X745755D01*
X690587Y435288D02*
X691759Y436459D01*
X633146Y435288D02*
X690587D01*
X695558Y423288D02*
X706759Y434489D01*
X631489Y431288D02*
X692244D01*
X628175Y423288D02*
X695558D01*
X692244Y431288D02*
X696759Y435802D01*
X691759Y436459D02*
Y447563D01*
X600869Y486403D02*
X647444Y532978D01*
X524783Y486403D02*
X600869D01*
X524592Y486594D02*
X524783Y486403D01*
X634335Y471594D02*
X650969Y488228D01*
X524592Y471594D02*
X634335D01*
X622206Y476594D02*
X645318Y499706D01*
X524592Y476594D02*
X622206D01*
X605454Y481594D02*
X627975Y504114D01*
X524592Y481594D02*
X605454D01*
X524592Y461498D02*
X606935D01*
X524592Y501594D02*
X524783Y501785D01*
X223774Y133692D02*
X224386Y134304D01*
X494642Y497847D02*
X508389Y511594D01*
X494642Y480044D02*
Y497847D01*
X508855Y506403D02*
X524400D01*
X508389Y511594D02*
X524592D01*
X494642Y480044D02*
X501650Y473036D01*
X456438Y441032D02*
Y454240D01*
X435253Y113304D02*
X436253Y114304D01*
X647444Y532978D02*
X674190D01*
X544078Y350094D02*
X552454Y341718D01*
X373634Y517740D02*
X376092Y520198D01*
X312563Y323684D02*
X313000Y324121D01*
X312592Y341594D02*
X313000Y341186D01*
X670218Y669672D02*
X670306Y669760D01*
X722679Y560129D02*
X756970D01*
X758142Y558958D01*
X732744Y548728D02*
X733243Y548228D01*
X699528Y536978D02*
X722679Y560129D01*
X728218Y274579D02*
Y275932D01*
X650969Y488228D02*
X658435D01*
X683835Y538522D02*
X685379Y536978D01*
X671135Y536033D02*
Y548228D01*
X685379Y536978D02*
X699528D01*
X671135Y536033D02*
X674190Y532978D01*
X683835Y548228D02*
Y561361D01*
Y538522D02*
Y548228D01*
X791722Y553808D02*
X811276D01*
X772162Y534248D02*
X791722Y553808D01*
X639963Y567915D02*
X677281D01*
X600250Y528202D02*
X639963Y567915D01*
X677281D02*
X683835Y561361D01*
X596435Y535563D02*
X637658Y576786D01*
X679569D01*
X696535Y559819D01*
X308610Y241218D02*
X343154Y206674D01*
X308610Y241218D02*
Y269836D01*
X232544Y681570D02*
X233809Y682835D01*
X792480Y519264D02*
X793493D01*
X541540Y577176D02*
X576580D01*
X481725Y572873D02*
X537237D01*
X541540Y577176D01*
X415750Y129500D02*
X416707Y128543D01*
X542578Y351594D02*
X544078Y350094D01*
X544078D01*
X524592Y351594D02*
X542578D01*
X476092Y535094D02*
Y567240D01*
X481725Y572873D01*
X390999Y323187D02*
X391092Y323094D01*
X222228Y274662D02*
X222504Y274938D01*
X696759Y435802D02*
Y447563D01*
X701759Y435145D02*
Y447563D01*
X706759Y434489D02*
Y447563D01*
X756759Y380414D02*
Y447563D01*
X748826Y372481D02*
X756759Y380414D01*
X745755Y376482D02*
X751759Y382485D01*
Y447563D01*
X761759Y378343D02*
Y447563D01*
X751897Y368481D02*
X761759Y378343D01*
X515889Y282028D02*
X531993D01*
X491092Y306825D02*
X515889Y282028D01*
X471092Y309147D02*
Y323094D01*
X271909Y672938D02*
Y682835D01*
X758142Y548730D02*
Y558958D01*
Y548730D02*
X758643Y548228D01*
X491092Y306825D02*
Y323094D01*
X401000Y245855D02*
X401450Y246305D01*
X340901Y322903D02*
X341092Y323094D01*
X811276Y537047D02*
Y537786D01*
X352932Y682659D02*
X354529Y681062D01*
X310788Y562435D02*
X325873D01*
X331092Y535094D02*
Y557216D01*
X325873Y562435D02*
X331092Y557216D01*
X310017Y563206D02*
X310788Y562435D01*
X758643Y498827D02*
X793496D01*
X758643Y488228D02*
Y498827D01*
X758643Y498827D01*
X745943Y543228D02*
Y548228D01*
X687814Y504114D02*
X753869D01*
X758643Y499340D01*
X627975Y504114D02*
X687814D01*
X683835Y500135D02*
X687814Y504114D01*
X683835Y488228D02*
Y500135D01*
X267208Y667600D02*
Y668237D01*
X524400Y506403D02*
X524592Y506594D01*
X676685Y519478D02*
X677233Y520026D01*
X750184Y520788D02*
X751493Y519478D01*
X595718Y611172D02*
X595884Y611006D01*
X696535Y488228D02*
X696756Y488008D01*
X771343Y488228D02*
X771625Y487947D01*
Y474079D02*
X771906Y473798D01*
X711793Y231873D02*
X711837Y231918D01*
X689017Y231873D02*
X689565Y232421D01*
X524592Y356594D02*
X552925D01*
X370901Y534902D02*
X371092Y535094D01*
X552925Y356594D02*
X553069Y356450D01*
X645318Y499706D02*
X669036D01*
X671185Y497557D01*
Y488178D02*
X671361Y488002D01*
X766759Y376272D02*
Y447563D01*
X696535Y548228D02*
Y559819D01*
X703874Y567158D01*
X766027D01*
X771343Y561841D01*
Y548228D02*
Y561841D01*
X671361Y475231D02*
Y488002D01*
X754968Y364482D02*
X766759Y376272D01*
X835235Y87239D02*
X833569Y85572D01*
Y82240D01*
X835235Y80574D01*
X836901D01*
X838568Y82240D01*
Y85572D01*
X840234Y87239D01*
X841900D01*
X843566Y85572D01*
Y82240D01*
X841900Y80574D01*
X843566Y90571D02*
X833569D01*
Y95569D01*
X835235Y97235D01*
X838568D01*
X840234Y95569D01*
Y90571D01*
X843566Y100568D02*
X833569D01*
X843566Y107232D01*
X833569D01*
X843566Y115563D02*
Y112231D01*
X841900Y110564D01*
X838568D01*
X836901Y112231D01*
Y115563D01*
X838568Y117229D01*
X840234D01*
Y110564D01*
X833569Y120561D02*
X843566Y127226D01*
X833569D02*
X843566Y120561D01*
Y140555D02*
X833569D01*
Y145553D01*
X835235Y147219D01*
X838568D01*
X840234Y145553D01*
Y140555D01*
X843566Y150552D02*
X836901D01*
X833569Y153884D01*
X836901Y157216D01*
X843566D01*
X838568D01*
Y150552D01*
X833569Y160548D02*
X835235D01*
X838568Y163881D01*
X835235Y167213D01*
X833569D01*
X838568Y163881D02*
X843566D01*
X833569Y170545D02*
X843566D01*
Y177209D01*
X833569Y185540D02*
Y182208D01*
X835235Y180542D01*
X841900D01*
X843566Y182208D01*
Y185540D01*
X841900Y187206D01*
X835235D01*
X833569Y185540D01*
X843566Y190539D02*
X836901D01*
X833569Y193871D01*
X836901Y197203D01*
X843566D01*
X838568D01*
Y190539D01*
X833569Y200535D02*
X843566D01*
Y205534D01*
X841900Y207200D01*
X835235D01*
X833569Y205534D01*
Y200535D01*
Y220529D02*
X840234D01*
X843566Y223861D01*
X840234Y227193D01*
X833569D01*
X843566Y237190D02*
Y230526D01*
X836901Y237190D01*
X835235D01*
X833569Y235524D01*
Y232192D01*
X835235Y230526D01*
X843566Y240522D02*
X841900D01*
Y242189D01*
X843566D01*
Y240522D01*
X835235Y248853D02*
X833569Y250519D01*
Y253852D01*
X835235Y255518D01*
X841900D01*
X843566Y253852D01*
Y250519D01*
X841900Y248853D01*
X835235D01*
D14*
X423529Y305927D02*
X426092Y308490D01*
X431092Y308705D02*
Y323094D01*
Y308705D02*
X431392Y308405D01*
X426092Y308490D02*
Y323094D01*
X445012Y599368D02*
X507663D01*
X564217Y655922D01*
X431092Y585448D02*
X445012Y599368D01*
X510901Y594590D02*
X559983Y643672D01*
X595718D01*
X447305Y594590D02*
X510901D01*
X436092Y583377D02*
X447305Y594590D01*
X431092Y544144D02*
Y585448D01*
X436092Y533591D02*
Y583377D01*
X595718Y650172D02*
X596444Y649446D01*
X611433Y641341D02*
Y644523D01*
X606510Y649446D02*
X611433Y644523D01*
Y641341D02*
X612095Y640679D01*
X596444Y649446D02*
X606510D01*
X595718Y656672D02*
X596220Y656170D01*
X607717D01*
X612044Y651843D01*
X612980D01*
X609090Y663172D02*
X611930Y660332D01*
X595718Y663172D02*
X609090D01*
X611930Y660332D02*
X612866D01*
X620877Y721548D02*
X628396Y729068D01*
X620877Y639761D02*
Y721548D01*
X611788Y630672D02*
X620877Y639761D01*
X626729Y703054D02*
X648989Y725314D01*
X626729Y638247D02*
Y703054D01*
X612654Y624172D02*
X626729Y638247D01*
X632218Y691918D02*
X668812Y728512D01*
X676700D01*
X632218Y635608D02*
Y691918D01*
X614568Y617958D02*
X632218Y635608D01*
X639152Y684205D02*
X639431Y684485D01*
X639152Y664034D02*
Y684205D01*
X639431Y638233D02*
Y663754D01*
X639152Y664034D02*
X639431Y663754D01*
Y638233D02*
X646992Y630672D01*
X648989Y725314D02*
X649788D01*
X653288Y728814D01*
X595718Y637172D02*
X595718Y637172D01*
X578458Y629793D02*
Y634070D01*
X577968Y629303D02*
X578458Y629793D01*
Y634070D02*
X581560Y637172D01*
X595718D01*
X646992Y630672D02*
X670218D01*
X657111Y656672D02*
X670218D01*
X645922Y666838D02*
X646945D01*
X657111Y656672D01*
X536303Y639790D02*
X560155Y663642D01*
X536303Y635405D02*
Y639790D01*
X517647Y616749D02*
X536303Y635405D01*
X442808Y604235D02*
X505134D01*
X517647Y616749D02*
X517647D01*
X505134Y604235D02*
X517647Y616749D01*
X647226Y656983D02*
X654037Y650172D01*
X670218D01*
X564217Y655922D02*
X570490D01*
X408660Y571281D02*
X408826D01*
X401092Y535094D02*
Y563712D01*
X408660Y571281D01*
X329440Y381594D02*
X334010Y377024D01*
X312592Y381594D02*
X329440D01*
X312592Y426594D02*
X331816D01*
X334570Y429348D01*
X335534D01*
X411092Y521176D02*
X418084Y514184D01*
X411092Y521176D02*
Y535094D01*
X517805Y589130D02*
X544954Y616279D01*
X455555Y589130D02*
X517805D01*
X544954Y616279D02*
X544954D01*
X457626Y584130D02*
X523197D01*
X545445Y606378D01*
X421092Y582519D02*
X442808Y604235D01*
X446092Y579666D02*
X455555Y589130D01*
X451092Y577595D02*
X457626Y584130D01*
X421092Y536498D02*
Y582519D01*
X596512Y617958D02*
X614568D01*
X596226Y624172D02*
X612654D01*
X595718Y630672D02*
X611788D01*
X446092Y535094D02*
Y579666D01*
X451092Y535094D02*
Y577595D01*
D15*
X399542Y273138D02*
X401092Y274688D01*
D18*
X377720Y34378D02*
D03*
X390220D02*
D03*
X402720D02*
D03*
X415220D02*
D03*
X427720D02*
D03*
X440220D02*
D03*
X452720D02*
D03*
X465220D02*
D03*
X477720D02*
D03*
X490220D02*
D03*
X127500Y5000D02*
D03*
X115000D02*
D03*
X102500D02*
D03*
X90000D02*
D03*
X77500D02*
D03*
X65000D02*
D03*
X709250D02*
D03*
X721750D02*
D03*
X734250D02*
D03*
X746750D02*
D03*
X244148Y5720D02*
D03*
X231648D02*
D03*
X219148D02*
D03*
D19*
X352220Y5378D02*
D03*
X515720D02*
D03*
X153000Y-24000D02*
D03*
X39500D02*
D03*
X683750D02*
D03*
X772250D02*
D03*
X269648Y-23280D02*
D03*
X193648D02*
D03*
D20*
X771400Y42897D02*
D03*
Y26875D02*
D03*
X478028Y119742D02*
D03*
Y103720D02*
D03*
X252476Y304497D02*
D03*
Y320519D02*
D03*
X224597Y188220D02*
D03*
Y204242D02*
D03*
X587533Y723545D02*
D03*
Y739567D02*
D03*
X538988Y685263D02*
D03*
Y669241D02*
D03*
X793496Y482805D02*
D03*
Y498827D02*
D03*
X811276Y537786D02*
D03*
Y553808D02*
D03*
X714142Y232112D02*
D03*
Y216090D02*
D03*
X689017Y215851D02*
D03*
Y231873D02*
D03*
X223070Y342101D02*
D03*
Y326080D02*
D03*
X564852Y697681D02*
D03*
Y713703D02*
D03*
X520215Y79981D02*
D03*
Y63959D02*
D03*
X403352Y58879D02*
D03*
Y74901D02*
D03*
X761746Y234181D02*
D03*
Y218159D02*
D03*
X786871Y208485D02*
D03*
Y224507D02*
D03*
D21*
X813286Y46166D02*
D03*
X797264D02*
D03*
X548015Y282028D02*
D03*
X531993D02*
D03*
X106563Y146392D02*
D03*
X90541D02*
D03*
X106817Y99148D02*
D03*
X90795D02*
D03*
X220843Y152996D02*
D03*
X236865D02*
D03*
X310017Y563206D02*
D03*
X293995D02*
D03*
X106817Y123024D02*
D03*
X90795D02*
D03*
X531602Y307936D02*
D03*
X547624D02*
D03*
X106563Y169760D02*
D03*
X90541D02*
D03*
D22*
X649335Y76111D02*
D03*
X660665Y64781D02*
D03*
D23*
X688457Y97929D02*
D03*
X762958Y91429D02*
D03*
X688457D02*
D03*
X762958Y84929D02*
D03*
X688457Y78429D02*
D03*
X762958Y71929D02*
D03*
X688457Y84929D02*
D03*
X762958Y78429D02*
D03*
Y110929D02*
D03*
X688457Y104429D02*
D03*
Y110929D02*
D03*
X762958Y104429D02*
D03*
Y97929D02*
D03*
Y117429D02*
D03*
X688457Y71929D02*
D03*
X762958Y65429D02*
D03*
X688457D02*
D03*
Y117429D02*
D03*
Y123929D02*
D03*
X762958D02*
D03*
X670218Y611172D02*
D03*
Y617672D02*
D03*
Y624172D02*
D03*
Y630672D02*
D03*
Y637172D02*
D03*
Y643672D02*
D03*
Y650172D02*
D03*
Y656672D02*
D03*
Y663172D02*
D03*
Y669672D02*
D03*
X595718Y611172D02*
D03*
Y617672D02*
D03*
Y624172D02*
D03*
Y630672D02*
D03*
Y637172D02*
D03*
Y643672D02*
D03*
Y650172D02*
D03*
Y656672D02*
D03*
Y663172D02*
D03*
Y669672D02*
D03*
D24*
X255524Y711998D02*
D03*
Y735498D02*
D03*
X114808Y705888D02*
D03*
Y729388D02*
D03*
X79756Y705888D02*
D03*
Y729388D02*
D03*
X310642Y712492D02*
D03*
Y735992D02*
D03*
X205994Y705888D02*
D03*
Y729388D02*
D03*
D25*
X763712Y610958D02*
D03*
X787212D02*
D03*
X763712Y633733D02*
D03*
X787212D02*
D03*
X763712Y656509D02*
D03*
X787212D02*
D03*
X763712Y679284D02*
D03*
X787212D02*
D03*
D26*
X5124Y119460D02*
D03*
Y131960D02*
D03*
Y144460D02*
D03*
Y156960D02*
D03*
Y169460D02*
D03*
Y181960D02*
D03*
X5000Y570250D02*
D03*
Y582750D02*
D03*
Y595250D02*
D03*
Y607750D02*
D03*
Y620250D02*
D03*
Y632750D02*
D03*
Y645250D02*
D03*
Y657750D02*
D03*
Y670250D02*
D03*
Y682750D02*
D03*
Y695250D02*
D03*
Y707750D02*
D03*
X29210Y477440D02*
D03*
Y464940D02*
D03*
Y452440D02*
D03*
Y439940D02*
D03*
Y427440D02*
D03*
Y414940D02*
D03*
Y402440D02*
D03*
Y389940D02*
D03*
Y377440D02*
D03*
Y364940D02*
D03*
Y352440D02*
D03*
Y339940D02*
D03*
Y327440D02*
D03*
Y314940D02*
D03*
D27*
X-23876Y93960D02*
D03*
Y207460D02*
D03*
X-24000Y544750D02*
D03*
Y733250D02*
D03*
X210Y289440D02*
D03*
Y502940D02*
D03*
D28*
X233809Y682835D02*
D03*
X246509D02*
D03*
X259209D02*
D03*
X271909D02*
D03*
Y634514D02*
D03*
X259209D02*
D03*
X246509D02*
D03*
X314832Y682659D02*
D03*
X327532D02*
D03*
X340232D02*
D03*
X352932D02*
D03*
Y634338D02*
D03*
X340232D02*
D03*
X327532D02*
D03*
D29*
X233809Y634514D02*
D03*
X314832Y634338D02*
D03*
D30*
X552419Y92290D02*
D03*
Y104990D02*
D03*
Y117690D02*
D03*
Y130390D02*
D03*
X600741D02*
D03*
Y117690D02*
D03*
Y104990D02*
D03*
D31*
Y92290D02*
D03*
D32*
X376050Y277195D02*
D03*
X401450D02*
D03*
Y246305D02*
D03*
X376050D02*
D03*
D33*
X251228Y274662D02*
D03*
X222228D02*
D03*
D34*
X312592Y516594D02*
D03*
Y511594D02*
D03*
Y506594D02*
D03*
Y501594D02*
D03*
Y496594D02*
D03*
Y491594D02*
D03*
Y486594D02*
D03*
Y481594D02*
D03*
Y476594D02*
D03*
Y471594D02*
D03*
Y466594D02*
D03*
Y461594D02*
D03*
Y456594D02*
D03*
Y451594D02*
D03*
Y446594D02*
D03*
Y441594D02*
D03*
Y436594D02*
D03*
Y431594D02*
D03*
Y426594D02*
D03*
Y421594D02*
D03*
Y416594D02*
D03*
Y411594D02*
D03*
Y406594D02*
D03*
Y401594D02*
D03*
Y396594D02*
D03*
Y391594D02*
D03*
Y386594D02*
D03*
Y381594D02*
D03*
Y376594D02*
D03*
Y371594D02*
D03*
Y366594D02*
D03*
Y361594D02*
D03*
Y356594D02*
D03*
Y351594D02*
D03*
Y346594D02*
D03*
Y341594D02*
D03*
X524592D02*
D03*
Y346594D02*
D03*
Y351594D02*
D03*
Y356594D02*
D03*
Y361594D02*
D03*
Y366594D02*
D03*
Y371594D02*
D03*
Y376594D02*
D03*
Y381594D02*
D03*
Y386594D02*
D03*
Y391594D02*
D03*
Y396594D02*
D03*
Y401594D02*
D03*
Y406594D02*
D03*
Y411594D02*
D03*
Y416594D02*
D03*
Y421594D02*
D03*
Y426594D02*
D03*
Y431594D02*
D03*
Y436594D02*
D03*
Y441594D02*
D03*
Y446594D02*
D03*
Y451594D02*
D03*
Y456594D02*
D03*
Y461594D02*
D03*
Y466594D02*
D03*
Y471594D02*
D03*
Y476594D02*
D03*
Y481594D02*
D03*
Y486594D02*
D03*
Y491594D02*
D03*
Y496594D02*
D03*
Y501594D02*
D03*
Y506594D02*
D03*
Y511594D02*
D03*
Y516594D02*
D03*
D35*
X331092Y323094D02*
D03*
X336092D02*
D03*
X341092D02*
D03*
X346092D02*
D03*
X351092D02*
D03*
X356092D02*
D03*
X361092D02*
D03*
X366092D02*
D03*
X371092D02*
D03*
X376092D02*
D03*
X381092D02*
D03*
X386092D02*
D03*
X391092D02*
D03*
X396092D02*
D03*
X401092D02*
D03*
X406092D02*
D03*
X411092D02*
D03*
X416092D02*
D03*
X421092D02*
D03*
X426092D02*
D03*
X431092D02*
D03*
X436092D02*
D03*
X441092D02*
D03*
X446092D02*
D03*
X451092D02*
D03*
X456092D02*
D03*
X461092D02*
D03*
X466092D02*
D03*
X471092D02*
D03*
X476092D02*
D03*
X481092D02*
D03*
X486092D02*
D03*
X491092D02*
D03*
X496092D02*
D03*
X501092D02*
D03*
X506092D02*
D03*
Y535094D02*
D03*
X501092D02*
D03*
X496092D02*
D03*
X491092D02*
D03*
X486092D02*
D03*
X481092D02*
D03*
X476092D02*
D03*
X471092D02*
D03*
X466092D02*
D03*
X461092D02*
D03*
X456092D02*
D03*
X451092D02*
D03*
X446092D02*
D03*
X441092D02*
D03*
X436092D02*
D03*
X431092D02*
D03*
X426092D02*
D03*
X421092D02*
D03*
X416092D02*
D03*
X411092D02*
D03*
X406092D02*
D03*
X401092D02*
D03*
X396092D02*
D03*
X391092D02*
D03*
X386092D02*
D03*
X381092D02*
D03*
X376092D02*
D03*
X371092D02*
D03*
X366092D02*
D03*
X361092D02*
D03*
X356092D02*
D03*
X351092D02*
D03*
X346092D02*
D03*
X341092D02*
D03*
X336092D02*
D03*
X331092D02*
D03*
D36*
X558514Y426808D02*
D03*
X574548D02*
D03*
X553069Y356450D02*
D03*
X569103D02*
D03*
X312563Y323684D02*
D03*
X296529D02*
D03*
D37*
X257834Y204304D02*
D03*
Y199304D02*
D03*
Y194304D02*
D03*
Y189304D02*
D03*
Y184304D02*
D03*
Y179304D02*
D03*
Y174304D02*
D03*
Y169304D02*
D03*
Y164304D02*
D03*
Y159304D02*
D03*
Y154304D02*
D03*
Y149304D02*
D03*
Y144304D02*
D03*
Y139304D02*
D03*
Y134304D02*
D03*
Y129304D02*
D03*
Y124304D02*
D03*
Y119304D02*
D03*
Y114304D02*
D03*
Y109304D02*
D03*
Y104304D02*
D03*
Y99304D02*
D03*
Y94304D02*
D03*
Y89304D02*
D03*
X449834Y204304D02*
D03*
Y199304D02*
D03*
Y194304D02*
D03*
Y189304D02*
D03*
Y184304D02*
D03*
Y179304D02*
D03*
Y174304D02*
D03*
Y169304D02*
D03*
Y164304D02*
D03*
Y159304D02*
D03*
Y154304D02*
D03*
Y149304D02*
D03*
Y144304D02*
D03*
Y139304D02*
D03*
Y134304D02*
D03*
Y129304D02*
D03*
Y124304D02*
D03*
Y119304D02*
D03*
Y114304D02*
D03*
Y109304D02*
D03*
Y104304D02*
D03*
Y99304D02*
D03*
Y94304D02*
D03*
Y89304D02*
D03*
D38*
X671837Y257770D02*
D03*
X676837D02*
D03*
X681837D02*
D03*
X686837D02*
D03*
X691837D02*
D03*
X696837D02*
D03*
X701837D02*
D03*
X706837D02*
D03*
X711837D02*
D03*
X716837D02*
D03*
X721837D02*
D03*
X726837D02*
D03*
X731837D02*
D03*
X736837D02*
D03*
X741837D02*
D03*
X746837D02*
D03*
X751837D02*
D03*
X756837D02*
D03*
X761837D02*
D03*
X766837D02*
D03*
X771837D02*
D03*
X776837D02*
D03*
X781837D02*
D03*
X786837D02*
D03*
X671837Y449770D02*
D03*
X676837D02*
D03*
X681837D02*
D03*
X686837D02*
D03*
X691837D02*
D03*
X696837D02*
D03*
X701837D02*
D03*
X706837D02*
D03*
X711837D02*
D03*
X716837D02*
D03*
X721837D02*
D03*
X726837D02*
D03*
X731837D02*
D03*
X736837D02*
D03*
X741837D02*
D03*
X746837D02*
D03*
X751837D02*
D03*
X756837D02*
D03*
X761837D02*
D03*
X766837D02*
D03*
X771837D02*
D03*
X776837D02*
D03*
X781837D02*
D03*
X786837D02*
D03*
D39*
X142407Y730325D02*
D03*
Y717625D02*
D03*
X168542Y822385D02*
D03*
Y835085D02*
D03*
X193458Y822385D02*
D03*
Y835085D02*
D03*
X608579Y728622D02*
D03*
Y741322D02*
D03*
X628396Y729068D02*
D03*
Y741768D02*
D03*
X653288Y728814D02*
D03*
Y741514D02*
D03*
X676700Y728512D02*
D03*
Y741212D02*
D03*
X448794Y704142D02*
D03*
Y716842D02*
D03*
X186944Y620356D02*
D03*
Y633056D02*
D03*
X467510Y704142D02*
D03*
Y716842D02*
D03*
X622052Y62825D02*
D03*
Y50125D02*
D03*
D40*
X247142Y576668D02*
D03*
X234442D02*
D03*
X236591Y821738D02*
D03*
X249291D02*
D03*
D41*
X751493Y519478D02*
D03*
X676685D02*
D03*
D42*
X733243Y548228D02*
D03*
X745943D02*
D03*
X758643D02*
D03*
X771343D02*
D03*
Y488228D02*
D03*
X758643D02*
D03*
X745943D02*
D03*
X733243D02*
D03*
X658435Y548228D02*
D03*
X671135D02*
D03*
X683835D02*
D03*
X696535D02*
D03*
Y488228D02*
D03*
X683835D02*
D03*
X671135D02*
D03*
X658435D02*
D03*
D43*
X285496Y708500D02*
D03*
Y691500D02*
D03*
D44*
X742814Y610704D02*
D03*
X725814D02*
D03*
X742814Y633649D02*
D03*
X725814D02*
D03*
X742814Y656593D02*
D03*
X725814D02*
D03*
X742814Y679538D02*
D03*
X725814D02*
D03*
D45*
X598684Y72031D02*
D03*
Y48032D02*
D03*
D66*
X33413Y758019D02*
D03*
X790000Y70000D02*
D03*
D67*
X440344Y37869D02*
Y49285D01*
X443459Y52400D01*
X434263Y200643D02*
X434834Y200072D01*
X434263Y200643D02*
Y204657D01*
X439852Y37378D02*
X440344Y37869D01*
X574609Y426869D02*
X591278D01*
X591801Y427392D02*
X593227D01*
X574548Y426808D02*
X574609Y426869D01*
X591278D02*
X591801Y427392D01*
X613095Y71782D02*
X622052Y62825D01*
X598934Y71782D02*
X613095D01*
X598684Y72031D02*
X598934Y71782D01*
X711793Y216496D02*
X734568D01*
X677656Y203751D02*
X688726Y214821D01*
X724027Y189064D02*
X733044D01*
X676655Y202750D02*
X688726Y214821D01*
X677844Y179915D02*
X686449Y188519D01*
X677668Y180091D02*
Y190816D01*
X694780Y188519D02*
X700278Y194017D01*
X677668Y180091D02*
X677844Y179915D01*
X686449Y188519D02*
X694780D01*
X676655Y191829D02*
X677668Y190816D01*
X676655Y191829D02*
Y202750D01*
X677668Y190816D02*
X684152D01*
X677493Y203914D02*
X688726Y215147D01*
Y216496D02*
X734568D01*
X273204Y735418D02*
X274000Y734622D01*
X256024Y735418D02*
X273204D01*
X285242Y675139D02*
Y678912D01*
Y667346D02*
Y675139D01*
Y678912D02*
Y686412D01*
X280035Y662139D02*
X285242Y667346D01*
X280035Y661885D02*
Y662139D01*
X194122Y729388D02*
X205994D01*
X599934Y72031D02*
X600184Y72281D01*
X599186Y88480D02*
X600184Y87482D01*
X598684Y72031D02*
X599934D01*
X600184Y72281D02*
Y87482D01*
X767496Y211670D02*
X772037D01*
X761746Y217420D02*
X767496Y211670D01*
X761746Y217420D02*
Y218159D01*
X441990Y513559D02*
Y518218D01*
X441092Y519116D02*
X441990Y518218D01*
X492506Y411314D02*
X506202Y425010D01*
X492506Y406742D02*
Y411314D01*
X369062Y513168D02*
X373634Y517740D01*
X312928Y324193D02*
Y332320D01*
Y324193D02*
X313000Y324121D01*
X400006Y515141D02*
X402592Y517727D01*
X391863Y515141D02*
X400006D01*
X338074Y470344D02*
X338133Y470404D01*
X338074Y443318D02*
Y470344D01*
X330473Y396563D02*
X365430D01*
X330442Y396594D02*
X330473Y396563D01*
X490220Y66658D02*
X490291Y66729D01*
X490220Y34378D02*
Y66658D01*
X402720Y3821D02*
Y34378D01*
Y3821D02*
X402979Y3562D01*
X223070Y325340D02*
Y326080D01*
Y325340D02*
X223361Y325049D01*
X229276Y319874D02*
X239268D01*
X223361Y325049D02*
X224100D01*
X229276Y319874D01*
X479725Y244609D02*
X480060Y244273D01*
Y198940D02*
Y244273D01*
Y198940D02*
X503750Y175250D01*
X725814Y577820D02*
Y587200D01*
Y595582D01*
Y610704D01*
Y633649D01*
Y656593D01*
Y679538D01*
X425827Y503131D02*
X430276Y507580D01*
X425827Y500468D02*
Y503131D01*
X430276Y507580D02*
Y512531D01*
X22560Y131960D02*
X40894Y113626D01*
X5124Y131960D02*
X22560D01*
X-12746D02*
X5124D01*
X-12954Y132168D02*
X-12746Y131960D01*
X224342Y204496D02*
Y216434D01*
Y204496D02*
X224597Y204242D01*
X221488Y153287D02*
Y168998D01*
X220843Y152996D02*
X221197D01*
X221488Y153287D01*
X114762Y-17900D02*
Y1660D01*
Y-17900D02*
X114808Y-17946D01*
X688726Y215560D02*
X689017Y215851D01*
X688726Y214821D02*
Y216496D01*
X711793Y192281D02*
X720810D01*
X724027Y189064D01*
X711793Y192281D02*
Y215851D01*
X696722Y477354D02*
Y487974D01*
X696756Y488008D01*
X548116Y426869D02*
X558453D01*
X545292Y429693D02*
X548116Y426869D01*
X558453D02*
X558514Y426808D01*
X276545Y323745D02*
X296468D01*
X296529Y323684D01*
X270510Y329780D02*
X276545Y323745D01*
X65532Y708494D02*
X67388Y706638D01*
X79919D01*
X79822Y729388D02*
X90424Y739990D01*
X115058Y728388D02*
Y729888D01*
X105664Y739282D02*
X115058Y729888D01*
X105664Y739282D02*
Y740752D01*
X223774Y133692D02*
X237735D01*
X424750Y139026D02*
Y139596D01*
X547624Y307936D02*
X566674D01*
X548015Y282028D02*
X567182D01*
X252185Y319874D02*
X252476Y320165D01*
X239268Y319874D02*
X252185D01*
X252476Y320165D02*
Y320519D01*
X722544Y548000D02*
X729344Y548330D01*
X722544Y548000D02*
X729014D01*
X729344Y548330D01*
X793496Y467194D02*
Y482805D01*
X793493Y519264D02*
X811276Y537047D01*
X538988Y658211D02*
Y669241D01*
X569103Y356450D02*
X582930D01*
X733044Y214972D02*
X734568Y216496D01*
X733044Y202018D02*
Y214972D01*
X293704Y563497D02*
X293995Y563206D01*
X278855Y563497D02*
X293704D01*
X278638Y563714D02*
X278855Y563497D01*
X222504Y274938D02*
Y291934D01*
X401000Y230750D02*
Y245855D01*
X677233Y520026D02*
X696976D01*
X726440Y520788D02*
X750184D01*
X771625Y474079D02*
Y487947D01*
X743068Y679284D02*
X763712D01*
X742814Y610704D02*
X761934D01*
X742814Y633649D02*
X762357D01*
X742814Y656593D02*
X762781D01*
D68*
X396075Y194169D02*
X436965Y235059D01*
X363508Y74047D02*
X396075Y106614D01*
Y194169D01*
X431392Y282120D02*
Y308405D01*
X436965Y235059D02*
Y276547D01*
X431392Y282120D02*
X436965Y276547D01*
X383658Y200524D02*
X423529Y240395D01*
X383658Y112763D02*
Y200524D01*
X423529Y240395D02*
Y305927D01*
X306797Y35902D02*
X383658Y112763D01*
X304098Y35902D02*
X306797D01*
X301752Y35394D02*
X302250Y35891D01*
X304088D02*
X304098Y35902D01*
X302250Y35891D02*
X304088D01*
D69*
X412921Y111082D02*
X413189D01*
X420833Y118727D01*
X425407D01*
X427165Y120484D01*
X430276D01*
X415469Y285736D02*
Y303458D01*
X411092Y307835D02*
X415469Y303458D01*
Y285736D02*
X415529Y285677D01*
X350598Y738767D02*
Y745002D01*
X324323Y712492D02*
X350598Y738767D01*
X310642Y712492D02*
X324323D01*
X620255Y48349D02*
X634552D01*
X635524Y47378D02*
X635794D01*
X619552Y47647D02*
X620255Y48349D01*
X634552D02*
X635524Y47378D01*
X600741Y92290D02*
X600782Y92248D01*
X598684Y48032D02*
X599253Y47463D01*
X575100Y768244D02*
Y770000D01*
X587179Y739922D02*
Y756166D01*
X575100Y768244D02*
X587179Y756166D01*
Y739922D02*
X587533Y739567D01*
X257847Y709675D02*
X284321D01*
X285496Y708500D01*
X255524Y711998D02*
X257847Y709675D01*
X547161Y526070D02*
X553435Y532344D01*
X547161Y522103D02*
Y526070D01*
X541652Y516594D02*
X547161Y522103D01*
X600931Y403948D02*
X601472D01*
X597785Y407094D02*
X600931Y403948D01*
X551934Y407094D02*
X597785D01*
X427261Y378548D02*
X435102D01*
X417490Y368777D02*
X427261Y378548D01*
X417490Y368777D02*
X417490D01*
X408102Y359389D02*
X417490Y368777D01*
X408102Y340626D02*
Y359389D01*
X406092Y338616D02*
X408102Y340626D01*
X293530Y425000D02*
X296420Y422110D01*
X266041Y425000D02*
X293530D01*
X259291Y431750D02*
X266041Y425000D01*
X258750Y431750D02*
X259291D01*
X289340Y371690D02*
X293920Y367110D01*
X263652Y371690D02*
X289340D01*
X579120Y517232D02*
X589151Y507201D01*
Y499323D02*
Y507201D01*
X581914Y492086D02*
X589151Y499323D01*
X543406Y492086D02*
X581914D01*
X787212Y610958D02*
X803476D01*
X786462D02*
X787212D01*
X787532Y655977D02*
X804545D01*
X787283Y679212D02*
X804297D01*
X787720Y633733D02*
X804734D01*
X567182Y282028D02*
X567436Y282282D01*
X567088Y281934D02*
X567182Y282028D01*
X567088Y268281D02*
Y281934D01*
X566896Y268090D02*
X567088Y268281D01*
X427468Y160122D02*
Y181999D01*
X434045Y188576D02*
Y189117D01*
X427468Y181999D02*
X434045Y188576D01*
X387096Y698334D02*
X387350Y698588D01*
X387096Y673696D02*
Y698334D01*
X386842Y673442D02*
X387096Y673696D01*
X386459Y673059D02*
X386842Y673442D01*
X317761Y664426D02*
X383913D01*
X386459Y666973D02*
Y673059D01*
X383913Y664426D02*
X386459Y666973D01*
X314832Y667355D02*
X317761Y664426D01*
X314832Y667355D02*
Y682659D01*
X600760Y130410D02*
Y138966D01*
X434585Y97443D02*
Y113304D01*
X436143Y95344D02*
Y95885D01*
X434585Y97443D02*
X436143Y95885D01*
X289760Y454576D02*
X291778Y456594D01*
X216662Y432904D02*
X216916Y432650D01*
X282873Y153504D02*
X301884D01*
X271042Y165335D02*
X282873Y153504D01*
X301884D02*
X311786Y163406D01*
Y194716D01*
X319532Y202462D01*
Y202526D01*
X427468Y160122D02*
X433133Y154457D01*
X653288Y741514D02*
Y768012D01*
X651300Y770000D02*
X653288Y768012D01*
X625900Y766753D02*
Y770000D01*
X628396Y741768D02*
Y764257D01*
X625900Y766753D02*
X628396Y764257D01*
X425133Y139409D02*
X428993D01*
X424750Y139026D02*
X425133Y139409D01*
X428993D02*
X433888Y144304D01*
X418121Y128543D02*
X429191D01*
X434952Y134304D01*
X416674Y129117D02*
X417547D01*
X418121Y128543D01*
X416403Y128847D02*
X416674Y129117D01*
X658435Y548228D02*
Y559430D01*
X658876Y559871D01*
Y560412D01*
X608579Y741322D02*
Y761921D01*
X600500Y770000D02*
X608579Y761921D01*
X676700Y741212D02*
X676700Y741212D01*
Y770000D01*
D70*
X739140Y-17184D02*
Y-16368D01*
X744826D01*
X748538Y-20080D01*
Y-21756D02*
Y-20080D01*
X725965Y-14009D02*
X729140Y-17184D01*
X719140Y-14009D02*
X725965D01*
X734250Y4250D02*
Y5000D01*
Y4250D02*
X734500Y4000D01*
X683750Y-24000D02*
X686968D01*
X689990Y-20978D01*
X711073Y-14009D02*
X715965D01*
X719140Y-17184D01*
X703834Y-21248D02*
X711073Y-14009D01*
X731499D02*
X734500D01*
X729140Y-16368D02*
X731499Y-14009D01*
X729140Y-17184D02*
Y-16368D01*
X734500Y-12544D02*
Y4000D01*
Y-12544D02*
X739140Y-17184D01*
X689990Y-20978D02*
Y-15787D01*
Y-20978D02*
X690260Y-21248D01*
X703834D01*
X746682Y36442D02*
X746750Y36373D01*
Y4660D02*
Y36373D01*
X675101Y677633D02*
X675367Y677368D01*
X666074Y677633D02*
X675101D01*
X665725Y677283D02*
X666074Y677633D01*
X29210Y339940D02*
X35553D01*
X35582Y339969D01*
X100555D01*
X101600Y338924D01*
X101747Y329742D02*
Y338777D01*
X573786Y28801D02*
X576063Y26525D01*
X573786Y28801D02*
Y75780D01*
X353954Y3644D02*
X360626D01*
X352220D02*
X353954D01*
X352220Y5378D02*
X353954Y3644D01*
X336550D02*
X350486D01*
X352220Y5378D01*
X153000Y-20232D02*
X172825D01*
X14224Y62826D02*
X40894D01*
X11430Y60032D02*
X14224Y62826D01*
X131572Y-20232D02*
X172825D01*
X174095Y-18962D01*
X114808Y705138D02*
X116308Y703638D01*
X124648Y696048D02*
X139700D01*
X114808Y705138D02*
Y705888D01*
X116308Y703638D02*
X117058D01*
X124648Y696048D01*
D71*
X292186Y622728D02*
X293538D01*
X286766Y623494D02*
X292348D01*
X292661D02*
X296762Y627594D01*
X290490Y622728D02*
X291338Y621880D01*
X292661Y623494D02*
Y641296D01*
X292348Y623494D02*
X292661D01*
X286766D02*
Y639064D01*
X292186Y622728D02*
X292348Y622890D01*
X291338Y621880D02*
X292186Y622728D01*
X290490D02*
X292186D01*
X282429D02*
X290490D01*
X282046Y623111D02*
X282429Y622728D01*
X292348Y623494D02*
Y623806D01*
Y622890D02*
Y623494D01*
X286766Y639064D02*
X290830Y643128D01*
X806172Y208477D02*
X814723D01*
X806164Y208485D02*
X806172Y208477D01*
X786871Y208485D02*
X806164D01*
X276012Y454576D02*
X289760D01*
X275512Y454076D02*
X276012Y454576D01*
X282429Y623494D02*
X286766D01*
X290830Y643128D02*
X296182D01*
X283472D02*
X290830D01*
X292661Y641296D01*
X296182Y643128D02*
X296565Y642745D01*
Y634791D02*
X296762Y634594D01*
Y627594D02*
Y634594D01*
X296565Y634791D02*
Y642745D01*
X282429Y624937D02*
X283090Y625597D01*
Y642745D01*
X282429Y623494D02*
Y624937D01*
X283090Y642745D02*
X283472Y643128D01*
X282046Y623111D02*
X282429Y623494D01*
X731837Y245334D02*
X733752Y243420D01*
X747522D01*
D72*
X64588Y642443D02*
X65139Y641892D01*
X64588Y643573D02*
X73375Y652360D01*
X64588Y642443D02*
Y643573D01*
X73375Y652360D02*
X102870D01*
X65139Y629379D02*
Y641892D01*
X112717Y601755D02*
Y612423D01*
X108907Y597945D02*
X112717Y601755D01*
X113030Y612736D02*
Y642200D01*
X102870Y652360D02*
X113030Y642200D01*
D73*
X216994Y717638D02*
X225670Y726314D01*
Y743918D01*
X205994Y706638D02*
X216994Y717638D01*
X219655Y819311D02*
X221998Y821654D01*
X236508D02*
X236591Y821738D01*
X219655Y795555D02*
Y819311D01*
X221998Y821654D02*
X236508D01*
X219500Y795400D02*
X219655Y795555D01*
X205994Y705888D02*
Y706638D01*
D74*
X573532Y610994D02*
X574177Y610349D01*
X587895D02*
X589026Y609218D01*
X574177Y610349D02*
X587895D01*
X589026Y600290D02*
Y609218D01*
X595884Y600036D02*
Y611006D01*
D75*
X267208Y668237D02*
X271909Y672938D01*
D76*
X689215Y822973D02*
D03*
D77*
X821922Y806625D02*
D03*
D78*
X19534Y312971D02*
D03*
D79*
X-9939Y238594D02*
D03*
D80*
X-17653Y734783D02*
D03*
D81*
X6035Y17255D02*
D03*
D82*
X18034Y222338D02*
D03*
D83*
X-9684Y540543D02*
D03*
D84*
X312547Y337019D02*
D03*
D85*
X671195Y677633D02*
D03*
D86*
X569976Y590257D02*
D03*
D87*
X524764Y334098D02*
D03*
D88*
X375000Y261250D02*
D03*
D89*
X751459Y468972D02*
D03*
D90*
X359625Y683197D02*
D03*
D91*
X702625Y795122D02*
D03*
D92*
X0Y820000D02*
D03*
Y0D02*
D03*
X820000Y820000D02*
D03*
Y0D02*
D03*
D93*
X727500Y795400D02*
D03*
Y770000D02*
D03*
X702100Y795400D02*
D03*
Y770000D02*
D03*
X676700Y795400D02*
D03*
Y770000D02*
D03*
X651300Y795400D02*
D03*
Y770000D02*
D03*
X625900Y795400D02*
D03*
Y770000D02*
D03*
X600500Y795400D02*
D03*
Y770000D02*
D03*
X575100Y795400D02*
D03*
Y770000D02*
D03*
X549700Y795400D02*
D03*
Y770000D02*
D03*
X524300Y795400D02*
D03*
Y770000D02*
D03*
X498900Y795400D02*
D03*
Y770000D02*
D03*
X473500Y795400D02*
D03*
Y770000D02*
D03*
X448100Y795400D02*
D03*
Y770000D02*
D03*
X422700Y795400D02*
D03*
Y770000D02*
D03*
X397300Y795400D02*
D03*
Y770000D02*
D03*
X371900Y795400D02*
D03*
Y770000D02*
D03*
X346500Y795400D02*
D03*
Y770000D02*
D03*
X321100Y795400D02*
D03*
Y770000D02*
D03*
X295700Y795400D02*
D03*
Y770000D02*
D03*
X270300Y795400D02*
D03*
Y770000D02*
D03*
X244900Y795400D02*
D03*
Y770000D02*
D03*
X219500Y795400D02*
D03*
Y770000D02*
D03*
X194100Y795400D02*
D03*
Y770000D02*
D03*
X168700Y795400D02*
D03*
Y770000D02*
D03*
X143300Y795400D02*
D03*
Y770000D02*
D03*
X117900Y795400D02*
D03*
Y770000D02*
D03*
X92500Y795400D02*
D03*
D94*
Y770000D02*
D03*
D95*
X40894Y215226D02*
D03*
D96*
Y189826D02*
D03*
Y139026D02*
D03*
Y113626D02*
D03*
Y88226D02*
D03*
Y62826D02*
D03*
Y164426D02*
D03*
D97*
X443459Y52400D02*
D03*
X317759Y35606D02*
D03*
X343028Y104197D02*
D03*
X456008Y271537D02*
D03*
X430229Y255586D02*
D03*
X452422Y286182D02*
D03*
X415529Y285677D02*
D03*
X360172Y30988D02*
D03*
X663187Y52972D02*
D03*
X480431Y684344D02*
D03*
X771479Y15996D02*
D03*
X639189Y81636D02*
D03*
X638022Y89015D02*
D03*
X635794Y47378D02*
D03*
X688457Y57610D02*
D03*
X701200Y32003D02*
D03*
X664976Y151346D02*
D03*
X730160Y136429D02*
D03*
X698500Y163156D02*
D03*
X655246Y130151D02*
D03*
X738632Y60286D02*
D03*
X688186Y628066D02*
D03*
X702190Y633619D02*
D03*
X562312Y608313D02*
D03*
X612095Y640679D02*
D03*
X697401Y648494D02*
D03*
X709609Y640514D02*
D03*
X612980Y651843D02*
D03*
X612866Y660332D02*
D03*
X692903Y656672D02*
D03*
X220274Y382858D02*
D03*
X230002Y381456D02*
D03*
X231154Y372285D02*
D03*
X221488Y368642D02*
D03*
X223607Y376243D02*
D03*
X658518Y25943D02*
D03*
X652422Y16037D02*
D03*
X648612Y30515D02*
D03*
X642770Y22133D02*
D03*
X633078Y26283D02*
D03*
X636381Y34411D02*
D03*
X-31992Y652534D02*
D03*
X-32090Y663958D02*
D03*
Y676068D02*
D03*
Y640336D02*
D03*
Y625350D02*
D03*
Y614092D02*
D03*
X461214Y362062D02*
D03*
X244284Y447131D02*
D03*
X155194Y319366D02*
D03*
X166116Y319620D02*
D03*
X177038Y320890D02*
D03*
Y328002D02*
D03*
X155194Y327494D02*
D03*
X350598Y745002D02*
D03*
X225670Y743918D02*
D03*
X194122Y729388D02*
D03*
X423567Y70922D02*
D03*
X772037Y211670D02*
D03*
X814723Y208477D02*
D03*
X806172D02*
D03*
X490291Y66729D02*
D03*
X477068Y68730D02*
D03*
X467323D02*
D03*
X453633D02*
D03*
X363508Y74047D02*
D03*
X489767Y246678D02*
D03*
X804805Y633662D02*
D03*
X804617Y655905D02*
D03*
X804369Y679141D02*
D03*
X502998Y376594D02*
D03*
X803547Y610887D02*
D03*
X725814Y577820D02*
D03*
Y587200D02*
D03*
Y595582D02*
D03*
X477850Y513181D02*
D03*
X477305Y490348D02*
D03*
X470806Y501022D02*
D03*
X479725Y244609D02*
D03*
X566896Y268090D02*
D03*
X554990Y713828D02*
D03*
X392127Y618172D02*
D03*
X408817Y623470D02*
D03*
X301752Y35394D02*
D03*
X534999Y583311D02*
D03*
X486704Y611172D02*
D03*
X515050Y623018D02*
D03*
X463363Y576648D02*
D03*
X500800Y678864D02*
D03*
X376989Y611519D02*
D03*
X358394Y509358D02*
D03*
X445576Y636487D02*
D03*
X460145Y645304D02*
D03*
X418232Y603392D02*
D03*
X426289Y677491D02*
D03*
X211718Y68278D02*
D03*
X264414Y68668D02*
D03*
X386546Y66678D02*
D03*
X414937Y14587D02*
D03*
X382016Y1104D02*
D03*
X600760Y138966D02*
D03*
X381247Y342486D02*
D03*
X210546Y336527D02*
D03*
D98*
X412921Y111082D02*
D03*
X444543Y239347D02*
D03*
X434263Y204657D02*
D03*
X726643Y432956D02*
D03*
X636449Y202508D02*
D03*
X635508Y193493D02*
D03*
X635762Y184095D02*
D03*
Y175205D02*
D03*
X593227Y427392D02*
D03*
X605301Y426633D02*
D03*
X532248Y742881D02*
D03*
X558118Y741723D02*
D03*
X746682Y36442D02*
D03*
X675367Y677368D02*
D03*
X665725Y677283D02*
D03*
X606014Y596208D02*
D03*
X597305Y591694D02*
D03*
X577968Y629303D02*
D03*
X645922Y666838D02*
D03*
X560155Y663642D02*
D03*
X647226Y656983D02*
D03*
X639431Y684485D02*
D03*
X571754Y657186D02*
D03*
X215646Y376008D02*
D03*
X101747Y329742D02*
D03*
X367633Y698486D02*
D03*
X367125Y689088D02*
D03*
X371972Y265918D02*
D03*
X371774Y255501D02*
D03*
X702939Y820463D02*
D03*
X703019Y831677D02*
D03*
X688447Y820438D02*
D03*
X672154Y820600D02*
D03*
X671993Y831300D02*
D03*
X688608Y831838D02*
D03*
X191841Y721461D02*
D03*
X182697Y725525D02*
D03*
X172537Y726287D02*
D03*
X172283Y716889D02*
D03*
X248631Y-27130D02*
D03*
X201099Y-26405D02*
D03*
X179653Y-29826D02*
D03*
X281930Y179477D02*
D03*
X2480Y744972D02*
D03*
X2814Y736413D02*
D03*
X1830Y726870D02*
D03*
X-8893Y744972D02*
D03*
X-8697Y735331D02*
D03*
X-9189Y726378D02*
D03*
X576063Y26525D02*
D03*
X408826Y571281D02*
D03*
X276657Y433816D02*
D03*
X71722Y222033D02*
D03*
X125984Y426046D02*
D03*
X44450Y271300D02*
D03*
X677844Y179915D02*
D03*
X677668Y190816D02*
D03*
X677493Y203914D02*
D03*
X253733Y667239D02*
D03*
X274000Y734622D02*
D03*
X278215Y721176D02*
D03*
X279419Y662144D02*
D03*
X618871Y259803D02*
D03*
X629031Y260565D02*
D03*
X629285Y270217D02*
D03*
X618871D02*
D03*
X608330Y270090D02*
D03*
X587698Y224325D02*
D03*
X631898Y240307D02*
D03*
X622625Y239563D02*
D03*
X632070Y231836D02*
D03*
X631898Y223536D02*
D03*
X792250Y137100D02*
D03*
X792524Y145961D02*
D03*
X792433Y154366D02*
D03*
X800566Y235960D02*
D03*
X810006Y236063D02*
D03*
X269494Y718908D02*
D03*
X237490Y707986D02*
D03*
X215646Y685126D02*
D03*
X217424Y694270D02*
D03*
X208287Y690835D02*
D03*
X303727Y673759D02*
D03*
X285242Y675139D02*
D03*
X309478Y748760D02*
D03*
X317271Y748677D02*
D03*
X193548Y643470D02*
D03*
X209670Y743412D02*
D03*
X171900Y707221D02*
D03*
X223070Y657370D02*
D03*
X117348Y744308D02*
D03*
X292726Y505415D02*
D03*
X462592Y554062D02*
D03*
X204362Y616800D02*
D03*
X215495Y607967D02*
D03*
X213868Y571842D02*
D03*
X502668Y388753D02*
D03*
X532953Y526188D02*
D03*
X489493Y516829D02*
D03*
X441990Y513559D02*
D03*
X425827Y500468D02*
D03*
X835584Y767422D02*
D03*
Y785454D02*
D03*
X820763Y785672D02*
D03*
Y767422D02*
D03*
X805942Y785672D02*
D03*
Y767422D02*
D03*
X518801Y333585D02*
D03*
X536929Y225228D02*
D03*
X569963Y673150D02*
D03*
X576392Y685451D02*
D03*
X434045Y189117D02*
D03*
X456249Y256290D02*
D03*
X382606Y215339D02*
D03*
X183931Y55699D02*
D03*
X170469Y44777D02*
D03*
X173929Y52805D02*
D03*
X227984Y33601D02*
D03*
X247984D02*
D03*
X237984D02*
D03*
X182211Y46082D02*
D03*
X545445Y606378D02*
D03*
X553067Y626187D02*
D03*
X544954Y616279D02*
D03*
X338133Y470404D02*
D03*
X406356Y601590D02*
D03*
X792480Y519264D02*
D03*
X551715Y189468D02*
D03*
X436143Y95344D02*
D03*
X285242Y667346D02*
D03*
X82042Y677506D02*
D03*
X278466Y-9764D02*
D03*
X589207Y324294D02*
D03*
X503847Y367715D02*
D03*
X275512Y454076D02*
D03*
X18034Y532726D02*
D03*
X-2672Y542518D02*
D03*
X7284Y542476D02*
D03*
X-2672Y532612D02*
D03*
X7284Y532476D02*
D03*
X18034Y542726D02*
D03*
X118110Y466686D02*
D03*
X5842Y402424D02*
D03*
X69088Y157060D02*
D03*
X101600Y338924D02*
D03*
X336296Y10502D02*
D03*
X319786Y10248D02*
D03*
X102362Y47332D02*
D03*
X216916Y432650D02*
D03*
X258750Y431750D02*
D03*
X-12954Y132168D02*
D03*
X125222Y566254D02*
D03*
X43688Y544410D02*
D03*
X166370Y328002D02*
D03*
X292500Y433750D02*
D03*
X16250Y522000D02*
D03*
X5500Y521750D02*
D03*
X-4456Y521886D02*
D03*
X584454Y180428D02*
D03*
X399796Y-11850D02*
D03*
X399034Y596D02*
D03*
X224342Y216434D02*
D03*
X221488Y168998D02*
D03*
X114808Y-17946D02*
D03*
X237490Y90004D02*
D03*
X132437Y137233D02*
D03*
X140462Y154012D02*
D03*
X356870Y236308D02*
D03*
X349758Y268820D02*
D03*
X140208Y224370D02*
D03*
X142748Y76542D02*
D03*
X178054Y108800D02*
D03*
X209042Y109054D02*
D03*
X211346Y126277D02*
D03*
X130556Y-8802D02*
D03*
Y-20232D02*
D03*
Y-31916D02*
D03*
X236728Y-26582D02*
D03*
X220472D02*
D03*
X469392Y-9056D02*
D03*
X483616Y-8802D02*
D03*
X497332Y-8040D02*
D03*
X320548Y-1436D02*
D03*
X337058Y-1182D02*
D03*
X748538Y-21756D02*
D03*
X598932Y-22772D02*
D03*
X703834Y-21248D02*
D03*
X366776Y679284D02*
D03*
X240792Y698588D02*
D03*
X573786Y75780D02*
D03*
X723138Y173062D02*
D03*
X733044D02*
D03*
Y180936D02*
D03*
Y189064D02*
D03*
X696722Y477354D02*
D03*
X738020Y466686D02*
D03*
X765095Y466940D02*
D03*
X746506D02*
D03*
X755800D02*
D03*
X606298Y685634D02*
D03*
X653034Y689952D02*
D03*
X545292Y429693D02*
D03*
X278384Y511644D02*
D03*
X278130Y503008D02*
D03*
X278384Y519772D02*
D03*
X281686Y167474D02*
D03*
X282448Y144106D02*
D03*
X329946Y120484D02*
D03*
Y92290D02*
D03*
X367792Y145122D02*
D03*
X90678Y631786D02*
D03*
X90424Y621880D02*
D03*
X78994Y622134D02*
D03*
X333756Y132930D02*
D03*
X278887Y125310D02*
D03*
X270510Y329780D02*
D03*
X503174Y487768D02*
D03*
X456692Y471512D02*
D03*
X579120Y517232D02*
D03*
X357378Y352386D02*
D03*
X435102Y378548D02*
D03*
X319839Y181551D02*
D03*
X312928Y332320D02*
D03*
X165354Y629500D02*
D03*
X90424Y739990D02*
D03*
X105664Y740752D02*
D03*
X139700Y696048D02*
D03*
X65532Y708494D02*
D03*
X101346Y715860D02*
D03*
X263652Y371690D02*
D03*
X213868Y91528D02*
D03*
X601472Y403948D02*
D03*
X547370Y742022D02*
D03*
X500380Y103974D02*
D03*
X503750Y175250D02*
D03*
X480314Y137502D02*
D03*
X424750Y139026D02*
D03*
X398526Y352386D02*
D03*
X335534Y429348D02*
D03*
X171902Y642939D02*
D03*
X160020D02*
D03*
X165354Y620102D02*
D03*
X655951Y242903D02*
D03*
X333756Y499452D02*
D03*
X351704Y300062D02*
D03*
X279459Y91274D02*
D03*
X334010Y377024D02*
D03*
X497090Y458894D02*
D03*
X553435Y532344D02*
D03*
X503936Y438746D02*
D03*
X492506Y406742D02*
D03*
X418084Y514184D02*
D03*
X369062Y513168D02*
D03*
X390906Y514184D02*
D03*
X239268Y319874D02*
D03*
X793496Y467194D02*
D03*
X571500Y504786D02*
D03*
X316484Y297776D02*
D03*
X338582Y348068D02*
D03*
X308610Y269836D02*
D03*
X563372Y589622D02*
D03*
X538988Y658211D02*
D03*
X576580Y577176D02*
D03*
X365430Y396563D02*
D03*
X390999Y339593D02*
D03*
X416102Y341379D02*
D03*
X582930Y356450D02*
D03*
X747522Y243420D02*
D03*
X728218Y275932D02*
D03*
X733194Y304380D02*
D03*
X723900D02*
D03*
X748030Y134558D02*
D03*
Y153146D02*
D03*
Y143852D02*
D03*
X733044Y202018D02*
D03*
X722677Y514184D02*
D03*
X704088D02*
D03*
X713382D02*
D03*
X278638Y563714D02*
D03*
X662686Y298284D02*
D03*
X747776Y178396D02*
D03*
X415999Y127214D02*
D03*
X222504Y291934D02*
D03*
X373092Y553639D02*
D03*
X215138Y616800D02*
D03*
X739648Y-28868D02*
D03*
X729648D02*
D03*
X719648D02*
D03*
X739140Y-17184D02*
D03*
X729140D02*
D03*
X719140D02*
D03*
X723750Y387946D02*
D03*
X733044D02*
D03*
X714455D02*
D03*
X745000Y430000D02*
D03*
Y411411D02*
D03*
Y420706D02*
D03*
X705358Y421982D02*
D03*
X54852Y834664D02*
D03*
Y824664D02*
D03*
Y814664D02*
D03*
X42352Y834664D02*
D03*
Y814664D02*
D03*
Y824664D02*
D03*
X566154Y-16674D02*
D03*
X576154D02*
D03*
X586154D02*
D03*
X566662Y-28358D02*
D03*
X576662D02*
D03*
X586662D02*
D03*
X485140Y342480D02*
D03*
X477691D02*
D03*
X465328Y299554D02*
D03*
X447893Y342480D02*
D03*
X470241D02*
D03*
X462792D02*
D03*
X455343D02*
D03*
X458180Y398811D02*
D03*
X467831D02*
D03*
X476721D02*
D03*
X445770Y398360D02*
D03*
X436880D02*
D03*
X427228D02*
D03*
X351536Y471512D02*
D03*
X364744D02*
D03*
X373126D02*
D03*
X389128D02*
D03*
X423616D02*
D03*
X411734D02*
D03*
X374396Y386676D02*
D03*
Y416902D02*
D03*
Y405472D02*
D03*
Y397681D02*
D03*
Y444588D02*
D03*
Y430872D02*
D03*
X501650Y473036D02*
D03*
X387350Y698588D02*
D03*
X723000Y548000D02*
D03*
X669500Y-13750D02*
D03*
X669000Y-23750D02*
D03*
X654500Y-24500D02*
D03*
Y-13500D02*
D03*
X401000Y230750D02*
D03*
X387177Y292923D02*
D03*
X378022Y297978D02*
D03*
X-16000Y33108D02*
D03*
X2032D02*
D03*
X2250Y47929D02*
D03*
X-16000D02*
D03*
X2250Y62750D02*
D03*
X-16000D02*
D03*
X791718Y236816D02*
D03*
X333756Y202272D02*
D03*
X319532Y202526D02*
D03*
X223774Y133692D02*
D03*
X238506Y119976D02*
D03*
X297945Y289137D02*
D03*
X386842Y673442D02*
D03*
X567436Y282282D02*
D03*
X567182Y308444D02*
D03*
X267208Y667600D02*
D03*
X275952Y200602D02*
D03*
X696976Y520026D02*
D03*
X726440Y520788D02*
D03*
X790956Y-24296D02*
D03*
X531114Y-23026D02*
D03*
X530860Y-13374D02*
D03*
X790702Y-15152D02*
D03*
X658876Y560412D02*
D03*
X771906Y473798D02*
D03*
X456438Y441032D02*
D03*
X503428Y357212D02*
D03*
D99*
X9398Y252818D02*
D03*
X-1270D02*
D03*
X-13208Y253580D02*
D03*
X-24892Y254088D02*
D03*
X14500Y308500D02*
D03*
X14250Y320000D02*
D03*
X-8250Y308000D02*
D03*
X3250Y308500D02*
D03*
X3000Y319750D02*
D03*
X-8500Y320000D02*
D03*
D100*
X292348Y623806D02*
D03*
X64588Y642443D02*
D03*
X65139Y629379D02*
D03*
X108907Y597945D02*
D03*
X112717Y612423D02*
D03*
X282046Y623111D02*
D03*
X296182Y643128D02*
D03*
X283472D02*
D03*
M02*
