G04*
G04 #@! TF.GenerationSoftware,Altium Limited,Altium Designer,21.1.1 (26)*
G04*
G04 Layer_Color=0*
%FSLAX44Y44*%
%MOMM*%
G71*
G04*
G04 #@! TF.SameCoordinates,DA55104B-334F-46BF-AAC2-A5A3D9E97D21*
G04*
G04*
G04 #@! TF.FilePolarity,Positive*
G04*
G01*
G75*
%ADD11C,0.6000*%
%ADD157C,0.1000*%
D11*
X510000Y-35000D02*
Y-30000D01*
X509870Y-28890D02*
X510000Y-30000D01*
X509500Y-27830D02*
X509870Y-28890D01*
X508910Y-26880D02*
X509500Y-27830D01*
X508120Y-26090D02*
X508910Y-26880D01*
X507170Y-25500D02*
X508120Y-26090D01*
X506110Y-25130D02*
X507170Y-25500D01*
X505000Y-25000D02*
X506110Y-25130D01*
X315000Y-25000D02*
X505000D01*
X313890Y-25130D02*
X315000Y-25000D01*
X312830Y-25500D02*
X313890Y-25130D01*
X311880Y-26090D02*
X312830Y-25500D01*
X311090Y-26880D02*
X311880Y-26090D01*
X310500Y-27830D02*
X311090Y-26880D01*
X310130Y-28890D02*
X310500Y-27830D01*
X310000Y-30000D02*
X310130Y-28890D01*
X310000Y-35000D02*
Y-30000D01*
X309620Y-38340D02*
X310000Y-35000D01*
X308510Y-41510D02*
X309620Y-38340D01*
X306730Y-44350D02*
X308510Y-41510D01*
X304350Y-46730D02*
X306730Y-44350D01*
X301510Y-48510D02*
X304350Y-46730D01*
X298340Y-49620D02*
X301510Y-48510D01*
X295000Y-50000D02*
X298340Y-49620D01*
X-40000Y-50000D02*
X295000D01*
X-50000Y-40000D02*
X-40000Y-50000D01*
X-50000Y-40000D02*
Y295000D01*
X-49620Y298340D01*
X-48510Y301510D01*
X-46730Y304350D01*
X-44350Y306730D01*
X-41510Y308510D01*
X-38340Y309620D01*
X-35000Y310000D01*
X-30000D01*
X-28890Y310130D01*
X-27830Y310500D01*
X-26880Y311090D01*
X-26090Y311880D01*
X-25500Y312830D01*
X-25130Y313890D01*
X-25000Y315000D01*
Y505000D01*
X-25130Y506110D02*
X-25000Y505000D01*
X-25500Y507170D02*
X-25130Y506110D01*
X-26090Y508120D02*
X-25500Y507170D01*
X-26880Y508910D02*
X-26090Y508120D01*
X-27830Y509500D02*
X-26880Y508910D01*
X-28890Y509870D02*
X-27830Y509500D01*
X-30000Y510000D02*
X-28890Y509870D01*
X-35000Y510000D02*
X-30000D01*
X-38340Y510380D02*
X-35000Y510000D01*
X-41510Y511490D02*
X-38340Y510380D01*
X-44350Y513270D02*
X-41510Y511490D01*
X-46730Y515650D02*
X-44350Y513270D01*
X-48510Y518490D02*
X-46730Y515650D01*
X-49620Y521660D02*
X-48510Y518490D01*
X-50000Y525000D02*
X-49620Y521660D01*
X-50000Y525000D02*
Y860000D01*
X-40000Y870000D01*
X295000D01*
X298340Y869620D01*
X301510Y868510D01*
X304350Y866730D01*
X306730Y864350D01*
X308510Y861510D01*
X309620Y858340D01*
X310000Y855000D01*
Y850000D02*
Y855000D01*
Y850000D02*
X310130Y848890D01*
X310500Y847830D01*
X311090Y846880D01*
X311880Y846090D01*
X312830Y845500D01*
X313890Y845130D01*
X315000Y845000D01*
X505000D01*
X506110Y845130D01*
X507170Y845500D01*
X508120Y846090D01*
X508910Y846880D01*
X509500Y847830D01*
X509870Y848890D01*
X510000Y850000D01*
Y855000D01*
X510380Y858340D01*
X511490Y861510D01*
X513270Y864350D01*
X515650Y866730D01*
X518490Y868510D01*
X521660Y869620D01*
X525000Y870000D01*
X860000D01*
X870000Y860000D01*
Y525000D02*
Y860000D01*
X869620Y521660D02*
X870000Y525000D01*
X868510Y518490D02*
X869620Y521660D01*
X866730Y515650D02*
X868510Y518490D01*
X864350Y513270D02*
X866730Y515650D01*
X861510Y511490D02*
X864350Y513270D01*
X858340Y510380D02*
X861510Y511490D01*
X855000Y510000D02*
X858340Y510380D01*
X850000Y510000D02*
X855000D01*
X848890Y509870D02*
X850000Y510000D01*
X847830Y509500D02*
X848890Y509870D01*
X846880Y508910D02*
X847830Y509500D01*
X846090Y508120D02*
X846880Y508910D01*
X845500Y507170D02*
X846090Y508120D01*
X845130Y506110D02*
X845500Y507170D01*
X845000Y505000D02*
X845130Y506110D01*
X845000Y315000D02*
Y505000D01*
Y315000D02*
X845130Y313890D01*
X845500Y312830D01*
X846090Y311880D01*
X846880Y311090D01*
X847830Y310500D01*
X848890Y310130D01*
X850000Y310000D01*
X855000D01*
X858340Y309620D01*
X861510Y308510D01*
X864350Y306730D01*
X866730Y304350D01*
X868510Y301510D01*
X869620Y298340D01*
X870000Y295000D01*
Y-40000D02*
Y295000D01*
X860000Y-50000D02*
X870000Y-40000D01*
X525000Y-50000D02*
X860000D01*
X521660Y-49620D02*
X525000Y-50000D01*
X518490Y-48510D02*
X521660Y-49620D01*
X515650Y-46730D02*
X518490Y-48510D01*
X513270Y-44350D02*
X515650Y-46730D01*
X511490Y-41510D02*
X513270Y-44350D01*
X510380Y-38340D02*
X511490Y-41510D01*
X510000Y-35000D02*
X510380Y-38340D01*
D157*
X703326Y47641D02*
Y57641D01*
X698326Y52641D02*
X708326D01*
X766400Y34886D02*
X776400D01*
X771400Y29886D02*
Y39886D01*
X805275Y41166D02*
Y51166D01*
X800275Y46166D02*
X810275D01*
X651464Y66911D02*
X658536Y73981D01*
X651464D02*
X658536Y66911D01*
X661745Y221649D02*
Y231649D01*
X656745Y226649D02*
X666745D01*
X70612Y390058D02*
Y400058D01*
X65612Y395058D02*
X75612D01*
X597249Y298731D02*
Y308731D01*
X592249Y303731D02*
X602249D01*
X567436Y433238D02*
Y443238D01*
X562436Y438238D02*
X572436D01*
X387684Y568291D02*
X397684D01*
X392684Y563291D02*
Y573291D01*
X286084Y470242D02*
X296084D01*
X291084Y465242D02*
Y475242D01*
X469240Y317663D02*
Y327663D01*
X464240Y322663D02*
X474240D01*
X523748Y359065D02*
Y369065D01*
X518748Y364065D02*
X528748D01*
X449924Y529902D02*
Y539902D01*
X444924Y534902D02*
X454924D01*
X299466Y192192D02*
Y202192D01*
X294466Y197192D02*
X304466D01*
X305255Y115230D02*
Y125230D01*
X300255Y120230D02*
X310255D01*
X387938Y126580D02*
X397938D01*
X392938Y121580D02*
Y131580D01*
X445342Y130395D02*
X455342D01*
X450342Y125395D02*
Y135395D01*
X243661Y135978D02*
X253661D01*
X248661Y130978D02*
Y140978D01*
X737616Y250358D02*
Y260358D01*
X732616Y255358D02*
X742616D01*
X708989Y409028D02*
X718989D01*
X713989Y404028D02*
Y414028D01*
X305308Y160696D02*
Y170696D01*
X300308Y165696D02*
X310308D01*
X300255Y91274D02*
X310255D01*
X305255Y86274D02*
Y96274D01*
X414608Y198721D02*
X424608D01*
X419608Y193721D02*
Y203721D01*
X410793Y154266D02*
X420793D01*
X415793Y149266D02*
Y159266D01*
X414523Y91862D02*
Y101862D01*
X409523Y96862D02*
X419523D01*
X413875Y66651D02*
X423875D01*
X418875Y61651D02*
Y71651D01*
X562436Y340194D02*
X572436D01*
X567436Y335194D02*
Y345194D01*
X77724Y6655D02*
Y16655D01*
X72724Y11655D02*
X82724D01*
X103632Y6264D02*
Y16264D01*
X98632Y11264D02*
X108632D01*
X535004Y282028D02*
X545004D01*
X540004Y277028D02*
Y287028D01*
X478028Y106731D02*
Y116731D01*
X473028Y111731D02*
X483028D01*
X252476Y307508D02*
Y317508D01*
X247476Y312508D02*
X257476D01*
X437642Y259414D02*
Y269414D01*
X432642Y264414D02*
X442642D01*
X93552Y146392D02*
X103552D01*
X98552Y141392D02*
Y151392D01*
X93806Y99148D02*
X103806D01*
X98806Y94148D02*
Y104148D01*
X257860Y172289D02*
Y182289D01*
X252860Y177289D02*
X262860D01*
X224597Y191231D02*
Y201231D01*
X219597Y196231D02*
X229596D01*
X223854Y152996D02*
X233854D01*
X228854Y147996D02*
Y157996D01*
X124206Y692064D02*
Y702064D01*
X119206Y697064D02*
X129206D01*
X81788Y692064D02*
Y702064D01*
X76788Y697064D02*
X86788D01*
X238840Y658200D02*
X248840D01*
X243840Y653200D02*
Y663200D01*
X459175Y733386D02*
X469175D01*
X464175Y728386D02*
Y738386D01*
X297006Y563206D02*
X307006D01*
X302006Y558206D02*
Y568206D01*
X587533Y726556D02*
Y736556D01*
X582533Y731556D02*
X592533D01*
X538988Y672252D02*
Y682252D01*
X533988Y677252D02*
X543988D01*
X538734Y630967D02*
Y640967D01*
X533734Y635967D02*
X543734D01*
X793496Y485816D02*
Y495816D01*
X788496Y490816D02*
X798496D01*
X811276Y540797D02*
Y550797D01*
X806276Y545797D02*
X816276D01*
X714142Y219101D02*
Y229101D01*
X709142Y224101D02*
X719142D01*
X689017Y218862D02*
Y228862D01*
X684017Y223862D02*
X694017D01*
X93806Y123024D02*
X103806D01*
X98806Y118024D02*
Y128024D01*
X534613Y307936D02*
X544613D01*
X539613Y302936D02*
Y312936D01*
X93552Y169760D02*
X103552D01*
X98552Y164760D02*
Y174760D01*
X223070Y329090D02*
Y339090D01*
X218070Y334090D02*
X228070D01*
X564852Y700692D02*
Y710692D01*
X559852Y705692D02*
X569852D01*
X520215Y66970D02*
Y76970D01*
X515215Y71970D02*
X525215D01*
X403352Y61890D02*
Y71890D01*
X398352Y66890D02*
X408352D01*
X466714Y232752D02*
X476714D01*
X471714Y227752D02*
Y237752D01*
X508920Y300142D02*
Y310142D01*
X503920Y305142D02*
X513920D01*
X761746Y221170D02*
Y231170D01*
X756746Y226170D02*
X766746D01*
X786871Y211496D02*
Y221496D01*
X781871Y216496D02*
X791871D01*
X561531Y426808D02*
X571531D01*
X566531Y421808D02*
Y431808D01*
X352886Y432650D02*
X362886D01*
X357886Y427650D02*
Y437650D01*
X347187Y382612D02*
X357187D01*
X352187Y377612D02*
Y387612D01*
X413766Y486943D02*
Y496943D01*
X408766Y491943D02*
X418766D01*
X413258Y385232D02*
Y395232D01*
X408258Y390232D02*
X418258D01*
X556086Y356450D02*
X566086D01*
X561086Y351450D02*
Y361450D01*
X558626Y405218D02*
X568626D01*
X563626Y400218D02*
Y410218D01*
X557467Y492086D02*
X567467D01*
X562467Y487086D02*
Y497086D01*
X345774Y456780D02*
X355774D01*
X350774Y451780D02*
Y461780D01*
X468202Y292188D02*
X478202D01*
X473202Y287188D02*
Y297188D01*
X423498Y302094D02*
X433498D01*
X428498Y297094D02*
Y307094D01*
X362458Y289109D02*
Y299109D01*
X357458Y294109D02*
X367458D01*
X299546Y323684D02*
X309546D01*
X304546Y318684D02*
Y328684D01*
X281432Y334829D02*
Y344829D01*
X276432Y339829D02*
X286432D01*
X368808Y486943D02*
Y496943D01*
X363808Y491943D02*
X373808D01*
X344424Y486943D02*
Y496943D01*
X339424Y491943D02*
X349424D01*
X391160Y486943D02*
Y496943D01*
X386160Y491943D02*
X396160D01*
X436118Y486832D02*
Y496832D01*
X431118Y491832D02*
X441118D01*
X457962Y486578D02*
Y496578D01*
X452962Y491578D02*
X462962D01*
X479378Y425284D02*
X489378D01*
X484378Y420284D02*
Y430284D01*
X347187Y406742D02*
X357187D01*
X352187Y401742D02*
Y411742D01*
X340106Y662619D02*
Y672619D01*
X335106Y667619D02*
X345106D01*
X240475Y683094D02*
X250475D01*
X245475Y678094D02*
Y688094D01*
X670814Y690540D02*
Y700540D01*
X665814Y695540D02*
X675814D01*
X391922Y633136D02*
Y643136D01*
X386922Y638136D02*
X396922D01*
M02*
